<?xml version="1.0" encoding="UTF-8"?>
<svg xmlns="http://www.w3.org/2000/svg" xmlns:xlink="http://www.w3.org/1999/xlink" width="443.452884pt" height="286.613037pt" viewBox="0 0 443.452884 286.613037">
<defs>
<clipPath id="clip-0">
<path clip-rule="nonzero" d="M 130 217 L 283 217 L 283 286.613281 L 130 286.613281 Z M 130 217 "/>
</clipPath>
</defs>
<path fill-rule="evenodd" fill="rgb(0%, 0%, 0%)" fill-opacity="1" stroke-width="1.41732" stroke-linecap="square" stroke-linejoin="miter" stroke="rgb(0%, 0%, 0%)" stroke-opacity="1" stroke-miterlimit="4" d="M 42.027344 173.40625 L 42.027344 150.90625 L 34.527344 139.65625 L 49.527344 139.65625 L 42.027344 150.90625 "/>
<path fill-rule="nonzero" fill="rgb(0%, 0%, 0%)" fill-opacity="1" d="M 10.613281 183.984375 L 10.304688 180.292969 L 0.308594 180.292969 L 0 183.984375 L 0.410156 183.984375 C 0.640625 181.34375 0.871094 180.804688 3.359375 180.804688 C 3.640625 180.804688 4.078125 180.804688 4.230469 180.832031 C 4.589844 180.90625 4.589844 181.085938 4.589844 181.445312 L 4.589844 190.085938 C 4.589844 190.625 4.589844 190.855469 2.871094 190.855469 L 2.203125 190.855469 L 2.203125 191.367188 C 2.871094 191.316406 4.539062 191.316406 5.308594 191.316406 C 6.050781 191.316406 7.742188 191.316406 8.410156 191.367188 L 8.410156 190.855469 L 7.742188 190.855469 C 6.023438 190.855469 6.023438 190.625 6.023438 190.085938 L 6.023438 181.445312 C 6.023438 181.140625 6.023438 180.90625 6.332031 180.832031 C 6.511719 180.804688 6.949219 180.804688 7.253906 180.804688 C 9.742188 180.804688 9.972656 181.34375 10.203125 183.984375 Z M 10.613281 183.984375 "/>
<path fill-rule="nonzero" fill="rgb(0%, 0%, 0%)" fill-opacity="1" d="M 15.804688 185.136719 C 15.804688 184.625 15.292969 184.136719 14.597656 184.136719 C 13.394531 184.136719 12.804688 185.242188 12.597656 185.933594 L 12.597656 184.136719 L 10.316406 184.316406 L 10.316406 184.832031 C 11.472656 184.832031 11.597656 184.933594 11.597656 185.753906 L 11.597656 190.136719 C 11.597656 190.855469 11.417969 190.855469 10.316406 190.855469 L 10.316406 191.367188 L 12.1875 191.316406 C 12.828125 191.316406 13.597656 191.316406 14.265625 191.367188 L 14.265625 190.855469 L 13.90625 190.855469 C 12.703125 190.855469 12.675781 190.675781 12.675781 190.085938 L 12.675781 187.574219 C 12.675781 185.957031 13.367188 184.496094 14.597656 184.496094 C 14.703125 184.496094 14.753906 184.496094 14.777344 184.523438 C 14.726562 184.523438 14.394531 184.726562 14.394531 185.164062 C 14.394531 185.601562 14.753906 185.855469 15.113281 185.855469 C 15.394531 185.855469 15.804688 185.652344 15.804688 185.136719 Z M 15.804688 185.136719 "/>
<path fill-rule="nonzero" fill="rgb(0%, 0%, 0%)" fill-opacity="1" d="M 24.160156 189.90625 L 24.160156 188.984375 L 23.75 188.984375 L 23.75 189.90625 C 23.75 190.855469 23.339844 190.957031 23.160156 190.957031 C 22.621094 190.957031 22.570312 190.214844 22.570312 190.136719 L 22.570312 186.882812 C 22.570312 186.1875 22.570312 185.546875 21.980469 184.933594 C 21.339844 184.292969 20.519531 184.035156 19.726562 184.035156 C 18.390625 184.035156 17.261719 184.804688 17.261719 185.882812 C 17.261719 186.367188 17.597656 186.652344 18.007812 186.652344 C 18.46875 186.652344 18.777344 186.316406 18.777344 185.90625 C 18.777344 185.703125 18.671875 185.164062 17.929688 185.164062 C 18.367188 184.574219 19.1875 184.394531 19.699219 184.394531 C 20.492188 184.394531 21.441406 185.035156 21.441406 186.496094 L 21.441406 187.085938 C 20.597656 187.136719 19.441406 187.1875 18.417969 187.675781 C 17.1875 188.242188 16.777344 189.085938 16.777344 189.804688 C 16.777344 191.136719 18.367188 191.546875 19.390625 191.546875 C 20.492188 191.546875 21.238281 190.882812 21.546875 190.136719 C 21.621094 190.777344 22.058594 191.472656 22.828125 191.472656 C 23.160156 191.472656 24.160156 191.238281 24.160156 189.90625 Z M 21.441406 189.085938 C 21.441406 190.625 20.261719 191.1875 19.519531 191.1875 C 18.726562 191.1875 18.058594 190.625 18.058594 189.804688 C 18.058594 188.90625 18.726562 187.546875 21.441406 187.445312 Z M 21.441406 189.085938 "/>
<path fill-rule="nonzero" fill="rgb(0%, 0%, 0%)" fill-opacity="1" d="M 33.179688 191.367188 L 33.179688 190.855469 C 32.335938 190.855469 31.925781 190.855469 31.925781 190.367188 L 31.925781 187.242188 C 31.925781 185.832031 31.925781 185.34375 31.410156 184.753906 C 31.179688 184.472656 30.644531 184.136719 29.695312 184.136719 C 28.488281 184.136719 27.71875 184.832031 27.257812 185.855469 L 27.257812 184.136719 L 24.949219 184.316406 L 24.949219 184.832031 C 26.105469 184.832031 26.234375 184.933594 26.234375 185.753906 L 26.234375 190.136719 C 26.234375 190.855469 26.054688 190.855469 24.949219 190.855469 L 24.949219 191.367188 L 26.824219 191.316406 L 28.644531 191.367188 L 28.644531 190.855469 C 27.539062 190.855469 27.359375 190.855469 27.359375 190.136719 L 27.359375 187.113281 C 27.359375 185.421875 28.539062 184.496094 29.566406 184.496094 C 30.617188 184.496094 30.796875 185.367188 30.796875 186.316406 L 30.796875 190.136719 C 30.796875 190.855469 30.617188 190.855469 29.515625 190.855469 L 29.515625 191.367188 L 31.359375 191.316406 Z M 33.179688 191.367188 "/>
<path fill-rule="nonzero" fill="rgb(0%, 0%, 0%)" fill-opacity="1" d="M 39.421875 189.265625 C 39.421875 188.421875 38.9375 187.90625 38.730469 187.726562 C 38.191406 187.1875 37.550781 187.0625 36.859375 186.933594 C 35.9375 186.753906 34.859375 186.546875 34.859375 185.601562 C 34.859375 185.011719 35.269531 184.34375 36.679688 184.34375 C 38.476562 184.34375 38.578125 185.832031 38.601562 186.316406 C 38.601562 186.472656 38.78125 186.472656 38.78125 186.472656 C 39.011719 186.472656 39.011719 186.394531 39.011719 186.085938 L 39.011719 184.421875 C 39.011719 184.164062 39.011719 184.035156 38.835938 184.035156 C 38.757812 184.035156 38.707031 184.035156 38.5 184.242188 C 38.449219 184.292969 38.296875 184.445312 38.21875 184.496094 C 37.601562 184.035156 36.9375 184.035156 36.679688 184.035156 C 34.679688 184.035156 34.066406 185.136719 34.066406 186.0625 C 34.066406 186.625 34.320312 187.085938 34.757812 187.445312 C 35.296875 187.855469 35.757812 187.957031 36.9375 188.1875 C 37.296875 188.265625 38.628906 188.523438 38.628906 189.703125 C 38.628906 190.523438 38.066406 191.1875 36.78125 191.1875 C 35.398438 191.1875 34.808594 190.265625 34.5 188.855469 C 34.449219 188.652344 34.449219 188.597656 34.269531 188.597656 C 34.066406 188.597656 34.066406 188.703125 34.066406 188.984375 L 34.066406 191.164062 C 34.066406 191.445312 34.066406 191.546875 34.246094 191.546875 C 34.320312 191.546875 34.347656 191.523438 34.65625 191.214844 C 34.679688 191.1875 34.679688 191.164062 34.988281 190.855469 C 35.707031 191.523438 36.449219 191.546875 36.78125 191.546875 C 38.65625 191.546875 39.421875 190.445312 39.421875 189.265625 Z M 39.421875 189.265625 "/>
<path fill-rule="nonzero" fill="rgb(0%, 0%, 0%)" fill-opacity="1" d="M 53.273438 191.367188 L 53.273438 190.855469 C 52.425781 190.855469 52.015625 190.855469 51.992188 190.367188 L 51.992188 187.242188 C 51.992188 185.832031 51.992188 185.34375 51.480469 184.753906 C 51.25 184.472656 50.710938 184.136719 49.761719 184.136719 C 48.402344 184.136719 47.660156 185.113281 47.402344 185.753906 C 47.171875 184.316406 45.964844 184.136719 45.222656 184.136719 C 44.019531 184.136719 43.25 184.832031 42.789062 185.855469 L 42.789062 184.136719 L 40.480469 184.316406 L 40.480469 184.832031 C 41.632812 184.832031 41.761719 184.933594 41.761719 185.753906 L 41.761719 190.136719 C 41.761719 190.855469 41.582031 190.855469 40.480469 190.855469 L 40.480469 191.367188 L 42.351562 191.316406 L 44.171875 191.367188 L 44.171875 190.855469 C 43.070312 190.855469 42.890625 190.855469 42.890625 190.136719 L 42.890625 187.113281 C 42.890625 185.421875 44.070312 184.496094 45.09375 184.496094 C 46.144531 184.496094 46.324219 185.367188 46.324219 186.316406 L 46.324219 190.136719 C 46.324219 190.855469 46.144531 190.855469 45.042969 190.855469 L 45.042969 191.367188 L 46.890625 191.316406 L 48.710938 191.367188 L 48.710938 190.855469 C 47.632812 190.855469 47.453125 190.855469 47.453125 190.136719 L 47.453125 187.113281 C 47.453125 185.421875 48.605469 184.496094 49.660156 184.496094 C 50.683594 184.496094 50.863281 185.367188 50.863281 186.316406 L 50.863281 190.136719 C 50.863281 190.855469 50.683594 190.855469 49.582031 190.855469 L 49.582031 191.367188 L 51.425781 191.316406 Z M 53.273438 191.367188 "/>
<path fill-rule="nonzero" fill="rgb(0%, 0%, 0%)" fill-opacity="1" d="M 57.636719 191.367188 L 57.636719 190.855469 C 56.53125 190.855469 56.480469 190.777344 56.480469 190.136719 L 56.480469 184.136719 L 54.199219 184.316406 L 54.199219 184.832031 C 55.25 184.832031 55.40625 184.933594 55.40625 185.726562 L 55.40625 190.136719 C 55.40625 190.855469 55.226562 190.855469 54.125 190.855469 L 54.125 191.367188 L 55.917969 191.316406 C 56.507812 191.316406 57.070312 191.34375 57.636719 191.367188 Z M 56.710938 181.496094 C 56.710938 181.035156 56.355469 180.625 55.867188 180.625 C 55.300781 180.625 54.96875 181.085938 54.96875 181.496094 C 54.96875 181.933594 55.355469 182.34375 55.839844 182.34375 C 56.40625 182.34375 56.710938 181.90625 56.710938 181.496094 Z M 56.710938 181.496094 "/>
<path fill-rule="nonzero" fill="rgb(0%, 0%, 0%)" fill-opacity="1" d="M 63.566406 189.34375 L 63.566406 188.421875 L 63.15625 188.421875 L 63.15625 189.316406 C 63.15625 190.523438 62.667969 191.136719 62.050781 191.136719 C 60.949219 191.136719 60.949219 189.652344 60.949219 189.367188 L 60.949219 184.832031 L 63.308594 184.832031 L 63.308594 184.316406 L 60.949219 184.316406 L 60.949219 181.316406 L 60.539062 181.316406 C 60.539062 182.652344 60.050781 184.394531 58.4375 184.472656 L 58.4375 184.832031 L 59.820312 184.832031 L 59.820312 189.34375 C 59.820312 191.34375 61.359375 191.546875 61.949219 191.546875 C 63.105469 191.546875 63.566406 190.394531 63.566406 189.34375 Z M 63.566406 189.34375 "/>
<path fill-rule="nonzero" fill="rgb(0%, 0%, 0%)" fill-opacity="1" d="M 69.921875 189.34375 L 69.921875 188.421875 L 69.511719 188.421875 L 69.511719 189.316406 C 69.511719 190.523438 69.027344 191.136719 68.410156 191.136719 C 67.308594 191.136719 67.308594 189.652344 67.308594 189.367188 L 67.308594 184.832031 L 69.667969 184.832031 L 69.667969 184.316406 L 67.308594 184.316406 L 67.308594 181.316406 L 66.898438 181.316406 C 66.898438 182.652344 66.410156 184.394531 64.796875 184.472656 L 64.796875 184.832031 L 66.179688 184.832031 L 66.179688 189.34375 C 66.179688 191.34375 67.71875 191.546875 68.308594 191.546875 C 69.460938 191.546875 69.921875 190.394531 69.921875 189.34375 Z M 69.921875 189.34375 "/>
<path fill-rule="nonzero" fill="rgb(0%, 0%, 0%)" fill-opacity="1" d="M 77.640625 189.417969 C 77.640625 189.265625 77.515625 189.214844 77.410156 189.214844 C 77.285156 189.214844 77.230469 189.316406 77.207031 189.445312 C 76.640625 191.136719 75.15625 191.136719 75 191.136719 C 74.179688 191.136719 73.539062 190.652344 73.15625 190.035156 C 72.667969 189.265625 72.667969 188.1875 72.667969 187.597656 L 77.230469 187.597656 C 77.589844 187.597656 77.640625 187.597656 77.640625 187.242188 C 77.640625 185.625 76.746094 184.035156 74.71875 184.035156 C 72.820312 184.035156 71.308594 185.726562 71.308594 187.777344 C 71.308594 189.957031 73.027344 191.546875 74.898438 191.546875 C 76.898438 191.546875 77.640625 189.726562 77.640625 189.417969 Z M 76.566406 187.242188 L 72.667969 187.242188 C 72.769531 184.804688 74.15625 184.394531 74.71875 184.394531 C 76.386719 184.394531 76.566406 186.601562 76.566406 187.242188 Z M 76.566406 187.242188 "/>
<path fill-rule="nonzero" fill="rgb(0%, 0%, 0%)" fill-opacity="1" d="M 84.054688 185.136719 C 84.054688 184.625 83.539062 184.136719 82.847656 184.136719 C 81.644531 184.136719 81.054688 185.242188 80.847656 185.933594 L 80.847656 184.136719 L 78.566406 184.316406 L 78.566406 184.832031 C 79.722656 184.832031 79.847656 184.933594 79.847656 185.753906 L 79.847656 190.136719 C 79.847656 190.855469 79.667969 190.855469 78.566406 190.855469 L 78.566406 191.367188 L 80.4375 191.316406 C 81.078125 191.316406 81.847656 191.316406 82.515625 191.367188 L 82.515625 190.855469 L 82.15625 190.855469 C 80.953125 190.855469 80.925781 190.675781 80.925781 190.085938 L 80.925781 187.574219 C 80.925781 185.957031 81.617188 184.496094 82.847656 184.496094 C 82.953125 184.496094 83.003906 184.496094 83.027344 184.523438 C 82.976562 184.523438 82.644531 184.726562 82.644531 185.164062 C 82.644531 185.601562 83.003906 185.855469 83.363281 185.855469 C 83.644531 185.855469 84.054688 185.652344 84.054688 185.136719 Z M 84.054688 185.136719 "/>
<path fill-rule="evenodd" fill="rgb(0%, 0%, 0%)" fill-opacity="1" stroke-width="1.41732" stroke-linecap="square" stroke-linejoin="miter" stroke="rgb(0%, 0%, 0%)" stroke-opacity="1" stroke-miterlimit="4" d="M 360.777344 173.40625 L 360.777344 150.90625 L 353.277344 139.65625 L 368.277344 139.65625 L 360.777344 150.90625 "/>
<path fill-rule="nonzero" fill="rgb(0%, 0%, 0%)" fill-opacity="1" d="M 342.601562 189.894531 C 342.601562 189.792969 342.601562 189.613281 342.398438 189.613281 C 342.21875 189.613281 342.21875 189.765625 342.191406 189.867188 C 342.089844 191.046875 341.527344 191.328125 341.117188 191.328125 C 340.320312 191.328125 340.191406 190.484375 339.960938 188.972656 L 339.730469 187.664062 C 339.449219 186.613281 338.65625 186.074219 337.757812 185.765625 C 339.320312 185.382812 340.601562 184.382812 340.601562 183.101562 C 340.601562 181.535156 338.730469 180.152344 336.347656 180.152344 L 331.195312 180.152344 L 331.195312 180.664062 L 331.605469 180.664062 C 332.859375 180.664062 332.886719 180.84375 332.886719 181.433594 L 332.886719 190.046875 C 332.886719 190.636719 332.859375 190.816406 331.605469 190.816406 L 331.195312 190.816406 L 331.195312 191.328125 C 331.785156 191.277344 332.960938 191.277344 333.578125 191.277344 C 334.21875 191.277344 335.398438 191.277344 335.988281 191.328125 L 335.988281 190.816406 L 335.578125 190.816406 C 334.320312 190.816406 334.296875 190.636719 334.296875 190.046875 L 334.296875 185.921875 L 336.167969 185.921875 C 336.425781 185.921875 337.117188 185.921875 337.707031 186.484375 C 338.320312 187.046875 338.320312 187.5625 338.320312 188.664062 C 338.320312 189.714844 338.320312 190.382812 338.988281 190.996094 C 339.65625 191.585938 340.550781 191.6875 341.039062 191.6875 C 342.320312 191.6875 342.601562 190.355469 342.601562 189.894531 Z M 338.910156 183.101562 C 338.910156 184.226562 338.527344 185.5625 336.117188 185.5625 L 334.296875 185.5625 L 334.296875 181.332031 C 334.296875 180.945312 334.296875 180.742188 334.65625 180.691406 C 334.808594 180.664062 335.296875 180.664062 335.628906 180.664062 C 337.089844 180.664062 338.910156 180.742188 338.910156 183.101562 Z M 338.910156 183.101562 "/>
<path fill-rule="nonzero" fill="rgb(0%, 0%, 0%)" fill-opacity="1" d="M 349.457031 189.382812 C 349.457031 189.226562 349.328125 189.175781 349.226562 189.175781 C 349.097656 189.175781 349.046875 189.277344 349.019531 189.40625 C 348.457031 191.097656 346.96875 191.097656 346.816406 191.097656 C 345.996094 191.097656 345.355469 190.613281 344.96875 189.996094 C 344.480469 189.226562 344.480469 188.152344 344.480469 187.5625 L 349.046875 187.5625 C 349.40625 187.5625 349.457031 187.5625 349.457031 187.203125 C 349.457031 185.585938 348.558594 183.996094 346.535156 183.996094 C 344.636719 183.996094 343.125 185.691406 343.125 187.742188 C 343.125 189.917969 344.839844 191.507812 346.710938 191.507812 C 348.710938 191.507812 349.457031 189.6875 349.457031 189.382812 Z M 348.378906 187.203125 L 344.480469 187.203125 C 344.585938 184.765625 345.96875 184.355469 346.535156 184.355469 C 348.199219 184.355469 348.378906 186.5625 348.378906 187.203125 Z M 348.378906 187.203125 "/>
<path fill-rule="nonzero" fill="rgb(0%, 0%, 0%)" fill-opacity="1" d="M 356.714844 189.382812 C 356.714844 189.226562 356.535156 189.226562 356.484375 189.226562 C 356.355469 189.226562 356.304688 189.277344 356.277344 189.382812 C 355.816406 190.894531 354.738281 191.097656 354.148438 191.097656 C 353.277344 191.097656 351.84375 190.40625 351.84375 187.765625 C 351.84375 185.101562 353.175781 184.40625 354.046875 184.40625 C 354.199219 184.40625 355.226562 184.433594 355.789062 185.023438 C 355.125 185.074219 355.023438 185.5625 355.023438 185.765625 C 355.023438 186.203125 355.328125 186.511719 355.765625 186.511719 C 356.199219 186.511719 356.535156 186.253906 356.535156 185.742188 C 356.535156 184.636719 355.277344 183.996094 354.023438 183.996094 C 351.96875 183.996094 350.484375 185.765625 350.484375 187.792969 C 350.484375 189.894531 352.097656 191.507812 353.996094 191.507812 C 356.175781 191.507812 356.714844 189.535156 356.714844 189.382812 Z M 356.714844 189.382812 "/>
<path fill-rule="nonzero" fill="rgb(0%, 0%, 0%)" fill-opacity="1" d="M 363.972656 189.382812 C 363.972656 189.226562 363.84375 189.175781 363.742188 189.175781 C 363.613281 189.175781 363.5625 189.277344 363.535156 189.40625 C 362.972656 191.097656 361.484375 191.097656 361.332031 191.097656 C 360.511719 191.097656 359.867188 190.613281 359.484375 189.996094 C 358.996094 189.226562 358.996094 188.152344 358.996094 187.5625 L 363.5625 187.5625 C 363.917969 187.5625 363.972656 187.5625 363.972656 187.203125 C 363.972656 185.585938 363.074219 183.996094 361.046875 183.996094 C 359.152344 183.996094 357.636719 185.691406 357.636719 187.742188 C 357.636719 189.917969 359.355469 191.507812 361.226562 191.507812 C 363.226562 191.507812 363.972656 189.6875 363.972656 189.382812 Z M 362.894531 187.203125 L 358.996094 187.203125 C 359.101562 184.765625 360.484375 184.355469 361.046875 184.355469 C 362.714844 184.355469 362.894531 186.5625 362.894531 187.203125 Z M 362.894531 187.203125 "/>
<path fill-rule="nonzero" fill="rgb(0%, 0%, 0%)" fill-opacity="1" d="M 368.488281 191.328125 L 368.488281 190.816406 C 367.382812 190.816406 367.332031 190.742188 367.332031 190.097656 L 367.332031 184.101562 L 365.050781 184.28125 L 365.050781 184.792969 C 366.101562 184.792969 366.257812 184.894531 366.257812 185.691406 L 366.257812 190.097656 C 366.257812 190.816406 366.078125 190.816406 364.972656 190.816406 L 364.972656 191.328125 L 366.769531 191.277344 C 367.359375 191.277344 367.921875 191.304688 368.488281 191.328125 Z M 367.5625 181.460938 C 367.5625 180.996094 367.203125 180.585938 366.71875 180.585938 C 366.152344 180.585938 365.820312 181.050781 365.820312 181.460938 C 365.820312 181.894531 366.207031 182.304688 366.691406 182.304688 C 367.257812 182.304688 367.5625 181.871094 367.5625 181.460938 Z M 367.5625 181.460938 "/>
<path fill-rule="nonzero" fill="rgb(0%, 0%, 0%)" fill-opacity="1" d="M 377.285156 184.792969 L 377.285156 184.28125 C 376.902344 184.304688 376.441406 184.332031 376.054688 184.332031 L 374.644531 184.28125 L 374.644531 184.792969 C 375.234375 184.792969 375.414062 185.175781 375.414062 185.484375 C 375.414062 185.636719 375.390625 185.714844 375.339844 185.894531 L 373.644531 190.046875 L 371.824219 185.484375 C 371.722656 185.277344 371.722656 185.203125 371.722656 185.203125 C 371.722656 184.792969 372.363281 184.792969 372.671875 184.792969 L 372.671875 184.28125 L 370.875 184.332031 C 370.441406 184.332031 369.773438 184.304688 369.289062 184.28125 L 369.289062 184.792969 C 370.3125 184.792969 370.390625 184.894531 370.59375 185.382812 L 372.953125 191.203125 C 373.054688 191.433594 373.082031 191.507812 373.285156 191.507812 C 373.519531 191.507812 373.570312 191.355469 373.644531 191.203125 L 375.773438 185.894531 C 375.925781 185.511719 376.210938 184.792969 377.285156 184.792969 Z M 377.285156 184.792969 "/>
<path fill-rule="nonzero" fill="rgb(0%, 0%, 0%)" fill-opacity="1" d="M 383.949219 189.382812 C 383.949219 189.226562 383.820312 189.175781 383.71875 189.175781 C 383.589844 189.175781 383.539062 189.277344 383.511719 189.40625 C 382.949219 191.097656 381.460938 191.097656 381.308594 191.097656 C 380.488281 191.097656 379.847656 190.613281 379.460938 189.996094 C 378.976562 189.226562 378.976562 188.152344 378.976562 187.5625 L 383.539062 187.5625 C 383.898438 187.5625 383.949219 187.5625 383.949219 187.203125 C 383.949219 185.585938 383.050781 183.996094 381.027344 183.996094 C 379.128906 183.996094 377.617188 185.691406 377.617188 187.742188 C 377.617188 189.917969 379.332031 191.507812 381.207031 191.507812 C 383.203125 191.507812 383.949219 189.6875 383.949219 189.382812 Z M 382.871094 187.203125 L 378.976562 187.203125 C 379.078125 184.765625 380.460938 184.355469 381.027344 184.355469 C 382.691406 184.355469 382.871094 186.5625 382.871094 187.203125 Z M 382.871094 187.203125 "/>
<path fill-rule="nonzero" fill="rgb(0%, 0%, 0%)" fill-opacity="1" d="M 390.359375 185.101562 C 390.359375 184.585938 389.847656 184.101562 389.15625 184.101562 C 387.949219 184.101562 387.359375 185.203125 387.15625 185.894531 L 387.15625 184.101562 L 384.875 184.28125 L 384.875 184.792969 C 386.027344 184.792969 386.15625 184.894531 386.15625 185.714844 L 386.15625 190.097656 C 386.15625 190.816406 385.976562 190.816406 384.875 190.816406 L 384.875 191.328125 L 386.746094 191.277344 C 387.386719 191.277344 388.15625 191.277344 388.820312 191.328125 L 388.820312 190.816406 L 388.460938 190.816406 C 387.257812 190.816406 387.230469 190.636719 387.230469 190.046875 L 387.230469 187.535156 C 387.230469 185.921875 387.925781 184.457031 389.15625 184.457031 C 389.257812 184.457031 389.308594 184.457031 389.335938 184.484375 C 389.28125 184.484375 388.949219 184.691406 388.949219 185.125 C 388.949219 185.5625 389.308594 185.816406 389.667969 185.816406 C 389.949219 185.816406 390.359375 185.613281 390.359375 185.101562 Z M 390.359375 185.101562 "/>
<path fill="none" stroke-width="1.133858" stroke-linecap="round" stroke-linejoin="miter" stroke="rgb(27.450562%, 50.979614%, 70.587158%)" stroke-opacity="1" stroke-miterlimit="4" d="M 64.527344 147.15625 L 335.277344 147.15625 "/>
<path fill-rule="evenodd" fill="rgb(27.450562%, 50.979614%, 70.587158%)" fill-opacity="1" stroke-width="0.755906" stroke-linecap="butt" stroke-linejoin="miter" stroke="rgb(27.450562%, 50.979614%, 70.587158%)" stroke-opacity="1" stroke-miterlimit="4" d="M 338.546875 147.15625 L 333.644531 149.988281 L 333.644531 144.320312 Z M 338.546875 147.15625 "/>
<path fill-rule="evenodd" fill="rgb(0%, 0%, 0%)" fill-opacity="0.163194" d="M 131.460938 218.40625 L 281.460938 218.40625 L 281.460938 285.90625 L 131.460938 285.90625 Z M 131.460938 218.40625 "/>
<g clip-path="url(#clip-0)">
<path fill="none" stroke-width="1.417323" stroke-linecap="butt" stroke-linejoin="miter" stroke="rgb(0%, 0%, 0%)" stroke-opacity="1" stroke-miterlimit="4" d="M 131.460938 218.40625 L 281.460938 218.40625 L 281.460938 285.90625 L 131.460938 285.90625 Z M 131.460938 218.40625 "/>
</g>
<path fill="none" stroke-width="1.133858" stroke-linecap="round" stroke-linejoin="miter" stroke="rgb(27.450562%, 50.979614%, 70.587158%)" stroke-opacity="1" stroke-miterlimit="4" d="M 206.277344 218.40625 L 64.527344 147.15625 "/>
<path fill="none" stroke-width="1.133858" stroke-linecap="round" stroke-linejoin="miter" stroke="rgb(69.802856%, 13.33313%, 13.33313%)" stroke-opacity="1" stroke-miterlimit="4" d="M 207.027344 218.40625 L 336.777344 154.65625 "/>
<path fill-rule="evenodd" fill="rgb(69.802856%, 13.33313%, 13.33313%)" fill-opacity="1" stroke-width="0.678439" stroke-linecap="butt" stroke-linejoin="miter" stroke="rgb(69.802856%, 13.33313%, 13.33313%)" stroke-opacity="1" stroke-miterlimit="4" d="M 213.011686 257.869969 L 208.612523 260.41556 L 208.611616 255.329176 Z M 213.011686 257.869969 " transform="matrix(1, -0.49133, 0.49133, 1, 0, 0)"/>
<path fill-rule="nonzero" fill="rgb(0%, 0%, 0%)" fill-opacity="1" d="M 182.792969 256.308594 C 182.792969 256.207031 182.792969 256.027344 182.589844 256.027344 C 182.410156 256.027344 182.410156 256.179688 182.382812 256.28125 C 182.28125 257.460938 181.71875 257.742188 181.308594 257.742188 C 180.511719 257.742188 180.382812 256.898438 180.152344 255.386719 L 179.921875 254.078125 C 179.640625 253.027344 178.84375 252.488281 177.949219 252.179688 C 179.511719 251.796875 180.792969 250.796875 180.792969 249.511719 C 180.792969 247.949219 178.921875 246.566406 176.539062 246.566406 L 171.382812 246.566406 L 171.382812 247.078125 L 171.796875 247.078125 C 173.050781 247.078125 173.078125 247.257812 173.078125 247.847656 L 173.078125 256.460938 C 173.078125 257.050781 173.050781 257.230469 171.796875 257.230469 L 171.382812 257.230469 L 171.382812 257.742188 C 171.972656 257.691406 173.152344 257.691406 173.769531 257.691406 C 174.410156 257.691406 175.589844 257.691406 176.179688 257.742188 L 176.179688 257.230469 L 175.769531 257.230469 C 174.511719 257.230469 174.488281 257.050781 174.488281 256.460938 L 174.488281 252.332031 L 176.359375 252.332031 C 176.613281 252.332031 177.308594 252.332031 177.898438 252.898438 C 178.511719 253.460938 178.511719 253.976562 178.511719 255.078125 C 178.511719 256.128906 178.511719 256.792969 179.179688 257.410156 C 179.84375 258 180.742188 258.101562 181.230469 258.101562 C 182.511719 258.101562 182.792969 256.769531 182.792969 256.308594 Z M 179.101562 249.511719 C 179.101562 250.640625 178.71875 251.976562 176.308594 251.976562 L 174.488281 251.976562 L 174.488281 247.746094 C 174.488281 247.359375 174.488281 247.15625 174.847656 247.105469 C 175 247.078125 175.488281 247.078125 175.820312 247.078125 C 177.28125 247.078125 179.101562 247.15625 179.101562 249.511719 Z M 179.101562 249.511719 "/>
<path fill-rule="nonzero" fill="rgb(0%, 0%, 0%)" fill-opacity="1" d="M 189.648438 255.796875 C 189.648438 255.640625 189.519531 255.589844 189.417969 255.589844 C 189.289062 255.589844 189.238281 255.691406 189.210938 255.820312 C 188.648438 257.511719 187.160156 257.511719 187.007812 257.511719 C 186.1875 257.511719 185.546875 257.027344 185.160156 256.410156 C 184.671875 255.640625 184.671875 254.5625 184.671875 253.976562 L 189.238281 253.976562 C 189.597656 253.976562 189.648438 253.976562 189.648438 253.617188 C 189.648438 252 188.75 250.410156 186.722656 250.410156 C 184.828125 250.410156 183.316406 252.101562 183.316406 254.152344 C 183.316406 256.332031 185.03125 257.921875 186.902344 257.921875 C 188.902344 257.921875 189.648438 256.101562 189.648438 255.796875 Z M 188.570312 253.617188 L 184.671875 253.617188 C 184.777344 251.179688 186.160156 250.769531 186.722656 250.769531 C 188.390625 250.769531 188.570312 252.976562 188.570312 253.617188 Z M 188.570312 253.617188 "/>
<path fill-rule="nonzero" fill="rgb(0%, 0%, 0%)" fill-opacity="1" d="M 198.726562 257.742188 L 198.726562 257.230469 C 197.621094 257.230469 197.441406 257.230469 197.441406 256.511719 L 197.441406 246.386719 L 196.851562 246.488281 C 196.800781 246.488281 196.777344 246.460938 196.726562 246.4375 C 196.1875 246.207031 195.519531 246.207031 195.339844 246.207031 C 193.621094 246.207031 191.855469 247.128906 191.855469 248.820312 L 191.855469 250.691406 L 190.546875 250.691406 L 190.546875 251.207031 L 191.855469 251.207031 L 191.855469 256.511719 C 191.855469 257.230469 191.675781 257.230469 190.570312 257.230469 L 190.570312 257.742188 L 192.390625 257.691406 L 194.210938 257.742188 L 194.210938 257.230469 C 193.109375 257.230469 192.929688 257.230469 192.929688 256.511719 L 192.929688 251.207031 L 196.367188 251.207031 L 196.367188 256.511719 C 196.367188 257.230469 196.1875 257.230469 195.109375 257.230469 L 195.109375 257.742188 L 196.90625 257.691406 Z M 196.367188 250.691406 L 192.878906 250.691406 L 192.878906 248.847656 C 192.878906 247.335938 194.109375 246.566406 195.339844 246.566406 C 195.46875 246.566406 195.90625 246.566406 196.367188 246.71875 C 196.238281 246.796875 195.957031 246.949219 195.957031 247.386719 C 195.957031 247.667969 196.109375 247.925781 196.367188 248 Z M 196.367188 250.691406 "/>
<path fill-rule="nonzero" fill="rgb(0%, 0%, 0%)" fill-opacity="1" d="M 205.992188 255.796875 C 205.992188 255.640625 205.863281 255.589844 205.761719 255.589844 C 205.632812 255.589844 205.582031 255.691406 205.558594 255.820312 C 204.992188 257.511719 203.507812 257.511719 203.351562 257.511719 C 202.53125 257.511719 201.890625 257.027344 201.507812 256.410156 C 201.019531 255.640625 201.019531 254.5625 201.019531 253.976562 L 205.582031 253.976562 C 205.941406 253.976562 205.992188 253.976562 205.992188 253.617188 C 205.992188 252 205.097656 250.410156 203.070312 250.410156 C 201.171875 250.410156 199.660156 252.101562 199.660156 254.152344 C 199.660156 256.332031 201.378906 257.921875 203.25 257.921875 C 205.25 257.921875 205.992188 256.101562 205.992188 255.796875 Z M 204.917969 253.617188 L 201.019531 253.617188 C 201.121094 251.179688 202.507812 250.769531 203.070312 250.769531 C 204.738281 250.769531 204.917969 252.976562 204.917969 253.617188 Z M 204.917969 253.617188 "/>
<path fill-rule="nonzero" fill="rgb(0%, 0%, 0%)" fill-opacity="1" d="M 213.253906 255.796875 C 213.253906 255.640625 213.074219 255.640625 213.023438 255.640625 C 212.894531 255.640625 212.84375 255.691406 212.816406 255.796875 C 212.355469 257.308594 211.277344 257.511719 210.6875 257.511719 C 209.816406 257.511719 208.382812 256.820312 208.382812 254.179688 C 208.382812 251.511719 209.714844 250.820312 210.585938 250.820312 C 210.738281 250.820312 211.765625 250.847656 212.328125 251.4375 C 211.664062 251.488281 211.558594 251.976562 211.558594 252.179688 C 211.558594 252.617188 211.867188 252.921875 212.304688 252.921875 C 212.738281 252.921875 213.074219 252.667969 213.074219 252.15625 C 213.074219 251.050781 211.816406 250.410156 210.558594 250.410156 C 208.507812 250.410156 207.023438 252.179688 207.023438 254.207031 C 207.023438 256.308594 208.636719 257.921875 210.535156 257.921875 C 212.714844 257.921875 213.253906 255.949219 213.253906 255.796875 Z M 213.253906 255.796875 "/>
<path fill-rule="nonzero" fill="rgb(0%, 0%, 0%)" fill-opacity="1" d="M 219.152344 255.71875 L 219.152344 254.796875 L 218.742188 254.796875 L 218.742188 255.691406 C 218.742188 256.898438 218.253906 257.511719 217.636719 257.511719 C 216.535156 257.511719 216.535156 256.027344 216.535156 255.742188 L 216.535156 251.207031 L 218.894531 251.207031 L 218.894531 250.691406 L 216.535156 250.691406 L 216.535156 247.691406 L 216.125 247.691406 C 216.125 249.027344 215.640625 250.769531 214.023438 250.847656 L 214.023438 251.207031 L 215.40625 251.207031 L 215.40625 255.71875 C 215.40625 257.71875 216.945312 257.921875 217.535156 257.921875 C 218.691406 257.921875 219.152344 256.769531 219.152344 255.71875 Z M 219.152344 255.71875 "/>
<path fill-rule="nonzero" fill="rgb(0%, 0%, 0%)" fill-opacity="1" d="M 224.125 257.742188 L 224.125 257.230469 C 223.023438 257.230469 222.972656 257.152344 222.972656 256.511719 L 222.972656 250.511719 L 220.691406 250.691406 L 220.691406 251.207031 C 221.742188 251.207031 221.894531 251.308594 221.894531 252.101562 L 221.894531 256.511719 C 221.894531 257.230469 221.714844 257.230469 220.613281 257.230469 L 220.613281 257.742188 L 222.40625 257.691406 C 222.996094 257.691406 223.5625 257.71875 224.125 257.742188 Z M 223.203125 247.871094 C 223.203125 247.410156 222.84375 247 222.355469 247 C 221.792969 247 221.457031 247.460938 221.457031 247.871094 C 221.457031 248.308594 221.84375 248.71875 222.332031 248.71875 C 222.894531 248.71875 223.203125 248.28125 223.203125 247.871094 Z M 223.203125 247.871094 "/>
<path fill-rule="nonzero" fill="rgb(0%, 0%, 0%)" fill-opacity="1" d="M 232.3125 254.230469 C 232.3125 252.15625 230.695312 250.410156 228.722656 250.410156 C 226.671875 250.410156 225.082031 252.207031 225.082031 254.230469 C 225.082031 256.359375 226.773438 257.921875 228.695312 257.921875 C 230.671875 257.921875 232.3125 256.308594 232.3125 254.230469 Z M 230.976562 254.101562 C 230.976562 254.691406 230.976562 255.589844 230.617188 256.308594 C 230.234375 257.050781 229.515625 257.511719 228.722656 257.511719 C 228.003906 257.511719 227.285156 257.179688 226.851562 256.410156 C 226.441406 255.691406 226.441406 254.691406 226.441406 254.101562 C 226.441406 253.460938 226.441406 252.589844 226.824219 251.871094 C 227.261719 251.128906 228.027344 250.769531 228.695312 250.769531 C 229.414062 250.769531 230.105469 251.128906 230.542969 251.847656 C 230.976562 252.539062 230.976562 253.488281 230.976562 254.101562 Z M 230.976562 254.101562 "/>
<path fill-rule="nonzero" fill="rgb(0%, 0%, 0%)" fill-opacity="1" d="M 241.535156 257.742188 L 241.535156 257.230469 C 240.6875 257.230469 240.277344 257.230469 240.277344 256.742188 L 240.277344 253.617188 C 240.277344 252.207031 240.277344 251.71875 239.765625 251.128906 C 239.535156 250.847656 238.996094 250.511719 238.046875 250.511719 C 236.84375 250.511719 236.074219 251.207031 235.613281 252.230469 L 235.613281 250.511719 L 233.304688 250.691406 L 233.304688 251.207031 C 234.457031 251.207031 234.585938 251.308594 234.585938 252.128906 L 234.585938 256.511719 C 234.585938 257.230469 234.40625 257.230469 233.304688 257.230469 L 233.304688 257.742188 L 235.175781 257.691406 L 236.996094 257.742188 L 236.996094 257.230469 C 235.894531 257.230469 235.714844 257.230469 235.714844 256.511719 L 235.714844 253.488281 C 235.714844 251.796875 236.894531 250.871094 237.921875 250.871094 C 238.972656 250.871094 239.152344 251.746094 239.152344 252.691406 L 239.152344 256.511719 C 239.152344 257.230469 238.972656 257.230469 237.867188 257.230469 L 237.867188 257.742188 L 239.714844 257.691406 Z M 241.535156 257.742188 "/>
<path fill-rule="evenodd" fill="rgb(0%, 0%, 0%)" fill-opacity="0.163194" stroke-width="1.417323" stroke-linecap="butt" stroke-linejoin="miter" stroke="rgb(0%, 0%, 0%)" stroke-opacity="1" stroke-miterlimit="4" d="M 49.527344 8.40625 L 199.527344 8.40625 L 199.527344 75.90625 L 49.527344 75.90625 Z M 49.527344 8.40625 "/>
<path fill="none" stroke-width="1.133858" stroke-linecap="round" stroke-linejoin="miter" stroke="rgb(27.450562%, 50.979614%, 70.587158%)" stroke-opacity="1" stroke-miterlimit="4" d="M 199.527344 75.90625 L 64.527344 147.15625 "/>
<path fill="none" stroke-width="0.933066" stroke-linecap="round" stroke-linejoin="miter" stroke="rgb(69.802856%, 13.33313%, 13.33313%)" stroke-opacity="1" stroke-miterlimit="4" d="M 199.527344 75.90625 L 189.652344 85.78125 "/>
<path fill-rule="evenodd" fill="rgb(69.802856%, 13.33313%, 13.33313%)" fill-opacity="1" stroke-width="0.439852" stroke-linecap="butt" stroke-linejoin="miter" stroke="rgb(69.802856%, 13.33313%, 13.33313%)" stroke-opacity="1" stroke-miterlimit="4" d="M -50.033485 -137.716928 L -52.887002 -136.066531 L -52.885054 -139.365364 Z M -50.033485 -137.716928 " transform="matrix(-1, 0.999997, -0.999997, -1, 0, 0)"/>
<path fill="none" stroke-width="0.933066" stroke-linecap="round" stroke-linejoin="miter" stroke="rgb(69.802856%, 13.33313%, 13.33313%)" stroke-opacity="1" stroke-miterlimit="4" d="M 199.992188 75.4375 L 209.742188 63.4375 "/>
<path fill-rule="evenodd" fill="rgb(69.802856%, 13.33313%, 13.33313%)" fill-opacity="1" stroke-width="0.482777" stroke-linecap="butt" stroke-linejoin="miter" stroke="rgb(69.802856%, 13.33313%, 13.33313%)" stroke-opacity="1" stroke-miterlimit="4" d="M 66.528971 157.386618 L 63.395441 159.198235 L 63.397353 155.575588 Z M 66.528971 157.386618 " transform="matrix(0.8125, -1, 1, 0.8125, 0, 0)"/>
<path fill="none" stroke-width="0.933066" stroke-linecap="round" stroke-linejoin="miter" stroke="rgb(69.802856%, 13.33313%, 13.33313%)" stroke-opacity="1" stroke-miterlimit="4" d="M 199.527344 75.90625 L 218.277344 72.90625 "/>
<path fill-rule="evenodd" fill="rgb(69.802856%, 13.33313%, 13.33313%)" fill-opacity="1" stroke-width="0.614232" stroke-linecap="butt" stroke-linejoin="miter" stroke="rgb(69.802856%, 13.33313%, 13.33313%)" stroke-opacity="1" stroke-miterlimit="4" d="M 204.111465 105.138303 L 200.129497 107.442595 L 200.128736 102.833098 Z M 204.111465 105.138303 " transform="matrix(1, -0.16, 0.16, 1, 0, 0)"/>
<path fill="none" stroke-width="1.133858" stroke-linecap="butt" stroke-linejoin="miter" stroke="rgb(69.802856%, 13.33313%, 13.33313%)" stroke-opacity="1" stroke-miterlimit="4" d="M 199.527344 75.90625 L 337.527344 138.90625 "/>
<path fill-rule="evenodd" fill="rgb(69.802856%, 13.33313%, 13.33313%)" fill-opacity="1" stroke-width="0.687638" stroke-linecap="butt" stroke-linejoin="miter" stroke="rgb(69.802856%, 13.33313%, 13.33313%)" stroke-opacity="1" stroke-miterlimit="4" d="M 334.766912 -12.566742 L 330.30424 -9.986465 L 330.305504 -15.143292 Z M 334.766912 -12.566742 " transform="matrix(1, 0.456522, -0.456522, 1, 0, 0)"/>
<path fill-rule="nonzero" fill="rgb(0%, 0%, 0%)" fill-opacity="1" d="M 97.695312 42.347656 C 97.695312 39.21875 95.492188 36.65625 92.695312 36.65625 L 86.695312 36.65625 L 86.695312 37.167969 L 87.105469 37.167969 C 88.363281 37.167969 88.390625 37.347656 88.390625 37.9375 L 88.390625 46.550781 C 88.390625 47.140625 88.363281 47.320312 87.105469 47.320312 L 86.695312 47.320312 L 86.695312 47.832031 L 92.695312 47.832031 C 95.4375 47.832031 97.695312 45.421875 97.695312 42.347656 Z M 96.054688 42.347656 C 96.054688 44.140625 95.746094 45.140625 95.15625 45.9375 C 94.824219 46.371094 93.902344 47.320312 92.261719 47.320312 L 90.59375 47.320312 C 89.824219 47.320312 89.800781 47.21875 89.800781 46.679688 L 89.800781 37.835938 C 89.800781 37.269531 89.824219 37.167969 90.59375 37.167969 L 92.234375 37.167969 C 93.261719 37.167969 94.386719 37.527344 95.207031 38.679688 C 95.925781 39.65625 96.054688 41.066406 96.054688 42.347656 Z M 96.054688 42.347656 "/>
<path fill-rule="nonzero" fill="rgb(0%, 0%, 0%)" fill-opacity="1" d="M 102.671875 47.832031 L 102.671875 47.320312 C 101.570312 47.320312 101.519531 47.242188 101.519531 46.601562 L 101.519531 40.601562 L 99.238281 40.78125 L 99.238281 41.296875 C 100.289062 41.296875 100.441406 41.398438 100.441406 42.191406 L 100.441406 46.601562 C 100.441406 47.320312 100.261719 47.320312 99.160156 47.320312 L 99.160156 47.832031 L 100.953125 47.78125 C 101.542969 47.78125 102.109375 47.808594 102.671875 47.832031 Z M 101.75 37.960938 C 101.75 37.5 101.390625 37.089844 100.902344 37.089844 C 100.339844 37.089844 100.003906 37.550781 100.003906 37.960938 C 100.003906 38.398438 100.390625 38.808594 100.878906 38.808594 C 101.441406 38.808594 101.75 38.371094 101.75 37.960938 Z M 101.75 37.960938 "/>
<path fill-rule="nonzero" fill="rgb(0%, 0%, 0%)" fill-opacity="1" d="M 113.445312 37.449219 C 113.445312 36.859375 112.859375 36.296875 111.960938 36.296875 C 110.984375 36.296875 110.269531 36.910156 110.191406 36.988281 C 109.703125 36.371094 108.78125 36.296875 108.34375 36.296875 C 106.808594 36.296875 104.910156 37.140625 104.910156 38.910156 L 104.910156 40.78125 L 103.601562 40.78125 L 103.601562 41.296875 L 104.910156 41.296875 L 104.910156 46.601562 C 104.910156 47.320312 104.730469 47.320312 103.628906 47.320312 L 103.628906 47.832031 L 105.449219 47.78125 L 107.269531 47.832031 L 107.269531 47.320312 C 106.164062 47.320312 105.988281 47.320312 105.988281 46.601562 L 105.988281 41.296875 L 109.421875 41.296875 L 109.421875 46.601562 C 109.421875 47.320312 109.242188 47.320312 108.140625 47.320312 L 108.140625 47.832031 L 110.011719 47.78125 C 110.652344 47.78125 111.421875 47.78125 112.089844 47.832031 L 112.089844 47.320312 L 111.730469 47.320312 C 110.523438 47.320312 110.5 47.140625 110.5 46.550781 L 110.5 41.296875 L 112.371094 41.296875 L 112.371094 40.78125 L 110.449219 40.78125 L 110.449219 38.886719 C 110.449219 37.425781 111.242188 36.65625 111.960938 36.65625 C 112.011719 36.65625 112.269531 36.65625 112.5 36.78125 C 112.320312 36.835938 112.011719 37.066406 112.011719 37.476562 C 112.011719 37.835938 112.269531 38.167969 112.730469 38.167969 C 113.191406 38.167969 113.445312 37.835938 113.445312 37.449219 Z M 109.601562 36.960938 C 109.34375 37.015625 109.011719 37.246094 109.011719 37.679688 C 109.011719 37.78125 109.011719 38.191406 109.472656 38.347656 C 109.421875 38.550781 109.421875 38.707031 109.421875 38.910156 L 109.421875 40.78125 L 105.933594 40.78125 L 105.933594 38.9375 C 105.933594 37.347656 107.269531 36.65625 108.34375 36.65625 C 109.140625 36.65625 109.601562 36.960938 109.601562 36.960938 Z M 109.601562 36.960938 "/>
<path fill-rule="nonzero" fill="rgb(0%, 0%, 0%)" fill-opacity="1" d="M 118.644531 41.601562 C 118.644531 41.089844 118.132812 40.601562 117.441406 40.601562 C 116.234375 40.601562 115.644531 41.707031 115.441406 42.398438 L 115.441406 40.601562 L 113.15625 40.78125 L 113.15625 41.296875 C 114.3125 41.296875 114.441406 41.398438 114.441406 42.21875 L 114.441406 46.601562 C 114.441406 47.320312 114.261719 47.320312 113.15625 47.320312 L 113.15625 47.832031 L 115.03125 47.78125 C 115.671875 47.78125 116.441406 47.78125 117.105469 47.832031 L 117.105469 47.320312 L 116.746094 47.320312 C 115.542969 47.320312 115.515625 47.140625 115.515625 46.550781 L 115.515625 44.039062 C 115.515625 42.421875 116.207031 40.960938 117.441406 40.960938 C 117.542969 40.960938 117.59375 40.960938 117.617188 40.988281 C 117.566406 40.988281 117.234375 41.191406 117.234375 41.628906 C 117.234375 42.066406 117.59375 42.320312 117.953125 42.320312 C 118.234375 42.320312 118.644531 42.117188 118.644531 41.601562 Z M 118.644531 41.601562 "/>
<path fill-rule="nonzero" fill="rgb(0%, 0%, 0%)" fill-opacity="1" d="M 127.003906 46.371094 L 127.003906 45.449219 L 126.59375 45.449219 L 126.59375 46.371094 C 126.59375 47.320312 126.183594 47.421875 126.003906 47.421875 C 125.464844 47.421875 125.414062 46.679688 125.414062 46.601562 L 125.414062 43.347656 C 125.414062 42.652344 125.414062 42.011719 124.824219 41.398438 C 124.183594 40.757812 123.363281 40.5 122.566406 40.5 C 121.234375 40.5 120.105469 41.269531 120.105469 42.347656 C 120.105469 42.832031 120.4375 43.117188 120.847656 43.117188 C 121.308594 43.117188 121.617188 42.78125 121.617188 42.371094 C 121.617188 42.167969 121.515625 41.628906 120.773438 41.628906 C 121.207031 41.039062 122.027344 40.859375 122.542969 40.859375 C 123.335938 40.859375 124.285156 41.5 124.285156 42.960938 L 124.285156 43.550781 C 123.4375 43.601562 122.285156 43.652344 121.257812 44.140625 C 120.027344 44.707031 119.617188 45.550781 119.617188 46.269531 C 119.617188 47.601562 121.207031 48.011719 122.234375 48.011719 C 123.335938 48.011719 124.078125 47.347656 124.386719 46.601562 C 124.464844 47.242188 124.898438 47.9375 125.667969 47.9375 C 126.003906 47.9375 127.003906 47.703125 127.003906 46.371094 Z M 124.285156 45.550781 C 124.285156 47.089844 123.105469 47.652344 122.363281 47.652344 C 121.566406 47.652344 120.898438 47.089844 120.898438 46.269531 C 120.898438 45.371094 121.566406 44.011719 124.285156 43.910156 Z M 124.285156 45.550781 "/>
<path fill-rule="nonzero" fill="rgb(0%, 0%, 0%)" fill-opacity="1" d="M 134.074219 45.882812 C 134.074219 45.730469 133.894531 45.730469 133.84375 45.730469 C 133.714844 45.730469 133.664062 45.78125 133.636719 45.882812 C 133.175781 47.398438 132.097656 47.601562 131.507812 47.601562 C 130.636719 47.601562 129.203125 46.910156 129.203125 44.269531 C 129.203125 41.601562 130.535156 40.910156 131.40625 40.910156 C 131.558594 40.910156 132.585938 40.9375 133.148438 41.527344 C 132.484375 41.578125 132.378906 42.066406 132.378906 42.269531 C 132.378906 42.707031 132.6875 43.011719 133.125 43.011719 C 133.558594 43.011719 133.894531 42.757812 133.894531 42.242188 C 133.894531 41.140625 132.636719 40.5 131.378906 40.5 C 129.328125 40.5 127.84375 42.269531 127.84375 44.296875 C 127.84375 46.398438 129.457031 48.011719 131.355469 48.011719 C 133.535156 48.011719 134.074219 46.039062 134.074219 45.882812 Z M 134.074219 45.882812 "/>
<path fill-rule="nonzero" fill="rgb(0%, 0%, 0%)" fill-opacity="1" d="M 139.972656 45.808594 L 139.972656 44.886719 L 139.5625 44.886719 L 139.5625 45.78125 C 139.5625 46.988281 139.074219 47.601562 138.457031 47.601562 C 137.355469 47.601562 137.355469 46.117188 137.355469 45.832031 L 137.355469 41.296875 L 139.714844 41.296875 L 139.714844 40.78125 L 137.355469 40.78125 L 137.355469 37.78125 L 136.945312 37.78125 C 136.945312 39.117188 136.457031 40.859375 134.84375 40.9375 L 134.84375 41.296875 L 136.226562 41.296875 L 136.226562 45.808594 C 136.226562 47.808594 137.765625 48.011719 138.355469 48.011719 C 139.511719 48.011719 139.972656 46.859375 139.972656 45.808594 Z M 139.972656 45.808594 "/>
<path fill-rule="nonzero" fill="rgb(0%, 0%, 0%)" fill-opacity="1" d="M 144.945312 47.832031 L 144.945312 47.320312 C 143.84375 47.320312 143.792969 47.242188 143.792969 46.601562 L 143.792969 40.601562 L 141.511719 40.78125 L 141.511719 41.296875 C 142.5625 41.296875 142.714844 41.398438 142.714844 42.191406 L 142.714844 46.601562 C 142.714844 47.320312 142.535156 47.320312 141.433594 47.320312 L 141.433594 47.832031 L 143.230469 47.78125 C 143.820312 47.78125 144.382812 47.808594 144.945312 47.832031 Z M 144.023438 37.960938 C 144.023438 37.5 143.664062 37.089844 143.179688 37.089844 C 142.613281 37.089844 142.28125 37.550781 142.28125 37.960938 C 142.28125 38.398438 142.664062 38.808594 143.152344 38.808594 C 143.714844 38.808594 144.023438 38.371094 144.023438 37.960938 Z M 144.023438 37.960938 "/>
<path fill-rule="nonzero" fill="rgb(0%, 0%, 0%)" fill-opacity="1" d="M 153.132812 44.320312 C 153.132812 42.242188 151.515625 40.5 149.542969 40.5 C 147.492188 40.5 145.902344 42.296875 145.902344 44.320312 C 145.902344 46.449219 147.59375 48.011719 149.515625 48.011719 C 151.488281 48.011719 153.132812 46.398438 153.132812 44.320312 Z M 151.796875 44.191406 C 151.796875 44.78125 151.796875 45.679688 151.4375 46.398438 C 151.054688 47.140625 150.335938 47.601562 149.542969 47.601562 C 148.824219 47.601562 148.105469 47.269531 147.671875 46.5 C 147.261719 45.78125 147.261719 44.78125 147.261719 44.191406 C 147.261719 43.550781 147.261719 42.679688 147.644531 41.960938 C 148.082031 41.21875 148.847656 40.859375 149.515625 40.859375 C 150.234375 40.859375 150.925781 41.21875 151.363281 41.9375 C 151.796875 42.628906 151.796875 43.578125 151.796875 44.191406 Z M 151.796875 44.191406 "/>
<path fill-rule="nonzero" fill="rgb(0%, 0%, 0%)" fill-opacity="1" d="M 162.355469 47.832031 L 162.355469 47.320312 C 161.511719 47.320312 161.101562 47.320312 161.101562 46.832031 L 161.101562 43.707031 C 161.101562 42.296875 161.101562 41.808594 160.589844 41.21875 C 160.355469 40.9375 159.820312 40.601562 158.871094 40.601562 C 157.664062 40.601562 156.894531 41.296875 156.433594 42.320312 L 156.433594 40.601562 L 154.128906 40.78125 L 154.128906 41.296875 C 155.28125 41.296875 155.410156 41.398438 155.410156 42.21875 L 155.410156 46.601562 C 155.410156 47.320312 155.230469 47.320312 154.128906 47.320312 L 154.128906 47.832031 L 156 47.78125 L 157.820312 47.832031 L 157.820312 47.320312 C 156.714844 47.320312 156.535156 47.320312 156.535156 46.601562 L 156.535156 43.578125 C 156.535156 41.886719 157.714844 40.960938 158.742188 40.960938 C 159.792969 40.960938 159.972656 41.832031 159.972656 42.78125 L 159.972656 46.601562 C 159.972656 47.320312 159.792969 47.320312 158.691406 47.320312 L 158.691406 47.832031 L 160.535156 47.78125 Z M 162.355469 47.832031 "/>
</svg>
