<?xml version="1.0" encoding="UTF-8"?>
<svg xmlns="http://www.w3.org/2000/svg" xmlns:xlink="http://www.w3.org/1999/xlink" width="443.452884pt" height="286.613037pt" viewBox="0 0 443.452884 286.613037">
<path fill-rule="evenodd" fill="rgb(0%, 0%, 0%)" fill-opacity="1" stroke-width="1.41732" stroke-linecap="square" stroke-linejoin="miter" stroke="rgb(0%, 0%, 0%)" stroke-opacity="1" stroke-miterlimit="4" d="M 42.027344 173.40625 L 42.027344 150.90625 L 34.527344 139.65625 L 49.527344 139.65625 L 42.027344 150.90625 "/>
<path fill-rule="nonzero" fill="rgb(0%, 0%, 0%)" fill-opacity="1" d="M 10.613281 183.984375 L 10.304688 180.292969 L 0.308594 180.292969 L 0 183.984375 L 0.410156 183.984375 C 0.640625 181.34375 0.871094 180.804688 3.359375 180.804688 C 3.640625 180.804688 4.078125 180.804688 4.230469 180.832031 C 4.589844 180.90625 4.589844 181.085938 4.589844 181.445312 L 4.589844 190.085938 C 4.589844 190.625 4.589844 190.855469 2.871094 190.855469 L 2.203125 190.855469 L 2.203125 191.367188 C 2.871094 191.316406 4.539062 191.316406 5.308594 191.316406 C 6.050781 191.316406 7.742188 191.316406 8.410156 191.367188 L 8.410156 190.855469 L 7.742188 190.855469 C 6.023438 190.855469 6.023438 190.625 6.023438 190.085938 L 6.023438 181.445312 C 6.023438 181.140625 6.023438 180.90625 6.332031 180.832031 C 6.511719 180.804688 6.949219 180.804688 7.253906 180.804688 C 9.742188 180.804688 9.972656 181.34375 10.203125 183.984375 Z M 10.613281 183.984375 "/>
<path fill-rule="nonzero" fill="rgb(0%, 0%, 0%)" fill-opacity="1" d="M 15.804688 185.136719 C 15.804688 184.625 15.292969 184.136719 14.597656 184.136719 C 13.394531 184.136719 12.804688 185.242188 12.597656 185.933594 L 12.597656 184.136719 L 10.316406 184.316406 L 10.316406 184.832031 C 11.472656 184.832031 11.597656 184.933594 11.597656 185.753906 L 11.597656 190.136719 C 11.597656 190.855469 11.417969 190.855469 10.316406 190.855469 L 10.316406 191.367188 L 12.1875 191.316406 C 12.828125 191.316406 13.597656 191.316406 14.265625 191.367188 L 14.265625 190.855469 L 13.90625 190.855469 C 12.703125 190.855469 12.675781 190.675781 12.675781 190.085938 L 12.675781 187.574219 C 12.675781 185.957031 13.367188 184.496094 14.597656 184.496094 C 14.703125 184.496094 14.753906 184.496094 14.777344 184.523438 C 14.726562 184.523438 14.394531 184.726562 14.394531 185.164062 C 14.394531 185.601562 14.753906 185.855469 15.113281 185.855469 C 15.394531 185.855469 15.804688 185.652344 15.804688 185.136719 Z M 15.804688 185.136719 "/>
<path fill-rule="nonzero" fill="rgb(0%, 0%, 0%)" fill-opacity="1" d="M 24.160156 189.90625 L 24.160156 188.984375 L 23.75 188.984375 L 23.75 189.90625 C 23.75 190.855469 23.339844 190.957031 23.160156 190.957031 C 22.621094 190.957031 22.570312 190.214844 22.570312 190.136719 L 22.570312 186.882812 C 22.570312 186.1875 22.570312 185.546875 21.980469 184.933594 C 21.339844 184.292969 20.519531 184.035156 19.726562 184.035156 C 18.390625 184.035156 17.261719 184.804688 17.261719 185.882812 C 17.261719 186.367188 17.597656 186.652344 18.007812 186.652344 C 18.46875 186.652344 18.777344 186.316406 18.777344 185.90625 C 18.777344 185.703125 18.671875 185.164062 17.929688 185.164062 C 18.367188 184.574219 19.1875 184.394531 19.699219 184.394531 C 20.492188 184.394531 21.441406 185.035156 21.441406 186.496094 L 21.441406 187.085938 C 20.597656 187.136719 19.441406 187.1875 18.417969 187.675781 C 17.1875 188.242188 16.777344 189.085938 16.777344 189.804688 C 16.777344 191.136719 18.367188 191.546875 19.390625 191.546875 C 20.492188 191.546875 21.238281 190.882812 21.546875 190.136719 C 21.621094 190.777344 22.058594 191.472656 22.828125 191.472656 C 23.160156 191.472656 24.160156 191.238281 24.160156 189.90625 Z M 21.441406 189.085938 C 21.441406 190.625 20.261719 191.1875 19.519531 191.1875 C 18.726562 191.1875 18.058594 190.625 18.058594 189.804688 C 18.058594 188.90625 18.726562 187.546875 21.441406 187.445312 Z M 21.441406 189.085938 "/>
<path fill-rule="nonzero" fill="rgb(0%, 0%, 0%)" fill-opacity="1" d="M 33.179688 191.367188 L 33.179688 190.855469 C 32.335938 190.855469 31.925781 190.855469 31.925781 190.367188 L 31.925781 187.242188 C 31.925781 185.832031 31.925781 185.34375 31.410156 184.753906 C 31.179688 184.472656 30.644531 184.136719 29.695312 184.136719 C 28.488281 184.136719 27.71875 184.832031 27.257812 185.855469 L 27.257812 184.136719 L 24.949219 184.316406 L 24.949219 184.832031 C 26.105469 184.832031 26.234375 184.933594 26.234375 185.753906 L 26.234375 190.136719 C 26.234375 190.855469 26.054688 190.855469 24.949219 190.855469 L 24.949219 191.367188 L 26.824219 191.316406 L 28.644531 191.367188 L 28.644531 190.855469 C 27.539062 190.855469 27.359375 190.855469 27.359375 190.136719 L 27.359375 187.113281 C 27.359375 185.421875 28.539062 184.496094 29.566406 184.496094 C 30.617188 184.496094 30.796875 185.367188 30.796875 186.316406 L 30.796875 190.136719 C 30.796875 190.855469 30.617188 190.855469 29.515625 190.855469 L 29.515625 191.367188 L 31.359375 191.316406 Z M 33.179688 191.367188 "/>
<path fill-rule="nonzero" fill="rgb(0%, 0%, 0%)" fill-opacity="1" d="M 39.421875 189.265625 C 39.421875 188.421875 38.9375 187.90625 38.730469 187.726562 C 38.191406 187.1875 37.550781 187.0625 36.859375 186.933594 C 35.9375 186.753906 34.859375 186.546875 34.859375 185.601562 C 34.859375 185.011719 35.269531 184.34375 36.679688 184.34375 C 38.476562 184.34375 38.578125 185.832031 38.601562 186.316406 C 38.601562 186.472656 38.78125 186.472656 38.78125 186.472656 C 39.011719 186.472656 39.011719 186.394531 39.011719 186.085938 L 39.011719 184.421875 C 39.011719 184.164062 39.011719 184.035156 38.835938 184.035156 C 38.757812 184.035156 38.707031 184.035156 38.5 184.242188 C 38.449219 184.292969 38.296875 184.445312 38.21875 184.496094 C 37.601562 184.035156 36.9375 184.035156 36.679688 184.035156 C 34.679688 184.035156 34.066406 185.136719 34.066406 186.0625 C 34.066406 186.625 34.320312 187.085938 34.757812 187.445312 C 35.296875 187.855469 35.757812 187.957031 36.9375 188.1875 C 37.296875 188.265625 38.628906 188.523438 38.628906 189.703125 C 38.628906 190.523438 38.066406 191.1875 36.78125 191.1875 C 35.398438 191.1875 34.808594 190.265625 34.5 188.855469 C 34.449219 188.652344 34.449219 188.597656 34.269531 188.597656 C 34.066406 188.597656 34.066406 188.703125 34.066406 188.984375 L 34.066406 191.164062 C 34.066406 191.445312 34.066406 191.546875 34.246094 191.546875 C 34.320312 191.546875 34.347656 191.523438 34.65625 191.214844 C 34.679688 191.1875 34.679688 191.164062 34.988281 190.855469 C 35.707031 191.523438 36.449219 191.546875 36.78125 191.546875 C 38.65625 191.546875 39.421875 190.445312 39.421875 189.265625 Z M 39.421875 189.265625 "/>
<path fill-rule="nonzero" fill="rgb(0%, 0%, 0%)" fill-opacity="1" d="M 53.273438 191.367188 L 53.273438 190.855469 C 52.425781 190.855469 52.015625 190.855469 51.992188 190.367188 L 51.992188 187.242188 C 51.992188 185.832031 51.992188 185.34375 51.480469 184.753906 C 51.25 184.472656 50.710938 184.136719 49.761719 184.136719 C 48.402344 184.136719 47.660156 185.113281 47.402344 185.753906 C 47.171875 184.316406 45.964844 184.136719 45.222656 184.136719 C 44.019531 184.136719 43.25 184.832031 42.789062 185.855469 L 42.789062 184.136719 L 40.480469 184.316406 L 40.480469 184.832031 C 41.632812 184.832031 41.761719 184.933594 41.761719 185.753906 L 41.761719 190.136719 C 41.761719 190.855469 41.582031 190.855469 40.480469 190.855469 L 40.480469 191.367188 L 42.351562 191.316406 L 44.171875 191.367188 L 44.171875 190.855469 C 43.070312 190.855469 42.890625 190.855469 42.890625 190.136719 L 42.890625 187.113281 C 42.890625 185.421875 44.070312 184.496094 45.09375 184.496094 C 46.144531 184.496094 46.324219 185.367188 46.324219 186.316406 L 46.324219 190.136719 C 46.324219 190.855469 46.144531 190.855469 45.042969 190.855469 L 45.042969 191.367188 L 46.890625 191.316406 L 48.710938 191.367188 L 48.710938 190.855469 C 47.632812 190.855469 47.453125 190.855469 47.453125 190.136719 L 47.453125 187.113281 C 47.453125 185.421875 48.605469 184.496094 49.660156 184.496094 C 50.683594 184.496094 50.863281 185.367188 50.863281 186.316406 L 50.863281 190.136719 C 50.863281 190.855469 50.683594 190.855469 49.582031 190.855469 L 49.582031 191.367188 L 51.425781 191.316406 Z M 53.273438 191.367188 "/>
<path fill-rule="nonzero" fill="rgb(0%, 0%, 0%)" fill-opacity="1" d="M 57.636719 191.367188 L 57.636719 190.855469 C 56.53125 190.855469 56.480469 190.777344 56.480469 190.136719 L 56.480469 184.136719 L 54.199219 184.316406 L 54.199219 184.832031 C 55.25 184.832031 55.40625 184.933594 55.40625 185.726562 L 55.40625 190.136719 C 55.40625 190.855469 55.226562 190.855469 54.125 190.855469 L 54.125 191.367188 L 55.917969 191.316406 C 56.507812 191.316406 57.070312 191.34375 57.636719 191.367188 Z M 56.710938 181.496094 C 56.710938 181.035156 56.355469 180.625 55.867188 180.625 C 55.300781 180.625 54.96875 181.085938 54.96875 181.496094 C 54.96875 181.933594 55.355469 182.34375 55.839844 182.34375 C 56.40625 182.34375 56.710938 181.90625 56.710938 181.496094 Z M 56.710938 181.496094 "/>
<path fill-rule="nonzero" fill="rgb(0%, 0%, 0%)" fill-opacity="1" d="M 63.566406 189.34375 L 63.566406 188.421875 L 63.15625 188.421875 L 63.15625 189.316406 C 63.15625 190.523438 62.667969 191.136719 62.050781 191.136719 C 60.949219 191.136719 60.949219 189.652344 60.949219 189.367188 L 60.949219 184.832031 L 63.308594 184.832031 L 63.308594 184.316406 L 60.949219 184.316406 L 60.949219 181.316406 L 60.539062 181.316406 C 60.539062 182.652344 60.050781 184.394531 58.4375 184.472656 L 58.4375 184.832031 L 59.820312 184.832031 L 59.820312 189.34375 C 59.820312 191.34375 61.359375 191.546875 61.949219 191.546875 C 63.105469 191.546875 63.566406 190.394531 63.566406 189.34375 Z M 63.566406 189.34375 "/>
<path fill-rule="nonzero" fill="rgb(0%, 0%, 0%)" fill-opacity="1" d="M 69.921875 189.34375 L 69.921875 188.421875 L 69.511719 188.421875 L 69.511719 189.316406 C 69.511719 190.523438 69.027344 191.136719 68.410156 191.136719 C 67.308594 191.136719 67.308594 189.652344 67.308594 189.367188 L 67.308594 184.832031 L 69.667969 184.832031 L 69.667969 184.316406 L 67.308594 184.316406 L 67.308594 181.316406 L 66.898438 181.316406 C 66.898438 182.652344 66.410156 184.394531 64.796875 184.472656 L 64.796875 184.832031 L 66.179688 184.832031 L 66.179688 189.34375 C 66.179688 191.34375 67.71875 191.546875 68.308594 191.546875 C 69.460938 191.546875 69.921875 190.394531 69.921875 189.34375 Z M 69.921875 189.34375 "/>
<path fill-rule="nonzero" fill="rgb(0%, 0%, 0%)" fill-opacity="1" d="M 77.640625 189.417969 C 77.640625 189.265625 77.515625 189.214844 77.410156 189.214844 C 77.285156 189.214844 77.230469 189.316406 77.207031 189.445312 C 76.640625 191.136719 75.15625 191.136719 75 191.136719 C 74.179688 191.136719 73.539062 190.652344 73.15625 190.035156 C 72.667969 189.265625 72.667969 188.1875 72.667969 187.597656 L 77.230469 187.597656 C 77.589844 187.597656 77.640625 187.597656 77.640625 187.242188 C 77.640625 185.625 76.746094 184.035156 74.71875 184.035156 C 72.820312 184.035156 71.308594 185.726562 71.308594 187.777344 C 71.308594 189.957031 73.027344 191.546875 74.898438 191.546875 C 76.898438 191.546875 77.640625 189.726562 77.640625 189.417969 Z M 76.566406 187.242188 L 72.667969 187.242188 C 72.769531 184.804688 74.15625 184.394531 74.71875 184.394531 C 76.386719 184.394531 76.566406 186.601562 76.566406 187.242188 Z M 76.566406 187.242188 "/>
<path fill-rule="nonzero" fill="rgb(0%, 0%, 0%)" fill-opacity="1" d="M 84.054688 185.136719 C 84.054688 184.625 83.539062 184.136719 82.847656 184.136719 C 81.644531 184.136719 81.054688 185.242188 80.847656 185.933594 L 80.847656 184.136719 L 78.566406 184.316406 L 78.566406 184.832031 C 79.722656 184.832031 79.847656 184.933594 79.847656 185.753906 L 79.847656 190.136719 C 79.847656 190.855469 79.667969 190.855469 78.566406 190.855469 L 78.566406 191.367188 L 80.4375 191.316406 C 81.078125 191.316406 81.847656 191.316406 82.515625 191.367188 L 82.515625 190.855469 L 82.15625 190.855469 C 80.953125 190.855469 80.925781 190.675781 80.925781 190.085938 L 80.925781 187.574219 C 80.925781 185.957031 81.617188 184.496094 82.847656 184.496094 C 82.953125 184.496094 83.003906 184.496094 83.027344 184.523438 C 82.976562 184.523438 82.644531 184.726562 82.644531 185.164062 C 82.644531 185.601562 83.003906 185.855469 83.363281 185.855469 C 83.644531 185.855469 84.054688 185.652344 84.054688 185.136719 Z M 84.054688 185.136719 "/>
<path fill-rule="evenodd" fill="rgb(0%, 0%, 0%)" fill-opacity="1" stroke-width="1.41732" stroke-linecap="square" stroke-linejoin="miter" stroke="rgb(0%, 0%, 0%)" stroke-opacity="1" stroke-miterlimit="4" d="M 360.777344 173.40625 L 360.777344 150.90625 L 353.277344 139.65625 L 368.277344 139.65625 L 360.777344 150.90625 "/>
<path fill-rule="nonzero" fill="rgb(0%, 0%, 0%)" fill-opacity="1" d="M 342.601562 189.894531 C 342.601562 189.792969 342.601562 189.613281 342.398438 189.613281 C 342.21875 189.613281 342.21875 189.765625 342.191406 189.867188 C 342.089844 191.046875 341.527344 191.328125 341.117188 191.328125 C 340.320312 191.328125 340.191406 190.484375 339.960938 188.972656 L 339.730469 187.664062 C 339.449219 186.613281 338.65625 186.074219 337.757812 185.765625 C 339.320312 185.382812 340.601562 184.382812 340.601562 183.101562 C 340.601562 181.535156 338.730469 180.152344 336.347656 180.152344 L 331.195312 180.152344 L 331.195312 180.664062 L 331.605469 180.664062 C 332.859375 180.664062 332.886719 180.84375 332.886719 181.433594 L 332.886719 190.046875 C 332.886719 190.636719 332.859375 190.816406 331.605469 190.816406 L 331.195312 190.816406 L 331.195312 191.328125 C 331.785156 191.277344 332.960938 191.277344 333.578125 191.277344 C 334.21875 191.277344 335.398438 191.277344 335.988281 191.328125 L 335.988281 190.816406 L 335.578125 190.816406 C 334.320312 190.816406 334.296875 190.636719 334.296875 190.046875 L 334.296875 185.921875 L 336.167969 185.921875 C 336.425781 185.921875 337.117188 185.921875 337.707031 186.484375 C 338.320312 187.046875 338.320312 187.5625 338.320312 188.664062 C 338.320312 189.714844 338.320312 190.382812 338.988281 190.996094 C 339.65625 191.585938 340.550781 191.6875 341.039062 191.6875 C 342.320312 191.6875 342.601562 190.355469 342.601562 189.894531 Z M 338.910156 183.101562 C 338.910156 184.226562 338.527344 185.5625 336.117188 185.5625 L 334.296875 185.5625 L 334.296875 181.332031 C 334.296875 180.945312 334.296875 180.742188 334.65625 180.691406 C 334.808594 180.664062 335.296875 180.664062 335.628906 180.664062 C 337.089844 180.664062 338.910156 180.742188 338.910156 183.101562 Z M 338.910156 183.101562 "/>
<path fill-rule="nonzero" fill="rgb(0%, 0%, 0%)" fill-opacity="1" d="M 349.457031 189.382812 C 349.457031 189.226562 349.328125 189.175781 349.226562 189.175781 C 349.097656 189.175781 349.046875 189.277344 349.019531 189.40625 C 348.457031 191.097656 346.96875 191.097656 346.816406 191.097656 C 345.996094 191.097656 345.355469 190.613281 344.96875 189.996094 C 344.480469 189.226562 344.480469 188.152344 344.480469 187.5625 L 349.046875 187.5625 C 349.40625 187.5625 349.457031 187.5625 349.457031 187.203125 C 349.457031 185.585938 348.558594 183.996094 346.535156 183.996094 C 344.636719 183.996094 343.125 185.691406 343.125 187.742188 C 343.125 189.917969 344.839844 191.507812 346.710938 191.507812 C 348.710938 191.507812 349.457031 189.6875 349.457031 189.382812 Z M 348.378906 187.203125 L 344.480469 187.203125 C 344.585938 184.765625 345.96875 184.355469 346.535156 184.355469 C 348.199219 184.355469 348.378906 186.5625 348.378906 187.203125 Z M 348.378906 187.203125 "/>
<path fill-rule="nonzero" fill="rgb(0%, 0%, 0%)" fill-opacity="1" d="M 356.714844 189.382812 C 356.714844 189.226562 356.535156 189.226562 356.484375 189.226562 C 356.355469 189.226562 356.304688 189.277344 356.277344 189.382812 C 355.816406 190.894531 354.738281 191.097656 354.148438 191.097656 C 353.277344 191.097656 351.84375 190.40625 351.84375 187.765625 C 351.84375 185.101562 353.175781 184.40625 354.046875 184.40625 C 354.199219 184.40625 355.226562 184.433594 355.789062 185.023438 C 355.125 185.074219 355.023438 185.5625 355.023438 185.765625 C 355.023438 186.203125 355.328125 186.511719 355.765625 186.511719 C 356.199219 186.511719 356.535156 186.253906 356.535156 185.742188 C 356.535156 184.636719 355.277344 183.996094 354.023438 183.996094 C 351.96875 183.996094 350.484375 185.765625 350.484375 187.792969 C 350.484375 189.894531 352.097656 191.507812 353.996094 191.507812 C 356.175781 191.507812 356.714844 189.535156 356.714844 189.382812 Z M 356.714844 189.382812 "/>
<path fill-rule="nonzero" fill="rgb(0%, 0%, 0%)" fill-opacity="1" d="M 363.972656 189.382812 C 363.972656 189.226562 363.84375 189.175781 363.742188 189.175781 C 363.613281 189.175781 363.5625 189.277344 363.535156 189.40625 C 362.972656 191.097656 361.484375 191.097656 361.332031 191.097656 C 360.511719 191.097656 359.867188 190.613281 359.484375 189.996094 C 358.996094 189.226562 358.996094 188.152344 358.996094 187.5625 L 363.5625 187.5625 C 363.917969 187.5625 363.972656 187.5625 363.972656 187.203125 C 363.972656 185.585938 363.074219 183.996094 361.046875 183.996094 C 359.152344 183.996094 357.636719 185.691406 357.636719 187.742188 C 357.636719 189.917969 359.355469 191.507812 361.226562 191.507812 C 363.226562 191.507812 363.972656 189.6875 363.972656 189.382812 Z M 362.894531 187.203125 L 358.996094 187.203125 C 359.101562 184.765625 360.484375 184.355469 361.046875 184.355469 C 362.714844 184.355469 362.894531 186.5625 362.894531 187.203125 Z M 362.894531 187.203125 "/>
<path fill-rule="nonzero" fill="rgb(0%, 0%, 0%)" fill-opacity="1" d="M 368.488281 191.328125 L 368.488281 190.816406 C 367.382812 190.816406 367.332031 190.742188 367.332031 190.097656 L 367.332031 184.101562 L 365.050781 184.28125 L 365.050781 184.792969 C 366.101562 184.792969 366.257812 184.894531 366.257812 185.691406 L 366.257812 190.097656 C 366.257812 190.816406 366.078125 190.816406 364.972656 190.816406 L 364.972656 191.328125 L 366.769531 191.277344 C 367.359375 191.277344 367.921875 191.304688 368.488281 191.328125 Z M 367.5625 181.460938 C 367.5625 180.996094 367.203125 180.585938 366.71875 180.585938 C 366.152344 180.585938 365.820312 181.050781 365.820312 181.460938 C 365.820312 181.894531 366.207031 182.304688 366.691406 182.304688 C 367.257812 182.304688 367.5625 181.871094 367.5625 181.460938 Z M 367.5625 181.460938 "/>
<path fill-rule="nonzero" fill="rgb(0%, 0%, 0%)" fill-opacity="1" d="M 377.285156 184.792969 L 377.285156 184.28125 C 376.902344 184.304688 376.441406 184.332031 376.054688 184.332031 L 374.644531 184.28125 L 374.644531 184.792969 C 375.234375 184.792969 375.414062 185.175781 375.414062 185.484375 C 375.414062 185.636719 375.390625 185.714844 375.339844 185.894531 L 373.644531 190.046875 L 371.824219 185.484375 C 371.722656 185.277344 371.722656 185.203125 371.722656 185.203125 C 371.722656 184.792969 372.363281 184.792969 372.671875 184.792969 L 372.671875 184.28125 L 370.875 184.332031 C 370.441406 184.332031 369.773438 184.304688 369.289062 184.28125 L 369.289062 184.792969 C 370.3125 184.792969 370.390625 184.894531 370.59375 185.382812 L 372.953125 191.203125 C 373.054688 191.433594 373.082031 191.507812 373.285156 191.507812 C 373.519531 191.507812 373.570312 191.355469 373.644531 191.203125 L 375.773438 185.894531 C 375.925781 185.511719 376.210938 184.792969 377.285156 184.792969 Z M 377.285156 184.792969 "/>
<path fill-rule="nonzero" fill="rgb(0%, 0%, 0%)" fill-opacity="1" d="M 383.949219 189.382812 C 383.949219 189.226562 383.820312 189.175781 383.71875 189.175781 C 383.589844 189.175781 383.539062 189.277344 383.511719 189.40625 C 382.949219 191.097656 381.460938 191.097656 381.308594 191.097656 C 380.488281 191.097656 379.847656 190.613281 379.460938 189.996094 C 378.976562 189.226562 378.976562 188.152344 378.976562 187.5625 L 383.539062 187.5625 C 383.898438 187.5625 383.949219 187.5625 383.949219 187.203125 C 383.949219 185.585938 383.050781 183.996094 381.027344 183.996094 C 379.128906 183.996094 377.617188 185.691406 377.617188 187.742188 C 377.617188 189.917969 379.332031 191.507812 381.207031 191.507812 C 383.203125 191.507812 383.949219 189.6875 383.949219 189.382812 Z M 382.871094 187.203125 L 378.976562 187.203125 C 379.078125 184.765625 380.460938 184.355469 381.027344 184.355469 C 382.691406 184.355469 382.871094 186.5625 382.871094 187.203125 Z M 382.871094 187.203125 "/>
<path fill-rule="nonzero" fill="rgb(0%, 0%, 0%)" fill-opacity="1" d="M 390.359375 185.101562 C 390.359375 184.585938 389.847656 184.101562 389.15625 184.101562 C 387.949219 184.101562 387.359375 185.203125 387.15625 185.894531 L 387.15625 184.101562 L 384.875 184.28125 L 384.875 184.792969 C 386.027344 184.792969 386.15625 184.894531 386.15625 185.714844 L 386.15625 190.097656 C 386.15625 190.816406 385.976562 190.816406 384.875 190.816406 L 384.875 191.328125 L 386.746094 191.277344 C 387.386719 191.277344 388.15625 191.277344 388.820312 191.328125 L 388.820312 190.816406 L 388.460938 190.816406 C 387.257812 190.816406 387.230469 190.636719 387.230469 190.046875 L 387.230469 187.535156 C 387.230469 185.921875 387.925781 184.457031 389.15625 184.457031 C 389.257812 184.457031 389.308594 184.457031 389.335938 184.484375 C 389.28125 184.484375 388.949219 184.691406 388.949219 185.125 C 388.949219 185.5625 389.308594 185.816406 389.667969 185.816406 C 389.949219 185.816406 390.359375 185.613281 390.359375 185.101562 Z M 390.359375 185.101562 "/>
<path fill="none" stroke-width="1.133858" stroke-linecap="round" stroke-linejoin="miter" stroke="rgb(27.450562%, 50.979614%, 70.587158%)" stroke-opacity="1" stroke-miterlimit="4" d="M 64.527344 147.15625 L 335.277344 147.15625 "/>
<path fill-rule="evenodd" fill="rgb(27.450562%, 50.979614%, 70.587158%)" fill-opacity="1" stroke-width="0.755906" stroke-linecap="butt" stroke-linejoin="miter" stroke="rgb(27.450562%, 50.979614%, 70.587158%)" stroke-opacity="1" stroke-miterlimit="4" d="M 338.546875 147.15625 L 333.644531 149.988281 L 333.644531 144.320312 Z M 338.546875 147.15625 "/>
</svg>
