<?xml version="1.0" encoding="UTF-8"?>
<svg xmlns="http://www.w3.org/2000/svg" xmlns:xlink="http://www.w3.org/1999/xlink" width="295.178285pt" height="104.059699pt" viewBox="0 0 295.178285 104.059699">
<path fill="none" stroke-width="0.850394" stroke-linecap="butt" stroke-linejoin="miter" stroke="rgb(0%, 0%, 0%)" stroke-opacity="1" stroke-miterlimit="4" d="M 40.464844 74.808594 L 47.964844 67.308594 "/>
<path fill="none" stroke-width="0.850394" stroke-linecap="butt" stroke-linejoin="miter" stroke="rgb(0%, 0%, 0%)" stroke-opacity="1" stroke-miterlimit="4" d="M 40.464844 67.308594 L 47.964844 74.808594 "/>
<path fill="none" stroke-width="0.850394" stroke-linecap="butt" stroke-linejoin="miter" stroke="rgb(0%, 0%, 0%)" stroke-opacity="1" stroke-miterlimit="4" d="M 179.214844 74.808594 L 186.714844 67.308594 "/>
<path fill="none" stroke-width="0.850394" stroke-linecap="butt" stroke-linejoin="miter" stroke="rgb(0%, 0%, 0%)" stroke-opacity="1" stroke-miterlimit="4" d="M 179.214844 67.308594 L 186.714844 74.808594 "/>
<path fill="none" stroke-width="0.850394" stroke-linecap="butt" stroke-linejoin="miter" stroke="rgb(0%, 0%, 0%)" stroke-opacity="1" stroke-miterlimit="4" d="M 167.964844 41.058594 L 175.464844 33.558594 "/>
<path fill="none" stroke-width="0.850394" stroke-linecap="butt" stroke-linejoin="miter" stroke="rgb(0%, 0%, 0%)" stroke-opacity="1" stroke-miterlimit="4" d="M 167.964844 33.558594 L 175.464844 41.058594 "/>
<path fill="none" stroke-width="0.850394" stroke-linecap="butt" stroke-linejoin="miter" stroke="rgb(0%, 0%, 0%)" stroke-opacity="1" stroke-miterlimit="4" d="M 70.464844 33.558594 L 77.964844 26.058594 "/>
<path fill="none" stroke-width="0.850394" stroke-linecap="butt" stroke-linejoin="miter" stroke="rgb(0%, 0%, 0%)" stroke-opacity="1" stroke-miterlimit="4" d="M 70.464844 26.058594 L 77.964844 33.558594 "/>
<path fill-rule="nonzero" fill="rgb(0%, 0%, 0%)" fill-opacity="1" d="M 33.542969 82.164062 L 35.8125 79.617188 C 36.089844 79.34375 36.210938 79.21875 37.808594 79.21875 L 37.808594 78.300781 C 37.132812 78.332031 36.121094 78.359375 36.027344 78.359375 C 35.539062 78.359375 34.554688 78.300781 34.003906 78.300781 L 34.003906 79.21875 C 34.28125 79.21875 34.527344 79.25 34.742188 79.375 C 34.679688 79.496094 34.679688 79.558594 34.585938 79.617188 L 32.960938 81.457031 L 31.03125 79.21875 L 31.828125 79.21875 L 31.828125 78.300781 C 31.304688 78.300781 30.078125 78.359375 29.433594 78.359375 C 28.820312 78.359375 27.933594 78.300781 27.289062 78.300781 L 27.289062 79.21875 L 28.699219 79.21875 L 31.734375 82.808594 L 29.160156 85.691406 C 28.851562 86.058594 28.148438 86.058594 27.195312 86.058594 L 27.195312 86.976562 C 27.871094 86.945312 28.914062 86.917969 29.007812 86.917969 C 29.496094 86.917969 30.632812 86.945312 31 86.976562 L 31 86.058594 C 30.660156 86.058594 30.292969 85.964844 30.292969 85.84375 C 30.292969 85.8125 30.292969 85.8125 30.417969 85.660156 L 32.316406 83.511719 L 34.464844 86.058594 L 33.699219 86.058594 L 33.699219 86.976562 C 34.21875 86.945312 35.414062 86.917969 36.058594 86.917969 C 36.671875 86.917969 37.5625 86.945312 38.207031 86.976562 L 38.207031 86.058594 L 36.824219 86.058594 Z M 33.542969 82.164062 "/>
<path fill-rule="nonzero" fill="rgb(0%, 0%, 0%)" fill-opacity="1" d="M 77.523438 39.664062 L 79.792969 37.117188 C 80.070312 36.84375 80.191406 36.71875 81.785156 36.71875 L 81.785156 35.800781 C 81.109375 35.832031 80.097656 35.863281 80.007812 35.863281 C 79.515625 35.863281 78.535156 35.800781 77.984375 35.800781 L 77.984375 36.71875 C 78.257812 36.71875 78.503906 36.75 78.71875 36.875 C 78.65625 36.996094 78.65625 37.058594 78.566406 37.117188 L 76.941406 38.957031 L 75.007812 36.71875 L 75.804688 36.71875 L 75.804688 35.800781 C 75.285156 35.800781 74.058594 35.863281 73.414062 35.863281 C 72.800781 35.863281 71.910156 35.800781 71.269531 35.800781 L 71.269531 36.71875 L 72.679688 36.71875 L 75.714844 40.308594 L 73.136719 43.191406 C 72.832031 43.558594 72.125 43.558594 71.175781 43.558594 L 71.175781 44.476562 C 71.851562 44.449219 72.894531 44.417969 72.984375 44.417969 C 73.476562 44.417969 74.609375 44.449219 74.976562 44.476562 L 74.976562 43.558594 C 74.640625 43.558594 74.273438 43.464844 74.273438 43.34375 C 74.273438 43.3125 74.273438 43.3125 74.394531 43.160156 L 76.296875 41.011719 L 78.445312 43.558594 L 77.675781 43.558594 L 77.675781 44.476562 C 78.199219 44.449219 79.394531 44.417969 80.039062 44.417969 C 80.652344 44.417969 81.539062 44.449219 82.183594 44.476562 L 82.183594 43.558594 L 80.804688 43.558594 Z M 77.523438 39.664062 "/>
<path fill-rule="nonzero" fill="rgb(0%, 0%, 0%)" fill-opacity="1" d="M 85.832031 44.652344 C 85.832031 44.558594 86.171875 43.332031 86.171875 43.269531 C 86.203125 43.148438 86.601562 42.472656 87.058594 42.136719 C 87.183594 42.042969 87.550781 41.769531 88.164062 41.769531 C 88.285156 41.769531 88.625 41.769531 88.898438 41.953125 C 88.472656 42.074219 88.316406 42.472656 88.316406 42.71875 C 88.316406 42.996094 88.53125 43.210938 88.839844 43.210938 C 89.175781 43.210938 89.605469 42.964844 89.605469 42.382812 C 89.605469 41.675781 88.871094 41.371094 88.164062 41.371094 C 87.460938 41.371094 86.847656 41.675781 86.234375 42.351562 C 85.988281 41.523438 85.160156 41.371094 84.820312 41.371094 C 84.332031 41.371094 83.992188 41.707031 83.75 42.074219 C 83.441406 42.597656 83.257812 43.394531 83.257812 43.484375 C 83.257812 43.636719 83.441406 43.636719 83.503906 43.636719 C 83.6875 43.636719 83.6875 43.609375 83.78125 43.238281 C 83.992188 42.410156 84.269531 41.769531 84.792969 41.769531 C 85.160156 41.769531 85.25 42.074219 85.25 42.441406 C 85.25 42.6875 85.128906 43.210938 85.007812 43.578125 C 84.914062 43.945312 84.792969 44.496094 84.730469 44.804688 L 84.269531 46.550781 C 84.238281 46.734375 84.148438 47.074219 84.148438 47.105469 C 84.148438 47.410156 84.394531 47.53125 84.605469 47.53125 C 84.820312 47.53125 85.097656 47.410156 85.191406 47.164062 C 85.21875 47.074219 85.375 46.460938 85.464844 46.121094 Z M 85.832031 44.652344 "/>
<path fill-rule="nonzero" fill="rgb(0%, 0%, 0%)" fill-opacity="1" d="M 198.628906 86.703125 C 198.628906 87.316406 198.628906 88.203125 200.652344 88.203125 L 201.605469 88.203125 C 201.972656 88.203125 202.21875 88.203125 202.21875 87.746094 C 202.21875 87.285156 201.972656 87.285156 201.695312 87.285156 C 200.5 87.253906 200.5 87.007812 200.5 86.546875 L 200.5 82.347656 C 200.5 80.601562 199.121094 79.34375 196.207031 79.34375 C 195.105469 79.34375 192.710938 79.433594 192.710938 81.152344 C 192.710938 82.011719 193.386719 82.378906 193.90625 82.378906 C 194.519531 82.378906 195.164062 81.949219 195.164062 81.152344 C 195.164062 80.570312 194.796875 80.230469 194.734375 80.171875 C 195.289062 80.078125 195.902344 80.046875 196.144531 80.046875 C 197.585938 80.046875 198.292969 80.875 198.292969 82.347656 L 198.292969 83.023438 C 196.882812 83.082031 191.914062 83.265625 191.914062 86.089844 C 191.914062 87.960938 194.367188 88.328125 195.71875 88.328125 C 197.28125 88.328125 198.199219 87.53125 198.628906 86.703125 Z M 198.292969 83.636719 L 198.292969 85.476562 C 198.292969 87.375 196.484375 87.621094 195.992188 87.621094 C 195.011719 87.621094 194.214844 86.945312 194.214844 86.058594 C 194.214844 83.972656 197.3125 83.695312 198.292969 83.636719 Z M 198.292969 83.636719 "/>
<path fill-rule="nonzero" fill="rgb(0%, 0%, 0%)" fill-opacity="1" d="M 206.097656 82.058594 C 206.097656 82.027344 206.15625 81.84375 206.15625 81.84375 C 206.15625 81.753906 206.097656 81.628906 205.914062 81.628906 C 205.636719 81.628906 204.5 81.753906 204.164062 81.785156 C 204.074219 81.785156 203.886719 81.816406 203.886719 82.089844 C 203.886719 82.273438 204.074219 82.273438 204.226562 82.273438 C 204.898438 82.273438 204.898438 82.398438 204.898438 82.488281 C 204.898438 82.582031 204.871094 82.671875 204.839844 82.796875 L 203.121094 89.542969 C 203.089844 89.695312 203.089844 89.847656 203.089844 89.972656 C 203.089844 90.859375 203.859375 91.257812 204.5 91.257812 C 204.839844 91.257812 205.269531 91.167969 205.605469 90.554688 C 205.914062 90.03125 206.097656 89.234375 206.097656 89.175781 C 206.097656 88.988281 205.914062 88.988281 205.882812 88.988281 C 205.667969 88.988281 205.636719 89.082031 205.605469 89.328125 C 205.421875 90 205.144531 90.890625 204.5625 90.890625 C 204.195312 90.890625 204.101562 90.554688 204.101562 90.214844 C 204.101562 90.0625 204.132812 89.816406 204.195312 89.664062 Z M 206.097656 82.058594 "/>
<path fill-rule="nonzero" fill="rgb(0%, 0%, 0%)" fill-opacity="1" d="M 210.128906 90.921875 C 210.128906 91.65625 210.007812 92.546875 209.054688 93.40625 C 209.023438 93.46875 208.964844 93.527344 208.964844 93.589844 C 208.964844 93.683594 209.085938 93.773438 209.148438 93.773438 C 209.363281 93.773438 210.527344 92.667969 210.527344 91.042969 C 210.527344 90.214844 210.191406 89.574219 209.546875 89.574219 C 209.117188 89.574219 208.78125 89.910156 208.78125 90.339844 C 208.78125 90.769531 209.085938 91.136719 209.578125 91.136719 C 209.914062 91.136719 210.128906 90.921875 210.128906 90.921875 Z M 210.128906 90.921875 "/>
<path fill-rule="nonzero" fill="rgb(0%, 0%, 0%)" fill-opacity="1" d="M 217.898438 82.582031 C 217.898438 82.367188 217.714844 82.058594 217.347656 82.058594 C 216.949219 82.058594 216.582031 82.457031 216.582031 82.828125 C 216.582031 83.042969 216.734375 83.347656 217.132812 83.347656 C 217.5 83.347656 217.898438 82.980469 217.898438 82.582031 Z M 214.988281 91.8125 C 214.773438 92.761719 214.035156 93.527344 213.238281 93.527344 C 213.054688 93.527344 212.902344 93.527344 212.75 93.46875 C 213.085938 93.28125 213.207031 92.976562 213.207031 92.761719 C 213.207031 92.425781 212.933594 92.269531 212.65625 92.269531 C 212.257812 92.269531 211.890625 92.640625 211.890625 93.070312 C 211.890625 93.589844 212.410156 93.925781 213.238281 93.925781 C 214.066406 93.925781 215.660156 93.4375 216.089844 91.78125 L 217.316406 86.875 C 217.347656 86.722656 217.378906 86.597656 217.378906 86.382812 C 217.378906 85.648438 216.734375 85.09375 215.9375 85.09375 C 214.40625 85.09375 213.546875 86.996094 213.546875 87.210938 C 213.546875 87.363281 213.730469 87.363281 213.761719 87.363281 C 213.914062 87.363281 213.945312 87.335938 214.035156 87.121094 C 214.375 86.320312 215.078125 85.496094 215.875 85.496094 C 216.214844 85.496094 216.335938 85.707031 216.335938 86.167969 C 216.335938 86.320312 216.335938 86.507812 216.304688 86.566406 Z M 214.988281 91.8125 "/>
<path fill-rule="nonzero" fill="rgb(0%, 0%, 0%)" fill-opacity="1" d="M 153.300781 48.488281 C 153.300781 49.101562 153.300781 49.992188 155.324219 49.992188 L 156.277344 49.992188 C 156.644531 49.992188 156.890625 49.992188 156.890625 49.53125 C 156.890625 49.070312 156.644531 49.070312 156.367188 49.070312 C 155.171875 49.039062 155.171875 48.792969 155.171875 48.335938 L 155.171875 44.132812 C 155.171875 42.386719 153.792969 41.128906 150.878906 41.128906 C 149.773438 41.128906 147.382812 41.21875 147.382812 42.9375 C 147.382812 43.796875 148.058594 44.164062 148.578125 44.164062 C 149.191406 44.164062 149.835938 43.734375 149.835938 42.9375 C 149.835938 42.355469 149.46875 42.015625 149.40625 41.957031 C 149.960938 41.863281 150.574219 41.832031 150.816406 41.832031 C 152.257812 41.832031 152.964844 42.660156 152.964844 44.132812 L 152.964844 44.808594 C 151.554688 44.871094 146.585938 45.054688 146.585938 47.875 C 146.585938 49.746094 149.039062 50.113281 150.386719 50.113281 C 151.953125 50.113281 152.871094 49.316406 153.300781 48.488281 Z M 152.964844 45.421875 L 152.964844 47.261719 C 152.964844 49.164062 151.15625 49.40625 150.664062 49.40625 C 149.683594 49.40625 148.886719 48.734375 148.886719 47.84375 C 148.886719 45.757812 151.984375 45.484375 152.964844 45.421875 Z M 152.964844 45.421875 "/>
<path fill-rule="nonzero" fill="rgb(0%, 0%, 0%)" fill-opacity="1" d="M 160.769531 43.84375 C 160.769531 43.816406 160.828125 43.632812 160.828125 43.632812 C 160.828125 43.539062 160.769531 43.417969 160.582031 43.417969 C 160.308594 43.417969 159.171875 43.539062 158.835938 43.570312 C 158.742188 43.570312 158.558594 43.601562 158.558594 43.875 C 158.558594 44.058594 158.742188 44.058594 158.898438 44.058594 C 159.570312 44.058594 159.570312 44.183594 159.570312 44.273438 C 159.570312 44.367188 159.542969 44.457031 159.511719 44.582031 L 157.792969 51.328125 C 157.761719 51.480469 157.761719 51.632812 157.761719 51.757812 C 157.761719 52.644531 158.53125 53.046875 159.171875 53.046875 C 159.511719 53.046875 159.941406 52.953125 160.277344 52.339844 C 160.582031 51.820312 160.769531 51.019531 160.769531 50.960938 C 160.769531 50.777344 160.582031 50.777344 160.554688 50.777344 C 160.339844 50.777344 160.308594 50.867188 160.277344 51.113281 C 160.09375 51.789062 159.816406 52.675781 159.234375 52.675781 C 158.867188 52.675781 158.773438 52.339844 158.773438 52.003906 C 158.773438 51.847656 158.804688 51.605469 158.867188 51.449219 Z M 160.769531 43.84375 "/>
<path fill-rule="nonzero" fill="rgb(0%, 0%, 0%)" fill-opacity="1" d="M 164.800781 52.707031 C 164.800781 53.445312 164.679688 54.332031 163.726562 55.191406 C 163.695312 55.253906 163.636719 55.3125 163.636719 55.375 C 163.636719 55.46875 163.757812 55.558594 163.820312 55.558594 C 164.035156 55.558594 165.199219 54.457031 165.199219 52.832031 C 165.199219 52.003906 164.863281 51.359375 164.21875 51.359375 C 163.789062 51.359375 163.453125 51.695312 163.453125 52.125 C 163.453125 52.554688 163.757812 52.921875 164.25 52.921875 C 164.585938 52.921875 164.800781 52.707031 164.800781 52.707031 Z M 164.800781 52.707031 "/>
<path fill-rule="nonzero" fill="rgb(0%, 0%, 0%)" fill-opacity="1" d="M 169.78125 50.164062 C 169.78125 50.070312 170.117188 48.84375 170.117188 48.78125 C 170.148438 48.660156 170.546875 47.984375 171.007812 47.648438 C 171.128906 47.554688 171.5 47.28125 172.113281 47.28125 C 172.234375 47.28125 172.570312 47.28125 172.847656 47.464844 C 172.417969 47.585938 172.265625 47.984375 172.265625 48.230469 C 172.265625 48.507812 172.480469 48.722656 172.785156 48.722656 C 173.125 48.722656 173.554688 48.476562 173.554688 47.894531 C 173.554688 47.1875 172.816406 46.882812 172.113281 46.882812 C 171.40625 46.882812 170.792969 47.1875 170.179688 47.863281 C 169.933594 47.035156 169.105469 46.882812 168.769531 46.882812 C 168.277344 46.882812 167.941406 47.21875 167.695312 47.585938 C 167.390625 48.109375 167.207031 48.90625 167.207031 48.996094 C 167.207031 49.152344 167.390625 49.152344 167.449219 49.152344 C 167.636719 49.152344 167.636719 49.121094 167.726562 48.75 C 167.941406 47.925781 168.21875 47.28125 168.738281 47.28125 C 169.105469 47.28125 169.199219 47.585938 169.199219 47.953125 C 169.199219 48.199219 169.078125 48.722656 168.953125 49.089844 C 168.863281 49.457031 168.738281 50.007812 168.675781 50.316406 L 168.21875 52.0625 C 168.1875 52.246094 168.09375 52.585938 168.09375 52.617188 C 168.09375 52.921875 168.339844 53.046875 168.554688 53.046875 C 168.769531 53.046875 169.046875 52.921875 169.136719 52.675781 C 169.167969 52.585938 169.320312 51.972656 169.414062 51.632812 Z M 169.78125 50.164062 "/>
</svg>
