<?xml version="1.0" encoding="UTF-8"?>
<svg xmlns="http://www.w3.org/2000/svg" xmlns:xlink="http://www.w3.org/1999/xlink" width="295.178307pt" height="101.055393pt" viewBox="0 0 295.178307 101.055393">
<path fill="none" stroke-width="0.850394" stroke-linecap="butt" stroke-linejoin="miter" stroke="rgb(0%, 0%, 0%)" stroke-opacity="1" stroke-miterlimit="4" d="M 40.226562 69.210938 L 47.726562 61.710938 "/>
<path fill="none" stroke-width="0.850394" stroke-linecap="butt" stroke-linejoin="miter" stroke="rgb(0%, 0%, 0%)" stroke-opacity="1" stroke-miterlimit="4" d="M 40.226562 61.710938 L 47.726562 69.210938 "/>
<path fill="none" stroke-width="0.850394" stroke-linecap="butt" stroke-linejoin="miter" stroke="rgb(0%, 0%, 0%)" stroke-opacity="1" stroke-miterlimit="4" d="M 178.976562 69.210938 L 186.476562 61.710938 "/>
<path fill="none" stroke-width="0.850394" stroke-linecap="butt" stroke-linejoin="miter" stroke="rgb(0%, 0%, 0%)" stroke-opacity="1" stroke-miterlimit="4" d="M 178.976562 61.710938 L 186.476562 69.210938 "/>
<path fill="none" stroke-width="0.850394" stroke-linecap="butt" stroke-linejoin="miter" stroke="rgb(0%, 0%, 0%)" stroke-opacity="1" stroke-miterlimit="4" d="M 171.476562 54.210938 L 178.976562 46.710938 "/>
<path fill="none" stroke-width="0.850394" stroke-linecap="butt" stroke-linejoin="miter" stroke="rgb(0%, 0%, 0%)" stroke-opacity="1" stroke-miterlimit="4" d="M 171.476562 46.710938 L 178.976562 54.210938 "/>
<path fill="none" stroke-width="0.850394" stroke-linecap="butt" stroke-linejoin="miter" stroke="rgb(0%, 0%, 0%)" stroke-opacity="1" stroke-miterlimit="4" d="M 51.476562 50.460938 L 58.976562 42.960938 "/>
<path fill="none" stroke-width="0.850394" stroke-linecap="butt" stroke-linejoin="miter" stroke="rgb(0%, 0%, 0%)" stroke-opacity="1" stroke-miterlimit="4" d="M 51.476562 42.960938 L 58.976562 50.460938 "/>
<path fill-rule="nonzero" fill="rgb(0%, 0%, 0%)" fill-opacity="1" d="M 33.308594 76.566406 L 35.574219 74.023438 C 35.851562 73.746094 35.972656 73.625 37.570312 73.625 L 37.570312 72.703125 C 36.894531 72.734375 35.882812 72.765625 35.789062 72.765625 C 35.300781 72.765625 34.320312 72.703125 33.765625 72.703125 L 33.765625 73.625 C 34.042969 73.625 34.289062 73.652344 34.503906 73.777344 C 34.441406 73.898438 34.441406 73.960938 34.347656 74.023438 L 32.722656 75.863281 L 30.792969 73.625 L 31.589844 73.625 L 31.589844 72.703125 C 31.066406 72.703125 29.839844 72.765625 29.199219 72.765625 C 28.585938 72.765625 27.695312 72.703125 27.050781 72.703125 L 27.050781 73.625 L 28.460938 73.625 L 31.496094 77.210938 L 28.921875 80.09375 C 28.613281 80.460938 27.910156 80.460938 26.960938 80.460938 L 26.960938 81.382812 C 27.632812 81.351562 28.675781 81.320312 28.769531 81.320312 C 29.257812 81.320312 30.394531 81.351562 30.761719 81.382812 L 30.761719 80.460938 C 30.425781 80.460938 30.054688 80.371094 30.054688 80.246094 C 30.054688 80.214844 30.054688 80.214844 30.179688 80.0625 L 32.078125 77.917969 L 34.226562 80.460938 L 33.460938 80.460938 L 33.460938 81.382812 C 33.980469 81.351562 35.175781 81.320312 35.820312 81.320312 C 36.433594 81.320312 37.324219 81.351562 37.96875 81.382812 L 37.96875 80.460938 L 36.585938 80.460938 Z M 33.308594 76.566406 "/>
<path fill-rule="nonzero" fill="rgb(0%, 0%, 0%)" fill-opacity="1" d="M 63.203125 34.863281 L 65.472656 32.316406 C 65.75 32.039062 65.871094 31.917969 67.464844 31.917969 L 67.464844 31 C 66.789062 31.027344 65.777344 31.058594 65.6875 31.058594 C 65.195312 31.058594 64.214844 31 63.664062 31 L 63.664062 31.917969 C 63.9375 31.917969 64.183594 31.949219 64.398438 32.070312 C 64.335938 32.195312 64.335938 32.253906 64.246094 32.316406 L 62.621094 34.15625 L 60.6875 31.917969 L 61.484375 31.917969 L 61.484375 31 C 60.964844 31 59.738281 31.058594 59.09375 31.058594 C 58.480469 31.058594 57.589844 31 56.949219 31 L 56.949219 31.917969 L 58.359375 31.917969 L 61.394531 35.507812 L 58.816406 38.386719 C 58.511719 38.757812 57.804688 38.757812 56.855469 38.757812 L 56.855469 39.675781 C 57.53125 39.644531 58.574219 39.613281 58.664062 39.613281 C 59.15625 39.613281 60.289062 39.644531 60.65625 39.675781 L 60.65625 38.757812 C 60.320312 38.757812 59.953125 38.664062 59.953125 38.542969 C 59.953125 38.511719 59.953125 38.511719 60.074219 38.359375 L 61.976562 36.210938 L 64.125 38.757812 L 63.355469 38.757812 L 63.355469 39.675781 C 63.878906 39.644531 65.074219 39.613281 65.71875 39.613281 C 66.332031 39.613281 67.21875 39.644531 67.863281 39.675781 L 67.863281 38.757812 L 66.484375 38.757812 Z M 63.203125 34.863281 "/>
<path fill-rule="nonzero" fill="rgb(0%, 0%, 0%)" fill-opacity="1" d="M 71.511719 39.847656 C 71.511719 39.757812 71.851562 38.53125 71.851562 38.46875 C 71.882812 38.347656 72.28125 37.671875 72.738281 37.335938 C 72.863281 37.242188 73.230469 36.964844 73.84375 36.964844 C 73.964844 36.964844 74.304688 36.964844 74.578125 37.148438 C 74.152344 37.273438 73.996094 37.671875 73.996094 37.917969 C 73.996094 38.191406 74.210938 38.40625 74.519531 38.40625 C 74.855469 38.40625 75.285156 38.160156 75.285156 37.578125 C 75.285156 36.875 74.550781 36.566406 73.84375 36.566406 C 73.140625 36.566406 72.527344 36.875 71.914062 37.546875 C 71.667969 36.722656 70.839844 36.566406 70.5 36.566406 C 70.011719 36.566406 69.671875 36.90625 69.429688 37.273438 C 69.121094 37.792969 68.9375 38.589844 68.9375 38.683594 C 68.9375 38.835938 69.121094 38.835938 69.183594 38.835938 C 69.367188 38.835938 69.367188 38.804688 69.457031 38.4375 C 69.671875 37.609375 69.949219 36.964844 70.472656 36.964844 C 70.839844 36.964844 70.929688 37.273438 70.929688 37.640625 C 70.929688 37.886719 70.808594 38.40625 70.683594 38.773438 C 70.59375 39.144531 70.472656 39.695312 70.410156 40 L 69.949219 41.75 C 69.917969 41.933594 69.828125 42.269531 69.828125 42.300781 C 69.828125 42.609375 70.070312 42.730469 70.285156 42.730469 C 70.5 42.730469 70.777344 42.609375 70.871094 42.363281 C 70.898438 42.269531 71.054688 41.65625 71.144531 41.320312 Z M 71.511719 39.847656 "/>
<path fill-rule="nonzero" fill="rgb(0%, 0%, 0%)" fill-opacity="1" d="M 198.390625 81.105469 C 198.390625 81.71875 198.390625 82.609375 200.417969 82.609375 L 201.367188 82.609375 C 201.734375 82.609375 201.980469 82.609375 201.980469 82.148438 C 201.980469 81.6875 201.734375 81.6875 201.457031 81.6875 C 200.261719 81.65625 200.261719 81.410156 200.261719 80.953125 L 200.261719 76.75 C 200.261719 75.003906 198.882812 73.746094 195.96875 73.746094 C 194.867188 73.746094 192.472656 73.835938 192.472656 75.554688 C 192.472656 76.414062 193.148438 76.78125 193.667969 76.78125 C 194.285156 76.78125 194.925781 76.351562 194.925781 75.554688 C 194.925781 74.972656 194.558594 74.636719 194.496094 74.574219 C 195.050781 74.480469 195.664062 74.449219 195.910156 74.449219 C 197.351562 74.449219 198.054688 75.277344 198.054688 76.75 L 198.054688 77.425781 C 196.644531 77.488281 191.675781 77.671875 191.675781 80.492188 C 191.675781 82.363281 194.128906 82.730469 195.480469 82.730469 C 197.042969 82.730469 197.964844 81.933594 198.390625 81.105469 Z M 198.054688 78.039062 L 198.054688 79.878906 C 198.054688 81.78125 196.246094 82.023438 195.753906 82.023438 C 194.773438 82.023438 193.976562 81.351562 193.976562 80.460938 C 193.976562 78.375 197.074219 78.101562 198.054688 78.039062 Z M 198.054688 78.039062 "/>
<path fill-rule="nonzero" fill="rgb(0%, 0%, 0%)" fill-opacity="1" d="M 205.859375 76.464844 C 205.859375 76.433594 205.917969 76.25 205.917969 76.25 C 205.917969 76.15625 205.859375 76.035156 205.675781 76.035156 C 205.398438 76.035156 204.265625 76.15625 203.925781 76.1875 C 203.835938 76.1875 203.652344 76.21875 203.652344 76.492188 C 203.652344 76.679688 203.835938 76.679688 203.988281 76.679688 C 204.664062 76.679688 204.664062 76.800781 204.664062 76.890625 C 204.664062 76.984375 204.632812 77.078125 204.601562 77.199219 L 202.882812 83.945312 C 202.851562 84.097656 202.851562 84.25 202.851562 84.375 C 202.851562 85.265625 203.621094 85.664062 204.265625 85.664062 C 204.601562 85.664062 205.03125 85.570312 205.367188 84.957031 C 205.675781 84.4375 205.859375 83.636719 205.859375 83.578125 C 205.859375 83.394531 205.675781 83.394531 205.644531 83.394531 C 205.429688 83.394531 205.398438 83.484375 205.367188 83.730469 C 205.183594 84.40625 204.90625 85.292969 204.324219 85.292969 C 203.957031 85.292969 203.867188 84.957031 203.867188 84.621094 C 203.867188 84.464844 203.894531 84.222656 203.957031 84.066406 Z M 205.859375 76.464844 "/>
<path fill-rule="nonzero" fill="rgb(0%, 0%, 0%)" fill-opacity="1" d="M 209.890625 85.324219 C 209.890625 86.0625 209.769531 86.949219 208.816406 87.808594 C 208.789062 87.871094 208.726562 87.929688 208.726562 87.992188 C 208.726562 88.085938 208.847656 88.175781 208.910156 88.175781 C 209.125 88.175781 210.289062 87.074219 210.289062 85.449219 C 210.289062 84.621094 209.953125 83.976562 209.308594 83.976562 C 208.878906 83.976562 208.542969 84.3125 208.542969 84.742188 C 208.542969 85.171875 208.847656 85.539062 209.339844 85.539062 C 209.675781 85.539062 209.890625 85.324219 209.890625 85.324219 Z M 209.890625 85.324219 "/>
<path fill-rule="nonzero" fill="rgb(0%, 0%, 0%)" fill-opacity="1" d="M 217.664062 76.984375 C 217.664062 76.769531 217.480469 76.464844 217.109375 76.464844 C 216.710938 76.464844 216.34375 76.863281 216.34375 77.230469 C 216.34375 77.445312 216.496094 77.75 216.894531 77.75 C 217.265625 77.75 217.664062 77.382812 217.664062 76.984375 Z M 214.75 86.214844 C 214.535156 87.164062 213.796875 87.929688 213 87.929688 C 212.816406 87.929688 212.664062 87.929688 212.511719 87.871094 C 212.847656 87.6875 212.972656 87.378906 212.972656 87.164062 C 212.972656 86.828125 212.695312 86.675781 212.417969 86.675781 C 212.019531 86.675781 211.652344 87.042969 211.652344 87.472656 C 211.652344 87.992188 212.171875 88.332031 213 88.332031 C 213.828125 88.332031 215.425781 87.839844 215.851562 86.183594 L 217.078125 81.277344 C 217.109375 81.125 217.140625 81 217.140625 80.785156 C 217.140625 80.050781 216.496094 79.5 215.699219 79.5 C 214.167969 79.5 213.308594 81.398438 213.308594 81.613281 C 213.308594 81.769531 213.492188 81.769531 213.523438 81.769531 C 213.675781 81.769531 213.707031 81.738281 213.796875 81.523438 C 214.136719 80.726562 214.839844 79.898438 215.640625 79.898438 C 215.976562 79.898438 216.097656 80.113281 216.097656 80.570312 C 216.097656 80.726562 216.097656 80.910156 216.066406 80.972656 Z M 214.75 86.214844 "/>
<path fill-rule="nonzero" fill="rgb(0%, 0%, 0%)" fill-opacity="1" d="M 162.855469 37.863281 C 162.855469 38.476562 162.855469 39.367188 164.878906 39.367188 L 165.832031 39.367188 C 166.199219 39.367188 166.445312 39.367188 166.445312 38.90625 C 166.445312 38.445312 166.199219 38.445312 165.921875 38.445312 C 164.726562 38.417969 164.726562 38.171875 164.726562 37.710938 L 164.726562 33.511719 C 164.726562 31.761719 163.347656 30.503906 160.433594 30.503906 C 159.328125 30.503906 156.9375 30.597656 156.9375 32.3125 C 156.9375 33.171875 157.613281 33.539062 158.132812 33.539062 C 158.746094 33.539062 159.390625 33.113281 159.390625 32.3125 C 159.390625 31.730469 159.023438 31.394531 158.960938 31.332031 C 159.511719 31.242188 160.125 31.210938 160.371094 31.210938 C 161.8125 31.210938 162.519531 32.039062 162.519531 33.511719 L 162.519531 34.183594 C 161.109375 34.246094 156.140625 34.429688 156.140625 37.25 C 156.140625 39.121094 158.59375 39.488281 159.941406 39.488281 C 161.507812 39.488281 162.425781 38.691406 162.855469 37.863281 Z M 162.519531 34.796875 L 162.519531 36.636719 C 162.519531 38.539062 160.710938 38.785156 160.21875 38.785156 C 159.238281 38.785156 158.441406 38.109375 158.441406 37.21875 C 158.441406 35.136719 161.539062 34.859375 162.519531 34.796875 Z M 162.519531 34.796875 "/>
<path fill-rule="nonzero" fill="rgb(0%, 0%, 0%)" fill-opacity="1" d="M 170.320312 33.222656 C 170.320312 33.191406 170.382812 33.007812 170.382812 33.007812 C 170.382812 32.914062 170.320312 32.792969 170.136719 32.792969 C 169.863281 32.792969 168.726562 32.914062 168.390625 32.945312 C 168.296875 32.945312 168.113281 32.976562 168.113281 33.253906 C 168.113281 33.4375 168.296875 33.4375 168.453125 33.4375 C 169.125 33.4375 169.125 33.558594 169.125 33.652344 C 169.125 33.742188 169.09375 33.835938 169.066406 33.957031 L 167.347656 40.703125 C 167.316406 40.859375 167.316406 41.011719 167.316406 41.132812 C 167.316406 42.023438 168.082031 42.421875 168.726562 42.421875 C 169.066406 42.421875 169.496094 42.328125 169.832031 41.714844 C 170.136719 41.195312 170.320312 40.398438 170.320312 40.335938 C 170.320312 40.152344 170.136719 40.152344 170.109375 40.152344 C 169.894531 40.152344 169.863281 40.246094 169.832031 40.488281 C 169.648438 41.164062 169.371094 42.054688 168.789062 42.054688 C 168.421875 42.054688 168.328125 41.714844 168.328125 41.378906 C 168.328125 41.226562 168.359375 40.980469 168.421875 40.828125 Z M 170.320312 33.222656 "/>
<path fill-rule="nonzero" fill="rgb(0%, 0%, 0%)" fill-opacity="1" d="M 174.355469 42.085938 C 174.355469 42.820312 174.234375 43.710938 173.28125 44.566406 C 173.25 44.628906 173.191406 44.691406 173.191406 44.753906 C 173.191406 44.84375 173.3125 44.9375 173.375 44.9375 C 173.589844 44.9375 174.753906 43.832031 174.753906 42.207031 C 174.753906 41.378906 174.417969 40.734375 173.773438 40.734375 C 173.34375 40.734375 173.007812 41.074219 173.007812 41.5 C 173.007812 41.929688 173.3125 42.300781 173.804688 42.300781 C 174.140625 42.300781 174.355469 42.085938 174.355469 42.085938 Z M 174.355469 42.085938 "/>
<path fill-rule="nonzero" fill="rgb(0%, 0%, 0%)" fill-opacity="1" d="M 179.335938 39.539062 C 179.335938 39.449219 179.671875 38.222656 179.671875 38.160156 C 179.703125 38.035156 180.101562 37.363281 180.5625 37.023438 C 180.683594 36.933594 181.054688 36.65625 181.667969 36.65625 C 181.789062 36.65625 182.125 36.65625 182.402344 36.839844 C 181.972656 36.964844 181.820312 37.363281 181.820312 37.609375 C 181.820312 37.882812 182.035156 38.097656 182.339844 38.097656 C 182.679688 38.097656 183.109375 37.851562 183.109375 37.269531 C 183.109375 36.566406 182.371094 36.257812 181.667969 36.257812 C 180.960938 36.257812 180.347656 36.566406 179.734375 37.238281 C 179.488281 36.410156 178.660156 36.257812 178.324219 36.257812 C 177.832031 36.257812 177.496094 36.59375 177.25 36.964844 C 176.945312 37.484375 176.761719 38.28125 176.761719 38.375 C 176.761719 38.527344 176.945312 38.527344 177.003906 38.527344 C 177.1875 38.527344 177.1875 38.496094 177.28125 38.128906 C 177.496094 37.300781 177.773438 36.65625 178.292969 36.65625 C 178.660156 36.65625 178.753906 36.964844 178.753906 37.332031 C 178.753906 37.578125 178.628906 38.097656 178.507812 38.464844 C 178.414062 38.835938 178.292969 39.386719 178.230469 39.691406 L 177.773438 41.441406 C 177.742188 41.625 177.648438 41.960938 177.648438 41.992188 C 177.648438 42.300781 177.894531 42.421875 178.109375 42.421875 C 178.324219 42.421875 178.601562 42.300781 178.691406 42.054688 C 178.722656 41.960938 178.875 41.347656 178.96875 41.011719 Z M 179.335938 39.539062 "/>
<path fill-rule="nonzero" fill="rgb(100%, 10.588074%, 9.01947%)" fill-opacity="1" d="M 75.371094 72.410156 C 75.371094 72.105469 75.371094 71.738281 74.972656 71.738281 C 74.574219 71.738281 74.574219 72.195312 74.574219 72.472656 L 74.574219 90.597656 C 74.574219 90.902344 74.574219 91.332031 74.972656 91.332031 C 75.371094 91.332031 75.371094 90.964844 75.371094 90.65625 Z M 79.175781 72.472656 C 79.175781 72.167969 79.175781 71.738281 78.777344 71.738281 C 78.410156 71.738281 78.410156 72.105469 78.410156 72.410156 L 78.410156 90.65625 C 78.410156 90.964844 78.410156 91.332031 78.777344 91.332031 C 79.175781 91.332031 79.175781 90.871094 79.175781 90.597656 Z M 79.175781 72.472656 "/>
<path fill-rule="nonzero" fill="rgb(100%, 10.588074%, 9.01947%)" fill-opacity="1" d="M 88.554688 81.609375 L 90.824219 79.066406 C 91.097656 78.789062 91.222656 78.667969 92.816406 78.667969 L 92.816406 77.746094 C 92.140625 77.777344 91.128906 77.808594 91.039062 77.808594 C 90.546875 77.808594 89.566406 77.746094 89.011719 77.746094 L 89.011719 78.667969 C 89.289062 78.667969 89.535156 78.699219 89.75 78.820312 C 89.6875 78.941406 89.6875 79.003906 89.597656 79.066406 L 87.972656 80.90625 L 86.039062 78.667969 L 86.835938 78.667969 L 86.835938 77.746094 C 86.316406 77.746094 85.089844 77.808594 84.445312 77.808594 C 83.832031 77.808594 82.941406 77.746094 82.296875 77.746094 L 82.296875 78.667969 L 83.707031 78.667969 L 86.746094 82.253906 L 84.167969 85.136719 C 83.863281 85.503906 83.15625 85.503906 82.207031 85.503906 L 82.207031 86.425781 C 82.878906 86.394531 83.921875 86.363281 84.015625 86.363281 C 84.507812 86.363281 85.640625 86.394531 86.007812 86.425781 L 86.007812 85.503906 C 85.671875 85.503906 85.304688 85.414062 85.304688 85.289062 C 85.304688 85.261719 85.304688 85.261719 85.425781 85.105469 L 87.328125 82.960938 L 89.472656 85.503906 L 88.707031 85.503906 L 88.707031 86.425781 C 89.226562 86.394531 90.425781 86.363281 91.066406 86.363281 C 91.679688 86.363281 92.570312 86.394531 93.214844 86.425781 L 93.214844 85.503906 L 91.835938 85.503906 Z M 88.554688 81.609375 "/>
<path fill-rule="nonzero" fill="rgb(100%, 10.588074%, 9.01947%)" fill-opacity="1" d="M 110.867188 81.917969 C 111.203125 81.917969 111.570312 81.917969 111.570312 81.519531 C 111.570312 81.152344 111.203125 81.152344 110.867188 81.152344 L 100.289062 81.152344 C 99.949219 81.152344 99.613281 81.152344 99.613281 81.519531 C 99.613281 81.917969 99.949219 81.917969 100.289062 81.917969 Z M 110.867188 81.917969 "/>
<path fill-rule="nonzero" fill="rgb(100%, 10.588074%, 9.01947%)" fill-opacity="1" d="M 124.867188 84.921875 C 124.867188 85.535156 124.867188 86.425781 126.894531 86.425781 L 127.84375 86.425781 C 128.210938 86.425781 128.457031 86.425781 128.457031 85.964844 C 128.457031 85.503906 128.210938 85.503906 127.933594 85.503906 C 126.738281 85.476562 126.738281 85.230469 126.738281 84.769531 L 126.738281 80.570312 C 126.738281 78.820312 125.359375 77.5625 122.445312 77.5625 C 121.34375 77.5625 118.949219 77.65625 118.949219 79.371094 C 118.949219 80.230469 119.625 80.597656 120.144531 80.597656 C 120.757812 80.597656 121.402344 80.171875 121.402344 79.371094 C 121.402344 78.789062 121.035156 78.453125 120.972656 78.390625 C 121.527344 78.300781 122.140625 78.269531 122.386719 78.269531 C 123.828125 78.269531 124.53125 79.097656 124.53125 80.570312 L 124.53125 81.242188 C 123.121094 81.304688 118.152344 81.488281 118.152344 84.308594 C 118.152344 86.179688 120.605469 86.546875 121.957031 86.546875 C 123.519531 86.546875 124.441406 85.75 124.867188 84.921875 Z M 124.53125 81.855469 L 124.53125 83.695312 C 124.53125 85.597656 122.722656 85.84375 122.230469 85.84375 C 121.25 85.84375 120.453125 85.167969 120.453125 84.277344 C 120.453125 82.195312 123.550781 81.917969 124.53125 81.855469 Z M 124.53125 81.855469 "/>
<path fill-rule="nonzero" fill="rgb(100%, 10.588074%, 9.01947%)" fill-opacity="1" d="M 132.332031 80.28125 C 132.332031 80.25 132.394531 80.066406 132.394531 80.066406 C 132.394531 79.972656 132.332031 79.851562 132.148438 79.851562 C 131.871094 79.851562 130.738281 79.972656 130.402344 80.003906 C 130.308594 80.003906 130.125 80.035156 130.125 80.3125 C 130.125 80.496094 130.308594 80.496094 130.460938 80.496094 C 131.136719 80.496094 131.136719 80.617188 131.136719 80.710938 C 131.136719 80.800781 131.105469 80.894531 131.074219 81.015625 L 129.359375 87.761719 C 129.328125 87.917969 129.328125 88.070312 129.328125 88.191406 C 129.328125 89.082031 130.09375 89.480469 130.738281 89.480469 C 131.074219 89.480469 131.503906 89.386719 131.84375 88.773438 C 132.148438 88.253906 132.332031 87.457031 132.332031 87.394531 C 132.332031 87.210938 132.148438 87.210938 132.117188 87.210938 C 131.902344 87.210938 131.871094 87.304688 131.84375 87.546875 C 131.660156 88.222656 131.382812 89.113281 130.800781 89.113281 C 130.433594 89.113281 130.339844 88.773438 130.339844 88.4375 C 130.339844 88.285156 130.371094 88.039062 130.433594 87.886719 Z M 132.332031 80.28125 "/>
<path fill-rule="nonzero" fill="rgb(100%, 10.588074%, 9.01947%)" fill-opacity="1" d="M 136.367188 89.144531 C 136.367188 89.878906 136.242188 90.769531 135.292969 91.625 C 135.261719 91.6875 135.199219 91.75 135.199219 91.8125 C 135.199219 91.902344 135.324219 91.996094 135.382812 91.996094 C 135.597656 91.996094 136.765625 90.890625 136.765625 89.265625 C 136.765625 88.4375 136.425781 87.792969 135.785156 87.792969 C 135.355469 87.792969 135.015625 88.132812 135.015625 88.558594 C 135.015625 88.988281 135.324219 89.359375 135.8125 89.359375 C 136.152344 89.359375 136.367188 89.144531 136.367188 89.144531 Z M 136.367188 89.144531 "/>
<path fill-rule="nonzero" fill="rgb(100%, 10.588074%, 9.01947%)" fill-opacity="1" d="M 144.136719 80.800781 C 144.136719 80.585938 143.953125 80.28125 143.585938 80.28125 C 143.1875 80.28125 142.820312 80.679688 142.820312 81.046875 C 142.820312 81.261719 142.972656 81.570312 143.371094 81.570312 C 143.738281 81.570312 144.136719 81.199219 144.136719 80.800781 Z M 141.222656 90.03125 C 141.007812 90.984375 140.273438 91.75 139.476562 91.75 C 139.292969 91.75 139.140625 91.75 138.984375 91.6875 C 139.324219 91.503906 139.445312 91.199219 139.445312 90.984375 C 139.445312 90.644531 139.167969 90.492188 138.894531 90.492188 C 138.496094 90.492188 138.125 90.859375 138.125 91.289062 C 138.125 91.8125 138.648438 92.148438 139.476562 92.148438 C 140.304688 92.148438 141.898438 91.65625 142.328125 90 L 143.554688 85.09375 C 143.585938 84.941406 143.617188 84.820312 143.617188 84.605469 C 143.617188 83.867188 142.972656 83.316406 142.175781 83.316406 C 140.640625 83.316406 139.78125 85.21875 139.78125 85.433594 C 139.78125 85.585938 139.964844 85.585938 139.996094 85.585938 C 140.152344 85.585938 140.179688 85.554688 140.273438 85.339844 C 140.609375 84.542969 141.316406 83.714844 142.113281 83.714844 C 142.449219 83.714844 142.574219 83.929688 142.574219 84.390625 C 142.574219 84.542969 142.574219 84.726562 142.542969 84.789062 Z M 141.222656 90.03125 "/>
<path fill-rule="nonzero" fill="rgb(100%, 10.588074%, 9.01947%)" fill-opacity="1" d="M 149.75 72.410156 C 149.75 72.105469 149.75 71.738281 149.351562 71.738281 C 148.953125 71.738281 148.953125 72.195312 148.953125 72.472656 L 148.953125 90.597656 C 148.953125 90.902344 148.953125 91.332031 149.351562 91.332031 C 149.75 91.332031 149.75 90.964844 149.75 90.65625 Z M 153.550781 72.472656 C 153.550781 72.167969 153.550781 71.738281 153.152344 71.738281 C 152.785156 71.738281 152.785156 72.105469 152.785156 72.410156 L 152.785156 90.65625 C 152.785156 90.964844 152.785156 91.332031 153.152344 91.332031 C 153.550781 91.332031 153.550781 90.871094 153.550781 90.597656 Z M 153.550781 72.472656 "/>
<path fill-rule="nonzero" fill="rgb(100%, 10.588074%, 9.01947%)" fill-opacity="1" d="M 163.050781 90.511719 L 162.589844 90.511719 C 162.558594 90.820312 162.40625 91.617188 162.222656 91.738281 C 162.128906 91.832031 161.085938 91.832031 160.875 91.832031 L 158.359375 91.832031 C 159.800781 90.574219 160.289062 90.175781 161.085938 89.53125 C 162.101562 88.734375 163.050781 87.875 163.050781 86.585938 C 163.050781 84.929688 161.609375 83.917969 159.859375 83.917969 C 158.175781 83.917969 157.007812 85.117188 157.007812 86.371094 C 157.007812 87.046875 157.59375 87.140625 157.746094 87.140625 C 158.050781 87.140625 158.449219 86.894531 158.449219 86.402344 C 158.449219 86.15625 158.359375 85.667969 157.652344 85.667969 C 158.082031 84.714844 159.003906 84.410156 159.644531 84.410156 C 161.027344 84.410156 161.730469 85.484375 161.730469 86.585938 C 161.730469 87.78125 160.875 88.703125 160.445312 89.195312 L 157.164062 92.476562 C 157.007812 92.597656 157.007812 92.628906 157.007812 92.996094 L 162.652344 92.996094 Z M 163.050781 90.511719 "/>
<path fill="none" stroke-width="1.417323" stroke-linecap="butt" stroke-linejoin="miter" stroke="rgb(100%, 10.588074%, 9.01947%)" stroke-opacity="1" stroke-miterlimit="4" d="M 43.976562 65.460938 L 182.726562 65.460938 "/>
</svg>
