<?xml version="1.0" encoding="UTF-8"?>
<svg xmlns="http://www.w3.org/2000/svg" xmlns:xlink="http://www.w3.org/1999/xlink" width="398.482426pt" height="254.105638pt" viewBox="0 0 398.482426 254.105638">
<defs>
<clipPath id="clip-0">
<path clip-rule="nonzero" d="M 193 23 L 197 23 L 197 254.105469 L 193 254.105469 Z M 193 23 "/>
</clipPath>
<clipPath id="clip-1">
<path clip-rule="nonzero" d="M 91 19 L 204 19 L 204 254.105469 L 91 254.105469 Z M 91 19 "/>
</clipPath>
<clipPath id="clip-2">
<path clip-rule="nonzero" d="M 393 78 L 398.484375 78 L 398.484375 95 L 393 95 Z M 393 78 "/>
</clipPath>
</defs>
<path fill-rule="nonzero" fill="rgb(100%, 0%, 9.803772%)" fill-opacity="1" stroke-width="1.835688" stroke-linecap="butt" stroke-linejoin="round" stroke="rgb(100%, 0%, 9.803772%)" stroke-opacity="1" stroke-miterlimit="4" d="M 85.800781 139.097656 C 85.800781 141.347656 83.976562 143.171875 81.726562 143.171875 C 79.472656 143.171875 77.648438 141.347656 77.648438 139.097656 C 77.648438 136.847656 79.472656 135.023438 81.726562 135.023438 C 83.976562 135.023438 85.800781 136.847656 85.800781 139.097656 Z M 85.800781 139.097656 "/>
<g clip-path="url(#clip-0)">
<path fill="none" stroke-width="1.835688" stroke-linecap="square" stroke-linejoin="miter" stroke="rgb(0%, 0%, 0%)" stroke-opacity="1" stroke-miterlimit="4" d="M 195 25.007812 L 195 253.1875 "/>
</g>
<path fill="none" stroke-width="1.417323" stroke-linecap="square" stroke-linejoin="miter" stroke="rgb(23.529053%, 81.175232%, 30.587769%)" stroke-opacity="1" stroke-miterlimit="4" d="M 85.71875 106.855469 C 101.542969 109.21875 113.316406 122.714844 113.503906 138.710938 C 113.695312 154.707031 102.246094 168.476562 86.484375 171.214844 "/>
<path fill="none" stroke-width="1.417323" stroke-linecap="square" stroke-linejoin="miter" stroke="rgb(23.529053%, 81.175232%, 30.587769%)" stroke-opacity="1" stroke-miterlimit="4" d="M 90.003906 91.054688 C 113.320312 95.46875 130.105469 115.988281 129.800781 139.722656 C 129.5 163.453125 112.195312 183.539062 88.773438 187.355469 "/>
<path fill="none" stroke-width="1.417323" stroke-linecap="square" stroke-linejoin="miter" stroke="rgb(23.529053%, 81.175232%, 30.587769%)" stroke-opacity="1" stroke-miterlimit="4" d="M 92.742188 73.328125 C 124.414062 79.027344 147.523438 106.488281 147.730469 138.664062 C 147.941406 170.84375 125.183594 198.601562 93.589844 204.707031 "/>
<path fill="none" stroke-width="1.417323" stroke-linecap="square" stroke-linejoin="miter" stroke="rgb(23.529053%, 81.175232%, 30.587769%)" stroke-opacity="1" stroke-miterlimit="4" d="M 83.316406 122.976562 C 91.226562 124.15625 97.113281 130.90625 97.207031 138.902344 C 97.300781 146.902344 91.578125 153.789062 83.695312 155.15625 "/>
<path fill="none" stroke-width="1.559055" stroke-linecap="square" stroke-linejoin="miter" stroke="rgb(23.529053%, 81.175232%, 30.587769%)" stroke-opacity="1" stroke-miterlimit="4" d="M 92.933594 58.496094 C 132.492188 64.398438 161.921875 98.136719 162.394531 138.128906 C 162.871094 178.125 134.25 212.550781 94.84375 219.390625 "/>
<path fill="none" stroke-width="1.417323" stroke-linecap="square" stroke-linejoin="miter" stroke="rgb(23.529053%, 81.175232%, 30.587769%)" stroke-opacity="1" stroke-miterlimit="4" d="M 95.339844 42.378906 C 142.808594 49.460938 178.125 89.945312 178.695312 137.9375 C 179.261719 185.929688 144.917969 227.242188 97.632812 235.449219 "/>
<g clip-path="url(#clip-1)">
<path fill="none" stroke-width="1.417323" stroke-linecap="square" stroke-linejoin="miter" stroke="rgb(23.529053%, 81.175232%, 30.587769%)" stroke-opacity="1" stroke-miterlimit="4" d="M 99.132812 27.867188 C 153.726562 36.011719 194.335938 82.570312 194.992188 137.761719 C 195.644531 192.953125 156.152344 240.460938 101.769531 249.898438 "/>
</g>
<path fill-rule="nonzero" fill="rgb(0%, 0%, 0%)" fill-opacity="1" d="M 10.242188 118.0625 C 10.242188 115.773438 8.714844 113.847656 6.789062 113.375 L 3.8125 112.6875 C 2.359375 112.324219 1.488281 111.089844 1.488281 109.746094 C 1.488281 108.109375 2.722656 106.695312 4.539062 106.695312 C 8.386719 106.695312 8.898438 110.507812 9.042969 111.523438 C 9.078125 111.667969 9.078125 111.816406 9.332031 111.816406 C 9.625 111.816406 9.625 111.707031 9.625 111.269531 L 9.625 106.621094 C 9.625 106.222656 9.625 106.039062 9.371094 106.039062 C 9.222656 106.039062 9.1875 106.078125 9.042969 106.367188 L 8.207031 107.675781 C 7.515625 106.984375 6.574219 106.039062 4.503906 106.039062 C 1.925781 106.039062 0 108.074219 0 110.542969 C 0 112.46875 1.234375 114.175781 3.015625 114.792969 C 3.269531 114.863281 4.464844 115.15625 6.101562 115.554688 C 6.71875 115.699219 7.40625 115.882812 8.0625 116.71875 C 8.535156 117.335938 8.789062 118.097656 8.789062 118.859375 C 8.789062 120.492188 7.625 122.164062 5.664062 122.164062 C 5.011719 122.164062 3.230469 122.054688 1.996094 120.929688 C 0.652344 119.660156 0.582031 118.207031 0.582031 117.371094 C 0.542969 117.117188 0.363281 117.117188 0.289062 117.117188 C 0 117.117188 0 117.296875 0 117.699219 L 0 122.347656 C 0 122.746094 0 122.890625 0.253906 122.890625 C 0.398438 122.890625 0.4375 122.855469 0.582031 122.601562 C 0.582031 122.601562 0.652344 122.492188 1.417969 121.257812 C 2.140625 122.054688 3.632812 122.890625 5.703125 122.890625 C 8.386719 122.890625 10.242188 120.640625 10.242188 118.0625 Z M 10.242188 118.0625 "/>
<path fill-rule="nonzero" fill="rgb(0%, 0%, 0%)" fill-opacity="1" d="M 22.460938 117.40625 C 22.460938 114.464844 20.171875 111.996094 17.375 111.996094 C 14.472656 111.996094 12.21875 114.539062 12.21875 117.40625 C 12.21875 120.421875 14.617188 122.636719 17.339844 122.636719 C 20.136719 122.636719 22.460938 120.347656 22.460938 117.40625 Z M 20.570312 117.226562 C 20.570312 118.0625 20.570312 119.332031 20.0625 120.347656 C 19.519531 121.402344 18.503906 122.054688 17.375 122.054688 C 16.359375 122.054688 15.34375 121.582031 14.726562 120.492188 C 14.144531 119.476562 14.144531 118.0625 14.144531 117.226562 C 14.144531 116.316406 14.144531 115.082031 14.6875 114.066406 C 15.304688 113.011719 16.394531 112.503906 17.339844 112.503906 C 18.355469 112.503906 19.335938 113.011719 19.953125 114.03125 C 20.570312 115.011719 20.570312 116.355469 20.570312 117.226562 Z M 20.570312 117.226562 "/>
<path fill-rule="nonzero" fill="rgb(0%, 0%, 0%)" fill-opacity="1" d="M 35.527344 122.382812 L 35.527344 121.65625 C 33.929688 121.65625 33.75 121.511719 33.75 120.347656 L 33.75 112.140625 L 30.335938 112.394531 L 30.335938 113.121094 C 31.933594 113.121094 32.152344 113.265625 32.152344 114.429688 L 32.152344 118.53125 C 32.152344 120.566406 31.023438 122.128906 29.316406 122.128906 C 27.394531 122.128906 27.285156 121.039062 27.285156 119.839844 L 27.285156 112.140625 L 23.871094 112.394531 L 23.871094 113.121094 C 25.6875 113.121094 25.6875 113.195312 25.6875 115.226562 L 25.6875 118.714844 C 25.6875 120.53125 25.6875 122.636719 29.210938 122.636719 C 30.515625 122.636719 31.535156 121.984375 32.1875 120.566406 L 32.1875 122.636719 Z M 35.527344 122.382812 "/>
<path fill-rule="nonzero" fill="rgb(0%, 0%, 0%)" fill-opacity="1" d="M 44.441406 113.558594 C 44.441406 112.832031 43.71875 112.140625 42.738281 112.140625 C 41.03125 112.140625 40.195312 113.703125 39.902344 114.683594 L 39.902344 112.140625 L 36.671875 112.394531 L 36.671875 113.121094 C 38.304688 113.121094 38.488281 113.265625 38.488281 114.429688 L 38.488281 120.640625 C 38.488281 121.65625 38.234375 121.65625 36.671875 121.65625 L 36.671875 122.382812 L 39.324219 122.308594 C 40.230469 122.308594 41.320312 122.308594 42.265625 122.382812 L 42.265625 121.65625 L 41.757812 121.65625 C 40.050781 121.65625 40.011719 121.402344 40.011719 120.566406 L 40.011719 117.007812 C 40.011719 114.71875 40.992188 112.648438 42.738281 112.648438 C 42.882812 112.648438 42.953125 112.648438 42.992188 112.6875 C 42.917969 112.6875 42.445312 112.976562 42.445312 113.59375 C 42.445312 114.210938 42.953125 114.574219 43.460938 114.574219 C 43.863281 114.574219 44.441406 114.285156 44.441406 113.558594 Z M 44.441406 113.558594 "/>
<path fill-rule="nonzero" fill="rgb(0%, 0%, 0%)" fill-opacity="1" d="M 54.71875 119.621094 C 54.71875 119.40625 54.464844 119.40625 54.390625 119.40625 C 54.207031 119.40625 54.136719 119.476562 54.101562 119.621094 C 53.445312 121.765625 51.921875 122.054688 51.085938 122.054688 C 49.851562 122.054688 47.816406 121.074219 47.816406 117.335938 C 47.816406 113.558594 49.707031 112.578125 50.941406 112.578125 C 51.160156 112.578125 52.609375 112.613281 53.410156 113.449219 C 52.464844 113.523438 52.320312 114.210938 52.320312 114.503906 C 52.320312 115.121094 52.757812 115.554688 53.375 115.554688 C 53.992188 115.554688 54.464844 115.191406 54.464844 114.464844 C 54.464844 112.902344 52.683594 111.996094 50.902344 111.996094 C 48 111.996094 45.894531 114.503906 45.894531 117.371094 C 45.894531 120.347656 48.179688 122.636719 50.867188 122.636719 C 53.953125 122.636719 54.71875 119.839844 54.71875 119.621094 Z M 54.71875 119.621094 "/>
<path fill-rule="nonzero" fill="rgb(0%, 0%, 0%)" fill-opacity="1" d="M 65 119.621094 C 65 119.40625 64.816406 119.332031 64.671875 119.332031 C 64.492188 119.332031 64.417969 119.476562 64.382812 119.660156 C 63.582031 122.054688 61.476562 122.054688 61.257812 122.054688 C 60.097656 122.054688 59.1875 121.367188 58.644531 120.492188 C 57.953125 119.40625 57.953125 117.878906 57.953125 117.042969 L 64.417969 117.042969 C 64.925781 117.042969 65 117.042969 65 116.535156 C 65 114.246094 63.726562 111.996094 60.859375 111.996094 C 58.171875 111.996094 56.03125 114.394531 56.03125 117.296875 C 56.03125 120.386719 58.460938 122.636719 61.113281 122.636719 C 63.945312 122.636719 65 120.058594 65 119.621094 Z M 63.472656 116.535156 L 57.953125 116.535156 C 58.097656 113.085938 60.058594 112.503906 60.859375 112.503906 C 63.21875 112.503906 63.472656 115.628906 63.472656 116.535156 Z M 63.472656 116.535156 "/>
<path fill-rule="nonzero" fill="rgb(0%, 0%, 0%)" fill-opacity="1" d="M 165.050781 14.308594 C 165.050781 14.164062 165.050781 13.910156 164.761719 13.910156 C 164.507812 13.910156 164.507812 14.125 164.472656 14.273438 C 164.328125 15.941406 163.527344 16.339844 162.945312 16.339844 C 161.820312 16.339844 161.640625 15.144531 161.3125 13 L 160.984375 11.148438 C 160.585938 9.660156 159.460938 8.898438 158.1875 8.460938 C 160.40625 7.917969 162.21875 6.5 162.21875 4.683594 C 162.21875 2.46875 159.570312 0.507812 156.191406 0.507812 L 148.894531 0.507812 L 148.894531 1.234375 L 149.472656 1.234375 C 151.253906 1.234375 151.289062 1.488281 151.289062 2.324219 L 151.289062 14.527344 C 151.289062 15.359375 151.253906 15.613281 149.472656 15.613281 L 148.894531 15.613281 L 148.894531 16.339844 C 149.726562 16.269531 151.398438 16.269531 152.269531 16.269531 C 153.179688 16.269531 154.847656 16.269531 155.683594 16.339844 L 155.683594 15.613281 L 155.101562 15.613281 C 153.324219 15.613281 153.285156 15.359375 153.285156 14.527344 L 153.285156 8.679688 L 155.9375 8.679688 C 156.300781 8.679688 157.28125 8.679688 158.117188 9.476562 C 158.988281 10.277344 158.988281 11.003906 158.988281 12.566406 C 158.988281 14.054688 158.988281 14.996094 159.933594 15.871094 C 160.875 16.703125 162.148438 16.851562 162.835938 16.851562 C 164.652344 16.851562 165.050781 14.960938 165.050781 14.308594 Z M 159.824219 4.683594 C 159.824219 6.28125 159.277344 8.171875 155.863281 8.171875 L 153.285156 8.171875 L 153.285156 2.179688 C 153.285156 1.632812 153.285156 1.34375 153.796875 1.269531 C 154.011719 1.234375 154.703125 1.234375 155.175781 1.234375 C 157.246094 1.234375 159.824219 1.34375 159.824219 4.683594 Z M 159.824219 4.683594 "/>
<path fill-rule="nonzero" fill="rgb(0%, 0%, 0%)" fill-opacity="1" d="M 174.761719 13.582031 C 174.761719 13.363281 174.578125 13.292969 174.433594 13.292969 C 174.25 13.292969 174.179688 13.4375 174.144531 13.617188 C 173.34375 16.015625 171.238281 16.015625 171.019531 16.015625 C 169.859375 16.015625 168.949219 15.324219 168.40625 14.453125 C 167.714844 13.363281 167.714844 11.839844 167.714844 11.003906 L 174.179688 11.003906 C 174.6875 11.003906 174.761719 11.003906 174.761719 10.496094 C 174.761719 8.207031 173.488281 5.957031 170.621094 5.957031 C 167.933594 5.957031 165.789062 8.351562 165.789062 11.257812 C 165.789062 14.34375 168.222656 16.597656 170.875 16.597656 C 173.707031 16.597656 174.761719 14.015625 174.761719 13.582031 Z M 173.234375 10.496094 L 167.714844 10.496094 C 167.859375 7.046875 169.820312 6.464844 170.621094 6.464844 C 172.980469 6.464844 173.234375 9.585938 173.234375 10.496094 Z M 173.234375 10.496094 "/>
<path fill-rule="nonzero" fill="rgb(0%, 0%, 0%)" fill-opacity="1" d="M 187.617188 16.339844 L 187.617188 15.613281 C 186.054688 15.613281 185.800781 15.613281 185.800781 14.597656 L 185.800781 0.253906 L 184.96875 0.398438 C 184.894531 0.398438 184.859375 0.363281 184.785156 0.328125 C 184.023438 0 183.078125 0 182.824219 0 C 180.390625 0 177.886719 1.308594 177.886719 3.703125 L 177.886719 6.355469 L 176.035156 6.355469 L 176.035156 7.082031 L 177.886719 7.082031 L 177.886719 14.597656 C 177.886719 15.613281 177.632812 15.613281 176.070312 15.613281 L 176.070312 16.339844 L 178.648438 16.269531 L 181.226562 16.339844 L 181.226562 15.613281 C 179.664062 15.613281 179.410156 15.613281 179.410156 14.597656 L 179.410156 7.082031 L 184.277344 7.082031 L 184.277344 14.597656 C 184.277344 15.613281 184.023438 15.613281 182.496094 15.613281 L 182.496094 16.339844 L 185.039062 16.269531 Z M 184.277344 6.355469 L 179.339844 6.355469 L 179.339844 3.742188 C 179.339844 1.597656 181.082031 0.507812 182.824219 0.507812 C 183.007812 0.507812 183.625 0.507812 184.277344 0.726562 C 184.09375 0.835938 183.695312 1.054688 183.695312 1.671875 C 183.695312 2.070312 183.914062 2.433594 184.277344 2.542969 Z M 184.277344 6.355469 "/>
<path fill-rule="nonzero" fill="rgb(0%, 0%, 0%)" fill-opacity="1" d="M 197.914062 13.582031 C 197.914062 13.363281 197.730469 13.292969 197.585938 13.292969 C 197.40625 13.292969 197.332031 13.4375 197.296875 13.617188 C 196.496094 16.015625 194.390625 16.015625 194.171875 16.015625 C 193.011719 16.015625 192.101562 15.324219 191.558594 14.453125 C 190.867188 13.363281 190.867188 11.839844 190.867188 11.003906 L 197.332031 11.003906 C 197.839844 11.003906 197.914062 11.003906 197.914062 10.496094 C 197.914062 8.207031 196.640625 5.957031 193.773438 5.957031 C 191.085938 5.957031 188.941406 8.351562 188.941406 11.257812 C 188.941406 14.34375 191.375 16.597656 194.027344 16.597656 C 196.859375 16.597656 197.914062 14.015625 197.914062 13.582031 Z M 196.386719 10.496094 L 190.867188 10.496094 C 191.011719 7.046875 192.972656 6.464844 193.773438 6.464844 C 196.132812 6.464844 196.386719 9.585938 196.386719 10.496094 Z M 196.386719 10.496094 "/>
<path fill-rule="nonzero" fill="rgb(0%, 0%, 0%)" fill-opacity="1" d="M 208.195312 13.582031 C 208.195312 13.363281 207.941406 13.363281 207.867188 13.363281 C 207.6875 13.363281 207.613281 13.4375 207.578125 13.582031 C 206.925781 15.722656 205.398438 16.015625 204.5625 16.015625 C 203.328125 16.015625 201.296875 15.035156 201.296875 11.292969 C 201.296875 7.515625 203.183594 6.535156 204.417969 6.535156 C 204.636719 6.535156 206.089844 6.574219 206.886719 7.40625 C 205.941406 7.480469 205.796875 8.171875 205.796875 8.460938 C 205.796875 9.078125 206.234375 9.515625 206.851562 9.515625 C 207.46875 9.515625 207.941406 9.152344 207.941406 8.425781 C 207.941406 6.863281 206.160156 5.957031 204.382812 5.957031 C 201.476562 5.957031 199.371094 8.460938 199.371094 11.332031 C 199.371094 14.308594 201.660156 16.597656 204.34375 16.597656 C 207.433594 16.597656 208.195312 13.800781 208.195312 13.582031 Z M 208.195312 13.582031 "/>
<path fill-rule="nonzero" fill="rgb(0%, 0%, 0%)" fill-opacity="1" d="M 216.550781 13.472656 L 216.550781 12.164062 L 215.96875 12.164062 L 215.96875 13.4375 C 215.96875 15.144531 215.277344 16.015625 214.40625 16.015625 C 212.847656 16.015625 212.847656 13.910156 212.847656 13.507812 L 212.847656 7.082031 L 216.1875 7.082031 L 216.1875 6.355469 L 212.847656 6.355469 L 212.847656 2.105469 L 212.265625 2.105469 C 212.265625 3.996094 211.574219 6.464844 209.285156 6.574219 L 209.285156 7.082031 L 211.246094 7.082031 L 211.246094 13.472656 C 211.246094 16.304688 213.425781 16.597656 214.261719 16.597656 C 215.894531 16.597656 216.550781 14.960938 216.550781 13.472656 Z M 216.550781 13.472656 "/>
<path fill-rule="nonzero" fill="rgb(0%, 0%, 0%)" fill-opacity="1" d="M 228.75 11.367188 C 228.75 8.425781 226.464844 5.957031 223.667969 5.957031 C 220.761719 5.957031 218.511719 8.496094 218.511719 11.367188 C 218.511719 14.378906 220.90625 16.597656 223.632812 16.597656 C 226.425781 16.597656 228.75 14.308594 228.75 11.367188 Z M 226.863281 11.183594 C 226.863281 12.019531 226.863281 13.292969 226.355469 14.308594 C 225.808594 15.359375 224.792969 16.015625 223.667969 16.015625 C 222.652344 16.015625 221.632812 15.542969 221.015625 14.453125 C 220.433594 13.4375 220.433594 12.019531 220.433594 11.183594 C 220.433594 10.277344 220.433594 9.042969 220.980469 8.027344 C 221.597656 6.972656 222.6875 6.464844 223.632812 6.464844 C 224.648438 6.464844 225.628906 6.972656 226.246094 7.988281 C 226.863281 8.96875 226.863281 10.3125 226.863281 11.183594 Z M 226.863281 11.183594 "/>
<path fill-rule="nonzero" fill="rgb(0%, 0%, 0%)" fill-opacity="1" d="M 237.859375 7.515625 C 237.859375 6.789062 237.132812 6.101562 236.152344 6.101562 C 234.449219 6.101562 233.613281 7.664062 233.320312 8.644531 L 233.320312 6.101562 L 230.089844 6.355469 L 230.089844 7.082031 C 231.722656 7.082031 231.90625 7.226562 231.90625 8.386719 L 231.90625 14.597656 C 231.90625 15.613281 231.652344 15.613281 230.089844 15.613281 L 230.089844 16.339844 L 232.742188 16.269531 C 233.648438 16.269531 234.738281 16.269531 235.683594 16.339844 L 235.683594 15.613281 L 235.171875 15.613281 C 233.46875 15.613281 233.429688 15.359375 233.429688 14.527344 L 233.429688 10.96875 C 233.429688 8.679688 234.410156 6.609375 236.152344 6.609375 C 236.300781 6.609375 236.371094 6.609375 236.410156 6.644531 C 236.335938 6.644531 235.863281 6.9375 235.863281 7.554688 C 235.863281 8.171875 236.371094 8.535156 236.878906 8.535156 C 237.28125 8.535156 237.859375 8.242188 237.859375 7.515625 Z M 237.859375 7.515625 "/>
<path fill="none" stroke-width="1.41732" stroke-linecap="round" stroke-linejoin="round" stroke="rgb(42.352295%, 40.391541%, 100%)" stroke-opacity="1" stroke-miterlimit="4" d="M 194.738281 180.148438 C 185.046875 153.527344 185.085938 124.335938 194.851562 97.738281 "/>
<path fill="none" stroke-width="1.41732" stroke-linecap="round" stroke-linejoin="round" stroke="rgb(42.352295%, 40.391541%, 100%)" stroke-opacity="1" stroke-miterlimit="4" d="M 183.324219 192.070312 C 169.097656 158.71875 168.882812 121.046875 182.734375 87.539062 "/>
<path fill="none" stroke-width="1.41732" stroke-linecap="round" stroke-linejoin="round" stroke="rgb(42.352295%, 40.391541%, 100%)" stroke-opacity="1" stroke-miterlimit="4" d="M 169.015625 205.890625 C 149.351562 165.121094 148.652344 117.753906 167.105469 76.421875 "/>
<path fill="none" stroke-width="1.41732" stroke-linecap="round" stroke-linejoin="round" stroke="rgb(42.352295%, 40.391541%, 100%)" stroke-opacity="1" stroke-miterlimit="4" d="M 156.972656 214.261719 C 133.59375 167.449219 133.332031 112.421875 156.257812 65.382812 "/>
<path fill="none" stroke-width="1.41732" stroke-linecap="round" stroke-linejoin="round" stroke="rgb(42.352295%, 40.391541%, 100%)" stroke-opacity="1" stroke-miterlimit="4" d="M 144.769531 224.4375 C 116.855469 171.214844 116.734375 107.707031 144.445312 54.378906 "/>
<path fill="none" stroke-width="1.41732" stroke-linecap="round" stroke-linejoin="round" stroke="rgb(42.352295%, 40.391541%, 100%)" stroke-opacity="1" stroke-miterlimit="4" d="M 129.839844 236.273438 C 97.332031 176.84375 96.695312 105.09375 128.140625 45.09375 "/>
<path fill-rule="nonzero" fill="rgb(0%, 0%, 0%)" fill-opacity="1" d="M 161.800781 30.199219 C 161.800781 28.019531 160.515625 27.34375 159.488281 27.34375 C 157.570312 27.34375 155.738281 29.328125 155.738281 31.289062 C 155.738281 32.597656 156.566406 33.644531 158.007812 33.644531 C 158.878906 33.644531 159.882812 33.320312 160.929688 32.46875 C 161.101562 33.210938 161.5625 33.644531 162.195312 33.644531 C 162.933594 33.644531 163.371094 32.882812 163.371094 32.664062 C 163.371094 32.554688 163.285156 32.511719 163.195312 32.511719 C 163.109375 32.511719 163.066406 32.554688 163.023438 32.664062 C 162.761719 33.339844 162.257812 33.339844 162.238281 33.339844 C 161.800781 33.339844 161.800781 32.25 161.800781 31.921875 C 161.800781 31.640625 161.800781 31.59375 161.953125 31.441406 C 163.261719 29.785156 163.546875 28.171875 163.546875 28.171875 C 163.546875 28.128906 163.523438 28.019531 163.371094 28.019531 C 163.242188 28.019531 163.242188 28.0625 163.175781 28.324219 C 162.914062 29.195312 162.457031 30.242188 161.800781 31.070312 Z M 160.886719 32.117188 C 159.640625 33.1875 158.574219 33.339844 158.027344 33.339844 C 157.199219 33.339844 156.761719 32.707031 156.761719 31.8125 C 156.761719 31.136719 157.132812 29.632812 157.570312 28.933594 C 158.222656 27.910156 158.988281 27.648438 159.46875 27.648438 C 160.839844 27.648438 160.839844 29.480469 160.839844 30.546875 C 160.839844 31.070312 160.839844 31.878906 160.886719 32.117188 Z M 160.886719 32.117188 "/>
<path fill-rule="nonzero" fill="rgb(0%, 0%, 0%)" fill-opacity="1" d="M 168.972656 33.8125 L 168.648438 33.8125 C 168.625 34.03125 168.515625 34.597656 168.386719 34.683594 C 168.320312 34.75 167.578125 34.75 167.425781 34.75 L 165.636719 34.75 C 166.660156 33.855469 167.011719 33.570312 167.578125 33.113281 C 168.296875 32.546875 168.972656 31.9375 168.972656 31.019531 C 168.972656 29.84375 167.949219 29.121094 166.707031 29.121094 C 165.503906 29.121094 164.675781 29.972656 164.675781 30.867188 C 164.675781 31.347656 165.089844 31.414062 165.199219 31.414062 C 165.417969 31.414062 165.703125 31.238281 165.703125 30.890625 C 165.703125 30.714844 165.636719 30.367188 165.136719 30.367188 C 165.441406 29.691406 166.09375 29.472656 166.554688 29.472656 C 167.535156 29.472656 168.035156 30.234375 168.035156 31.019531 C 168.035156 31.871094 167.425781 32.523438 167.121094 32.875 L 164.785156 35.207031 C 164.675781 35.292969 164.675781 35.316406 164.675781 35.578125 L 168.691406 35.578125 Z M 168.972656 33.8125 "/>
<path fill-rule="nonzero" fill="rgb(0%, 0%, 0%)" fill-opacity="1" d="M 173.140625 33.472656 C 173.140625 32.554688 172.792969 32.011719 172.246094 32.011719 C 171.789062 32.011719 171.503906 32.359375 171.503906 32.75 C 171.503906 33.121094 171.789062 33.492188 172.246094 33.492188 C 172.398438 33.492188 172.597656 33.425781 172.726562 33.320312 C 172.769531 33.273438 172.792969 33.273438 172.792969 33.273438 C 172.8125 33.273438 172.8125 33.273438 172.8125 33.472656 C 172.8125 34.519531 172.335938 35.347656 171.875 35.804688 C 171.722656 35.957031 171.722656 35.980469 171.722656 36.023438 C 171.722656 36.132812 171.789062 36.175781 171.855469 36.175781 C 172.007812 36.175781 173.140625 35.105469 173.140625 33.472656 Z M 173.140625 33.472656 "/>
<path fill-rule="nonzero" fill="rgb(0%, 0%, 0%)" fill-opacity="1" d="M 184.480469 25.574219 C 184.480469 24.527344 183.71875 23.679688 182.582031 23.679688 C 181.777344 23.679688 181.382812 23.894531 180.90625 24.246094 C 180.140625 24.8125 179.378906 26.164062 179.117188 27.210938 L 176.890625 36.042969 C 176.890625 36.109375 176.957031 36.199219 177.066406 36.199219 C 177.175781 36.199219 177.21875 36.152344 177.21875 36.132812 L 178.199219 32.273438 C 178.460938 33.121094 179.074219 33.625 180.097656 33.625 C 181.101562 33.625 182.148438 33.144531 182.78125 32.535156 C 183.457031 31.902344 183.890625 31.007812 183.890625 29.980469 C 183.890625 28.976562 183.367188 28.238281 182.867188 27.910156 C 183.675781 27.429688 184.480469 26.578125 184.480469 25.574219 Z M 181.972656 27.886719 C 181.796875 27.953125 181.644531 27.976562 181.296875 27.976562 C 181.101562 27.976562 180.839844 27.996094 180.6875 27.929688 C 180.730469 27.777344 181.230469 27.824219 181.382812 27.824219 C 181.667969 27.824219 181.796875 27.824219 181.972656 27.886719 Z M 183.695312 25.25 C 183.695312 26.230469 183.171875 27.234375 182.453125 27.667969 C 182.058594 27.515625 181.796875 27.496094 181.382812 27.496094 C 181.078125 27.496094 180.292969 27.472656 180.292969 27.929688 C 180.292969 28.324219 181.011719 28.28125 181.253906 28.28125 C 181.777344 28.28125 181.996094 28.28125 182.410156 28.105469 C 182.933594 28.609375 183 29.042969 183.019531 29.675781 C 183.042969 30.484375 182.714844 31.53125 182.320312 32.074219 C 181.777344 32.816406 180.839844 33.320312 180.054688 33.320312 C 178.984375 33.320312 178.460938 32.511719 178.460938 31.53125 C 178.460938 31.398438 178.460938 31.179688 178.527344 30.917969 L 179.421875 27.40625 C 179.726562 26.207031 180.730469 23.984375 182.410156 23.984375 C 183.214844 23.984375 183.695312 24.421875 183.695312 25.25 Z M 183.695312 25.25 "/>
<path fill-rule="nonzero" fill="rgb(0%, 0%, 0%)" fill-opacity="1" d="M 189.257812 33.8125 L 188.933594 33.8125 C 188.910156 34.03125 188.800781 34.597656 188.671875 34.683594 C 188.605469 34.75 187.863281 34.75 187.710938 34.75 L 185.921875 34.75 C 186.949219 33.855469 187.296875 33.570312 187.863281 33.113281 C 188.582031 32.546875 189.257812 31.9375 189.257812 31.019531 C 189.257812 29.84375 188.234375 29.121094 186.992188 29.121094 C 185.792969 29.121094 184.964844 29.972656 184.964844 30.867188 C 184.964844 31.347656 185.378906 31.414062 185.488281 31.414062 C 185.703125 31.414062 185.988281 31.238281 185.988281 30.890625 C 185.988281 30.714844 185.921875 30.367188 185.421875 30.367188 C 185.726562 29.691406 186.378906 29.472656 186.839844 29.472656 C 187.820312 29.472656 188.320312 30.234375 188.320312 31.019531 C 188.320312 31.871094 187.710938 32.523438 187.40625 32.875 L 185.070312 35.207031 C 184.964844 35.292969 184.964844 35.316406 184.964844 35.578125 L 188.976562 35.578125 Z M 189.257812 33.8125 "/>
<path fill-rule="nonzero" fill="rgb(0%, 0%, 0%)" fill-opacity="1" d="M 48.757812 146.554688 C 48.757812 147.253906 48.757812 148.269531 51.066406 148.269531 L 52.152344 148.269531 C 52.570312 148.269531 52.851562 148.269531 52.851562 147.742188 C 52.851562 147.21875 52.570312 147.21875 52.257812 147.21875 C 50.890625 147.183594 50.890625 146.902344 50.890625 146.378906 L 50.890625 141.582031 C 50.890625 139.585938 49.316406 138.152344 45.992188 138.152344 C 44.730469 138.152344 42 138.257812 42 140.21875 C 42 141.199219 42.769531 141.617188 43.367188 141.617188 C 44.066406 141.617188 44.800781 141.128906 44.800781 140.21875 C 44.800781 139.554688 44.382812 139.167969 44.3125 139.097656 C 44.941406 138.992188 45.640625 138.957031 45.921875 138.957031 C 47.566406 138.957031 48.371094 139.902344 48.371094 141.582031 L 48.371094 142.351562 C 46.761719 142.421875 41.089844 142.632812 41.089844 145.855469 C 41.089844 147.988281 43.890625 148.410156 45.429688 148.410156 C 47.214844 148.410156 48.265625 147.5 48.757812 146.554688 Z M 48.371094 143.054688 L 48.371094 145.152344 C 48.371094 147.324219 46.304688 147.605469 45.746094 147.605469 C 44.625 147.605469 43.714844 146.832031 43.714844 145.820312 C 43.714844 143.4375 47.25 143.125 48.371094 143.054688 Z M 48.371094 143.054688 "/>
<path fill-rule="nonzero" fill="rgb(0%, 0%, 0%)" fill-opacity="1" d="M 58.085938 141.675781 C 58.085938 141.253906 58.085938 141.253906 57.628906 141.253906 C 56.613281 142.234375 55.214844 142.234375 54.585938 142.234375 L 54.585938 142.792969 C 54.933594 142.792969 55.984375 142.792969 56.824219 142.375 L 56.824219 150.320312 C 56.824219 150.84375 56.824219 151.054688 55.285156 151.054688 L 54.6875 151.054688 L 54.6875 151.617188 C 54.96875 151.617188 56.894531 151.546875 57.453125 151.546875 C 57.945312 151.546875 59.90625 151.617188 60.253906 151.617188 L 60.253906 151.054688 L 59.660156 151.054688 C 58.085938 151.054688 58.085938 150.84375 58.085938 150.320312 Z M 58.085938 141.675781 "/>
<path fill-rule="nonzero" fill="rgb(0%, 0%, 0%)" fill-opacity="1" d="M 65.054688 151.371094 C 65.054688 152.210938 64.914062 153.226562 63.828125 154.207031 C 63.796875 154.277344 63.726562 154.347656 63.726562 154.414062 C 63.726562 154.519531 63.863281 154.625 63.933594 154.625 C 64.179688 154.625 65.511719 153.367188 65.511719 151.511719 C 65.511719 150.566406 65.125 149.832031 64.390625 149.832031 C 63.898438 149.832031 63.515625 150.214844 63.515625 150.707031 C 63.515625 151.195312 63.863281 151.617188 64.425781 151.617188 C 64.808594 151.617188 65.054688 151.371094 65.054688 151.371094 Z M 65.054688 151.371094 "/>
<path fill-rule="nonzero" fill="rgb(0%, 0%, 0%)" fill-opacity="1" d="M 73.925781 141.851562 C 73.925781 141.605469 73.714844 141.253906 73.296875 141.253906 C 72.839844 141.253906 72.421875 141.710938 72.421875 142.128906 C 72.421875 142.375 72.597656 142.726562 73.050781 142.726562 C 73.472656 142.726562 73.925781 142.304688 73.925781 141.851562 Z M 70.601562 152.386719 C 70.355469 153.472656 69.515625 154.347656 68.605469 154.347656 C 68.394531 154.347656 68.21875 154.347656 68.046875 154.277344 C 68.429688 154.066406 68.570312 153.714844 68.570312 153.472656 C 68.570312 153.085938 68.253906 152.910156 67.941406 152.910156 C 67.484375 152.910156 67.066406 153.332031 67.066406 153.820312 C 67.066406 154.414062 67.660156 154.800781 68.605469 154.800781 C 69.550781 154.800781 71.371094 154.242188 71.859375 152.351562 L 73.261719 146.75 C 73.296875 146.574219 73.332031 146.433594 73.332031 146.191406 C 73.332031 145.351562 72.597656 144.71875 71.6875 144.71875 C 69.933594 144.71875 68.957031 146.890625 68.957031 147.136719 C 68.957031 147.308594 69.164062 147.308594 69.199219 147.308594 C 69.375 147.308594 69.410156 147.273438 69.515625 147.03125 C 69.902344 146.121094 70.707031 145.175781 71.617188 145.175781 C 72 145.175781 72.140625 145.421875 72.140625 145.945312 C 72.140625 146.121094 72.140625 146.332031 72.105469 146.398438 Z M 70.601562 152.386719 "/>
<path fill-rule="evenodd" fill="rgb(100%, 42.352295%, 0%)" fill-opacity="1" stroke-width="1.2189" stroke-linecap="square" stroke-linejoin="miter" stroke="rgb(0%, 0%, 0%)" stroke-opacity="1" stroke-miterlimit="4" d="M 93.75 86.597656 L 101.25 79.097656 "/>
<path fill-rule="evenodd" fill="rgb(100%, 42.352295%, 0%)" fill-opacity="1" stroke-width="1.2189" stroke-linecap="square" stroke-linejoin="miter" stroke="rgb(0%, 0%, 0%)" stroke-opacity="1" stroke-miterlimit="4" d="M 93.75 79.097656 L 101.25 86.597656 "/>
<path fill-rule="nonzero" fill="rgb(0%, 0%, 0%)" fill-opacity="1" d="M 83.898438 77.558594 L 86.488281 74.652344 C 86.804688 74.339844 86.945312 74.199219 88.765625 74.199219 L 88.765625 73.148438 C 87.996094 73.183594 86.839844 73.21875 86.734375 73.21875 C 86.175781 73.21875 85.054688 73.148438 84.425781 73.148438 L 84.425781 74.199219 C 84.738281 74.199219 85.019531 74.234375 85.265625 74.375 C 85.195312 74.511719 85.195312 74.582031 85.089844 74.652344 L 83.234375 76.753906 L 81.027344 74.199219 L 81.9375 74.199219 L 81.9375 73.148438 C 81.34375 73.148438 79.945312 73.21875 79.207031 73.21875 C 78.507812 73.21875 77.492188 73.148438 76.757812 73.148438 L 76.757812 74.199219 L 78.367188 74.199219 L 81.832031 78.292969 L 78.894531 81.582031 C 78.542969 82.003906 77.738281 82.003906 76.652344 82.003906 L 76.652344 83.054688 C 77.421875 83.019531 78.613281 82.984375 78.71875 82.984375 C 79.277344 82.984375 80.574219 83.019531 80.992188 83.054688 L 80.992188 82.003906 C 80.609375 82.003906 80.1875 81.898438 80.1875 81.757812 C 80.1875 81.722656 80.1875 81.722656 80.328125 81.550781 L 82.5 79.097656 L 84.949219 82.003906 L 84.074219 82.003906 L 84.074219 83.054688 C 84.667969 83.019531 86.035156 82.984375 86.769531 82.984375 C 87.46875 82.984375 88.484375 83.019531 89.21875 83.054688 L 89.21875 82.003906 L 87.644531 82.003906 Z M 83.898438 77.558594 "/>
<path fill-rule="nonzero" fill="rgb(42.352295%, 40.391541%, 100%)" fill-opacity="1" stroke-width="1.835688" stroke-linecap="butt" stroke-linejoin="round" stroke="rgb(42.352295%, 40.391541%, 100%)" stroke-opacity="1" stroke-miterlimit="4" d="M 311.574219 139.097656 C 311.574219 141.347656 309.75 143.171875 307.5 143.171875 C 305.25 143.171875 303.425781 141.347656 303.425781 139.097656 C 303.425781 136.847656 305.25 135.023438 307.5 135.023438 C 309.75 135.023438 311.574219 136.847656 311.574219 139.097656 Z M 311.574219 139.097656 "/>
<path fill="none" stroke-width="1.41732" stroke-linecap="round" stroke-linejoin="round" stroke="rgb(42.352295%, 40.391541%, 100%)" stroke-opacity="1" stroke-dasharray="11.338554 11.338554" stroke-miterlimit="4" d="M 308.71875 169.074219 C 297.832031 169.515625 287.5625 164.023438 281.886719 154.722656 C 276.214844 145.421875 276.027344 133.773438 281.402344 124.296875 C 286.777344 114.820312 296.871094 109.003906 307.765625 109.101562 "/>
<path fill="none" stroke-width="1.41732" stroke-linecap="round" stroke-linejoin="round" stroke="rgb(42.352295%, 40.391541%, 100%)" stroke-opacity="1" stroke-dasharray="11.338554 11.338554" stroke-miterlimit="4" d="M 308.3125 154.078125 C 302.832031 154.375 297.625 151.65625 294.738281 146.988281 C 291.855469 142.316406 291.746094 136.445312 294.464844 131.675781 C 297.179688 126.90625 302.28125 124 307.769531 124.101562 "/>
<path fill="none" stroke-width="1.41732" stroke-linecap="round" stroke-linejoin="round" stroke="rgb(42.352295%, 40.391541%, 100%)" stroke-opacity="1" stroke-dasharray="11.338554 11.338554" stroke-miterlimit="4" d="M 305.0625 184.03125 C 280.351562 182.695312 261.359375 161.648438 262.550781 136.929688 C 263.746094 112.207031 284.675781 93.089844 309.402344 94.140625 "/>
<path fill="none" stroke-width="1.41732" stroke-linecap="round" stroke-linejoin="round" stroke="rgb(42.352295%, 40.391541%, 100%)" stroke-opacity="1" stroke-dasharray="11.338554 11.338554" stroke-miterlimit="4" d="M 302.613281 198.898438 C 271.144531 196.328125 247.054688 169.808594 247.503906 138.242188 C 247.957031 106.671875 272.796875 80.851562 304.324219 79.183594 "/>
<path fill="none" stroke-width="1.41732" stroke-linecap="round" stroke-linejoin="round" stroke="rgb(42.352295%, 40.391541%, 100%)" stroke-opacity="1" stroke-dasharray="11.338554 11.338554" stroke-miterlimit="4" d="M 304.441406 214.035156 C 264.304688 212.398438 232.582031 179.425781 232.5 139.257812 C 232.414062 99.085938 263.996094 65.980469 304.125 64.175781 "/>
<path fill="none" stroke-width="1.41732" stroke-linecap="round" stroke-linejoin="round" stroke="rgb(42.352295%, 40.391541%, 100%)" stroke-opacity="1" stroke-dasharray="11.338554 11.338554" stroke-miterlimit="4" d="M 299.710938 231.019531 C 251.894531 226.96875 215.167969 186.929688 215.25 138.941406 C 215.332031 90.953125 252.191406 51.039062 300.023438 47.152344 "/>
<path fill="none" stroke-width="1.417323" stroke-linecap="round" stroke-linejoin="round" stroke="rgb(42.352295%, 40.391541%, 100%)" stroke-opacity="1" stroke-dasharray="11.338583 11.338583" stroke-miterlimit="4" d="M 298.632812 243.722656 C 244.207031 239.113281 202.40625 193.542969 202.5 138.921875 C 202.589844 84.296875 244.546875 38.871094 298.988281 34.445312 "/>
<path fill-rule="nonzero" fill="rgb(0%, 0%, 0%)" fill-opacity="1" d="M 343.148438 79.445312 L 343.148438 78.71875 C 342.421875 78.792969 341.476562 78.792969 340.898438 78.792969 L 338.246094 78.71875 L 338.246094 79.445312 C 339.445312 79.480469 339.953125 80.0625 339.953125 80.605469 C 339.953125 80.789062 339.878906 80.933594 339.84375 81.078125 L 335.59375 92.226562 L 331.164062 80.535156 C 331.019531 80.207031 331.019531 80.132812 331.019531 80.132812 C 331.019531 79.445312 332.328125 79.445312 332.90625 79.445312 L 332.90625 78.71875 C 332.070312 78.792969 330.472656 78.792969 329.601562 78.792969 L 326.660156 78.71875 L 326.660156 79.445312 C 328.1875 79.445312 328.621094 79.445312 328.949219 80.316406 L 334.324219 94.550781 C 334.46875 94.988281 334.578125 95.058594 334.90625 95.058594 C 335.269531 95.058594 335.339844 94.949219 335.449219 94.625 L 340.605469 81.007812 C 340.933594 80.132812 341.550781 79.480469 343.148438 79.445312 Z M 343.148438 79.445312 "/>
<path fill-rule="nonzero" fill="rgb(0%, 0%, 0%)" fill-opacity="1" d="M 349.328125 94.550781 L 349.328125 93.824219 C 347.769531 93.824219 347.695312 93.714844 347.695312 92.808594 L 347.695312 84.3125 L 344.464844 84.566406 L 344.464844 85.292969 C 345.953125 85.292969 346.167969 85.4375 346.167969 86.5625 L 346.167969 92.808594 C 346.167969 93.824219 345.914062 93.824219 344.355469 93.824219 L 344.355469 94.550781 L 346.894531 94.480469 C 347.730469 94.480469 348.53125 94.515625 349.328125 94.550781 Z M 348.023438 80.570312 C 348.023438 79.917969 347.511719 79.335938 346.824219 79.335938 C 346.023438 79.335938 345.550781 79.988281 345.550781 80.570312 C 345.550781 81.1875 346.097656 81.769531 346.789062 81.769531 C 347.585938 81.769531 348.023438 81.152344 348.023438 80.570312 Z M 348.023438 80.570312 "/>
<path fill-rule="nonzero" fill="rgb(0%, 0%, 0%)" fill-opacity="1" d="M 358.453125 85.726562 C 358.453125 85 357.726562 84.3125 356.746094 84.3125 C 355.039062 84.3125 354.207031 85.871094 353.914062 86.851562 L 353.914062 84.3125 L 350.683594 84.566406 L 350.683594 85.292969 C 352.316406 85.292969 352.5 85.4375 352.5 86.597656 L 352.5 92.808594 C 352.5 93.824219 352.246094 93.824219 350.683594 93.824219 L 350.683594 94.550781 L 353.332031 94.480469 C 354.242188 94.480469 355.332031 94.480469 356.273438 94.550781 L 356.273438 93.824219 L 355.765625 93.824219 C 354.058594 93.824219 354.023438 93.570312 354.023438 92.734375 L 354.023438 89.175781 C 354.023438 86.890625 355.003906 84.820312 356.746094 84.820312 C 356.894531 84.820312 356.964844 84.820312 357 84.855469 C 356.929688 84.855469 356.457031 85.144531 356.457031 85.761719 C 356.457031 86.378906 356.964844 86.742188 357.472656 86.742188 C 357.875 86.742188 358.453125 86.453125 358.453125 85.726562 Z M 358.453125 85.726562 "/>
<path fill-rule="nonzero" fill="rgb(0%, 0%, 0%)" fill-opacity="1" d="M 366.804688 91.683594 L 366.804688 90.375 L 366.222656 90.375 L 366.222656 91.644531 C 366.222656 93.351562 365.53125 94.226562 364.660156 94.226562 C 363.097656 94.226562 363.097656 92.117188 363.097656 91.71875 L 363.097656 85.292969 L 366.441406 85.292969 L 366.441406 84.566406 L 363.097656 84.566406 L 363.097656 80.316406 L 362.519531 80.316406 C 362.519531 82.203125 361.828125 84.675781 359.539062 84.78125 L 359.539062 85.292969 L 361.5 85.292969 L 361.5 91.683594 C 361.5 94.515625 363.679688 94.804688 364.515625 94.804688 C 366.148438 94.804688 366.804688 93.171875 366.804688 91.683594 Z M 366.804688 91.683594 "/>
<path fill-rule="nonzero" fill="rgb(0%, 0%, 0%)" fill-opacity="1" d="M 380.496094 94.550781 L 380.496094 93.824219 C 378.894531 93.824219 378.714844 93.679688 378.714844 92.519531 L 378.714844 84.3125 L 375.300781 84.566406 L 375.300781 85.292969 C 376.898438 85.292969 377.117188 85.4375 377.117188 86.597656 L 377.117188 90.703125 C 377.117188 92.734375 375.992188 94.296875 374.285156 94.296875 C 372.359375 94.296875 372.25 93.207031 372.25 92.007812 L 372.25 84.3125 L 368.835938 84.566406 L 368.835938 85.292969 C 370.652344 85.292969 370.652344 85.363281 370.652344 87.398438 L 370.652344 90.882812 C 370.652344 92.699219 370.652344 94.804688 374.175781 94.804688 C 375.484375 94.804688 376.5 94.152344 377.152344 92.734375 L 377.152344 94.804688 Z M 380.496094 94.550781 "/>
<path fill-rule="nonzero" fill="rgb(0%, 0%, 0%)" fill-opacity="1" d="M 392.171875 92.480469 L 392.171875 91.175781 L 391.589844 91.175781 L 391.589844 92.480469 C 391.589844 93.824219 391.007812 93.96875 390.753906 93.96875 C 389.992188 93.96875 389.921875 92.917969 389.921875 92.808594 L 389.921875 88.195312 C 389.921875 87.214844 389.921875 86.308594 389.085938 85.4375 C 388.175781 84.527344 387.015625 84.164062 385.890625 84.164062 C 384 84.164062 382.402344 85.253906 382.402344 86.78125 C 382.402344 87.46875 382.875 87.871094 383.457031 87.871094 C 384.109375 87.871094 384.546875 87.398438 384.546875 86.816406 C 384.546875 86.527344 384.398438 85.761719 383.347656 85.761719 C 383.964844 84.929688 385.125 84.675781 385.851562 84.675781 C 386.980469 84.675781 388.320312 85.582031 388.320312 87.652344 L 388.320312 88.488281 C 387.125 88.558594 385.488281 88.632812 384.035156 89.324219 C 382.292969 90.121094 381.714844 91.320312 381.714844 92.335938 C 381.714844 94.226562 383.964844 94.804688 385.417969 94.804688 C 386.980469 94.804688 388.03125 93.863281 388.46875 92.808594 C 388.578125 93.714844 389.195312 94.695312 390.28125 94.695312 C 390.753906 94.695312 392.171875 94.371094 392.171875 92.480469 Z M 388.320312 91.320312 C 388.320312 93.5 386.652344 94.296875 385.597656 94.296875 C 384.472656 94.296875 383.527344 93.5 383.527344 92.335938 C 383.527344 91.066406 384.472656 89.140625 388.320312 88.996094 Z M 388.320312 91.320312 "/>
<g clip-path="url(#clip-2)">
<path fill-rule="nonzero" fill="rgb(0%, 0%, 0%)" fill-opacity="1" d="M 398.480469 94.550781 L 398.480469 93.824219 C 396.921875 93.824219 396.667969 93.824219 396.667969 92.808594 L 396.667969 78.464844 L 393.324219 78.71875 L 393.324219 79.445312 C 394.960938 79.445312 395.140625 79.589844 395.140625 80.753906 L 395.140625 92.808594 C 395.140625 93.824219 394.886719 93.824219 393.324219 93.824219 L 393.324219 94.550781 L 395.902344 94.480469 Z M 398.480469 94.550781 "/>
</g>
<path fill-rule="nonzero" fill="rgb(0%, 0%, 0%)" fill-opacity="1" d="M 334.578125 119.359375 C 334.578125 118.160156 333.886719 117.433594 333.597656 117.179688 C 332.835938 116.417969 331.925781 116.234375 330.945312 116.054688 C 329.640625 115.800781 328.113281 115.507812 328.113281 114.164062 C 328.113281 113.332031 328.695312 112.386719 330.691406 112.386719 C 333.234375 112.386719 333.378906 114.492188 333.414062 115.183594 C 333.414062 115.402344 333.671875 115.402344 333.671875 115.402344 C 333.996094 115.402344 333.996094 115.292969 333.996094 114.855469 L 333.996094 112.496094 C 333.996094 112.132812 333.996094 111.949219 333.742188 111.949219 C 333.632812 111.949219 333.5625 111.949219 333.269531 112.242188 C 333.199219 112.3125 332.980469 112.53125 332.871094 112.605469 C 332 111.949219 331.054688 111.949219 330.691406 111.949219 C 327.859375 111.949219 326.988281 113.511719 326.988281 114.820312 C 326.988281 115.617188 327.351562 116.273438 327.96875 116.78125 C 328.730469 117.363281 329.386719 117.507812 331.054688 117.832031 C 331.5625 117.941406 333.453125 118.304688 333.453125 119.976562 C 333.453125 121.136719 332.652344 122.082031 330.835938 122.082031 C 328.875 122.082031 328.042969 120.773438 327.605469 118.777344 C 327.53125 118.488281 327.53125 118.414062 327.277344 118.414062 C 326.988281 118.414062 326.988281 118.558594 326.988281 118.960938 L 326.988281 122.046875 C 326.988281 122.445312 326.988281 122.589844 327.242188 122.589844 C 327.351562 122.589844 327.386719 122.554688 327.824219 122.117188 C 327.859375 122.082031 327.859375 122.046875 328.296875 121.609375 C 329.3125 122.554688 330.367188 122.589844 330.835938 122.589844 C 333.488281 122.589844 334.578125 121.027344 334.578125 119.359375 Z M 334.578125 119.359375 "/>
<path fill-rule="nonzero" fill="rgb(0%, 0%, 0%)" fill-opacity="1" d="M 346.242188 117.363281 C 346.242188 114.421875 343.953125 111.949219 341.15625 111.949219 C 338.253906 111.949219 336 114.492188 336 117.363281 C 336 120.375 338.398438 122.589844 341.121094 122.589844 C 343.917969 122.589844 346.242188 120.304688 346.242188 117.363281 Z M 344.355469 117.179688 C 344.355469 118.015625 344.355469 119.285156 343.84375 120.304688 C 343.300781 121.355469 342.285156 122.007812 341.15625 122.007812 C 340.140625 122.007812 339.125 121.539062 338.507812 120.449219 C 337.925781 119.429688 337.925781 118.015625 337.925781 117.179688 C 337.925781 116.273438 337.925781 115.039062 338.472656 114.019531 C 339.089844 112.96875 340.175781 112.460938 341.121094 112.460938 C 342.136719 112.460938 343.117188 112.96875 343.738281 113.984375 C 344.355469 114.964844 344.355469 116.308594 344.355469 117.179688 Z M 344.355469 117.179688 "/>
<path fill-rule="nonzero" fill="rgb(0%, 0%, 0%)" fill-opacity="1" d="M 359.308594 122.335938 L 359.308594 121.609375 C 357.710938 121.609375 357.53125 121.464844 357.53125 120.304688 L 357.53125 112.097656 L 354.117188 112.351562 L 354.117188 113.078125 C 355.714844 113.078125 355.933594 113.222656 355.933594 114.382812 L 355.933594 118.488281 C 355.933594 120.519531 354.808594 122.082031 353.101562 122.082031 C 351.175781 122.082031 351.066406 120.992188 351.066406 119.792969 L 351.066406 112.097656 L 347.652344 112.351562 L 347.652344 113.078125 C 349.46875 113.078125 349.46875 113.148438 349.46875 115.183594 L 349.46875 118.667969 C 349.46875 120.484375 349.46875 122.589844 352.992188 122.589844 C 354.296875 122.589844 355.316406 121.9375 355.96875 120.519531 L 355.96875 122.589844 Z M 359.308594 122.335938 "/>
<path fill-rule="nonzero" fill="rgb(0%, 0%, 0%)" fill-opacity="1" d="M 368.226562 113.511719 C 368.226562 112.785156 367.5 112.097656 366.519531 112.097656 C 364.8125 112.097656 363.976562 113.65625 363.6875 114.636719 L 363.6875 112.097656 L 360.453125 112.351562 L 360.453125 113.078125 C 362.085938 113.078125 362.269531 113.222656 362.269531 114.382812 L 362.269531 120.59375 C 362.269531 121.609375 362.015625 121.609375 360.453125 121.609375 L 360.453125 122.335938 L 363.105469 122.265625 C 364.011719 122.265625 365.101562 122.265625 366.046875 122.335938 L 366.046875 121.609375 L 365.539062 121.609375 C 363.832031 121.609375 363.792969 121.355469 363.792969 120.519531 L 363.792969 116.960938 C 363.792969 114.675781 364.773438 112.605469 366.519531 112.605469 C 366.664062 112.605469 366.734375 112.605469 366.773438 112.640625 C 366.699219 112.640625 366.226562 112.929688 366.226562 113.546875 C 366.226562 114.164062 366.734375 114.527344 367.246094 114.527344 C 367.644531 114.527344 368.226562 114.238281 368.226562 113.511719 Z M 368.226562 113.511719 "/>
<path fill-rule="nonzero" fill="rgb(0%, 0%, 0%)" fill-opacity="1" d="M 378.5 119.578125 C 378.5 119.359375 378.246094 119.359375 378.171875 119.359375 C 377.992188 119.359375 377.917969 119.429688 377.882812 119.578125 C 377.226562 121.71875 375.703125 122.007812 374.867188 122.007812 C 373.632812 122.007812 371.597656 121.027344 371.597656 117.289062 C 371.597656 113.511719 373.488281 112.53125 374.722656 112.53125 C 374.941406 112.53125 376.394531 112.566406 377.191406 113.402344 C 376.246094 113.476562 376.101562 114.164062 376.101562 114.457031 C 376.101562 115.074219 376.539062 115.507812 377.15625 115.507812 C 377.773438 115.507812 378.246094 115.144531 378.246094 114.421875 C 378.246094 112.859375 376.464844 111.949219 374.6875 111.949219 C 371.78125 111.949219 369.675781 114.457031 369.675781 117.324219 C 369.675781 120.304688 371.960938 122.589844 374.648438 122.589844 C 377.738281 122.589844 378.5 119.792969 378.5 119.578125 Z M 378.5 119.578125 "/>
<path fill-rule="nonzero" fill="rgb(0%, 0%, 0%)" fill-opacity="1" d="M 388.78125 119.578125 C 388.78125 119.359375 388.597656 119.285156 388.453125 119.285156 C 388.273438 119.285156 388.199219 119.429688 388.164062 119.613281 C 387.363281 122.007812 385.257812 122.007812 385.039062 122.007812 C 383.878906 122.007812 382.96875 121.320312 382.425781 120.449219 C 381.734375 119.359375 381.734375 117.832031 381.734375 117 L 388.199219 117 C 388.707031 117 388.78125 117 388.78125 116.488281 C 388.78125 114.203125 387.511719 111.949219 384.640625 111.949219 C 381.953125 111.949219 379.8125 114.347656 379.8125 117.253906 C 379.8125 120.339844 382.246094 122.589844 384.894531 122.589844 C 387.726562 122.589844 388.78125 120.011719 388.78125 119.578125 Z M 387.253906 116.488281 L 381.734375 116.488281 C 381.882812 113.039062 383.84375 112.460938 384.640625 112.460938 C 387 112.460938 387.253906 115.582031 387.253906 116.488281 Z M 387.253906 116.488281 "/>
<path fill-rule="nonzero" fill="rgb(0%, 0%, 0%)" fill-opacity="1" d="M 322.417969 146.554688 C 322.417969 147.253906 322.417969 148.269531 324.730469 148.269531 L 325.816406 148.269531 C 326.234375 148.269531 326.515625 148.269531 326.515625 147.742188 C 326.515625 147.21875 326.234375 147.21875 325.917969 147.21875 C 324.554688 147.183594 324.554688 146.902344 324.554688 146.378906 L 324.554688 141.582031 C 324.554688 139.585938 322.980469 138.152344 319.652344 138.152344 C 318.394531 138.152344 315.664062 138.257812 315.664062 140.21875 C 315.664062 141.199219 316.433594 141.617188 317.027344 141.617188 C 317.730469 141.617188 318.464844 141.128906 318.464844 140.21875 C 318.464844 139.554688 318.042969 139.167969 317.972656 139.097656 C 318.605469 138.992188 319.304688 138.957031 319.582031 138.957031 C 321.230469 138.957031 322.035156 139.902344 322.035156 141.582031 L 322.035156 142.351562 C 320.425781 142.421875 314.753906 142.632812 314.753906 145.855469 C 314.753906 147.988281 317.554688 148.410156 319.09375 148.410156 C 320.878906 148.410156 321.929688 147.5 322.417969 146.554688 Z M 322.035156 143.054688 L 322.035156 145.152344 C 322.035156 147.324219 319.96875 147.605469 319.410156 147.605469 C 318.289062 147.605469 317.378906 146.832031 317.378906 145.820312 C 317.378906 143.4375 320.914062 143.125 322.035156 143.054688 Z M 322.035156 143.054688 "/>
<path fill-rule="nonzero" fill="rgb(0%, 0%, 0%)" fill-opacity="1" d="M 334.40625 148.78125 L 333.882812 148.78125 C 333.847656 149.128906 333.671875 150.039062 333.460938 150.179688 C 333.355469 150.285156 332.167969 150.285156 331.921875 150.285156 L 329.050781 150.285156 C 330.695312 148.851562 331.257812 148.394531 332.167969 147.660156 C 333.320312 146.75 334.40625 145.769531 334.40625 144.300781 C 334.40625 142.410156 332.761719 141.253906 330.765625 141.253906 C 328.839844 141.253906 327.511719 142.621094 327.511719 144.054688 C 327.511719 144.824219 328.175781 144.929688 328.351562 144.929688 C 328.703125 144.929688 329.15625 144.648438 329.15625 144.089844 C 329.15625 143.808594 329.050781 143.25 328.246094 143.25 C 328.738281 142.164062 329.785156 141.816406 330.523438 141.816406 C 332.097656 141.816406 332.902344 143.039062 332.902344 144.300781 C 332.902344 145.664062 331.921875 146.714844 331.433594 147.273438 L 327.6875 151.019531 C 327.511719 151.160156 327.511719 151.195312 327.511719 151.617188 L 333.953125 151.617188 Z M 334.40625 148.78125 "/>
<path fill-rule="nonzero" fill="rgb(0%, 0%, 0%)" fill-opacity="1" d="M 338.71875 151.371094 C 338.71875 152.210938 338.578125 153.226562 337.492188 154.207031 C 337.457031 154.277344 337.386719 154.347656 337.386719 154.414062 C 337.386719 154.519531 337.527344 154.625 337.597656 154.625 C 337.84375 154.625 339.171875 153.367188 339.171875 151.511719 C 339.171875 150.566406 338.789062 149.832031 338.050781 149.832031 C 337.5625 149.832031 337.175781 150.214844 337.175781 150.707031 C 337.175781 151.195312 337.527344 151.617188 338.085938 151.617188 C 338.472656 151.617188 338.71875 151.371094 338.71875 151.371094 Z M 338.71875 151.371094 "/>
<path fill-rule="nonzero" fill="rgb(0%, 0%, 0%)" fill-opacity="1" d="M 347.589844 141.851562 C 347.589844 141.605469 347.378906 141.253906 346.957031 141.253906 C 346.503906 141.253906 346.082031 141.710938 346.082031 142.128906 C 346.082031 142.375 346.257812 142.726562 346.714844 142.726562 C 347.132812 142.726562 347.589844 142.304688 347.589844 141.851562 Z M 344.261719 152.386719 C 344.019531 153.472656 343.179688 154.347656 342.269531 154.347656 C 342.058594 154.347656 341.882812 154.347656 341.707031 154.277344 C 342.09375 154.066406 342.234375 153.714844 342.234375 153.472656 C 342.234375 153.085938 341.917969 152.910156 341.601562 152.910156 C 341.148438 152.910156 340.726562 153.332031 340.726562 153.820312 C 340.726562 154.414062 341.324219 154.800781 342.269531 154.800781 C 343.214844 154.800781 345.03125 154.242188 345.523438 152.351562 L 346.921875 146.75 C 346.957031 146.574219 346.992188 146.433594 346.992188 146.191406 C 346.992188 145.351562 346.257812 144.71875 345.347656 144.71875 C 343.597656 144.71875 342.617188 146.890625 342.617188 147.136719 C 342.617188 147.308594 342.828125 147.308594 342.863281 147.308594 C 343.039062 147.308594 343.074219 147.273438 343.179688 147.03125 C 343.5625 146.121094 344.367188 145.175781 345.277344 145.175781 C 345.664062 145.175781 345.804688 145.421875 345.804688 145.945312 C 345.804688 146.121094 345.804688 146.332031 345.769531 146.398438 Z M 344.261719 152.386719 "/>
</svg>
