<?xml version="1.0" encoding="UTF-8" standalone="no"?>
<svg
   width="532.97101pt"
   height="252.94623pt"
   viewBox="0 0 532.971 252.94623"
   version="1.1"
   id="svg135"
   xmlns:xlink="http://www.w3.org/1999/xlink"
   xmlns="http://www.w3.org/2000/svg"
   xmlns:svg="http://www.w3.org/2000/svg"
   xmlns:rdf="http://www.w3.org/1999/02/22-rdf-syntax-ns#"
   xmlns:cc="http://creativecommons.org/ns#"
   xmlns:dc="http://purl.org/dc/elements/1.1/">
  <metadata
     id="metadata1">
    <rdf:RDF>
      <cc:Work>
        <dc:type
           rdf:resource="http://purl.org/dc/dcmitype/StillImage" />
        <dc:date>2026-01-15T15:05:11.641429</dc:date>
        <dc:format>image/svg+xml</dc:format>
        <dc:creator>
          <cc:Agent>
            <dc:title>Matplotlib v3.7.1, https://matplotlib.org/</dc:title>
          </cc:Agent>
        </dc:creator>
      </cc:Work>
    </rdf:RDF>
  </metadata>
  <defs
     id="defs1">
    <marker
       style="overflow:visible"
       id="Triangle"
       refX="0"
       refY="0"
       orient="auto-start-reverse"
       markerWidth="1"
       markerHeight="1"
       viewBox="0 0 1 1"
       preserveAspectRatio="xMidYMid">
      <path
         transform="scale(0.5)"
         style="fill:context-stroke;fill-rule:evenodd;stroke:context-stroke;stroke-width:1pt"
         d="M 5.77,0 -2.88,5 V -5 Z"
         id="path136" />
    </marker>
    <style
       type="text/css"
       id="style1">*{stroke-linejoin: round; stroke-linecap: butt}</style>
    <marker
       style="overflow:visible"
       id="Triangle-5"
       refX="0"
       refY="0"
       orient="auto-start-reverse"
       markerWidth="1"
       markerHeight="1"
       viewBox="0 0 1 1"
       preserveAspectRatio="xMidYMid">
      <path
         transform="scale(0.5)"
         style="fill:context-stroke;fill-rule:evenodd;stroke:context-stroke;stroke-width:1pt"
         d="M 5.77,0 -2.88,5 V -5 Z"
         id="path136-2" />
    </marker>
    <marker
       style="overflow:visible"
       id="Triangle-5-8"
       refX="0"
       refY="0"
       orient="auto-start-reverse"
       markerWidth="1"
       markerHeight="1"
       viewBox="0 0 1 1"
       preserveAspectRatio="xMidYMid">
      <path
         transform="scale(0.5)"
         style="fill:context-stroke;fill-rule:evenodd;stroke:context-stroke;stroke-width:1pt"
         d="M 5.77,0 -2.88,5 V -5 Z"
         id="path136-2-4" />
    </marker>
  </defs>
  <g
     id="layer5"
     style="display:inline"
     transform="translate(79.370994,46.033182)">
    <g
       id="patch_1">
      <path
         d="M 0,206.91302 H 453.6 V 0 H 0 Z"
         style="fill:none"
         id="path1" />
    </g>
    <g
       id="patch_2">
      <path
         d="m 7.2,167.90218 h 439.2 v -146.4 H 7.2 Z"
         style="fill:none"
         id="path2" />
    </g>
    <g
       id="patch_3">
      <path
         d="m 31.6,152.65218 c 2.426608,0 4.754156,-0.9641 6.470027,-2.67997 1.715871,-1.71587 2.679973,-4.04342 2.679973,-6.47003 0,-2.42661 -0.964102,-4.75416 -2.679973,-6.47003 -1.715871,-1.71587 -4.043419,-2.67997 -6.470027,-2.67997 -2.426608,0 -4.754156,0.9641 -6.470027,2.67997 -1.715871,1.71587 -2.679973,4.04342 -2.679973,6.47003 0,2.42661 0.964102,4.75416 2.679973,6.47003 1.715871,1.71587 4.043419,2.67997 6.470027,2.67997 z"
         clip-path="url(#p3cde564367)"
         style="fill:none;stroke:#b22222;stroke-linejoin:miter"
         id="path3" />
    </g>
    <g
       id="patch_6">
      <path
         d="m 56,152.65218 c 2.426608,0 4.754156,-0.9641 6.470027,-2.67997 1.715871,-1.71587 2.679973,-4.04342 2.679973,-6.47003 0,-2.42661 -0.964102,-4.75416 -2.679973,-6.47003 -1.715871,-1.71587 -4.043419,-2.67997 -6.470027,-2.67997 -2.426608,0 -4.754156,0.9641 -6.470027,2.67997 -1.715871,1.71587 -2.679973,4.04342 -2.679973,6.47003 0,2.42661 0.964102,4.75416 2.679973,6.47003 1.715871,1.71587 4.043419,2.67997 6.470027,2.67997 z"
         clip-path="url(#p3cde564367)"
         style="fill:none;stroke:#b22222;stroke-linejoin:miter"
         id="path6" />
    </g>
    <g
       id="patch_9">
      <path
         d="m 80.4,152.65218 c 2.426608,0 4.754156,-0.9641 6.470027,-2.67997 1.715871,-1.71587 2.679973,-4.04342 2.679973,-6.47003 0,-2.42661 -0.964102,-4.75416 -2.679973,-6.47003 -1.715871,-1.71587 -4.043419,-2.67997 -6.470027,-2.67997 -2.426608,0 -4.754156,0.9641 -6.470027,2.67997 -1.715871,1.71587 -2.679973,4.04342 -2.679973,6.47003 0,2.42661 0.964102,4.75416 2.679973,6.47003 1.715871,1.71587 4.043419,2.67997 6.470027,2.67997 z"
         clip-path="url(#p3cde564367)"
         style="fill:none;stroke:#b22222;stroke-linejoin:miter"
         id="path9" />
    </g>
    <g
       id="patch_12">
      <path
         d="m 104.8,152.65218 c 2.42661,0 4.75416,-0.9641 6.47003,-2.67997 1.71587,-1.71587 2.67997,-4.04342 2.67997,-6.47003 0,-2.42661 -0.9641,-4.75416 -2.67997,-6.47003 -1.71587,-1.71587 -4.04342,-2.67997 -6.47003,-2.67997 -2.42661,0 -4.75416,0.9641 -6.470027,2.67997 -1.715871,1.71587 -2.679973,4.04342 -2.679973,6.47003 0,2.42661 0.964102,4.75416 2.679973,6.47003 1.715867,1.71587 4.043417,2.67997 6.470027,2.67997 z"
         clip-path="url(#p3cde564367)"
         style="fill:none;stroke:#b22222;stroke-linejoin:miter"
         id="path12" />
    </g>
    <g
       id="patch_15">
      <path
         d="m 129.2,152.65218 c 2.42661,0 4.75416,-0.9641 6.47003,-2.67997 1.71587,-1.71587 2.67997,-4.04342 2.67997,-6.47003 0,-2.42661 -0.9641,-4.75416 -2.67997,-6.47003 -1.71587,-1.71587 -4.04342,-2.67997 -6.47003,-2.67997 -2.42661,0 -4.75416,0.9641 -6.47003,2.67997 -1.71587,1.71587 -2.67997,4.04342 -2.67997,6.47003 0,2.42661 0.9641,4.75416 2.67997,6.47003 1.71587,1.71587 4.04342,2.67997 6.47003,2.67997 z"
         clip-path="url(#p3cde564367)"
         style="fill:none;stroke:#b22222;stroke-linejoin:miter"
         id="path15" />
    </g>
    <g
       id="patch_18">
      <path
         d="m 153.6,152.65218 c 2.42661,0 4.75416,-0.9641 6.47003,-2.67997 1.71587,-1.71587 2.67997,-4.04342 2.67997,-6.47003 0,-2.42661 -0.9641,-4.75416 -2.67997,-6.47003 -1.71587,-1.71587 -4.04342,-2.67997 -6.47003,-2.67997 -2.42661,0 -4.75416,0.9641 -6.47003,2.67997 -1.71587,1.71587 -2.67997,4.04342 -2.67997,6.47003 0,2.42661 0.9641,4.75416 2.67997,6.47003 1.71587,1.71587 4.04342,2.67997 6.47003,2.67997 z"
         clip-path="url(#p3cde564367)"
         style="fill:none;stroke:#b22222;stroke-linejoin:miter"
         id="path18" />
    </g>
    <g
       id="patch_21">
      <path
         d="m 178,152.65218 c 2.42661,0 4.75416,-0.9641 6.47003,-2.67997 1.71587,-1.71587 2.67997,-4.04342 2.67997,-6.47003 0,-2.42661 -0.9641,-4.75416 -2.67997,-6.47003 -1.71587,-1.71587 -4.04342,-2.67997 -6.47003,-2.67997 -2.42661,0 -4.75416,0.9641 -6.47003,2.67997 -1.71587,1.71587 -2.67997,4.04342 -2.67997,6.47003 0,2.42661 0.9641,4.75416 2.67997,6.47003 1.71587,1.71587 4.04342,2.67997 6.47003,2.67997 z"
         clip-path="url(#p3cde564367)"
         style="fill:none;stroke:#b22222;stroke-linejoin:miter"
         id="path21" />
    </g>
    <g
       id="patch_24">
      <path
         d="m 202.4,152.65218 c 2.42661,0 4.75416,-0.9641 6.47003,-2.67997 1.71587,-1.71587 2.67997,-4.04342 2.67997,-6.47003 0,-2.42661 -0.9641,-4.75416 -2.67997,-6.47003 -1.71587,-1.71587 -4.04342,-2.67997 -6.47003,-2.67997 -2.42661,0 -4.75416,0.9641 -6.47003,2.67997 -1.71587,1.71587 -2.67997,4.04342 -2.67997,6.47003 0,2.42661 0.9641,4.75416 2.67997,6.47003 1.71587,1.71587 4.04342,2.67997 6.47003,2.67997 z"
         clip-path="url(#p3cde564367)"
         style="fill:none;stroke:#b22222;stroke-linejoin:miter"
         id="path24" />
    </g>
    <g
       id="patch_27">
      <path
         d="m 226.8,152.65218 c 2.42661,0 4.75416,-0.9641 6.47003,-2.67997 1.71587,-1.71587 2.67997,-4.04342 2.67997,-6.47003 0,-2.42661 -0.9641,-4.75416 -2.67997,-6.47003 -1.71587,-1.71587 -4.04342,-2.67997 -6.47003,-2.67997 -2.42661,0 -4.75416,0.9641 -6.47003,2.67997 -1.71587,1.71587 -2.67997,4.04342 -2.67997,6.47003 0,2.42661 0.9641,4.75416 2.67997,6.47003 1.71587,1.71587 4.04342,2.67997 6.47003,2.67997 z"
         clip-path="url(#p3cde564367)"
         style="fill:none;stroke:#b22222;stroke-linejoin:miter"
         id="path27" />
    </g>
    <g
       id="patch_30">
      <path
         d="m 251.2,152.65218 c 2.42661,0 4.75416,-0.9641 6.47003,-2.67997 1.71587,-1.71587 2.67997,-4.04342 2.67997,-6.47003 0,-2.42661 -0.9641,-4.75416 -2.67997,-6.47003 -1.71587,-1.71587 -4.04342,-2.67997 -6.47003,-2.67997 -2.42661,0 -4.75416,0.9641 -6.47003,2.67997 -1.71587,1.71587 -2.67997,4.04342 -2.67997,6.47003 0,2.42661 0.9641,4.75416 2.67997,6.47003 1.71587,1.71587 4.04342,2.67997 6.47003,2.67997 z"
         clip-path="url(#p3cde564367)"
         style="fill:none;stroke:#b22222;stroke-linejoin:miter"
         id="path30" />
    </g>
    <g
       id="patch_33">
      <path
         d="m 275.6,152.65218 c 2.42661,0 4.75416,-0.9641 6.47003,-2.67997 1.71587,-1.71587 2.67997,-4.04342 2.67997,-6.47003 0,-2.42661 -0.9641,-4.75416 -2.67997,-6.47003 -1.71587,-1.71587 -4.04342,-2.67997 -6.47003,-2.67997 -2.42661,0 -4.75416,0.9641 -6.47003,2.67997 -1.71587,1.71587 -2.67997,4.04342 -2.67997,6.47003 0,2.42661 0.9641,4.75416 2.67997,6.47003 1.71587,1.71587 4.04342,2.67997 6.47003,2.67997 z"
         clip-path="url(#p3cde564367)"
         style="fill:none;stroke:#b22222;stroke-linejoin:miter"
         id="path33" />
    </g>
    <g
       id="patch_36">
      <path
         d="m 300,152.65218 c 2.42661,0 4.75416,-0.9641 6.47003,-2.67997 1.71587,-1.71587 2.67997,-4.04342 2.67997,-6.47003 0,-2.42661 -0.9641,-4.75416 -2.67997,-6.47003 -1.71587,-1.71587 -4.04342,-2.67997 -6.47003,-2.67997 -2.42661,0 -4.75416,0.9641 -6.47003,2.67997 -1.71587,1.71587 -2.67997,4.04342 -2.67997,6.47003 0,2.42661 0.9641,4.75416 2.67997,6.47003 1.71587,1.71587 4.04342,2.67997 6.47003,2.67997 z"
         clip-path="url(#p3cde564367)"
         style="fill:none;stroke:#b22222;stroke-linejoin:miter"
         id="path36" />
    </g>
    <g
       id="patch_39">
      <path
         d="m 324.4,152.65218 c 2.42661,0 4.75416,-0.9641 6.47003,-2.67997 1.71587,-1.71587 2.67997,-4.04342 2.67997,-6.47003 0,-2.42661 -0.9641,-4.75416 -2.67997,-6.47003 -1.71587,-1.71587 -4.04342,-2.67997 -6.47003,-2.67997 -2.42661,0 -4.75416,0.9641 -6.47003,2.67997 -1.71587,1.71587 -2.67997,4.04342 -2.67997,6.47003 0,2.42661 0.9641,4.75416 2.67997,6.47003 1.71587,1.71587 4.04342,2.67997 6.47003,2.67997 z"
         clip-path="url(#p3cde564367)"
         style="fill:none;stroke:#b22222;stroke-linejoin:miter"
         id="path39" />
    </g>
    <g
       id="patch_42">
      <path
         d="m 348.8,152.65218 c 2.42661,0 4.75416,-0.9641 6.47003,-2.67997 1.71587,-1.71587 2.67997,-4.04342 2.67997,-6.47003 0,-2.42661 -0.9641,-4.75416 -2.67997,-6.47003 -1.71587,-1.71587 -4.04342,-2.67997 -6.47003,-2.67997 -2.42661,0 -4.75416,0.9641 -6.47003,2.67997 -1.71587,1.71587 -2.67997,4.04342 -2.67997,6.47003 0,2.42661 0.9641,4.75416 2.67997,6.47003 1.71587,1.71587 4.04342,2.67997 6.47003,2.67997 z"
         clip-path="url(#p3cde564367)"
         style="fill:none;stroke:#b22222;stroke-linejoin:miter"
         id="path42" />
    </g>
    <g
       id="patch_45">
      <path
         d="m 373.2,152.65218 c 2.42661,0 4.75416,-0.9641 6.47003,-2.67997 1.71587,-1.71587 2.67997,-4.04342 2.67997,-6.47003 0,-2.42661 -0.9641,-4.75416 -2.67997,-6.47003 -1.71587,-1.71587 -4.04342,-2.67997 -6.47003,-2.67997 -2.42661,0 -4.75416,0.9641 -6.47003,2.67997 -1.71587,1.71587 -2.67997,4.04342 -2.67997,6.47003 0,2.42661 0.9641,4.75416 2.67997,6.47003 1.71587,1.71587 4.04342,2.67997 6.47003,2.67997 z"
         clip-path="url(#p3cde564367)"
         style="fill:none;stroke:#b22222;stroke-linejoin:miter"
         id="path45" />
    </g>
    <g
       id="patch_48">
      <path
         d="m 397.6,152.65218 c 2.42661,0 4.75416,-0.9641 6.47003,-2.67997 1.71587,-1.71587 2.67997,-4.04342 2.67997,-6.47003 0,-2.42661 -0.9641,-4.75416 -2.67997,-6.47003 -1.71587,-1.71587 -4.04342,-2.67997 -6.47003,-2.67997 -2.42661,0 -4.75416,0.9641 -6.47003,2.67997 -1.71587,1.71587 -2.67997,4.04342 -2.67997,6.47003 0,2.42661 0.9641,4.75416 2.67997,6.47003 1.71587,1.71587 4.04342,2.67997 6.47003,2.67997 z"
         clip-path="url(#p3cde564367)"
         style="fill:none;stroke:#b22222;stroke-linejoin:miter"
         id="path48" />
    </g>
    <g
       id="matplotlib.axis_1">
      <g
         id="xtick_1">
        <g
           id="line2d_1">
          <defs
             id="defs50">
            <path
               id="mb874877c3e"
               d="M 0,0 V 3.5"
               style="stroke:#000000;stroke-width:0.8" />
          </defs>
          <g
             id="g50">
            <use
               xlink:href="#mb874877c3e"
               x="31.6"
               y="167.90218"
               style="stroke:#000000;stroke-width:0.8"
               id="use50" />
          </g>
        </g>
        <g
           id="text_1">
          <!-- $\mathdefault{0}$ -->
          <g
             transform="matrix(0.1,0,0,-0.1,29.109332,181.82068)"
             id="g51">
            <defs
               id="defs51">
              <path
                 id="CMR17-30"
                 d="m 2688,2038 c 0,392 -6,1061 -275,1575 -237,450 -615,611 -947,611 -308,0 -698,-142 -941,-604 C 269,3137 243,2539 243,2038 c 0,-367 7,-926 205,-1415 275,-662 768,-751 1018,-751 294,0 742,121 1004,732 192,444 218,964 218,1434 z M 1466,-26 c -410,0 -653,354 -743,842 -70,380 -70,933 -70,1293 0,495 0,906 83,1298 122,547 480,714 730,714 262,0 601,-174 723,-701 83,-366 89,-797 89,-1311 0,-418 0,-933 -76,-1312 C 2067,96 1690,-26 1466,-26 Z"
                 transform="scale(0.015625)" />
            </defs>
            <use
               xlink:href="#CMR17-30"
               transform="scale(0.996264)"
               id="use51" />
          </g>
        </g>
      </g>
      <g
         id="xtick_2">
        <g
           id="line2d_2">
          <g
             id="g52">
            <use
               xlink:href="#mb874877c3e"
               x="80.400002"
               y="167.90218"
               style="stroke:#000000;stroke-width:0.8"
               id="use52" />
          </g>
        </g>
        <g
           id="text_2">
          <!-- $\mathdefault{2}$ -->
          <g
             transform="matrix(0.1,0,0,-0.1,77.909332,181.82068)"
             id="g53">
            <defs
               id="defs52">
              <path
                 id="CMR17-32"
                 d="M 2669,990 H 2554 C 2490,537 2438,460 2413,422 2381,371 1920,371 1830,371 H 602 c 230,249 678,702 1222,1225 390,370 845,804 845,1437 0,755 -602,1191 -1274,1191 -704,0 -1133,-621 -1133,-1197 0,-250 186,-282 263,-282 64,0 256,38 256,262 0,199 -167,257 -256,257 -39,0 -77,-7 -103,-20 122,544 493,813 884,813 556,0 921,-441 921,-1024 0,-556 -326,-1035 -691,-1450 L 262,147 V 0 h 2253 z"
                 transform="scale(0.015625)" />
            </defs>
            <use
               xlink:href="#CMR17-32"
               transform="scale(0.996264)"
               id="use53" />
          </g>
        </g>
      </g>
      <g
         id="xtick_3">
        <g
           id="line2d_3">
          <g
             id="g54">
            <use
               xlink:href="#mb874877c3e"
               x="129.2"
               y="167.90218"
               style="stroke:#000000;stroke-width:0.8"
               id="use54" />
          </g>
        </g>
        <g
           id="text_3">
          <!-- $\mathdefault{4}$ -->
          <g
             transform="matrix(0.1,0,0,-0.1,126.70933,181.82068)"
             id="g55">
            <defs
               id="defs54">
              <path
                 id="CMR17-34"
                 d="m 2150,4147 c 0,134 -6,141 -121,141 L 128,1254 V 1088 H 1779 V 460 c 0,-230 -13,-294 -461,-294 H 1197 V 0 c 205,12 550,12 768,12 217,0 563,0 768,-12 v 166 h -122 c -448,0 -461,64 -461,294 v 628 h 653 v 166 H 2150 Z M 1798,3723 V 1254 H 256 Z"
                 transform="scale(0.015625)" />
            </defs>
            <use
               xlink:href="#CMR17-34"
               transform="scale(0.996264)"
               id="use55" />
          </g>
        </g>
      </g>
      <g
         id="xtick_4">
        <g
           id="line2d_4">
          <g
             id="g56">
            <use
               xlink:href="#mb874877c3e"
               x="178"
               y="167.90218"
               style="stroke:#000000;stroke-width:0.8"
               id="use56" />
          </g>
        </g>
        <g
           id="text_4">
          <!-- $\mathdefault{6}$ -->
          <g
             transform="matrix(0.1,0,0,-0.1,175.50933,181.82068)"
             id="g57">
            <defs
               id="defs56">
              <path
                 id="CMR17-36"
                 d="m 678,2198 c 0,1514 717,1878 1133,1878 135,0 461,-27 589,-294 -102,0 -294,0 -294,-224 0,-173 140,-230 230,-230 58,0 230,25 230,243 0,416 -320,653 -761,653 -762,0 -1562,-813 -1562,-2213 0,-1754 723,-2139 1235,-2139 621,0 1210,559 1210,1423 0,806 -518,1393 -1171,1393 -391,0 -679,-258 -839,-709 z M 1478,25 c -787,0 -787,1187 -787,1425 0,464 218,1135 813,1135 109,0 422,0 634,-445 115,-251 115,-516 115,-838 0,-348 0,-606 -135,-864 C 1978,173 1773,25 1478,25 Z"
                 transform="scale(0.015625)" />
            </defs>
            <use
               xlink:href="#CMR17-36"
               transform="scale(0.996264)"
               id="use57" />
          </g>
        </g>
      </g>
      <g
         id="xtick_5">
        <g
           id="line2d_5">
          <g
             id="g58">
            <use
               xlink:href="#mb874877c3e"
               x="226.8"
               y="167.90218"
               style="stroke:#000000;stroke-width:0.8"
               id="use58" />
          </g>
        </g>
        <g
           id="text_5">
          <!-- $\mathdefault{8}$ -->
          <g
             transform="matrix(0.1,0,0,-0.1,224.30933,181.82068)"
             id="g59">
            <defs
               id="defs58">
              <path
                 id="CMR17-38"
                 d="m 1741,2289 c 403,205 813,514 813,1009 0,586 -564,926 -1082,926 -582,0 -1094,-424 -1094,-1009 0,-161 38,-438 288,-682 64,-64 332,-257 505,-379 C 883,2006 211,1652 211,945 211,282 838,-128 1459,-128 c 685,0 1261,494 1261,1150 0,585 -390,855 -646,1029 z m -839,566 c -51,32 -307,231 -307,533 0,393 403,688 864,688 506,0 877,-360 877,-778 0,-598 -666,-939 -698,-939 -6,0 -12,0 -64,39 z M 2080,1536 c 96,-70 403,-283 403,-675 C 2483,385 2010,25 1472,25 890,25 448,443 448,951 c 0,508 390,933 832,1132 z"
                 transform="scale(0.015625)" />
            </defs>
            <use
               xlink:href="#CMR17-38"
               transform="scale(0.996264)"
               id="use59" />
          </g>
        </g>
      </g>
      <g
         id="xtick_6">
        <g
           id="line2d_6">
          <g
             id="g60">
            <use
               xlink:href="#mb874877c3e"
               x="275.60001"
               y="167.90218"
               style="stroke:#000000;stroke-width:0.8"
               id="use60" />
          </g>
        </g>
        <g
           id="text_6">
          <!-- $\mathdefault{10}$ -->
          <g
             transform="matrix(0.1,0,0,-0.1,270.61867,181.82068)"
             id="g62">
            <defs
               id="defs60">
              <path
                 id="CMR17-31"
                 d="m 1702,4083 c 0,134 -6,141 -96,141 -249,-297 -627,-391 -985,-404 -19,0 -51,0 -58,-12 -6,-13 -6,-26 -6,-160 198,0 531,38 787,191 V 467 C 1344,243 1331,166 781,166 H 589 V 0 c 307,6 627,12 934,12 307,0 627,-6 935,-12 v 166 h -192 c -551,0 -564,70 -564,301 z"
                 transform="scale(0.015625)" />
            </defs>
            <use
               xlink:href="#CMR17-31"
               transform="scale(0.996264)"
               id="use61" />
            <use
               xlink:href="#CMR17-30"
               transform="matrix(0.996264,0,0,0.996264,45.690477,0)"
               id="use62" />
          </g>
        </g>
      </g>
      <g
         id="xtick_7">
        <g
           id="line2d_7">
          <g
             id="g63">
            <use
               xlink:href="#mb874877c3e"
               x="324.39999"
               y="167.90218"
               style="stroke:#000000;stroke-width:0.8"
               id="use63" />
          </g>
        </g>
        <g
           id="text_7">
          <!-- $\mathdefault{12}$ -->
          <g
             transform="matrix(0.1,0,0,-0.1,319.41866,181.82068)"
             id="g65">
            <use
               xlink:href="#CMR17-31"
               transform="scale(0.996264)"
               id="use64" />
            <use
               xlink:href="#CMR17-32"
               transform="matrix(0.996264,0,0,0.996264,45.690477,0)"
               id="use65" />
          </g>
        </g>
      </g>
      <g
         id="xtick_8">
        <g
           id="line2d_8">
          <g
             id="g66">
            <use
               xlink:href="#mb874877c3e"
               x="373.20001"
               y="167.90218"
               style="stroke:#000000;stroke-width:0.8"
               id="use66" />
          </g>
        </g>
        <g
           id="text_8">
          <!-- $\mathdefault{14}$ -->
          <g
             transform="matrix(0.1,0,0,-0.1,368.21866,181.82068)"
             id="g68">
            <use
               xlink:href="#CMR17-31"
               transform="scale(0.996264)"
               id="use67" />
            <use
               xlink:href="#CMR17-34"
               transform="matrix(0.996264,0,0,0.996264,45.690477,0)"
               id="use68" />
          </g>
        </g>
      </g>
      <g
         id="xtick_9">
        <g
           id="line2d_9">
          <g
             id="g69">
            <use
               xlink:href="#mb874877c3e"
               x="422"
               y="167.90218"
               style="stroke:#000000;stroke-width:0.8"
               id="use69" />
          </g>
        </g>
        <g
           id="text_9">
          <!-- $\mathdefault{16}$ -->
          <g
             transform="matrix(0.1,0,0,-0.1,417.01866,181.82068)"
             id="g71">
            <use
               xlink:href="#CMR17-31"
               transform="scale(0.996264)"
               id="use70" />
            <use
               xlink:href="#CMR17-36"
               transform="matrix(0.996264,0,0,0.996264,45.690477,0)"
               id="use71" />
          </g>
        </g>
      </g>
      <g
         id="text_10">
        <!-- x [$\lambda/2$] -->
        <g
           transform="matrix(0.12,0,0,-0.12,209.52122,196.72423)"
           id="g77">
          <defs
             id="defs71">
            <path
               id="CMSS17-78"
               d="M 1587,1420 2656,2752 H 2099 L 1363,1785 602,2752 H 32 L 1139,1420 0,0 H 563 L 1363,1126 2195,0 h 563 z"
               transform="scale(0.015625)" />
            <path
               id="CMSS17-5b"
               d="m 1613,-1600 v 390 h -551 v 5619 h 551 v 391 H 595 v -6400 z"
               transform="scale(0.015625)" />
            <path
               id="CMMI12-15"
               d="m 1978,3963 c -160,453 -666,453 -749,453 -39,0 -109,0 -109,-65 0,-51 38,-57 70,-64 96,-12 173,-25 276,-209 64,-121 723,-2023 723,-2036 0,-6 -7,-13 -58,-64 L 467,305 C 390,229 339,178 339,95 339,6 416,-71 518,-71 c 26,0 96,13 135,51 102,96 1017,1210 1600,1897 166,-497 371,-1082 569,-1616 32,-96 64,-185 154,-268 64,-57 77,-57 256,-57 h 122 c 25,0 70,0 70,51 0,25 -6,32 -32,57 -58,70 -102,185 -128,261 z"
               transform="scale(0.015625)" />
            <path
               id="CMMI12-3d"
               d="m 2746,4563 c 0,6 38,102 38,115 0,77 -64,122 -115,122 -32,0 -90,0 -141,-141 L 384,-1364 c 0,-6 -38,-102 -38,-115 0,-77 64,-121 115,-121 38,0 96,6 141,140 z"
               transform="scale(0.015625)" />
            <path
               id="CMSS17-5d"
               d="M 1146,4800 H 128 V 4409 H 678 V -1210 H 128 v -390 h 1018 z"
               transform="scale(0.015625)" />
          </defs>
          <use
             xlink:href="#CMSS17-78"
             transform="scale(0.996264)"
             id="use72" />
          <use
             xlink:href="#CMSS17-5b"
             transform="matrix(0.996264,0,0,0.996264,74.229254,0)"
             id="use73" />
          <use
             xlink:href="#CMMI12-15"
             transform="matrix(0.996264,0,0,0.996264,101.41469,0)"
             id="use74" />
          <use
             xlink:href="#CMMI12-3d"
             transform="matrix(0.996264,0,0,0.996264,158.31877,0)"
             id="use75" />
          <use
             xlink:href="#CMR17-32"
             transform="matrix(0.996264,0,0,0.996264,207.09368,0)"
             id="use76" />
          <use
             xlink:href="#CMSS17-5d"
             transform="matrix(0.996264,0,0,0.996264,252.78416,0)"
             id="use77" />
        </g>
      </g>
    </g>
    <g
       id="line2d_10">
      <path
         d="m 31.6,143.50218 h 9.15"
         clip-path="url(#p3cde564367)"
         style="fill:none;stroke:#b22222;stroke-width:1.5;stroke-linecap:square"
         id="path77" />
    </g>
    <g
       id="line2d_13">
      <path
         d="m 56,143.50218 h 9.15"
         clip-path="url(#p3cde564367)"
         style="fill:none;stroke:#b22222;stroke-width:1.5;stroke-linecap:square"
         id="path80" />
    </g>
    <g
       id="line2d_16">
      <path
         d="m 80.4,143.50218 h 9.15"
         clip-path="url(#p3cde564367)"
         style="fill:none;stroke:#b22222;stroke-width:1.5;stroke-linecap:square"
         id="path83" />
    </g>
    <g
       id="line2d_19">
      <path
         d="m 104.8,143.50218 h 9.15"
         clip-path="url(#p3cde564367)"
         style="fill:none;stroke:#b22222;stroke-width:1.5;stroke-linecap:square"
         id="path86" />
    </g>
    <g
       id="line2d_22">
      <path
         d="m 129.2,143.50218 h 9.15"
         clip-path="url(#p3cde564367)"
         style="fill:none;stroke:#b22222;stroke-width:1.5;stroke-linecap:square"
         id="path89" />
    </g>
    <g
       id="line2d_25">
      <path
         d="m 153.6,143.50218 h 9.15"
         clip-path="url(#p3cde564367)"
         style="fill:none;stroke:#b22222;stroke-width:1.5;stroke-linecap:square"
         id="path92" />
    </g>
    <g
       id="line2d_28">
      <path
         d="m 178,143.50218 h 9.15"
         clip-path="url(#p3cde564367)"
         style="fill:none;stroke:#b22222;stroke-width:1.5;stroke-linecap:square"
         id="path95" />
    </g>
    <g
       id="line2d_31">
      <path
         d="m 202.4,143.50218 h 9.15"
         clip-path="url(#p3cde564367)"
         style="fill:none;stroke:#b22222;stroke-width:1.5;stroke-linecap:square"
         id="path98" />
    </g>
    <g
       id="line2d_34">
      <path
         d="m 226.8,143.50218 h 9.15"
         clip-path="url(#p3cde564367)"
         style="fill:none;stroke:#b22222;stroke-width:1.5;stroke-linecap:square"
         id="path101" />
    </g>
    <g
       id="line2d_37">
      <path
         d="m 251.2,143.50218 h 9.15"
         clip-path="url(#p3cde564367)"
         style="fill:none;stroke:#b22222;stroke-width:1.5;stroke-linecap:square"
         id="path104" />
    </g>
    <g
       id="line2d_40">
      <path
         d="m 275.6,143.50218 h 9.15"
         clip-path="url(#p3cde564367)"
         style="fill:none;stroke:#b22222;stroke-width:1.5;stroke-linecap:square"
         id="path107" />
    </g>
    <g
       id="line2d_43">
      <path
         d="m 300,143.50218 h 9.15"
         clip-path="url(#p3cde564367)"
         style="fill:none;stroke:#b22222;stroke-width:1.5;stroke-linecap:square"
         id="path110" />
    </g>
    <g
       id="line2d_46">
      <path
         d="m 324.4,143.50218 h 9.15"
         clip-path="url(#p3cde564367)"
         style="fill:none;stroke:#b22222;stroke-width:1.5;stroke-linecap:square"
         id="path113" />
    </g>
    <g
       id="line2d_49">
      <path
         d="m 348.8,143.50218 h 9.15"
         clip-path="url(#p3cde564367)"
         style="fill:none;stroke:#b22222;stroke-width:1.5;stroke-linecap:square"
         id="path116" />
    </g>
    <g
       id="line2d_52">
      <path
         d="m 373.2,143.50218 h 9.15"
         clip-path="url(#p3cde564367)"
         style="fill:none;stroke:#b22222;stroke-width:1.5;stroke-linecap:square"
         id="path119" />
    </g>
    <g
       id="line2d_55">
      <path
         d="m 397.6,143.50218 h 9.15"
         clip-path="url(#p3cde564367)"
         style="fill:none;stroke:#b22222;stroke-width:1.5;stroke-linecap:square"
         id="path122" />
    </g>
    <g
       id="patch_51">
      <path
         d="m 7.2,167.90218 v -146.4"
         style="fill:none;stroke:#000000;stroke-width:0.8;stroke-linecap:square;stroke-linejoin:miter"
         id="path125" />
    </g>
    <g
       id="patch_52">
      <path
         d="m 446.4,167.90218 v -146.4"
         style="fill:none;stroke:#000000;stroke-width:0.8;stroke-linecap:square;stroke-linejoin:miter"
         id="path126" />
    </g>
    <g
       id="patch_53">
      <path
         d="M 7.2,167.90218 H 446.4"
         style="fill:none;stroke:#000000;stroke-width:0.8;stroke-linecap:square;stroke-linejoin:miter"
         id="path127" />
    </g>
    <g
       id="patch_54">
      <path
         d="M 7.2,21.50218 H 446.4"
         style="fill:none;stroke:#000000;stroke-width:0.8;stroke-linecap:square;stroke-linejoin:miter"
         id="path128" />
    </g>
    <g
       id="text_11">
      <!-- SNR = 30 dB -->
      <g
         transform="matrix(0.12,0,0,-0.12,192.53306,15.50218)"
         id="g135">
        <defs
           id="defs128">
          <path
             id="CMSS17-53"
             d="m 2797,4230 c -282,166 -589,314 -1107,314 -826,0 -1357,-610 -1357,-1235 0,-245 70,-522 320,-805 249,-284 531,-361 889,-451 148,-39 397,-110 442,-129 358,-142 531,-470 531,-780 0,-406 -313,-837 -870,-837 -192,0 -755,32 -1287,522 L 269,320 c 525,-384 1094,-448 1382,-448 787,0 1351,622 1351,1330 0,258 -77,587 -346,890 -262,289 -493,354 -1018,496 -300,77 -492,129 -652,328 -109,142 -167,277 -167,451 0,361 307,754 871,754 281,0 646,-58 1017,-406 z"
             transform="scale(0.015625)" />
          <path
             id="CMSS17-4e"
             d="m 1466,4179 -116,237 H 563 V 0 h 499 v 3925 l 7,6 c 45,-114 70,-172 333,-738 L 2771,236 2886,0 h 788 V 4416 H 3174 V 490 l -6,-6 c -45,114 -70,171 -333,738 z"
             transform="scale(0.015625)" />
          <path
             id="CMSS17-52"
             d="m 2522,2099 12,6 c 999,345 1005,1020 1005,1139 0,594 -614,1172 -1536,1172 H 570 V 0 h 524 v 2041 h 941 L 3168,0 h 538 z m -1428,333 v 1625 h 839 c 813,0 1101,-450 1101,-813 0,-337 -256,-812 -1101,-812 z"
             transform="scale(0.015625)" />
          <path
             id="CMSS17-3d"
             d="m 4147,2048 c 96,0 192,0 192,108 0,116 -109,116 -217,116 H 550 c -108,0 -217,0 -217,-116 0,-108 96,-108 192,-108 z M 4122,927 c 108,0 217,0 217,116 0,109 -96,109 -192,109 H 525 c -96,0 -192,0 -192,-109 0,-116 109,-116 217,-116 z"
             transform="scale(0.015625)" />
          <path
             id="CMSS17-33"
             d="m 1005,2060 h 435 c 602,0 774,-528 774,-896 C 2214,662 1933,268 1472,268 1114,268 608,449 320,926 275,700 275,687 250,533 550,89 1037,-128 1485,-128 c 729,0 1267,609 1267,1286 0,509 -352,934 -832,1094 384,211 666,608 666,1069 0,538 -493,967 -1095,967 -550,0 -979,-340 -1158,-705 45,-64 160,-249 217,-345 141,377 506,659 935,659 358,0 595,-237 595,-576 0,-352 -224,-736 -602,-825 -25,0 -422,-39 -473,-45 z"
             transform="scale(0.015625)" />
          <path
             id="CMSS17-30"
             d="m 2758,2073 c 0,366 -6,1047 -268,1574 -263,506 -685,641 -986,641 -435,0 -806,-257 -998,-667 C 301,3191 243,2748 243,2073 243,1611 262,1046 493,551 755,6 1197,-128 1498,-128 c 396,0 780,211 998,653 224,463 262,970 262,1548 z M 1498,262 c -487,0 -634,559 -679,745 -77,321 -89,629 -89,1137 0,398 0,848 121,1201 147,411 403,552 647,552 473,0 627,-475 678,-642 96,-340 96,-739 96,-1111 0,-598 0,-1882 -774,-1882 z"
             transform="scale(0.015625)" />
          <path
             id="CMSS17-64"
             d="M 2611,4416 H 2138 V 2495 c -199,167 -525,321 -884,321 C 672,2816 211,2179 211,1375 211,572 666,-64 1235,-64 c 442,0 736,236 890,371 V -13 h 486 z M 2125,851 c 0,-91 0,-188 -199,-363 -128,-110 -281,-162 -428,-162 -346,0 -800,259 -800,1043 0,816 512,1056 864,1056 236,0 428,-117 563,-311 z"
             transform="scale(0.015625)" />
          <path
             id="CMSS17-42"
             d="M 570,4416 V 0 h 1593 c 871,0 1504,575 1504,1200 0,484 -416,975 -1165,1116 832,243 999,723 999,995 0,569 -627,1105 -1504,1105 z m 518,-1920 v 1561 h 736 c 659,0 1178,-335 1178,-752 0,-380 -410,-809 -1236,-809 z m 0,-2138 v 1747 h 851 c 691,0 1223,-427 1223,-899 0,-434 -468,-848 -1178,-848 z"
             transform="scale(0.015625)" />
        </defs>
        <use
           xlink:href="#CMSS17-53"
           transform="scale(0.996264)"
           id="use128" />
        <use
           xlink:href="#CMSS17-4e"
           transform="matrix(0.996264,0,0,0.996264,52.048516,0)"
           id="use129" />
        <use
           xlink:href="#CMSS17-52"
           transform="matrix(0.996264,0,0,0.996264,118.11003,0)"
           id="use130" />
        <use
           xlink:href="#CMSS17-3d"
           transform="matrix(0.996264,0,0,0.996264,209.7553,0)"
           id="use131" />
        <use
           xlink:href="#CMSS17-33"
           transform="matrix(0.996264,0,0,0.996264,313.85235,0)"
           id="use132" />
        <use
           xlink:href="#CMSS17-30"
           transform="matrix(0.996264,0,0,0.996264,360.69597,0)"
           id="use133" />
        <use
           xlink:href="#CMSS17-64"
           transform="matrix(0.996264,0,0,0.996264,438.76871,0)"
           id="use134" />
        <use
           xlink:href="#CMSS17-42"
           transform="matrix(0.996264,0,0,0.996264,486.97365,0)"
           id="use135" />
      </g>
    </g>
    <text
       xml:space="preserve"
       style="font-size:40px;font-family:Sans;-inkscape-font-specification:'Sans, Normal';text-align:start;writing-mode:lr-tb;direction:ltr;text-anchor:start;display:inline;fill:#b22222;fill-opacity:1;stroke:none;stroke-width:1.417;stroke-linecap:butt;stroke-linejoin:round;stroke-dasharray:none;stroke-opacity:1"
       x="-79.875"
       y="150.95824"
       id="text136-8-2-0"><tspan
         style="font-style:normal;font-variant:normal;font-weight:normal;font-stretch:normal;font-size:21px;font-family:FreeSans;-inkscape-font-specification:'FreeSans, Normal';font-variant-ligatures:normal;font-variant-caps:normal;font-variant-numeric:normal;font-variant-east-asian:normal;fill:#b22222;fill-opacity:1;stroke:none;stroke-width:1.417;stroke-opacity:1"
         x="-79.875"
         y="150.95824"
         id="tspan138-6-0-8">Nominal</tspan></text>
    <text
       xml:space="preserve"
       style="font-size:40px;font-family:Sans;-inkscape-font-specification:'Sans, Normal';text-align:start;writing-mode:lr-tb;direction:ltr;text-anchor:start;display:inline;fill:none;stroke:#000000;stroke-width:1.417;stroke-linecap:butt;stroke-linejoin:round;stroke-dasharray:none;stroke-opacity:1"
       x="185.57442"
       y="-30.72422"
       id="text136-4"><tspan
         style="font-style:normal;font-variant:normal;font-weight:normal;font-stretch:normal;font-size:21px;font-family:FreeSans;-inkscape-font-specification:'FreeSans, Normal';font-variant-ligatures:normal;font-variant-caps:normal;font-variant-numeric:normal;font-variant-east-asian:normal;fill:#000000;fill-opacity:1;stroke:none;stroke-width:1.417"
         x="185.57442"
         y="-30.72422"
         id="tspan138-3">Antenna</tspan></text>
  </g>
  <g
     id="layer12"
     style="display:inline"
     transform="translate(79.370994,46.033182)">
    <g
       id="patch_5"
       style="display:inline">
      <path
         d="m 32.791049,54.369988 c 2.24569,0 4.399703,-0.892221 5.987645,-2.480163 1.587942,-1.587942 2.480164,-3.741956 2.480164,-5.987645 0,-2.245689 -0.892222,-4.399703 -2.480164,-5.987645 -1.587942,-1.587942 -3.741955,-2.480164 -5.987645,-2.480164 -2.245689,0 -4.399702,0.892222 -5.987644,2.480164 -1.587942,1.587942 -2.480164,3.741956 -2.480164,5.987645 0,2.245689 0.892222,4.399703 2.480164,5.987645 1.587942,1.587942 3.741955,2.480163 5.987644,2.480163 z"
         clip-path="url(#p3cde564367)"
         style="fill:none;stroke:#228b22;stroke-linejoin:miter"
         id="path5" />
    </g>
    <g
       id="patch_8"
       style="display:inline">
      <path
         d="m 61.250621,54.104266 c 2.175218,0 4.261638,-0.864224 5.79975,-2.402336 1.538112,-1.538111 2.402335,-3.624532 2.402335,-5.79975 0,-2.175219 -0.864223,-4.261639 -2.402335,-5.799751 -1.538112,-1.538112 -3.624532,-2.402335 -5.79975,-2.402335 -2.175219,0 -4.261639,0.864223 -5.799751,2.402335 -1.538112,1.538112 -2.402335,3.624532 -2.402335,5.799751 0,2.175218 0.864223,4.261639 2.402335,5.79975 1.538112,1.538112 3.624532,2.402336 5.799751,2.402336 z"
         clip-path="url(#p3cde564367)"
         style="fill:none;stroke:#228b22;stroke-linejoin:miter"
         id="path8" />
    </g>
    <g
       id="patch_11"
       transform="translate(0.70843434)"
       style="display:inline">
      <path
         d="m 82.907426,57.832188 c 3.163876,0 6.198593,-1.257021 8.43579,-3.494218 2.237198,-2.237198 3.494219,-5.271915 3.494219,-8.43579 0,-3.163875 -1.257021,-6.198592 -3.494219,-8.43579 -2.237197,-2.237198 -5.271914,-3.494219 -8.43579,-3.494219 -3.163875,0 -6.198592,1.257021 -8.43579,3.494219 -2.237197,2.237198 -3.494218,5.271915 -3.494218,8.43579 0,3.163875 1.257021,6.198592 3.494218,8.43579 2.237198,2.237197 5.271915,3.494218 8.43579,3.494218 z"
         clip-path="url(#p3cde564367)"
         style="fill:none;stroke:#228b22;stroke-linejoin:miter"
         id="path11" />
    </g>
    <g
       id="patch_14"
       style="display:inline">
      <path
         d="m 105.89515,54.730917 c 2.34141,0 4.58723,-0.930251 6.24286,-2.585877 1.65563,-1.655626 2.58588,-3.901452 2.58588,-6.24286 0,-2.341409 -0.93025,-4.587235 -2.58588,-6.24286 -1.65563,-1.655626 -3.90145,-2.585878 -6.24286,-2.585878 -2.34141,0 -4.58724,0.930252 -6.242861,2.585878 -1.655625,1.655625 -2.585877,3.901451 -2.585877,6.24286 0,2.341408 0.930252,4.587234 2.585877,6.24286 1.655621,1.655626 3.901451,2.585877 6.242861,2.585877 z"
         clip-path="url(#p3cde564367)"
         style="fill:none;stroke:#228b22;stroke-linejoin:miter"
         id="path14" />
    </g>
    <g
       id="patch_17"
       style="display:inline">
      <path
         d="m 127.33718,54.030369 c 2.15562,0 4.22324,-0.856437 5.74749,-2.380691 1.52426,-1.524255 2.3807,-3.591877 2.3807,-5.747498 0,-2.155621 -0.85644,-4.223244 -2.3807,-5.747498 -1.52425,-1.524254 -3.59187,-2.380692 -5.74749,-2.380692 -2.15562,0 -4.22325,0.856438 -5.7475,2.380692 -1.52425,1.524254 -2.38069,3.591877 -2.38069,5.747498 0,2.155621 0.85644,4.223243 2.38069,5.747498 1.52425,1.524254 3.59188,2.380691 5.7475,2.380691 z"
         clip-path="url(#p3cde564367)"
         style="fill:none;stroke:#228b22;stroke-linejoin:miter"
         id="path17" />
    </g>
    <g
       id="patch_20"
       style="display:inline">
      <path
         d="m 157.15982,50.463466 c 1.20966,0 2.36995,-0.480606 3.22531,-1.33597 0.85537,-0.855364 1.33597,-2.015649 1.33597,-3.225316 0,-1.209667 -0.4806,-2.369953 -1.33597,-3.225317 -0.85536,-0.855363 -2.01565,-1.335969 -3.22531,-1.335969 -1.20967,0 -2.36996,0.480606 -3.22532,1.335969 -0.85536,0.855364 -1.33597,2.01565 -1.33597,3.225317 0,1.209667 0.48061,2.369952 1.33597,3.225316 0.85536,0.855364 2.01565,1.33597 3.22532,1.33597 z"
         clip-path="url(#p3cde564367)"
         style="fill:none;stroke:#228b22;stroke-linejoin:miter"
         id="path20" />
    </g>
    <g
       id="patch_23"
       style="display:inline">
      <path
         d="m 176.47713,49.662809 c 0.99733,0 1.95394,-0.396244 2.65916,-1.101463 0.70522,-0.705219 1.10147,-1.661836 1.10147,-2.659166 0,-0.997331 -0.39625,-1.953947 -1.10147,-2.659167 -0.70522,-0.705219 -1.66183,-1.101462 -2.65916,-1.101462 -0.99733,0 -1.95395,0.396243 -2.65917,1.101462 -0.70522,0.70522 -1.10146,1.661836 -1.10146,2.659167 0,0.99733 0.39624,1.953947 1.10146,2.659166 0.70522,0.705219 1.66184,1.101463 2.65917,1.101463 z"
         clip-path="url(#p3cde564367)"
         style="fill:none;stroke:#228b22;stroke-linejoin:miter"
         id="path23" />
    </g>
    <g
       id="patch_26"
       style="display:inline">
      <path
         d="m 211.95926,55.688215 c 2.59529,0 5.08463,-1.031118 6.91977,-2.866263 1.83515,-1.835145 2.86627,-4.324485 2.86627,-6.919772 0,-2.595287 -1.03112,-5.084627 -2.86627,-6.919772 -1.83514,-1.835145 -4.32448,-2.866264 -6.91977,-2.866264 -2.59529,0 -5.08463,1.031119 -6.91977,2.866264 -1.83515,1.835145 -2.86626,4.324485 -2.86626,6.919772 0,2.595287 1.03111,5.084627 2.86626,6.919772 1.83514,1.835145 4.32448,2.866263 6.91977,2.866263 z"
         clip-path="url(#p3cde564367)"
         style="fill:none;stroke:#228b22;stroke-linejoin:miter"
         id="path26" />
    </g>
    <g
       id="patch_29"
       style="display:inline">
      <path
         d="m 238.11337,55.696658 c 2.59753,0 5.08901,-1.032008 6.92574,-2.868736 1.83673,-1.836729 2.86874,-4.328216 2.86874,-6.925742 0,-2.597526 -1.03201,-5.089014 -2.86874,-6.925742 -1.83673,-1.836728 -4.32821,-2.868736 -6.92574,-2.868736 -2.59752,0 -5.08901,1.032008 -6.92574,2.868736 -1.83673,1.836728 -2.86874,4.328216 -2.86874,6.925742 0,2.597526 1.03201,5.089013 2.86874,6.925742 1.83673,1.836728 4.32822,2.868736 6.92574,2.868736 z"
         clip-path="url(#p3cde564367)"
         style="fill:none;stroke:#228b22;stroke-linejoin:miter"
         id="path29" />
    </g>
    <g
       id="patch_32"
       style="display:inline">
      <path
         d="m 248.35597,50.861541 c 1.31524,0 2.57679,-0.522549 3.5068,-1.452563 0.93001,-0.930014 1.45256,-2.19156 1.45256,-3.506798 0,-1.315238 -0.52255,-2.576785 -1.45256,-3.506798 -0.93001,-0.930014 -2.19156,-1.452564 -3.5068,-1.452564 -1.31524,0 -2.57678,0.52255 -3.5068,1.452564 -0.93001,0.930013 -1.45256,2.19156 -1.45256,3.506798 0,1.315238 0.52255,2.576784 1.45256,3.506798 0.93002,0.930014 2.19156,1.452563 3.5068,1.452563 z"
         clip-path="url(#p3cde564367)"
         style="fill:none;stroke:#228b22;stroke-linejoin:miter"
         id="path32" />
    </g>
    <g
       id="patch_35"
       style="display:inline">
      <path
         d="m 282.71809,60.22295 c 3.79791,0 7.44079,-1.508927 10.12631,-4.194457 2.68553,-2.685529 4.19446,-6.328401 4.19446,-10.126313 0,-3.797913 -1.50893,-7.440784 -4.19446,-10.126314 -2.68552,-2.685529 -6.3284,-4.194456 -10.12631,-4.194456 -3.79791,0 -7.44078,1.508927 -10.12631,4.194456 -2.68553,2.68553 -4.19446,6.328401 -4.19446,10.126314 0,3.797912 1.50893,7.440784 4.19446,10.126313 2.68553,2.68553 6.3284,4.194457 10.12631,4.194457 z"
         clip-path="url(#p3cde564367)"
         style="fill:none;stroke:#228b22;stroke-linejoin:miter"
         id="path35" />
    </g>
    <g
       id="patch_38"
       style="display:inline">
      <path
         d="m 300.70504,50.98144 c 1.34703,0 2.63908,-0.535183 3.59157,-1.487681 0.9525,-0.952498 1.48769,-2.244544 1.48769,-3.591579 0,-1.347036 -0.53519,-2.639082 -1.48769,-3.59158 -0.95249,-0.952498 -2.24454,-1.48768 -3.59157,-1.48768 -1.34704,0 -2.63909,0.535182 -3.59158,1.48768 -0.9525,0.952498 -1.48768,2.244544 -1.48768,3.59158 0,1.347035 0.53518,2.639081 1.48768,3.591579 0.95249,0.952498 2.24454,1.487681 3.59158,1.487681 z"
         clip-path="url(#p3cde564367)"
         style="fill:none;stroke:#228b22;stroke-linejoin:miter"
         id="path38" />
    </g>
    <g
       id="patch_41"
       style="display:inline">
      <path
         d="m 326.06029,54.798079 c 2.35922,0 4.62213,-0.937328 6.29035,-2.605548 1.66822,-1.668221 2.60555,-3.931131 2.60555,-6.290351 0,-2.35922 -0.93733,-4.622131 -2.60555,-6.290351 -1.66822,-1.668221 -3.93113,-2.605549 -6.29035,-2.605549 -2.35922,0 -4.62213,0.937328 -6.29035,2.605549 -1.66822,1.66822 -2.60555,3.931131 -2.60555,6.290351 0,2.35922 0.93733,4.62213 2.60555,6.290351 1.66822,1.66822 3.93113,2.605548 6.29035,2.605548 z"
         clip-path="url(#p3cde564367)"
         style="fill:none;stroke:#228b22;stroke-linejoin:miter"
         id="path41" />
    </g>
    <g
       id="patch_44"
       style="display:inline">
      <path
         d="m 359.18456,54.71007 c 2.33588,0 4.5764,-0.928055 6.22812,-2.579771 1.65171,-1.651717 2.57977,-3.892239 2.57977,-6.228119 0,-2.33588 -0.92806,-4.576403 -2.57977,-6.228119 -1.65172,-1.651717 -3.89224,-2.579771 -6.22812,-2.579771 -2.33588,0 -4.5764,0.928054 -6.22812,2.579771 -1.65172,1.651716 -2.57977,3.892239 -2.57977,6.228119 0,2.33588 0.92805,4.576402 2.57977,6.228119 1.65172,1.651716 3.89224,2.579771 6.22812,2.579771 z"
         clip-path="url(#p3cde564367)"
         style="fill:none;stroke:#228b22;stroke-linejoin:miter"
         id="path44" />
    </g>
    <g
       id="patch_47"
       style="display:inline">
      <path
         d="m 362.73328,57.744469 c 3.14061,0 6.15302,-1.247778 8.37376,-3.468526 2.22075,-2.220748 3.46853,-5.233151 3.46853,-8.373763 0,-3.140612 -1.24778,-6.153016 -3.46853,-8.373764 -2.22074,-2.220747 -5.23315,-3.468526 -8.37376,-3.468526 -3.14061,0 -6.15302,1.247779 -8.37376,3.468526 -2.22075,2.220748 -3.46853,5.233152 -3.46853,8.373764 0,3.140612 1.24778,6.153015 3.46853,8.373763 2.22074,2.220748 5.23315,3.468526 8.37376,3.468526 z"
         clip-path="url(#p3cde564367)"
         style="fill:none;stroke:#228b22;stroke-linejoin:miter"
         id="path47" />
    </g>
    <g
       id="patch_50"
       style="display:inline">
      <path
         d="m 387.52595,57.52812 c 3.08324,0 6.04061,-1.224982 8.22079,-3.405159 2.18017,-2.180176 3.40516,-5.137546 3.40516,-8.220781 0,-3.083236 -1.22499,-6.040605 -3.40516,-8.220782 -2.18018,-2.180176 -5.13755,-3.405159 -8.22079,-3.405159 -3.08323,0 -6.0406,1.224983 -8.22078,3.405159 -2.18017,2.180177 -3.40516,5.137546 -3.40516,8.220782 0,3.083235 1.22499,6.040605 3.40516,8.220781 2.18018,2.180177 5.13755,3.405159 8.22078,3.405159 z"
         clip-path="url(#p3cde564367)"
         style="fill:none;stroke:#228b22;stroke-linejoin:miter"
         id="path50" />
    </g>
    <g
       id="line2d_12"
       style="display:inline">
      <path
         d="M 32.791049,45.90218 41.24593,45.434448"
         clip-path="url(#p3cde564367)"
         style="fill:none;stroke:#228b22;stroke-width:1.5;stroke-linecap:square"
         id="path79" />
    </g>
    <g
       id="line2d_15"
       style="display:inline">
      <path
         d="M 61.250621,45.90218 69.37288,44.760641"
         clip-path="url(#p3cde564367)"
         style="fill:none;stroke:#228b22;stroke-width:1.5;stroke-linecap:square"
         id="path82" />
    </g>
    <g
       id="line2d_18"
       style="display:inline">
      <path
         d="m 82.907426,45.90218 11.62511,2.67991"
         clip-path="url(#p3cde564367)"
         style="fill:none;stroke:#228b22;stroke-width:1.5;stroke-linecap:square"
         id="path85" />
    </g>
    <g
       id="line2d_21"
       style="display:inline">
      <path
         d="m 105.89515,45.90218 6.49572,5.979322"
         clip-path="url(#p3cde564367)"
         style="fill:none;stroke:#228b22;stroke-width:1.5;stroke-linecap:square"
         id="path88" />
    </g>
    <g
       id="line2d_24"
       style="display:inline">
      <path
         d="m 127.33718,45.90218 8.06005,1.050223"
         clip-path="url(#p3cde564367)"
         style="fill:none;stroke:#228b22;stroke-width:1.5;stroke-linecap:square"
         id="path91" />
    </g>
    <g
       id="line2d_27"
       style="display:inline">
      <path
         d="m 157.15982,45.90218 4.5368,-0.471962"
         clip-path="url(#p3cde564367)"
         style="fill:none;stroke:#228b22;stroke-width:1.5;stroke-linecap:square"
         id="path94" />
    </g>
    <g
       id="line2d_30"
       style="display:inline">
      <path
         d="m 176.47713,45.90218 -0.59156,-3.713811"
         clip-path="url(#p3cde564367)"
         style="fill:none;stroke:#228b22;stroke-width:1.5;stroke-linecap:square"
         id="path97" />
    </g>
    <g
       id="line2d_33"
       style="display:inline">
      <path
         d="m 211.95926,45.90218 9.08806,-3.629558"
         clip-path="url(#p3cde564367)"
         style="fill:none;stroke:#228b22;stroke-width:1.5;stroke-linecap:square"
         id="path100" />
    </g>
    <g
       id="line2d_36"
       style="display:inline">
      <path
         d="m 238.11337,45.90218 9.72444,1.169202"
         clip-path="url(#p3cde564367)"
         style="fill:none;stroke:#228b22;stroke-width:1.5;stroke-linecap:square"
         id="path103" />
    </g>
    <g
       id="line2d_39"
       style="display:inline">
      <path
         d="m 248.35597,45.90218 4.87469,0.912545"
         clip-path="url(#p3cde564367)"
         style="fill:none;stroke:#228b22;stroke-width:1.5;stroke-linecap:square"
         id="path106" />
    </g>
    <g
       id="line2d_42"
       style="display:inline">
      <path
         d="m 282.71809,45.90218 13.9666,3.165209"
         clip-path="url(#p3cde564367)"
         style="fill:none;stroke:#228b22;stroke-width:1.5;stroke-linecap:square"
         id="path109" />
    </g>
    <g
       id="line2d_45"
       style="display:inline">
      <path
         d="m 300.70504,45.90218 2.7248,4.28653"
         clip-path="url(#p3cde564367)"
         style="fill:none;stroke:#228b22;stroke-width:1.5;stroke-linecap:square"
         id="path112" />
    </g>
    <g
       id="line2d_48"
       style="display:inline">
      <path
         d="m 326.06029,45.90218 7.25314,5.150624"
         clip-path="url(#p3cde564367)"
         style="fill:none;stroke:#228b22;stroke-width:1.5;stroke-linecap:square"
         id="path115" />
    </g>
    <g
       id="line2d_51"
       style="display:inline">
      <path
         d="m 359.18456,45.90218 6.54997,-5.888699"
         clip-path="url(#p3cde564367)"
         style="fill:none;stroke:#228b22;stroke-width:1.5;stroke-linecap:square"
         id="path118" />
    </g>
    <g
       id="line2d_54"
       style="display:inline">
      <path
         d="m 362.73328,45.90218 11.74193,1.538459"
         clip-path="url(#p3cde564367)"
         style="fill:none;stroke:#228b22;stroke-width:1.5;stroke-linecap:square"
         id="path121" />
    </g>
    <g
       id="line2d_57"
       style="display:inline">
      <path
         d="m 387.52595,45.90218 11.55049,1.322391"
         clip-path="url(#p3cde564367)"
         style="fill:none;stroke:#228b22;stroke-width:1.5;stroke-linecap:square"
         id="path124" />
    </g>
    <text
       xml:space="preserve"
       style="font-size:40px;font-family:Sans;-inkscape-font-specification:'Sans, Normal';text-align:start;writing-mode:lr-tb;direction:ltr;text-anchor:start;display:inline;fill:#228b22;fill-opacity:1;stroke:#000000;stroke-width:1.417;stroke-linecap:butt;stroke-linejoin:round;stroke-dasharray:none;stroke-opacity:1"
       x="-81.050995"
       y="52.816753"
       id="text136-8-2-0-6"><tspan
         style="font-style:normal;font-variant:normal;font-weight:normal;font-stretch:normal;font-size:21px;font-family:FreeSans;-inkscape-font-specification:'FreeSans, Normal';font-variant-ligatures:normal;font-variant-caps:normal;font-variant-numeric:normal;font-variant-east-asian:normal;fill:#228b22;fill-opacity:1;stroke:none;stroke-width:1.417"
         x="-81.050995"
         y="52.816753"
         id="tspan138-6-0-8-2">Physical</tspan></text>
  </g>
  <defs
     id="defs135">
    <clipPath
       id="p3cde564367">
      <rect
         x="7.1999998"
         y="21.50218"
         width="439.20001"
         height="146.39999"
         id="rect135" />
    </clipPath>
  </defs>
  <g
     id="layer2"
     style="display:none"
     transform="translate(79.370994,46.033182)">
    <path
       style="fill:none;stroke:#000000;stroke-width:1.417;stroke-dasharray:none;stroke-opacity:1;marker-end:url(#Triangle)"
       d="m 417.24817,-4.8473539 c 0,0 -15.62177,2.562673 -21.14019,20.9495339 l -7.36034,24.523993"
       id="path135" />
    <text
       xml:space="preserve"
       style="font-size:40px;font-family:Sans;-inkscape-font-specification:'Sans, Normal';text-align:start;writing-mode:lr-tb;direction:ltr;text-anchor:start;fill:none;stroke:#000000;stroke-width:1.417;stroke-linecap:butt;stroke-linejoin:round;stroke-dasharray:none;stroke-opacity:1"
       x="387.53497"
       y="-7.3891497"
       id="text136"><tspan
         style="font-style:normal;font-variant:normal;font-weight:normal;font-stretch:normal;font-size:18px;font-family:FreeSans;-inkscape-font-specification:'FreeSans, Normal';font-variant-ligatures:normal;font-variant-caps:normal;font-variant-numeric:normal;font-variant-east-asian:normal;fill:#000000;fill-opacity:1;stroke:none;stroke-width:1.417"
         x="387.53497"
         y="-7.3891497"
         id="tspan138">location</tspan></text>
    <g
       id="g141"
       style="fill:#b22222;fill-opacity:1;stroke:#ff0000;stroke-opacity:1">
      <path
         style="fill:#b22222;fill-opacity:1;stroke:#ff0000;stroke-width:0.999997;stroke-dasharray:none;stroke-opacity:1"
         d="M 384.99999,48 389,44"
         id="path140" />
      <path
         style="fill:#b22222;fill-opacity:1;stroke:#ff0000;stroke-width:0.999997;stroke-dasharray:none;stroke-opacity:1"
         d="m 389,48 -4.00001,-4"
         id="path141" />
    </g>
  </g>
  <g
     id="layer3"
     style="display:none"
     transform="translate(79.370994,46.033182)">
    <path
       style="fill:none;stroke:#000000;stroke-width:1.417;stroke-linecap:butt;stroke-linejoin:round;stroke-dasharray:none;stroke-opacity:1;marker-end:url(#Triangle-5)"
       d="m 291.61921,-3.6224185 c 0,0 11.58432,5.1064638 5.18837,23.6224185 l -3.30102,9.556293"
       id="path135-4" />
    <text
       xml:space="preserve"
       style="font-size:40px;font-family:Sans;-inkscape-font-specification:'Sans, Normal';text-align:start;writing-mode:lr-tb;direction:ltr;text-anchor:start;fill:none;stroke:#000000;stroke-width:1.417;stroke-linecap:butt;stroke-linejoin:round;stroke-dasharray:none;stroke-opacity:1"
       x="233.35687"
       y="-9.1441469"
       id="text136-8"><tspan
         style="font-style:normal;font-variant:normal;font-weight:normal;font-stretch:normal;font-size:18px;font-family:FreeSans;-inkscape-font-specification:'FreeSans, Normal';font-variant-ligatures:normal;font-variant-caps:normal;font-variant-numeric:normal;font-variant-east-asian:normal;fill:#000000;fill-opacity:1;stroke:none;stroke-width:1.417"
         x="233.35687"
         y="-9.1441469"
         id="tspan138-6">gain magnitude</tspan></text>
    <path
       style="fill:#000000;fill-opacity:1;stroke:#ff0000;stroke-width:1;stroke-dasharray:none;stroke-opacity:1;marker-start:url(#Triangle);marker-end:url(#Triangle)"
       d="M 284.39096,43.738751 289.99999,38"
       id="path139" />
  </g>
  <g
     id="layer4"
     style="display:none"
     transform="translate(79.370994,46.033182)">
    <text
       xml:space="preserve"
       style="font-size:40px;font-family:Sans;-inkscape-font-specification:'Sans, Normal';text-align:start;writing-mode:lr-tb;direction:ltr;text-anchor:start;fill:none;stroke:#000000;stroke-width:1.417;stroke-linecap:butt;stroke-linejoin:round;stroke-dasharray:none;stroke-opacity:1"
       x="51.68816"
       y="-9.1441469"
       id="text136-8-2"><tspan
         style="font-style:normal;font-variant:normal;font-weight:normal;font-stretch:normal;font-size:18px;font-family:FreeSans;-inkscape-font-specification:'FreeSans, Normal';font-variant-ligatures:normal;font-variant-caps:normal;font-variant-numeric:normal;font-variant-east-asian:normal;fill:#000000;fill-opacity:1;stroke:none;stroke-width:1.417"
         x="51.68816"
         y="-9.1441469"
         id="tspan138-6-0">gain phase</tspan></text>
    <path
       style="fill:none;fill-opacity:1;stroke:#ff0000;stroke-width:1;stroke-dasharray:none;stroke-opacity:1;marker-start:url(#Triangle)"
       id="path142"
       d="m 107.07607,51.710859 a 5.9109998,5.9114456 0 0 1 -6.22705,-2.779891 5.9109998,5.9114456 0 0 1 0.53638,-6.798678 5.9109998,5.9114456 0 0 1 6.58592,-1.768869 5.9109998,5.9114456 0 0 1 3.87003,5.615189" />
    <path
       style="display:inline;fill:none;stroke:#000000;stroke-width:1.417;stroke-linecap:butt;stroke-linejoin:round;stroke-dasharray:none;stroke-opacity:1;marker-end:url(#Triangle-5-8)"
       d="m 95.912525,-1.4078932 c 0,0 18.480695,8.7770816 14.822335,27.6224052 l -1.46972,7.570975"
       id="path135-4-1" />
  </g>
  <g
     id="layer13"
     style="display:none"
     transform="translate(79.370994,46.033182)">
    <g
       id="patch_4"
       style="display:inline">
      <path
         d="m 31.6,103.85218 c 2.426608,0 4.754156,-0.9641 6.470027,-2.67997 C 39.785898,99.456336 40.75,97.128788 40.75,94.70218 40.75,92.275571 39.785898,89.948024 38.070027,88.232153 36.354156,86.516282 34.026608,85.55218 31.6,85.55218 c -2.426608,0 -4.754156,0.964102 -6.470027,2.679973 C 23.414102,89.948024 22.45,92.275571 22.45,94.70218 c 0,2.426608 0.964102,4.754156 2.679973,6.47003 1.715871,1.71587 4.043419,2.67997 6.470027,2.67997 z"
         clip-path="url(#p3cde564367)"
         style="fill:none;stroke:#4682b4;stroke-linejoin:miter"
         id="path4" />
    </g>
    <g
       id="patch_7"
       style="display:inline">
      <path
         d="m 56,103.85218 c 2.426608,0 4.754156,-0.9641 6.470027,-2.67997 C 64.185898,99.456336 65.15,97.128788 65.15,94.70218 65.15,92.275571 64.185898,89.948024 62.470027,88.232153 60.754156,86.516282 58.426608,85.55218 56,85.55218 c -2.426608,0 -4.754156,0.964102 -6.470027,2.679973 C 47.814102,89.948024 46.85,92.275571 46.85,94.70218 c 0,2.426608 0.964102,4.754156 2.679973,6.47003 1.715871,1.71587 4.043419,2.67997 6.470027,2.67997 z"
         clip-path="url(#p3cde564367)"
         style="fill:none;stroke:#4682b4;stroke-linejoin:miter"
         id="path7" />
    </g>
    <g
       id="patch_10"
       style="display:inline">
      <path
         d="m 80.4,103.85218 c 2.426608,0 4.754156,-0.9641 6.470027,-2.67997 C 88.585898,99.456336 89.55,97.128788 89.55,94.70218 89.55,92.275571 88.585898,89.948024 86.870027,88.232153 85.154156,86.516282 82.826608,85.55218 80.4,85.55218 c -2.426608,0 -4.754156,0.964102 -6.470027,2.679973 C 72.214102,89.948024 71.25,92.275571 71.25,94.70218 c 0,2.426608 0.964102,4.754156 2.679973,6.47003 1.715871,1.71587 4.043419,2.67997 6.470027,2.67997 z"
         clip-path="url(#p3cde564367)"
         style="fill:none;stroke:#4682b4;stroke-linejoin:miter"
         id="path10" />
    </g>
    <g
       id="patch_13"
       style="display:inline">
      <path
         d="m 104.8,103.85218 c 2.42661,0 4.75416,-0.9641 6.47003,-2.67997 1.71587,-1.715874 2.67997,-4.043422 2.67997,-6.47003 0,-2.426609 -0.9641,-4.754156 -2.67997,-6.470027 -1.71587,-1.715871 -4.04342,-2.679973 -6.47003,-2.679973 -2.42661,0 -4.75416,0.964102 -6.470027,2.679973 C 96.614102,89.948024 95.65,92.275571 95.65,94.70218 c 0,2.426608 0.964102,4.754156 2.679973,6.47003 1.715867,1.71587 4.043417,2.67997 6.470027,2.67997 z"
         clip-path="url(#p3cde564367)"
         style="fill:none;stroke:#4682b4;stroke-linejoin:miter"
         id="path13" />
    </g>
    <g
       id="patch_16"
       style="display:inline">
      <path
         d="m 129.2,103.85218 c 2.42661,0 4.75416,-0.9641 6.47003,-2.67997 1.71587,-1.715874 2.67997,-4.043422 2.67997,-6.47003 0,-2.426609 -0.9641,-4.754156 -2.67997,-6.470027 -1.71587,-1.715871 -4.04342,-2.679973 -6.47003,-2.679973 -2.42661,0 -4.75416,0.964102 -6.47003,2.679973 -1.71587,1.715871 -2.67997,4.043418 -2.67997,6.470027 0,2.426608 0.9641,4.754156 2.67997,6.47003 1.71587,1.71587 4.04342,2.67997 6.47003,2.67997 z"
         clip-path="url(#p3cde564367)"
         style="fill:none;stroke:#4682b4;stroke-linejoin:miter"
         id="path16" />
    </g>
    <g
       id="patch_19"
       style="display:inline">
      <path
         d="m 153.6,103.85218 c 2.42661,0 4.75416,-0.9641 6.47003,-2.67997 1.71587,-1.715874 2.67997,-4.043422 2.67997,-6.47003 0,-2.426609 -0.9641,-4.754156 -2.67997,-6.470027 -1.71587,-1.715871 -4.04342,-2.679973 -6.47003,-2.679973 -2.42661,0 -4.75416,0.964102 -6.47003,2.679973 -1.71587,1.715871 -2.67997,4.043418 -2.67997,6.470027 0,2.426608 0.9641,4.754156 2.67997,6.47003 1.71587,1.71587 4.04342,2.67997 6.47003,2.67997 z"
         clip-path="url(#p3cde564367)"
         style="fill:none;stroke:#4682b4;stroke-linejoin:miter"
         id="path19" />
    </g>
    <g
       id="patch_22"
       style="display:inline">
      <path
         d="m 178,103.85218 c 2.42661,0 4.75416,-0.9641 6.47003,-2.67997 1.71587,-1.715874 2.67997,-4.043422 2.67997,-6.47003 0,-2.426609 -0.9641,-4.754156 -2.67997,-6.470027 C 182.75416,86.516282 180.42661,85.55218 178,85.55218 c -2.42661,0 -4.75416,0.964102 -6.47003,2.679973 -1.71587,1.715871 -2.67997,4.043418 -2.67997,6.470027 0,2.426608 0.9641,4.754156 2.67997,6.47003 1.71587,1.71587 4.04342,2.67997 6.47003,2.67997 z"
         clip-path="url(#p3cde564367)"
         style="fill:none;stroke:#4682b4;stroke-linejoin:miter"
         id="path22" />
    </g>
    <g
       id="patch_25"
       style="display:inline">
      <path
         d="m 202.4,103.85218 c 2.42661,0 4.75416,-0.9641 6.47003,-2.67997 1.71587,-1.715874 2.67997,-4.043422 2.67997,-6.47003 0,-2.426609 -0.9641,-4.754156 -2.67997,-6.470027 -1.71587,-1.715871 -4.04342,-2.679973 -6.47003,-2.679973 -2.42661,0 -4.75416,0.964102 -6.47003,2.679973 -1.71587,1.715871 -2.67997,4.043418 -2.67997,6.470027 0,2.426608 0.9641,4.754156 2.67997,6.47003 1.71587,1.71587 4.04342,2.67997 6.47003,2.67997 z"
         clip-path="url(#p3cde564367)"
         style="fill:none;stroke:#4682b4;stroke-linejoin:miter"
         id="path25" />
    </g>
    <g
       id="patch_28"
       style="display:inline">
      <path
         d="m 226.8,103.85218 c 2.42661,0 4.75416,-0.9641 6.47003,-2.67997 1.71587,-1.715874 2.67997,-4.043422 2.67997,-6.47003 0,-2.426609 -0.9641,-4.754156 -2.67997,-6.470027 -1.71587,-1.715871 -4.04342,-2.679973 -6.47003,-2.679973 -2.42661,0 -4.75416,0.964102 -6.47003,2.679973 -1.71587,1.715871 -2.67997,4.043418 -2.67997,6.470027 0,2.426608 0.9641,4.754156 2.67997,6.47003 1.71587,1.71587 4.04342,2.67997 6.47003,2.67997 z"
         clip-path="url(#p3cde564367)"
         style="fill:none;stroke:#4682b4;stroke-linejoin:miter"
         id="path28" />
    </g>
    <g
       id="patch_31"
       style="display:inline">
      <path
         d="m 251.2,103.85218 c 2.42661,0 4.75416,-0.9641 6.47003,-2.67997 1.71587,-1.715874 2.67997,-4.043422 2.67997,-6.47003 0,-2.426609 -0.9641,-4.754156 -2.67997,-6.470027 -1.71587,-1.715871 -4.04342,-2.679973 -6.47003,-2.679973 -2.42661,0 -4.75416,0.964102 -6.47003,2.679973 -1.71587,1.715871 -2.67997,4.043418 -2.67997,6.470027 0,2.426608 0.9641,4.754156 2.67997,6.47003 1.71587,1.71587 4.04342,2.67997 6.47003,2.67997 z"
         clip-path="url(#p3cde564367)"
         style="fill:none;stroke:#4682b4;stroke-linejoin:miter"
         id="path31" />
    </g>
    <g
       id="patch_34"
       style="display:inline">
      <path
         d="m 275.6,103.85218 c 2.42661,0 4.75416,-0.9641 6.47003,-2.67997 1.71587,-1.715874 2.67997,-4.043422 2.67997,-6.47003 0,-2.426609 -0.9641,-4.754156 -2.67997,-6.470027 -1.71587,-1.715871 -4.04342,-2.679973 -6.47003,-2.679973 -2.42661,0 -4.75416,0.964102 -6.47003,2.679973 -1.71587,1.715871 -2.67997,4.043418 -2.67997,6.470027 0,2.426608 0.9641,4.754156 2.67997,6.47003 1.71587,1.71587 4.04342,2.67997 6.47003,2.67997 z"
         clip-path="url(#p3cde564367)"
         style="fill:none;stroke:#4682b4;stroke-linejoin:miter"
         id="path34" />
    </g>
    <g
       id="patch_37"
       style="display:inline">
      <path
         d="m 300,103.85218 c 2.42661,0 4.75416,-0.9641 6.47003,-2.67997 1.71587,-1.715874 2.67997,-4.043422 2.67997,-6.47003 0,-2.426609 -0.9641,-4.754156 -2.67997,-6.470027 C 304.75416,86.516282 302.42661,85.55218 300,85.55218 c -2.42661,0 -4.75416,0.964102 -6.47003,2.679973 -1.71587,1.715871 -2.67997,4.043418 -2.67997,6.470027 0,2.426608 0.9641,4.754156 2.67997,6.47003 1.71587,1.71587 4.04342,2.67997 6.47003,2.67997 z"
         clip-path="url(#p3cde564367)"
         style="fill:none;stroke:#4682b4;stroke-linejoin:miter"
         id="path37" />
    </g>
    <g
       id="patch_40"
       style="display:inline">
      <path
         d="m 324.4,103.85218 c 2.42661,0 4.75416,-0.9641 6.47003,-2.67997 1.71587,-1.715874 2.67997,-4.043422 2.67997,-6.47003 0,-2.426609 -0.9641,-4.754156 -2.67997,-6.470027 -1.71587,-1.715871 -4.04342,-2.679973 -6.47003,-2.679973 -2.42661,0 -4.75416,0.964102 -6.47003,2.679973 -1.71587,1.715871 -2.67997,4.043418 -2.67997,6.470027 0,2.426608 0.9641,4.754156 2.67997,6.47003 1.71587,1.71587 4.04342,2.67997 6.47003,2.67997 z"
         clip-path="url(#p3cde564367)"
         style="fill:none;stroke:#4682b4;stroke-linejoin:miter"
         id="path40" />
    </g>
    <g
       id="patch_43"
       style="display:inline">
      <path
         d="m 348.8,103.85218 c 2.42661,0 4.75416,-0.9641 6.47003,-2.67997 1.71587,-1.715874 2.67997,-4.043422 2.67997,-6.47003 0,-2.426609 -0.9641,-4.754156 -2.67997,-6.470027 -1.71587,-1.715871 -4.04342,-2.679973 -6.47003,-2.679973 -2.42661,0 -4.75416,0.964102 -6.47003,2.679973 -1.71587,1.715871 -2.67997,4.043418 -2.67997,6.470027 0,2.426608 0.9641,4.754156 2.67997,6.47003 1.71587,1.71587 4.04342,2.67997 6.47003,2.67997 z"
         clip-path="url(#p3cde564367)"
         style="fill:none;stroke:#4682b4;stroke-linejoin:miter"
         id="path43" />
    </g>
    <g
       id="patch_46"
       style="display:inline">
      <path
         d="m 373.2,103.85218 c 2.42661,0 4.75416,-0.9641 6.47003,-2.67997 1.71587,-1.715874 2.67997,-4.043422 2.67997,-6.47003 0,-2.426609 -0.9641,-4.754156 -2.67997,-6.470027 -1.71587,-1.715871 -4.04342,-2.679973 -6.47003,-2.679973 -2.42661,0 -4.75416,0.964102 -6.47003,2.679973 -1.71587,1.715871 -2.67997,4.043418 -2.67997,6.470027 0,2.426608 0.9641,4.754156 2.67997,6.47003 1.71587,1.71587 4.04342,2.67997 6.47003,2.67997 z"
         clip-path="url(#p3cde564367)"
         style="fill:none;stroke:#4682b4;stroke-linejoin:miter"
         id="path46" />
    </g>
    <g
       id="patch_49"
       style="display:inline">
      <path
         d="m 397.6,103.85218 c 2.42661,0 4.75416,-0.9641 6.47003,-2.67997 1.71587,-1.715874 2.67997,-4.043422 2.67997,-6.47003 0,-2.426609 -0.9641,-4.754156 -2.67997,-6.470027 -1.71587,-1.715871 -4.04342,-2.679973 -6.47003,-2.679973 -2.42661,0 -4.75416,0.964102 -6.47003,2.679973 -1.71587,1.715871 -2.67997,4.043418 -2.67997,6.470027 0,2.426608 0.9641,4.754156 2.67997,6.47003 1.71587,1.71587 4.04342,2.67997 6.47003,2.67997 z"
         clip-path="url(#p3cde564367)"
         style="fill:none;stroke:#4682b4;stroke-linejoin:miter"
         id="path49" />
    </g>
    <g
       id="line2d_11"
       style="display:inline">
      <path
         d="m 31.6,94.70218 h 9.15"
         clip-path="url(#p3cde564367)"
         style="fill:none;stroke:#4682b4;stroke-width:1.5;stroke-linecap:square"
         id="path78" />
    </g>
    <g
       id="line2d_14"
       style="display:inline">
      <path
         d="m 56,94.70218 h 9.15"
         clip-path="url(#p3cde564367)"
         style="fill:none;stroke:#4682b4;stroke-width:1.5;stroke-linecap:square"
         id="path81" />
    </g>
    <g
       id="line2d_17"
       style="display:inline">
      <path
         d="m 80.4,94.70218 h 9.15"
         clip-path="url(#p3cde564367)"
         style="fill:none;stroke:#4682b4;stroke-width:1.5;stroke-linecap:square"
         id="path84" />
    </g>
    <g
       id="line2d_20"
       style="display:inline">
      <path
         d="m 104.8,94.70218 h 9.15"
         clip-path="url(#p3cde564367)"
         style="fill:none;stroke:#4682b4;stroke-width:1.5;stroke-linecap:square"
         id="path87" />
    </g>
    <g
       id="line2d_23"
       style="display:inline">
      <path
         d="m 129.2,94.70218 h 9.15"
         clip-path="url(#p3cde564367)"
         style="fill:none;stroke:#4682b4;stroke-width:1.5;stroke-linecap:square"
         id="path90" />
    </g>
    <g
       id="line2d_26"
       style="display:inline">
      <path
         d="m 153.6,94.70218 h 9.15"
         clip-path="url(#p3cde564367)"
         style="fill:none;stroke:#4682b4;stroke-width:1.5;stroke-linecap:square"
         id="path93" />
    </g>
    <g
       id="line2d_29"
       style="display:inline">
      <path
         d="m 178,94.70218 h 9.15"
         clip-path="url(#p3cde564367)"
         style="fill:none;stroke:#4682b4;stroke-width:1.5;stroke-linecap:square"
         id="path96" />
    </g>
    <g
       id="line2d_32"
       style="display:inline">
      <path
         d="m 202.4,94.70218 h 9.15"
         clip-path="url(#p3cde564367)"
         style="fill:none;stroke:#4682b4;stroke-width:1.5;stroke-linecap:square"
         id="path99" />
    </g>
    <g
       id="line2d_35"
       style="display:inline">
      <path
         d="m 226.8,94.70218 h 9.15"
         clip-path="url(#p3cde564367)"
         style="fill:none;stroke:#4682b4;stroke-width:1.5;stroke-linecap:square"
         id="path102" />
    </g>
    <g
       id="line2d_38"
       style="display:inline">
      <path
         d="m 251.2,94.70218 h 9.15"
         clip-path="url(#p3cde564367)"
         style="fill:none;stroke:#4682b4;stroke-width:1.5;stroke-linecap:square"
         id="path105" />
    </g>
    <g
       id="line2d_41"
       style="display:inline">
      <path
         d="m 275.6,94.70218 h 9.15"
         clip-path="url(#p3cde564367)"
         style="fill:none;stroke:#4682b4;stroke-width:1.5;stroke-linecap:square"
         id="path108" />
    </g>
    <g
       id="line2d_44"
       style="display:inline">
      <path
         d="m 300,94.70218 h 9.15"
         clip-path="url(#p3cde564367)"
         style="fill:none;stroke:#4682b4;stroke-width:1.5;stroke-linecap:square"
         id="path111" />
    </g>
    <g
       id="line2d_47"
       style="display:inline">
      <path
         d="m 324.4,94.70218 h 9.15"
         clip-path="url(#p3cde564367)"
         style="fill:none;stroke:#4682b4;stroke-width:1.5;stroke-linecap:square"
         id="path114" />
    </g>
    <g
       id="line2d_50"
       style="display:inline">
      <path
         d="m 348.8,94.70218 h 9.15"
         clip-path="url(#p3cde564367)"
         style="fill:none;stroke:#4682b4;stroke-width:1.5;stroke-linecap:square"
         id="path117" />
    </g>
    <g
       id="line2d_53"
       style="display:inline">
      <path
         d="m 373.2,94.70218 h 9.15"
         clip-path="url(#p3cde564367)"
         style="fill:none;stroke:#4682b4;stroke-width:1.5;stroke-linecap:square"
         id="path120" />
    </g>
    <g
       id="line2d_56"
       style="display:inline">
      <path
         d="m 397.6,94.70218 h 9.15"
         clip-path="url(#p3cde564367)"
         style="fill:none;stroke:#4682b4;stroke-width:1.5;stroke-linecap:square"
         id="path123" />
    </g>
    <g
       id="layer4-9"
       transform="translate(48.575092,-58.681609)"
       style="display:inline;fill:#4682b4;fill-opacity:1;stroke:none;stroke-opacity:1">
      <text
         xml:space="preserve"
         style="font-size:40px;font-family:Sans;-inkscape-font-specification:'Sans, Normal';text-align:start;writing-mode:lr-tb;direction:ltr;text-anchor:start;display:inline;fill:#4682b4;fill-opacity:1;stroke:none;stroke-width:1.417;stroke-linecap:butt;stroke-linejoin:round;stroke-dasharray:none;stroke-opacity:1"
         x="-128.82812"
         y="160.83984"
         id="text136-8-2-0-64"><tspan
           style="font-style:normal;font-variant:normal;font-weight:normal;font-stretch:normal;font-size:21px;font-family:FreeSans;-inkscape-font-specification:'FreeSans, Normal';font-variant-ligatures:normal;font-variant-caps:normal;font-variant-numeric:normal;font-variant-east-asian:normal;fill:#4682b4;fill-opacity:1;stroke:none;stroke-width:1.417;stroke-opacity:1"
           x="-128.82812"
           y="160.83984"
           id="tspan138-6-0-8-8">Learned</tspan></text>
    </g>
  </g>
</svg>
