<?xml version="1.0" encoding="UTF-8" standalone="no"?>
<!-- Created with Inkscape (http://www.inkscape.org/) -->

<svg
   width="247.57597mm"
   height="70.534004mm"
   viewBox="0 0 247.57597 70.534004"
   version="1.1"
   id="svg1"
   xmlns="http://www.w3.org/2000/svg"
   xmlns:svg="http://www.w3.org/2000/svg">
  <defs
     id="defs1">
    <marker
       style="overflow:visible"
       id="Triangle"
       refX="0"
       refY="0"
       orient="auto-start-reverse"
       markerWidth="1"
       markerHeight="1"
       viewBox="0 0 1 1"
       preserveAspectRatio="xMidYMid">
      <path
         transform="scale(0.5)"
         style="fill:context-stroke;fill-rule:evenodd;stroke:context-stroke;stroke-width:1pt"
         d="M 5.77,0 -2.88,5 V -5 Z"
         id="path135" />
    </marker>
    <marker
       style="overflow:visible"
       id="Triangle-5"
       refX="0"
       refY="0"
       orient="auto-start-reverse"
       markerWidth="1"
       markerHeight="1"
       viewBox="0 0 1 1"
       preserveAspectRatio="xMidYMid">
      <path
         transform="scale(0.5)"
         style="fill:context-stroke;fill-rule:evenodd;stroke:context-stroke;stroke-width:1pt"
         d="M 5.77,0 -2.88,5 V -5 Z"
         id="path135-0" />
    </marker>
    <marker
       style="overflow:visible"
       id="Triangle-3"
       refX="0"
       refY="0"
       orient="auto-start-reverse"
       markerWidth="1"
       markerHeight="1"
       viewBox="0 0 1 1"
       preserveAspectRatio="xMidYMid">
      <path
         transform="scale(0.5)"
         style="fill:context-stroke;fill-rule:evenodd;stroke:context-stroke;stroke-width:1pt"
         d="M 5.77,0 -2.88,5 V -5 Z"
         id="path135-5" />
    </marker>
    <marker
       style="overflow:visible"
       id="Triangle-8"
       refX="0"
       refY="0"
       orient="auto-start-reverse"
       markerWidth="1"
       markerHeight="1"
       viewBox="0 0 1 1"
       preserveAspectRatio="xMidYMid">
      <path
         transform="scale(0.5)"
         style="fill:context-stroke;fill-rule:evenodd;stroke:context-stroke;stroke-width:1pt"
         d="M 5.77,0 -2.88,5 V -5 Z"
         id="path135-3" />
    </marker>
    <marker
       style="overflow:visible"
       id="Triangle-0"
       refX="0"
       refY="0"
       orient="auto-start-reverse"
       markerWidth="1"
       markerHeight="1"
       viewBox="0 0 1 1"
       preserveAspectRatio="xMidYMid">
      <path
         transform="scale(0.5)"
         style="fill:context-stroke;fill-rule:evenodd;stroke:context-stroke;stroke-width:1pt"
         d="M 5.77,0 -2.88,5 V -5 Z"
         id="path135-7" />
    </marker>
    <marker
       style="overflow:visible"
       id="Triangle-0-5"
       refX="0"
       refY="0"
       orient="auto-start-reverse"
       markerWidth="1"
       markerHeight="1"
       viewBox="0 0 1 1"
       preserveAspectRatio="xMidYMid">
      <path
         transform="scale(0.5)"
         style="fill:context-stroke;fill-rule:evenodd;stroke:context-stroke;stroke-width:1pt"
         d="M 5.77,0 -2.88,5 V -5 Z"
         id="path135-7-0" />
    </marker>
    <marker
       style="overflow:visible"
       id="Triangle-0-5-7"
       refX="0"
       refY="0"
       orient="auto-start-reverse"
       markerWidth="1"
       markerHeight="1"
       viewBox="0 0 1 1"
       preserveAspectRatio="xMidYMid">
      <path
         transform="scale(0.5)"
         style="fill:context-stroke;fill-rule:evenodd;stroke:context-stroke;stroke-width:1pt"
         d="M 5.77,0 -2.88,5 V -5 Z"
         id="path135-7-0-9" />
    </marker>
  </defs>
  <g
     id="layer1"
     transform="translate(38.112943,-24.732993)">
    <path
       style="fill:none;fill-opacity:1;stroke:#000000;stroke-width:0.534001;stroke-opacity:1;marker-end:url(#Triangle)"
       d="m 28.000001,33 10,-10e-7"
       id="path1" />
    <rect
       style="fill:none;fill-opacity:1;stroke:#000000;stroke-width:0.534001;stroke-opacity:1"
       id="rect1"
       width="20"
       height="15"
       x="40"
       y="25"
       ry="1.8810309" />
    <rect
       style="fill:none;fill-opacity:1;stroke:#000000;stroke-width:0.534001;stroke-opacity:1"
       id="rect1-6"
       width="20"
       height="15"
       x="40"
       y="50"
       ry="1.8810309" />
    <rect
       style="fill:none;fill-opacity:1;stroke:#000000;stroke-width:0.534001;stroke-opacity:1"
       id="rect1-3"
       width="20"
       height="15"
       x="40"
       y="75"
       ry="1.8810309" />
    <rect
       style="fill:none;fill-opacity:1;stroke:#000000;stroke-width:0.534001;stroke-opacity:1"
       id="rect1-0"
       width="20"
       height="15"
       x="75"
       y="24.999994"
       ry="1.8810309" />
    <rect
       style="fill:none;fill-opacity:1;stroke:#000000;stroke-width:0.534001;stroke-opacity:1"
       id="rect1-6-8"
       width="20"
       height="15"
       x="75"
       y="49.999996"
       ry="1.8810309" />
    <rect
       style="fill:none;fill-opacity:1;stroke:#000000;stroke-width:0.534001;stroke-opacity:1"
       id="rect1-3-7"
       width="20"
       height="15"
       x="75"
       y="75"
       ry="1.8810309" />
    <path
       style="fill:none;fill-opacity:1;stroke:#000000;stroke-width:0.534001;stroke-opacity:1;marker-end:url(#Triangle)"
       d="m 50,39.999999 10e-7,8"
       id="path2" />
    <path
       style="fill:none;fill-opacity:1;stroke:#000000;stroke-width:0.534001;stroke-opacity:1;marker-end:url(#Triangle-5)"
       d="m 49.999999,64.999998 10e-7,8"
       id="path2-4" />
    <path
       style="fill:none;fill-opacity:1;stroke:#000000;stroke-width:0.534001;stroke-opacity:1;marker-end:url(#Triangle-3)"
       d="m 85.000003,64.999996 10e-7,8"
       id="path2-41" />
    <path
       style="fill:none;fill-opacity:1;stroke:#000000;stroke-width:0.534001;stroke-opacity:1;marker-end:url(#Triangle-8)"
       d="m 85.000002,39.999997 1e-6,8"
       id="path2-5" />
    <path
       style="fill:none;fill-opacity:1;stroke:#000000;stroke-width:0.534001;stroke-opacity:1;marker-end:url(#Triangle)"
       d="m 60.000001,83 12.824807,-3e-6"
       id="path3" />
    <path
       style="fill:none;fill-opacity:1;stroke:#000000;stroke-width:0.534001;stroke-opacity:1;marker-end:url(#Triangle-0)"
       d="m 94.94167,82.999998 h 8"
       id="path3-7" />
    <path
       style="fill:none;fill-opacity:1;stroke:#000000;stroke-width:0.534001;stroke-opacity:1;marker-end:url(#Triangle-0-5)"
       d="m 123.94167,32.999999 11.02648,-3e-6"
       id="path3-7-0" />
    <path
       style="fill:none;fill-opacity:1;stroke:#000000;stroke-width:0.534001;stroke-opacity:1;marker-end:url(#Triangle-0-5-7)"
       d="m 142.66221,33.000001 10.67558,-3e-6"
       id="path3-7-0-7" />
    <path
       style="fill:none;fill-opacity:1;stroke:#000000;stroke-width:0.534001;stroke-opacity:1;marker-end:url(#Triangle)"
       d="M 65.000001,82.999997 V 33 h 7.780692"
       id="path4" />
    <g
       id="g7"
       transform="translate(1.8421992)">
      <circle
         style="fill:none;fill-opacity:1;stroke:#000000;stroke-width:0.534001;stroke-opacity:1"
         id="path5"
         cx="138.18259"
         cy="32.999996"
         r="3" />
      <path
         style="fill:none;fill-opacity:1;stroke:#000000;stroke-width:0.534001;stroke-opacity:1"
         d="M 138.18259,35.999999 V 29.999998"
         id="path6" />
      <path
         style="fill:none;fill-opacity:1;stroke:#000000;stroke-width:0.534001;stroke-opacity:1"
         d="m 135,32.999996 h 6"
         id="path7" />
    </g>
    <path
       style="fill:none;fill-opacity:1;stroke:#000000;stroke-width:0.534001;stroke-opacity:1;marker-end:url(#Triangle-5)"
       d="m 30,33 v 61.999997 h 110 l 0.0248,-56.978068"
       id="path8" />
    <g
       transform="matrix(2.1447642,0,0,2.1447642,105.27628,56.731551)"
       id="g8">
      <g
         fill="#000000"
         fill-opacity="1"
         id="g3"
         transform="matrix(0.352778,0,0,0.352778,-1.4362,-0.702998)">
        <g
           id="use1"
           transform="translate(1.993,4.0240002)">
          <path
             d="m 4.109375,-1.015625 c 0,-0.625 -0.484375,-1.015625 -1.015625,-1.015625 -0.484375,0 -1.015625,0.390625 -1.015625,1.015625 0,0.625 0.5,1.015625 1.015625,1.015625 0.5,0 1.015625,-0.390625 1.015625,-1.015625 z m 0,0"
             id="path3-1" />
        </g>
        <g
           id="use2"
           transform="translate(8.1798601,4.0240002)">
          <path
             d="m 4.109375,-1.015625 c 0,-0.625 -0.484375,-1.015625 -1.015625,-1.015625 -0.484375,0 -1.015625,0.390625 -1.015625,1.015625 0,0.625 0.5,1.015625 1.015625,1.015625 0.5,0 1.015625,-0.390625 1.015625,-1.015625 z m 0,0"
             id="path4-1" />
        </g>
        <g
           id="use3"
           transform="translate(14.36672,4.0240002)">
          <path
             d="m 4.109375,-1.015625 c 0,-0.625 -0.484375,-1.015625 -1.015625,-1.015625 -0.484375,0 -1.015625,0.390625 -1.015625,1.015625 0,0.625 0.5,1.015625 1.015625,1.015625 0.5,0 1.015625,-0.390625 1.015625,-1.015625 z m 0,0"
             id="path5-1" />
        </g>
      </g>
    </g>
    <g
       transform="translate(21.797437,30.417553)"
       id="g10">
      <g
         fill="#000000"
         fill-opacity="1"
         id="g2-1"
         transform="matrix(0.352778,0,0,0.352778,-0.896011,-0.70873)">
        <g
           id="use1-1-1"
           transform="translate(1.993,13.009)">
          <path
             d="m 12.265625,-9.390625 c 0.15625,-0.34375 0.25,-0.546875 1.828125,-0.546875 V -11 c -0.828125,0.04687 -0.9375,0.04687 -1.953125,0.04687 -0.671875,0 -0.71875,0 -2.125,-0.04687 v 1.0625 c 0.01563,0 1.1875,0 1.1875,0.328125 0,0.0625 -0.07813,0.21875 -0.09375,0.296875 L 8.203125,-3.078125 5.03125,-9.9375 H 6.390625 V -11 c -0.59375,0.04687 -2.28125,0.04687 -2.96875,0.04687 -0.71875,0 -2.1875,0 -2.828125,-0.04687 v 1.0625 H 2.1875 L 6.765625,0 C 6.640625,0.296875 6.296875,1.015625 6.171875,1.3125 5.65625,2.421875 4.859375,4.140625 3.125,4.140625 c -0.109375,0 -0.40625,0 -0.671875,-0.15625 C 2.5,3.96875 3.25,3.671875 3.25,2.71875 3.25,1.90625 2.65625,1.390625 1.90625,1.390625 1.140625,1.390625 0.546875,1.90625 0.546875,2.75 c 0,1.171875 1.09375,2.203125 2.578125,2.203125 2.03125,0 3.375,-1.828125 3.859375,-2.921875 z m 0,0"
             id="path2-1-1" />
        </g>
      </g>
    </g>
    <g
       fill="#000000"
       fill-opacity="1"
       id="g4"
       transform="matrix(0.352778,0,0,0.352778,43.456696,26.261606)">
      <g
         id="use3-1"
         transform="translate(1.993,22.943001)">
        <path
           d="M 12.234375,-15.9375 H 15.53125 V -17 c -1.03125,0.04687 -3.640625,0.04687 -4.796875,0.04687 -1.171875,0 -3.796875,0 -4.84375,-0.04687 v 1.0625 H 9.1875 v 11.28125 c -2.21875,-0.703125 -3,-2.5 -3.015625,-5.625 -0.03125,-2.484375 -0.8125,-3.34375 -2.1875,-3.34375 H 2.25 c -0.359375,0 -0.71875,0 -0.71875,0.421875 0,0.171875 0.109375,0.34375 0.328125,0.390625 0.34375,0.04687 0.6875,0.07813 0.9375,0.640625 0.296875,0.703125 0.328125,1.640625 0.328125,1.6875 0,1.046875 0.015625,3.125 1.484375,4.765625 1.484375,1.671875 3.734375,1.921875 4.578125,2.03125 v 2.625 H 5.890625 V 0 c 1.046875,-0.046875 3.65625,-0.046875 4.8125,-0.046875 1.171875,0 3.796875,0 4.828125,0.046875 v -1.0625 h -3.296875 v -2.625 c 1.8125,-0.15625 3.53125,-0.703125 4.796875,-2.03125 1.25,-1.34375 1.5,-3.40625 1.5,-4.09375 0,-0.984375 0.03125,-2.84375 1.09375,-3 0.28125,-0.03125 0.5,-0.07813 0.5,-0.390625 0,-0.421875 -0.296875,-0.421875 -0.71875,-0.421875 h -1.734375 c -1.71875,0 -2.15625,1.328125 -2.1875,3.59375 -0.01563,2.921875 -0.96875,4.828125 -3.25,5.390625 z m 0,0"
           id="path6-1" />
      </g>
    </g>
    <g
       fill="#000000"
       fill-opacity="1"
       id="g5"
       transform="matrix(0.352778,0,0,0.352778,43.456696,26.261606)">
      <g
         id="use4"
         transform="translate(23.681,13.948)">
        <path
           d="M 9.890625,-11.953125 H 8.4375 v 5.21875 H 2.96875 v -5.21875 H 1.515625 V 0 H 2.96875 V -5.6875 H 8.4375 V 0 h 1.453125 z m 0,0"
           id="path7-1" />
      </g>
    </g>
    <g
       fill="#000000"
       fill-opacity="1"
       id="g6"
       transform="matrix(0.352778,0,0,0.352778,43.456696,26.261606)"
       style="fill:#b22222;fill-opacity:1">
      <g
         id="use5"
         transform="translate(23.681,29.888)"
         style="fill:#b22222;fill-opacity:1">
        <path
           d="m 4.40625,-1.171875 c -0.734375,-0.21875 -2,-0.609375 -2,-2.484375 0,-2.328125 1.859375,-4.859375 3.4375,-5.84375 0.375,0.515625 0.9375,0.515625 1.28125,0.515625 0.46875,0 1.859375,0 1.859375,-0.9375 0,-0.671875 -0.84375,-0.71875 -1.578125,-0.71875 -0.296875,0 -0.640625,0 -1.125,0.171875 -0.03125,-0.484375 0.09375,-1 0.109375,-1.0625 0.03125,-0.140625 0.03125,-0.15625 0.03125,-0.21875 0,-0.34375 -0.34375,-0.359375 -0.359375,-0.359375 -0.5625,0 -0.5625,1.015625 -0.5625,1.3125 0,0.109375 0,0.390625 0.0625,0.65625 C 3.1875,-8.8125 0.828125,-5.8125 0.828125,-2.8125 c 0,0.859375 0.234375,1.75 0.84375,2.421875 C 2.34375,0.328125 2.8125,0.46875 5,1.125 5.734375,1.328125 6.296875,1.5 6.296875,2.15625 c 0,0.0625 -0.03125,0.703125 -0.609375,0.703125 -0.359375,0 -0.890625,-0.09375 -1.46875,-0.4375 C 4.078125,2.359375 4.0625,2.34375 3.953125,2.34375 c -0.1875,0 -0.3125,0.171875 -0.3125,0.3125 0,0.359375 1.21875,0.828125 2.046875,0.828125 1.265625,0 2.09375,-1.28125 2.09375,-2.28125 C 7.78125,-0.15625 6.625,-0.5 5.921875,-0.703125 Z m 2.046875,-8.65625 c 0.34375,-0.1875 0.59375,-0.1875 0.90625,-0.1875 0.5,0 0.5625,0.01563 0.8125,0.109375 -0.109375,0.171875 -0.125,0.21875 -0.40625,0.265625 -0.234375,0.03125 -0.609375,0.03125 -0.640625,0.03125 -0.234375,0 -0.53125,0 -0.671875,-0.21875 z m 0,0"
           id="path8-1"
           style="fill:#b22222;fill-opacity:1" />
      </g>
    </g>
    <g
       fill="#000000"
       fill-opacity="1"
       id="g4-0"
       transform="matrix(0.352778,0,0,0.352778,78.456696,26.2616)">
      <g
         id="use3-1-3"
         transform="translate(1.993,22.943001)">
        <path
           d="M 12.234375,-15.9375 H 15.53125 V -17 c -1.03125,0.04687 -3.640625,0.04687 -4.796875,0.04687 -1.171875,0 -3.796875,0 -4.84375,-0.04687 v 1.0625 H 9.1875 v 11.28125 c -2.21875,-0.703125 -3,-2.5 -3.015625,-5.625 -0.03125,-2.484375 -0.8125,-3.34375 -2.1875,-3.34375 H 2.25 c -0.359375,0 -0.71875,0 -0.71875,0.421875 0,0.171875 0.109375,0.34375 0.328125,0.390625 0.34375,0.04687 0.6875,0.07813 0.9375,0.640625 0.296875,0.703125 0.328125,1.640625 0.328125,1.6875 0,1.046875 0.015625,3.125 1.484375,4.765625 1.484375,1.671875 3.734375,1.921875 4.578125,2.03125 v 2.625 H 5.890625 V 0 c 1.046875,-0.046875 3.65625,-0.046875 4.8125,-0.046875 1.171875,0 3.796875,0 4.828125,0.046875 v -1.0625 h -3.296875 v -2.625 c 1.8125,-0.15625 3.53125,-0.703125 4.796875,-2.03125 1.25,-1.34375 1.5,-3.40625 1.5,-4.09375 0,-0.984375 0.03125,-2.84375 1.09375,-3 0.28125,-0.03125 0.5,-0.07813 0.5,-0.390625 0,-0.421875 -0.296875,-0.421875 -0.71875,-0.421875 h -1.734375 c -1.71875,0 -2.15625,1.328125 -2.1875,3.59375 -0.01563,2.921875 -0.96875,4.828125 -3.25,5.390625 z m 0,0"
           id="path6-1-2" />
      </g>
    </g>
    <g
       fill="#000000"
       fill-opacity="1"
       id="g5-8"
       transform="matrix(0.352778,0,0,0.352778,78.456696,26.2616)">
      <g
         id="use4-0"
         transform="translate(23.681,13.948)">
        <path
           d="M 9.890625,-11.953125 H 8.4375 v 5.21875 H 2.96875 v -5.21875 H 1.515625 V 0 H 2.96875 V -5.6875 H 8.4375 V 0 h 1.453125 z m 0,0"
           id="path7-1-3" />
      </g>
    </g>
    <g
       fill="#000000"
       fill-opacity="1"
       id="g6-7"
       transform="matrix(0.352778,0,0,0.352778,78.456696,26.2616)"
       style="fill:#b22222;fill-opacity:1">
      <g
         id="use5-0"
         transform="translate(23.681,29.888)"
         style="fill:#b22222;fill-opacity:1">
        <path
           d="m 4.40625,-1.171875 c -0.734375,-0.21875 -2,-0.609375 -2,-2.484375 0,-2.328125 1.859375,-4.859375 3.4375,-5.84375 0.375,0.515625 0.9375,0.515625 1.28125,0.515625 0.46875,0 1.859375,0 1.859375,-0.9375 0,-0.671875 -0.84375,-0.71875 -1.578125,-0.71875 -0.296875,0 -0.640625,0 -1.125,0.171875 -0.03125,-0.484375 0.09375,-1 0.109375,-1.0625 0.03125,-0.140625 0.03125,-0.15625 0.03125,-0.21875 0,-0.34375 -0.34375,-0.359375 -0.359375,-0.359375 -0.5625,0 -0.5625,1.015625 -0.5625,1.3125 0,0.109375 0,0.390625 0.0625,0.65625 C 3.1875,-8.8125 0.828125,-5.8125 0.828125,-2.8125 c 0,0.859375 0.234375,1.75 0.84375,2.421875 C 2.34375,0.328125 2.8125,0.46875 5,1.125 5.734375,1.328125 6.296875,1.5 6.296875,2.15625 c 0,0.0625 -0.03125,0.703125 -0.609375,0.703125 -0.359375,0 -0.890625,-0.09375 -1.46875,-0.4375 C 4.078125,2.359375 4.0625,2.34375 3.953125,2.34375 c -0.1875,0 -0.3125,0.171875 -0.3125,0.3125 0,0.359375 1.21875,0.828125 2.046875,0.828125 1.265625,0 2.09375,-1.28125 2.09375,-2.28125 C 7.78125,-0.15625 6.625,-0.5 5.921875,-0.703125 Z m 2.046875,-8.65625 c 0.34375,-0.1875 0.59375,-0.1875 0.90625,-0.1875 0.5,0 0.5625,0.01563 0.8125,0.109375 -0.109375,0.171875 -0.125,0.21875 -0.40625,0.265625 -0.234375,0.03125 -0.609375,0.03125 -0.640625,0.03125 -0.234375,0 -0.53125,0 -0.671875,-0.21875 z m 0,0"
           id="path8-1-0"
           style="fill:#b22222;fill-opacity:1" />
      </g>
    </g>
    <g
       transform="translate(65.489673,26.324303)"
       id="g12">
      <g
         fill="#000000"
         fill-opacity="1"
         id="g3-1"
         transform="matrix(0.352778,0,0,0.352778,-1.01177,-0.653609)">
        <g
           id="use2-1"
           transform="translate(1.993,13.009)">
          <path
             d="m 5.15625,-5.578125 c 0,-0.8125 0.171875,-4.75 3.078125,-4.75 -0.359375,0.265625 -0.53125,0.6875 -0.53125,1.140625 0,1.015625 0.828125,1.4375 1.4375,1.4375 0.625,0 1.4375,-0.421875 1.4375,-1.4375 0,-1.265625 -1.28125,-1.96875 -2.46875,-1.96875 -1.96875,0 -2.8125,1.71875 -3.15625,2.75 H 4.9375 v -2.75 l -4.0625,0.203125 v 1.0625 c 1.53125,0 1.703125,0 1.703125,0.96875 V -1.0625 H 0.875 V 0 c 0.5625,-0.046875 2.421875,-0.046875 3.109375,-0.046875 0.71875,0 2.734375,0 3.328125,0.046875 V -1.0625 H 5.15625 Z m 0,0"
             id="path4-1-1" />
        </g>
      </g>
      <g
         fill="#000000"
         fill-opacity="1"
         id="g4-1"
         transform="matrix(0.352778,0,0,0.352778,-1.01177,-0.653609)">
        <g
           id="use3-1-1"
           transform="translate(13.382,16.726999)">
          <path
             d="m 4.578125,-11 c 0,-0.359375 -0.015625,-0.375 -0.25,-0.375 -0.671875,0.796875 -1.6875,1.0625 -2.65625,1.09375 -0.046875,0 -0.140625,0 -0.15625,0.03125 C 1.5,-10.203125 1.5,-10.171875 1.5,-9.8125 c 0.53125,0 1.421875,-0.109375 2.109375,-0.515625 V -1.25 c 0,0.59375 -0.03125,0.796875 -1.515625,0.796875 H 1.578125 V 0 c 0.828125,-0.015625 1.6875,-0.03125 2.515625,-0.03125 0.828125,0 1.6875,0.015625 2.515625,0.03125 V -0.453125 H 6.09375 c -1.484375,0 -1.515625,-0.1875 -1.515625,-0.796875 z m 0,0"
             id="path5-1-1" />
        </g>
      </g>
    </g>
    <g
       transform="matrix(0.64943158,0,0,0.64943158,40.779959,55.654629)"
       id="g13">
      <g
         fill="#000000"
         fill-opacity="1"
         id="g7-1"
         transform="matrix(0.352778,0,0,0.352778,-1.05035,-0.570133)">
        <g
           id="use5-1"
           transform="translate(1.993,12.663)">
          <path
             d="m 8.921875,-6.421875 c 0,-1.625 0,-2.5 -1.046875,-3.46875 -0.90625,-0.8125 -1.984375,-1.0625 -2.8125,-1.0625 -1.96875,0 -3.375,1.53125 -3.375,3.171875 0,0.921875 0.734375,0.96875 0.890625,0.96875 0.328125,0 0.890625,-0.203125 0.890625,-0.890625 0,-0.625 -0.46875,-0.890625 -0.890625,-0.890625 -0.09375,0 -0.21875,0.015625 -0.296875,0.046875 C 2.796875,-10.109375 4.140625,-10.5625 5,-10.5625 c 1.25,0 2.609375,1.09375 2.609375,3.171875 v 1.09375 C 6.140625,-6.25 4.390625,-6.046875 3,-5.296875 1.4375,-4.4375 0.984375,-3.203125 0.984375,-2.25 c 0,1.90625 2.234375,2.453125 3.546875,2.453125 1.359375,0 2.625,-0.765625 3.171875,-2.1875 0.046875,1.09375 0.75,2.078125 1.84375,2.078125 C 10.0625,0.09375 11.375,-0.25 11.375,-2.203125 V -3.59375 h -0.453125 v 1.40625 c 0,1.515625 -0.65625,1.71875 -0.984375,1.71875 -1.015625,0 -1.015625,-1.296875 -1.015625,-2.375 z m -1.3125,2.984375 c 0,2.15625 -1.53125,3.234375 -2.90625,3.234375 C 3.46875,-0.203125 2.5,-1.109375 2.5,-2.25 2.5,-3 2.828125,-4.3125 4.265625,-5.109375 5.453125,-5.78125 6.8125,-5.875 7.609375,-5.921875 Z m 0,0"
             id="path10" />
        </g>
        <g
           id="use6"
           transform="translate(13.360364,12.663)">
          <path
             d="m 3.71875,-5.84375 c 0,-2.390625 1.015625,-4.609375 2.875,-4.609375 0.171875,0 0.34375,0.01563 0.515625,0.09375 0,0 -0.546875,0.171875 -0.546875,0.8125 0,0.59375 0.46875,0.84375 0.84375,0.84375 0.296875,0 0.84375,-0.171875 0.84375,-0.859375 0,-0.796875 -0.796875,-1.296875 -1.640625,-1.296875 -1.875,0 -2.6875,1.84375 -2.9375,2.703125 h -0.03125 v -2.703125 l -2.875,0.28125 V -9.9375 c 1.46875,0 1.6875,0.15625 1.6875,1.34375 v 6.890625 c 0,0.9375 -0.09375,1.0625 -1.6875,1.0625 V 0 c 0.59375,-0.046875 1.734375,-0.046875 2.375,-0.046875 0.71875,0 1.984375,0 2.65625,0.046875 v -0.640625 c -1.78125,0 -2.078125,0 -2.078125,-1.125 z m 0,0"
             id="path11" />
        </g>
        <g
           id="use7"
           transform="translate(22.137476,12.663)">
          <path
             d="m 2.75,-4.453125 c 0.46875,0.359375 1.296875,0.78125 2.28125,0.78125 1.953125,0 3.640625,-1.53125 3.640625,-3.59375 0,-0.640625 -0.203125,-1.625 -0.9375,-2.40625 0.6875,-0.734375 1.703125,-0.984375 2.28125,-0.984375 0.09375,0 0.25,0 0.375,0.07813 -0.109375,0.01563 -0.328125,0.125 -0.328125,0.515625 0,0.328125 0.21875,0.546875 0.546875,0.546875 0.375,0 0.5625,-0.25 0.5625,-0.578125 0,-0.46875 -0.375,-0.953125 -1.15625,-0.953125 -1,0 -1.859375,0.46875 -2.5625,1.109375 -0.734375,-0.671875 -1.625,-0.921875 -2.421875,-0.921875 -1.953125,0 -3.640625,1.546875 -3.640625,3.59375 0,1.421875 0.8125,2.3125 1.0625,2.5625 -0.75,0.859375 -0.75,1.875 -0.75,2 0,0.640625 0.25,1.59375 1.09375,2.109375 C 1.515625,-0.265625 0.5,0.71875 0.5,1.953125 0.5,3.734375 2.84375,5.0625 5.671875,5.0625 c 2.734375,0 5.1875,-1.265625 5.1875,-3.125 0,-3.375 -3.671875,-3.375 -5.578125,-3.375 -0.578125,0 -1.59375,0 -1.71875,-0.03125 -0.765625,-0.125 -1.28125,-0.8125 -1.28125,-1.671875 0,-0.234375 0,-0.78125 0.46875,-1.3125 z m 2.28125,0.359375 c -2.1875,0 -2.1875,-2.671875 -2.1875,-3.171875 0,-0.484375 0,-3.171875 2.1875,-3.171875 2.1875,0 2.1875,2.6875 2.1875,3.171875 0,0.5 0,3.171875 -2.1875,3.171875 z m 0.640625,8.734375 c -2.46875,0 -4.1875,-1.3125 -4.1875,-2.6875 0,-0.765625 0.421875,-1.484375 0.96875,-1.875 0.625,-0.421875 0.875,-0.421875 2.546875,-0.421875 2.03125,0 4.859375,0 4.859375,2.296875 0,1.375 -1.703125,2.6875 -4.1875,2.6875 z m 0,0"
             id="path12" />
        </g>
      </g>
      <g
         fill="#000000"
         fill-opacity="1"
         id="g10-1"
         transform="matrix(0.352778,0,0,0.352778,-1.05035,-0.570133)">
        <g
           id="use8"
           transform="translate(40.990543,12.663)">
          <path
             d="m 16.75,-7.53125 c 0,-1.234375 -0.21875,-3.328125 -3.171875,-3.328125 -1.6875,0 -2.84375,1.140625 -3.296875,2.484375 H 10.26562 C 9.96875,-10.40625 8.5,-10.859375 7.109375,-10.859375 c -1.953125,0 -2.96875,1.515625 -3.34375,2.515625 h -0.03125 v -2.515625 L 0.8125,-10.578125 V -9.9375 c 1.46875,0 1.6875,0.15625 1.6875,1.34375 v 6.890625 c 0,0.9375 -0.09375,1.0625 -1.6875,1.0625 V 0 C 1.40625,-0.046875 2.5,-0.046875 3.140625,-0.046875 c 0.65625,0 1.765625,0 2.359375,0.046875 v -0.640625 c -1.578125,0 -1.6875,-0.109375 -1.6875,-1.0625 V -6.46875 c 0,-2.28125 1.390625,-3.984375 3.125,-3.984375 1.828125,0 2.03125,1.625 2.03125,2.828125 v 5.921875 c 0,0.9375 -0.09375,1.0625 -1.6875,1.0625 V 0 c 0.59375,-0.046875 1.6875,-0.046875 2.328125,-0.046875 0.65625,0 1.765625,0 2.359375,0.046875 v -0.640625 c -1.578125,0 -1.6875,-0.109375 -1.6875,-1.0625 V -6.46875 c 0,-2.28125 1.390625,-3.984375 3.125,-3.984375 1.828125,0 2.03125,1.625 2.03125,2.828125 v 5.921875 c 0,0.9375 -0.09375,1.0625 -1.6875,1.0625 V 0 c 0.59375,-0.046875 1.6875,-0.046875 2.328125,-0.046875 0.65625,0 1.765625,0 2.359375,0.046875 v -0.640625 c -1.59375,0 -1.6875,-0.109375 -1.6875,-1.0625 z m 0,0"
             id="path13" />
        </g>
        <g
           id="use9"
           transform="translate(60.128662,12.663)">
          <path
             d="m 8.921875,-6.421875 c 0,-1.625 0,-2.5 -1.046875,-3.46875 -0.90625,-0.8125 -1.984375,-1.0625 -2.8125,-1.0625 -1.96875,0 -3.375,1.53125 -3.375,3.171875 0,0.921875 0.734375,0.96875 0.890625,0.96875 0.328125,0 0.890625,-0.203125 0.890625,-0.890625 0,-0.625 -0.46875,-0.890625 -0.890625,-0.890625 -0.09375,0 -0.21875,0.015625 -0.296875,0.046875 C 2.796875,-10.109375 4.140625,-10.5625 5,-10.5625 c 1.25,0 2.609375,1.09375 2.609375,3.171875 v 1.09375 C 6.140625,-6.25 4.390625,-6.046875 3,-5.296875 1.4375,-4.4375 0.984375,-3.203125 0.984375,-2.25 c 0,1.90625 2.234375,2.453125 3.546875,2.453125 1.359375,0 2.625,-0.765625 3.171875,-2.1875 0.046875,1.09375 0.75,2.078125 1.84375,2.078125 C 10.0625,0.09375 11.375,-0.25 11.375,-2.203125 V -3.59375 h -0.453125 v 1.40625 c 0,1.515625 -0.65625,1.71875 -0.984375,1.71875 -1.015625,0 -1.015625,-1.296875 -1.015625,-2.375 z m -1.3125,2.984375 c 0,2.15625 -1.53125,3.234375 -2.90625,3.234375 C 3.46875,-0.203125 2.5,-1.109375 2.5,-2.25 2.5,-3 2.828125,-4.3125 4.265625,-5.109375 5.453125,-5.78125 6.8125,-5.875 7.609375,-5.921875 Z m 0,0"
             id="path14" />
        </g>
        <g
           id="use10"
           transform="translate(71.496025,12.663)">
          <path
             d="m 6.4375,-5.78125 c 0.75,-0.953125 1.59375,-2.046875 2.28125,-2.875 0.828125,-0.9375 1.765625,-1.328125 2.859375,-1.359375 v -0.640625 c -0.421875,0.03125 -1.296875,0.04687 -1.734375,0.04687 -0.671875,0 -1.4375,0 -2.015625,-0.04687 v 0.640625 C 8.171875,-9.96875 8.375,-9.71875 8.375,-9.375 8.375,-8.921875 8.125,-8.65625 8,-8.46875 L 6.171875,-6.140625 3.984375,-9 c -0.21875,-0.265625 -0.21875,-0.3125 -0.21875,-0.4375 0,-0.296875 0.25,-0.546875 0.671875,-0.578125 v -0.640625 c -0.59375,0.04687 -1.65625,0.04687 -2.28125,0.04687 -0.671875,0 -1.46875,0 -2,-0.04687 v 0.640625 c 1.328125,0 1.625,0.109375 2.21875,0.84375 l 2.859375,3.6875 c 0.046875,0.0625 0.171875,0.203125 0.171875,0.28125 0,0.09375 -2.15625,2.75 -2.4375,3.09375 -1.109375,1.34375 -2.28125,1.4375 -2.9375,1.46875 V 0 c 0.421875,-0.03125 1.28125,-0.046875 1.734375,-0.046875 0.484375,0 1.578125,0 2.03125,0.046875 V -0.640625 C 3.640625,-0.671875 3.25,-0.71875 3.25,-1.28125 3.25,-1.734375 3.4375,-2 3.671875,-2.296875 L 5.71875,-4.828125 7.875,-2.03125 c 0.203125,0.265625 0.5,0.640625 0.5,0.8125 0,0.34375 -0.296875,0.546875 -0.6875,0.578125 V 0 c 0.59375,-0.046875 1.65625,-0.046875 2.28125,-0.046875 0.65625,0 1.453125,0 2,0.046875 v -0.640625 c -1.234375,0 -1.609375,-0.046875 -2.203125,-0.828125 z m 0,0"
             id="path15" />
        </g>
      </g>
    </g>
    <g
       transform="matrix(0.64943158,0,0,0.64943158,75.779959,55.654625)"
       id="g13-4">
      <g
         fill="#000000"
         fill-opacity="1"
         id="g7-1-2"
         transform="matrix(0.352778,0,0,0.352778,-1.05035,-0.570133)">
        <g
           id="use5-1-2"
           transform="translate(1.993,12.663)">
          <path
             d="m 8.921875,-6.421875 c 0,-1.625 0,-2.5 -1.046875,-3.46875 -0.90625,-0.8125 -1.984375,-1.0625 -2.8125,-1.0625 -1.96875,0 -3.375,1.53125 -3.375,3.171875 0,0.921875 0.734375,0.96875 0.890625,0.96875 0.328125,0 0.890625,-0.203125 0.890625,-0.890625 0,-0.625 -0.46875,-0.890625 -0.890625,-0.890625 -0.09375,0 -0.21875,0.015625 -0.296875,0.046875 C 2.796875,-10.109375 4.140625,-10.5625 5,-10.5625 c 1.25,0 2.609375,1.09375 2.609375,3.171875 v 1.09375 C 6.140625,-6.25 4.390625,-6.046875 3,-5.296875 1.4375,-4.4375 0.984375,-3.203125 0.984375,-2.25 c 0,1.90625 2.234375,2.453125 3.546875,2.453125 1.359375,0 2.625,-0.765625 3.171875,-2.1875 0.046875,1.09375 0.75,2.078125 1.84375,2.078125 C 10.0625,0.09375 11.375,-0.25 11.375,-2.203125 V -3.59375 h -0.453125 v 1.40625 c 0,1.515625 -0.65625,1.71875 -0.984375,1.71875 -1.015625,0 -1.015625,-1.296875 -1.015625,-2.375 z m -1.3125,2.984375 c 0,2.15625 -1.53125,3.234375 -2.90625,3.234375 C 3.46875,-0.203125 2.5,-1.109375 2.5,-2.25 2.5,-3 2.828125,-4.3125 4.265625,-5.109375 5.453125,-5.78125 6.8125,-5.875 7.609375,-5.921875 Z m 0,0"
             id="path10-4" />
        </g>
        <g
           id="use6-5"
           transform="translate(13.360364,12.663)">
          <path
             d="m 3.71875,-5.84375 c 0,-2.390625 1.015625,-4.609375 2.875,-4.609375 0.171875,0 0.34375,0.01563 0.515625,0.09375 0,0 -0.546875,0.171875 -0.546875,0.8125 0,0.59375 0.46875,0.84375 0.84375,0.84375 0.296875,0 0.84375,-0.171875 0.84375,-0.859375 0,-0.796875 -0.796875,-1.296875 -1.640625,-1.296875 -1.875,0 -2.6875,1.84375 -2.9375,2.703125 h -0.03125 v -2.703125 l -2.875,0.28125 V -9.9375 c 1.46875,0 1.6875,0.15625 1.6875,1.34375 v 6.890625 c 0,0.9375 -0.09375,1.0625 -1.6875,1.0625 V 0 c 0.59375,-0.046875 1.734375,-0.046875 2.375,-0.046875 0.71875,0 1.984375,0 2.65625,0.046875 v -0.640625 c -1.78125,0 -2.078125,0 -2.078125,-1.125 z m 0,0"
             id="path11-1" />
        </g>
        <g
           id="use7-7"
           transform="translate(22.137476,12.663)">
          <path
             d="m 2.75,-4.453125 c 0.46875,0.359375 1.296875,0.78125 2.28125,0.78125 1.953125,0 3.640625,-1.53125 3.640625,-3.59375 0,-0.640625 -0.203125,-1.625 -0.9375,-2.40625 0.6875,-0.734375 1.703125,-0.984375 2.28125,-0.984375 0.09375,0 0.25,0 0.375,0.07813 -0.109375,0.01563 -0.328125,0.125 -0.328125,0.515625 0,0.328125 0.21875,0.546875 0.546875,0.546875 0.375,0 0.5625,-0.25 0.5625,-0.578125 0,-0.46875 -0.375,-0.953125 -1.15625,-0.953125 -1,0 -1.859375,0.46875 -2.5625,1.109375 -0.734375,-0.671875 -1.625,-0.921875 -2.421875,-0.921875 -1.953125,0 -3.640625,1.546875 -3.640625,3.59375 0,1.421875 0.8125,2.3125 1.0625,2.5625 -0.75,0.859375 -0.75,1.875 -0.75,2 0,0.640625 0.25,1.59375 1.09375,2.109375 C 1.515625,-0.265625 0.5,0.71875 0.5,1.953125 0.5,3.734375 2.84375,5.0625 5.671875,5.0625 c 2.734375,0 5.1875,-1.265625 5.1875,-3.125 0,-3.375 -3.671875,-3.375 -5.578125,-3.375 -0.578125,0 -1.59375,0 -1.71875,-0.03125 -0.765625,-0.125 -1.28125,-0.8125 -1.28125,-1.671875 0,-0.234375 0,-0.78125 0.46875,-1.3125 z m 2.28125,0.359375 c -2.1875,0 -2.1875,-2.671875 -2.1875,-3.171875 0,-0.484375 0,-3.171875 2.1875,-3.171875 2.1875,0 2.1875,2.6875 2.1875,3.171875 0,0.5 0,3.171875 -2.1875,3.171875 z m 0.640625,8.734375 c -2.46875,0 -4.1875,-1.3125 -4.1875,-2.6875 0,-0.765625 0.421875,-1.484375 0.96875,-1.875 0.625,-0.421875 0.875,-0.421875 2.546875,-0.421875 2.03125,0 4.859375,0 4.859375,2.296875 0,1.375 -1.703125,2.6875 -4.1875,2.6875 z m 0,0"
             id="path12-5" />
        </g>
      </g>
      <g
         fill="#000000"
         fill-opacity="1"
         id="g10-1-7"
         transform="matrix(0.352778,0,0,0.352778,-1.05035,-0.570133)">
        <g
           id="use8-1"
           transform="translate(40.990543,12.663)">
          <path
             d="m 16.75,-7.53125 c 0,-1.234375 -0.21875,-3.328125 -3.171875,-3.328125 -1.6875,0 -2.84375,1.140625 -3.296875,2.484375 H 10.26562 C 9.96875,-10.40625 8.5,-10.859375 7.109375,-10.859375 c -1.953125,0 -2.96875,1.515625 -3.34375,2.515625 h -0.03125 v -2.515625 L 0.8125,-10.578125 V -9.9375 c 1.46875,0 1.6875,0.15625 1.6875,1.34375 v 6.890625 c 0,0.9375 -0.09375,1.0625 -1.6875,1.0625 V 0 C 1.40625,-0.046875 2.5,-0.046875 3.140625,-0.046875 c 0.65625,0 1.765625,0 2.359375,0.046875 v -0.640625 c -1.578125,0 -1.6875,-0.109375 -1.6875,-1.0625 V -6.46875 c 0,-2.28125 1.390625,-3.984375 3.125,-3.984375 1.828125,0 2.03125,1.625 2.03125,2.828125 v 5.921875 c 0,0.9375 -0.09375,1.0625 -1.6875,1.0625 V 0 c 0.59375,-0.046875 1.6875,-0.046875 2.328125,-0.046875 0.65625,0 1.765625,0 2.359375,0.046875 v -0.640625 c -1.578125,0 -1.6875,-0.109375 -1.6875,-1.0625 V -6.46875 c 0,-2.28125 1.390625,-3.984375 3.125,-3.984375 1.828125,0 2.03125,1.625 2.03125,2.828125 v 5.921875 c 0,0.9375 -0.09375,1.0625 -1.6875,1.0625 V 0 c 0.59375,-0.046875 1.6875,-0.046875 2.328125,-0.046875 0.65625,0 1.765625,0 2.359375,0.046875 v -0.640625 c -1.59375,0 -1.6875,-0.109375 -1.6875,-1.0625 z m 0,0"
             id="path13-6" />
        </g>
        <g
           id="use9-9"
           transform="translate(60.128662,12.663)">
          <path
             d="m 8.921875,-6.421875 c 0,-1.625 0,-2.5 -1.046875,-3.46875 -0.90625,-0.8125 -1.984375,-1.0625 -2.8125,-1.0625 -1.96875,0 -3.375,1.53125 -3.375,3.171875 0,0.921875 0.734375,0.96875 0.890625,0.96875 0.328125,0 0.890625,-0.203125 0.890625,-0.890625 0,-0.625 -0.46875,-0.890625 -0.890625,-0.890625 -0.09375,0 -0.21875,0.015625 -0.296875,0.046875 C 2.796875,-10.109375 4.140625,-10.5625 5,-10.5625 c 1.25,0 2.609375,1.09375 2.609375,3.171875 v 1.09375 C 6.140625,-6.25 4.390625,-6.046875 3,-5.296875 1.4375,-4.4375 0.984375,-3.203125 0.984375,-2.25 c 0,1.90625 2.234375,2.453125 3.546875,2.453125 1.359375,0 2.625,-0.765625 3.171875,-2.1875 0.046875,1.09375 0.75,2.078125 1.84375,2.078125 C 10.0625,0.09375 11.375,-0.25 11.375,-2.203125 V -3.59375 h -0.453125 v 1.40625 c 0,1.515625 -0.65625,1.71875 -0.984375,1.71875 -1.015625,0 -1.015625,-1.296875 -1.015625,-2.375 z m -1.3125,2.984375 c 0,2.15625 -1.53125,3.234375 -2.90625,3.234375 C 3.46875,-0.203125 2.5,-1.109375 2.5,-2.25 2.5,-3 2.828125,-4.3125 4.265625,-5.109375 5.453125,-5.78125 6.8125,-5.875 7.609375,-5.921875 Z m 0,0"
             id="path14-8" />
        </g>
        <g
           id="use10-1"
           transform="translate(71.496025,12.663)">
          <path
             d="m 6.4375,-5.78125 c 0.75,-0.953125 1.59375,-2.046875 2.28125,-2.875 0.828125,-0.9375 1.765625,-1.328125 2.859375,-1.359375 v -0.640625 c -0.421875,0.03125 -1.296875,0.04687 -1.734375,0.04687 -0.671875,0 -1.4375,0 -2.015625,-0.04687 v 0.640625 C 8.171875,-9.96875 8.375,-9.71875 8.375,-9.375 8.375,-8.921875 8.125,-8.65625 8,-8.46875 L 6.171875,-6.140625 3.984375,-9 c -0.21875,-0.265625 -0.21875,-0.3125 -0.21875,-0.4375 0,-0.296875 0.25,-0.546875 0.671875,-0.578125 v -0.640625 c -0.59375,0.04687 -1.65625,0.04687 -2.28125,0.04687 -0.671875,0 -1.46875,0 -2,-0.04687 v 0.640625 c 1.328125,0 1.625,0.109375 2.21875,0.84375 l 2.859375,3.6875 c 0.046875,0.0625 0.171875,0.203125 0.171875,0.28125 0,0.09375 -2.15625,2.75 -2.4375,3.09375 -1.109375,1.34375 -2.28125,1.4375 -2.9375,1.46875 V 0 c 0.421875,-0.03125 1.28125,-0.046875 1.734375,-0.046875 0.484375,0 1.578125,0 2.03125,0.046875 V -0.640625 C 3.640625,-0.671875 3.25,-0.71875 3.25,-1.28125 3.25,-1.734375 3.4375,-2 3.671875,-2.296875 L 5.71875,-4.828125 7.875,-2.03125 c 0.203125,0.265625 0.5,0.640625 0.5,0.8125 0,0.34375 -0.296875,0.546875 -0.6875,0.578125 V 0 c 0.59375,-0.046875 1.65625,-0.046875 2.28125,-0.046875 0.65625,0 1.453125,0 2,0.046875 v -0.640625 c -1.234375,0 -1.609375,-0.046875 -2.203125,-0.828125 z m 0,0"
             id="path15-3" />
        </g>
      </g>
    </g>
    <g
       id="g32">
      <g
         fill="#000000"
         fill-opacity="1"
         id="g4-1-1"
         transform="matrix(0.352778,0,0,0.352778,43.57492,76.18168)">
        <g
           id="use3-1-1-1"
           transform="translate(1.993,22.943001)">
          <path
             d="m 6.84375,-7.5625 h 4.203125 C 15.1875,-7.5625 17.5,-9.671875 17.5,-12.21875 17.5,-14.890625 15.140625,-17 11.046875,-17 H 0.9375 v 1.0625 h 2.625 v 14.875 H 0.9375 V 0 c 0.71875,-0.046875 3.375,-0.046875 4.265625,-0.046875 0.890625,0 3.546875,0 4.265625,0.046875 v -1.0625 h -2.625 z m 3.3125,-8.375 C 14,-15.9375 14,-13.90625 14,-12.21875 14,-10.578125 14,-8.5 10.15625,-8.5 h -3.4375 v -7.4375 z m 0,0"
             id="path6-1-1" />
        </g>
      </g>
      <g
         fill="#000000"
         fill-opacity="1"
         id="g5-1"
         transform="matrix(0.352778,0,0,0.352778,43.57492,76.18168)">
        <g
           id="use4-1"
           transform="translate(21.042,13.948)">
          <path
             d="m 7.046875,-10.875 c 0,-0.3125 0,-0.625 -0.34375,-0.625 -0.34375,0 -0.34375,0.359375 -0.34375,0.625 V -0.6875 H 1.5625 c -0.25,0 -0.609375,0 -0.609375,0.34375 C 0.953125,0 1.3125,0 1.5625,0 h 10.28125 c 0.296875,0 0.609375,0 0.609375,-0.34375 0,-0.34375 -0.3125,-0.34375 -0.609375,-0.34375 H 7.046875 Z m 0,0"
             id="path7-1-1" />
        </g>
      </g>
      <g
         fill="#000000"
         fill-opacity="1"
         id="g6-1"
         transform="matrix(0.352778,0,0,0.352778,43.57492,76.18168)"
         style="fill:#b22222;fill-opacity:1">
        <g
           id="use5-1-1"
           transform="translate(21.042,29.888)"
           style="fill:#b22222;fill-opacity:1">
          <path
             d="m 4.40625,-1.171875 c -0.734375,-0.21875 -2,-0.609375 -2,-2.484375 0,-2.328125 1.859375,-4.859375 3.4375,-5.84375 0.375,0.515625 0.9375,0.515625 1.28125,0.515625 0.46875,0 1.859375,0 1.859375,-0.9375 0,-0.671875 -0.84375,-0.71875 -1.578125,-0.71875 -0.296875,0 -0.640625,0 -1.125,0.171875 -0.03125,-0.484375 0.09375,-1 0.109375,-1.0625 0.03125,-0.140625 0.03125,-0.15625 0.03125,-0.21875 0,-0.34375 -0.34375,-0.359375 -0.359375,-0.359375 -0.5625,0 -0.5625,1.015625 -0.5625,1.3125 0,0.109375 0,0.390625 0.0625,0.65625 C 3.1875,-8.8125 0.828125,-5.8125 0.828125,-2.8125 c 0,0.859375 0.234375,1.75 0.84375,2.421875 C 2.34375,0.328125 2.8125,0.46875 5,1.125 5.734375,1.328125 6.296875,1.5 6.296875,2.15625 c 0,0.0625 -0.03125,0.703125 -0.609375,0.703125 -0.359375,0 -0.890625,-0.09375 -1.46875,-0.4375 C 4.078125,2.359375 4.0625,2.34375 3.953125,2.34375 c -0.1875,0 -0.3125,0.171875 -0.3125,0.3125 0,0.359375 1.21875,0.828125 2.046875,0.828125 1.265625,0 2.09375,-1.28125 2.09375,-2.28125 C 7.78125,-0.15625 6.625,-0.5 5.921875,-0.703125 Z m 2.046875,-8.65625 c 0.34375,-0.1875 0.59375,-0.1875 0.90625,-0.1875 0.5,0 0.5625,0.01563 0.8125,0.109375 -0.109375,0.171875 -0.125,0.21875 -0.40625,0.265625 -0.234375,0.03125 -0.609375,0.03125 -0.640625,0.03125 -0.234375,0 -0.53125,0 -0.671875,-0.21875 z m 0,0"
             id="path8-1-1"
             style="fill:#b22222;fill-opacity:1" />
        </g>
      </g>
    </g>
    <g
       fill="#000000"
       fill-opacity="1"
       id="g4-1-1-4"
       transform="matrix(0.352778,0,0,0.352778,78.57492,76.18168)">
      <g
         id="use3-1-1-1-2"
         transform="translate(1.993,22.943001)">
        <path
           d="m 6.84375,-7.5625 h 4.203125 C 15.1875,-7.5625 17.5,-9.671875 17.5,-12.21875 17.5,-14.890625 15.140625,-17 11.046875,-17 H 0.9375 v 1.0625 h 2.625 v 14.875 H 0.9375 V 0 c 0.71875,-0.046875 3.375,-0.046875 4.265625,-0.046875 0.890625,0 3.546875,0 4.265625,0.046875 v -1.0625 h -2.625 z m 3.3125,-8.375 C 14,-15.9375 14,-13.90625 14,-12.21875 14,-10.578125 14,-8.5 10.15625,-8.5 h -3.4375 v -7.4375 z m 0,0"
           id="path6-1-1-5" />
      </g>
    </g>
    <g
       fill="#000000"
       fill-opacity="1"
       id="g5-1-2"
       transform="matrix(0.352778,0,0,0.352778,78.57492,76.18168)">
      <g
         id="use4-1-4"
         transform="translate(21.042,13.948)">
        <path
           d="m 7.046875,-10.875 c 0,-0.3125 0,-0.625 -0.34375,-0.625 -0.34375,0 -0.34375,0.359375 -0.34375,0.625 V -0.6875 H 1.5625 c -0.25,0 -0.609375,0 -0.609375,0.34375 C 0.953125,0 1.3125,0 1.5625,0 h 10.28125 c 0.296875,0 0.609375,0 0.609375,-0.34375 0,-0.34375 -0.3125,-0.34375 -0.609375,-0.34375 H 7.046875 Z m 0,0"
           id="path7-1-1-4" />
      </g>
    </g>
    <g
       fill="#000000"
       fill-opacity="1"
       id="g6-1-3"
       transform="matrix(0.352778,0,0,0.352778,78.57492,76.18168)"
       style="fill:#b22222;fill-opacity:1">
      <g
         id="use5-1-1-8"
         transform="translate(21.042,29.888)"
         style="fill:#b22222;fill-opacity:1">
        <path
           d="m 4.40625,-1.171875 c -0.734375,-0.21875 -2,-0.609375 -2,-2.484375 0,-2.328125 1.859375,-4.859375 3.4375,-5.84375 0.375,0.515625 0.9375,0.515625 1.28125,0.515625 0.46875,0 1.859375,0 1.859375,-0.9375 0,-0.671875 -0.84375,-0.71875 -1.578125,-0.71875 -0.296875,0 -0.640625,0 -1.125,0.171875 -0.03125,-0.484375 0.09375,-1 0.109375,-1.0625 0.03125,-0.140625 0.03125,-0.15625 0.03125,-0.21875 0,-0.34375 -0.34375,-0.359375 -0.359375,-0.359375 -0.5625,0 -0.5625,1.015625 -0.5625,1.3125 0,0.109375 0,0.390625 0.0625,0.65625 C 3.1875,-8.8125 0.828125,-5.8125 0.828125,-2.8125 c 0,0.859375 0.234375,1.75 0.84375,2.421875 C 2.34375,0.328125 2.8125,0.46875 5,1.125 5.734375,1.328125 6.296875,1.5 6.296875,2.15625 c 0,0.0625 -0.03125,0.703125 -0.609375,0.703125 -0.359375,0 -0.890625,-0.09375 -1.46875,-0.4375 C 4.078125,2.359375 4.0625,2.34375 3.953125,2.34375 c -0.1875,0 -0.3125,0.171875 -0.3125,0.3125 0,0.359375 1.21875,0.828125 2.046875,0.828125 1.265625,0 2.09375,-1.28125 2.09375,-2.28125 C 7.78125,-0.15625 6.625,-0.5 5.921875,-0.703125 Z m 2.046875,-8.65625 c 0.34375,-0.1875 0.59375,-0.1875 0.90625,-0.1875 0.5,0 0.5625,0.01563 0.8125,0.109375 -0.109375,0.171875 -0.125,0.21875 -0.40625,0.265625 -0.234375,0.03125 -0.609375,0.03125 -0.640625,0.03125 -0.234375,0 -0.53125,0 -0.671875,-0.21875 z m 0,0"
           id="path8-1-1-6"
           style="fill:#b22222;fill-opacity:1" />
      </g>
    </g>
    <g
       transform="translate(125.54801,26.293986)"
       id="g15">
      <g
         fill="#000000"
         fill-opacity="1"
         id="g3-1-1"
         transform="matrix(0.352778,0,0,0.352778,-1.01177,-0.653609)">
        <g
           id="use2-1-1"
           transform="translate(1.993,13.009)">
          <path
             d="m 5.15625,-5.578125 c 0,-0.8125 0.171875,-4.75 3.078125,-4.75 -0.359375,0.265625 -0.53125,0.6875 -0.53125,1.140625 0,1.015625 0.828125,1.4375 1.4375,1.4375 0.625,0 1.4375,-0.421875 1.4375,-1.4375 0,-1.265625 -1.28125,-1.96875 -2.46875,-1.96875 -1.96875,0 -2.8125,1.71875 -3.15625,2.75 H 4.9375 v -2.75 l -4.0625,0.203125 v 1.0625 c 1.53125,0 1.703125,0 1.703125,0.96875 V -1.0625 H 0.875 V 0 c 0.5625,-0.046875 2.421875,-0.046875 3.109375,-0.046875 0.71875,0 2.734375,0 3.328125,0.046875 V -1.0625 H 5.15625 Z m 0,0"
             id="path4-1-1-1" />
        </g>
      </g>
      <g
         fill="#000000"
         fill-opacity="1"
         id="g4-1-1-1"
         transform="matrix(0.352778,0,0,0.352778,-1.01177,-0.653609)">
        <g
           id="use3-1-1-1-1"
           transform="translate(13.382,16.726999)">
          <path
             d="m 4.84375,-11.515625 c 0.015625,-0.07813 0.046875,-0.171875 0.046875,-0.265625 0,-0.171875 -0.171875,-0.171875 -0.203125,-0.171875 -0.015625,0 -0.640625,0.0625 -0.953125,0.09375 -0.296875,0.01563 -0.546875,0.04687 -0.859375,0.0625 -0.40625,0.03125 -0.53125,0.04687 -0.53125,0.359375 0,0.171875 0.171875,0.171875 0.34375,0.171875 0.875,0 0.875,0.15625 0.875,0.328125 0,0.07813 0,0.109375 -0.078125,0.421875 l -2.46875,9.84375 c -0.0625,0.265625 -0.0625,0.296875 -0.0625,0.390625 0,0.390625 0.28125,0.453125 0.453125,0.453125 0.484375,0 0.59375,-0.375 0.734375,-0.90625 L 2.9375,-3.953125 c 1.25,0.125 1.984375,0.640625 1.984375,1.46875 0,0.109375 0,0.171875 -0.046875,0.4375 -0.078125,0.25 -0.078125,0.46875 -0.078125,0.546875 0,1 0.65625,1.671875 1.546875,1.671875 0.78125,0 1.203125,-0.71875 1.328125,-0.96875 0.375,-0.625 0.59375,-1.59375 0.59375,-1.671875 0,-0.078125 -0.0625,-0.15625 -0.171875,-0.15625 -0.15625,0 -0.171875,0.078125 -0.234375,0.359375 C 7.609375,-1.375 7.25,-0.171875 6.375,-0.171875 6.03125,-0.171875 5.796875,-0.34375 5.796875,-1 5.796875,-1.328125 5.875,-1.703125 5.9375,-1.96875 6.015625,-2.265625 6.015625,-2.296875 6.015625,-2.5 c 0,-1.015625 -0.921875,-1.578125 -2.5,-1.78125 C 4.125,-4.671875 4.75,-5.34375 5,-5.59375 5.96875,-6.703125 6.640625,-7.25 7.4375,-7.25 c 0.390625,0 0.5,0.109375 0.625,0.203125 -0.640625,0.078125 -0.875,0.515625 -0.875,0.859375 0,0.421875 0.3125,0.5625 0.5625,0.5625 0.46875,0 0.875,-0.40625 0.875,-0.953125 0,-0.5 -0.390625,-1.015625 -1.171875,-1.015625 -0.9375,0 -1.71875,0.671875 -2.9375,2.046875 C 4.34375,-5.34375 3.703125,-4.6875 3.0625,-4.4375 Z m 0,0"
             id="path5-1-1-1" />
        </g>
      </g>
    </g>
    <g
       transform="translate(156.44557,26.860824)"
       id="g16">
      <g
         fill="#000000"
         fill-opacity="1"
         id="g7-1-1"
         transform="matrix(0.352778,0,0,0.352778,-1.0724,-0.706217)">
        <g
           id="use6-1"
           transform="translate(4.0549998,19.205)">
          <path
             d="m 5.671875,-17.203125 -3.046875,3.375 0.296875,0.296875 2.75,-2.671875 2.75,2.671875 0.296875,-0.296875 z m 0,0"
             id="path12-1" />
        </g>
      </g>
      <g
         fill="#000000"
         fill-opacity="1"
         id="g8-1"
         transform="matrix(0.352778,0,0,0.352778,-1.0724,-0.706217)">
        <g
           id="use7-1"
           transform="translate(1.993,25.747999)">
          <path
             d="m 13.15625,-7.578125 c 0,-2.359375 -1.015625,-3.578125 -3.734375,-3.578125 -2.515625,0 -3.71875,1.765625 -4.0625,2.5 h -0.03125 v -8.546875 L 1.046875,-17 v 1.0625 c 1.53125,0 1.703125,0 1.703125,0.96875 V -1.0625 H 1.046875 V 0 c 0.5625,-0.046875 2.34375,-0.046875 3.046875,-0.046875 0.6875,0 2.5,0 3.0625,0.046875 V -1.0625 H 5.453125 v -5.28125 c 0,-2.671875 1.984375,-3.984375 3.5625,-3.984375 0.921875,0 1.4375,0.59375 1.4375,2.46875 V -1.0625 H 8.75 V 0 c 0.5625,-0.046875 2.359375,-0.046875 3.046875,-0.046875 0.6875,0 2.5,0 3.078125,0.046875 v -1.0625 h -1.71875 z m 0,0"
             id="path13-1" />
        </g>
      </g>
      <g
         fill="#000000"
         fill-opacity="1"
         id="g9"
         transform="matrix(0.352778,0,0,0.352778,-1.0724,-0.706217)">
        <g
           id="use8-1-1"
           transform="translate(17.483999,29.466)">
          <path
             d="m 4.40625,-1.171875 c -0.734375,-0.21875 -2,-0.609375 -2,-2.484375 0,-2.328125 1.859375,-4.859375 3.4375,-5.84375 0.375,0.515625 0.9375,0.515625 1.28125,0.515625 0.46875,0 1.859375,0 1.859375,-0.9375 0,-0.671875 -0.84375,-0.71875 -1.578125,-0.71875 -0.296875,0 -0.640625,0 -1.125,0.171875 -0.03125,-0.484375 0.09375,-1 0.109375,-1.0625 0.03125,-0.140625 0.03125,-0.15625 0.03125,-0.21875 0,-0.34375 -0.34375,-0.359375 -0.359375,-0.359375 -0.5625,0 -0.5625,1.015625 -0.5625,1.3125 0,0.109375 0,0.390625 0.0625,0.65625 C 3.1875,-8.8125 0.828125,-5.8125 0.828125,-2.8125 c 0,0.859375 0.234375,1.75 0.84375,2.421875 C 2.34375,0.328125 2.8125,0.46875 5,1.125 5.734375,1.328125 6.296875,1.5 6.296875,2.15625 c 0,0.0625 -0.03125,0.703125 -0.609375,0.703125 -0.359375,0 -0.890625,-0.09375 -1.46875,-0.4375 C 4.078125,2.359375 4.0625,2.34375 3.953125,2.34375 c -0.1875,0 -0.3125,0.171875 -0.3125,0.3125 0,0.359375 1.21875,0.828125 2.046875,0.828125 1.265625,0 2.09375,-1.28125 2.09375,-2.28125 C 7.78125,-0.15625 6.625,-0.5 5.921875,-0.703125 Z m 2.046875,-8.65625 c 0.34375,-0.1875 0.59375,-0.1875 0.90625,-0.1875 0.5,0 0.5625,0.01563 0.8125,0.109375 -0.109375,0.171875 -0.125,0.21875 -0.40625,0.265625 -0.234375,0.03125 -0.609375,0.03125 -0.640625,0.03125 -0.234375,0 -0.53125,0 -0.671875,-0.21875 z m 0,0"
             id="path14-1" />
        </g>
      </g>
      <g
         fill="#000000"
         fill-opacity="1"
         id="g10-1-1"
         transform="matrix(0.352778,0,0,0.352778,-1.0724,-0.706217)">
        <g
           id="use9-1"
           transform="translate(31.934999,25.747)">
          <path
             d="m 7.578125,6.046875 c 0,-0.03125 0,-0.078125 -0.0625,-0.15625 -1.140625,-1.15625 -4.1875,-4.328125 -4.1875,-12.0625 0,-7.734375 2.984375,-10.875 4.203125,-12.109375 0,-0.03125 0.046875,-0.07813 0.046875,-0.15625 0,-0.07813 -0.0625,-0.125 -0.171875,-0.125 -0.265625,0 -2.375,1.828125 -3.59375,4.5625 -1.234375,2.75 -1.578125,5.421875 -1.578125,7.8125 0,1.78125 0.171875,4.796875 1.65625,8 1.1875,2.578125 3.21875,4.375 3.515625,4.375 0.125,0 0.171875,-0.046875 0.171875,-0.140625 z m 0,0"
             id="path15-1" />
        </g>
      </g>
      <g
         fill="#000000"
         fill-opacity="1"
         id="g11-1"
         transform="matrix(0.352778,0,0,0.352778,-1.0724,-0.706217)">
        <g
           id="use10-1-1"
           transform="translate(40.713001,25.747)">
          <path
             d="m 12.265625,-9.390625 c 0.15625,-0.34375 0.25,-0.546875 1.828125,-0.546875 V -11 c -0.828125,0.04687 -0.9375,0.04687 -1.953125,0.04687 -0.671875,0 -0.71875,0 -2.125,-0.04687 v 1.0625 c 0.01563,0 1.1875,0 1.1875,0.328125 0,0.0625 -0.07813,0.21875 -0.09375,0.296875 L 8.203125,-3.078125 5.03125,-9.9375 H 6.390625 V -11 c -0.59375,0.04687 -2.28125,0.04687 -2.96875,0.04687 -0.71875,0 -2.1875,0 -2.828125,-0.04687 v 1.0625 H 2.1875 L 6.765625,0 C 6.640625,0.296875 6.296875,1.015625 6.171875,1.3125 5.65625,2.421875 4.859375,4.140625 3.125,4.140625 c -0.109375,0 -0.40625,0 -0.671875,-0.15625 C 2.5,3.96875 3.25,3.671875 3.25,2.71875 3.25,1.90625 2.65625,1.390625 1.90625,1.390625 1.140625,1.390625 0.546875,1.90625 0.546875,2.75 c 0,1.171875 1.09375,2.203125 2.578125,2.203125 2.03125,0 3.375,-1.828125 3.859375,-2.921875 z m 0,0"
             id="path16" />
        </g>
      </g>
      <g
         fill="#000000"
         fill-opacity="1"
         id="g12-1"
         transform="matrix(0.352778,0,0,0.352778,-1.0724,-0.706217)">
        <g
           id="use11"
           transform="translate(55.817001,25.747)">
          <path
             d="m 6.515625,-6.171875 c 0,-1.78125 -0.171875,-4.8125 -1.65625,-8 C 3.671875,-16.75 1.640625,-18.5625 1.34375,-18.5625 c -0.078125,0 -0.171875,0.03125 -0.171875,0.15625 0,0.04687 0.015625,0.0625 0.046875,0.125 1.1875,1.234375 4.203125,4.375 4.203125,12.09375 0,7.71875 -3,10.875 -4.203125,12.109375 C 1.1875,5.96875 1.171875,6 1.171875,6.046875 c 0,0.125 0.09375,0.140625 0.171875,0.140625 0.265625,0 2.375,-1.828125 3.59375,-4.546875 1.234375,-2.75 1.578125,-5.4375 1.578125,-7.8125 z m 0,0"
             id="path17" />
        </g>
      </g>
    </g>
    <g
       id="g20"
       transform="translate(-0.99999671,0.99999995)">
      <path
         style="fill:none;fill-opacity:1;stroke:#000000;stroke-width:0.534001;stroke-opacity:1"
         d="m 143,35.999999 h 2.13898"
         id="path18" />
      <path
         style="fill:none;fill-opacity:1;stroke:#000000;stroke-width:0.534001;stroke-opacity:1"
         d="M 144,34.999998 V 37"
         id="path19" />
    </g>
    <path
       style="fill:none;fill-opacity:1;stroke:#000000;stroke-width:0.534001;stroke-opacity:1"
       d="m 135.02303,29.999999 h 1.95395"
       id="path20" />
    <g
       transform="translate(142.15021,53.550234)"
       id="g29">
      <g
         fill="#000000"
         fill-opacity="1"
         id="g12-1-1-1"
         transform="matrix(0.352778,0,0,0.352778,-0.973182,-0.520832)">
        <g
           id="use11-1-1"
           transform="translate(1.993,30.605)">
          <path
             d="m 4.453125,-2.296875 c 1.34375,-2.09375 1.765625,-3.671875 2.09375,-4.984375 0.859375,-3.421875 1.796875,-6.390625 3.34375,-8.109375 0.296875,-0.328125 0.5,-0.546875 1.28125,-0.546875 1.71875,0 1.765625,1.71875 1.765625,2.0625 0,0.4375 -0.125,0.796875 -0.125,0.921875 0,0.171875 0.140625,0.171875 0.171875,0.171875 0.390625,0 1.0625,-0.28125 1.6875,-0.71875 0.4375,-0.359375 0.671875,-0.59375 0.671875,-1.609375 0,-1.34375 -0.703125,-2.359375 -2.078125,-2.359375 -0.796875,0 -2.984375,0.203125 -5.40625,2.65625 -1.984375,2.03125 -3.15625,6.484375 -3.625,8.34375 -0.4375,1.703125 -0.640625,2.484375 -1.390625,3.96875 -0.171875,0.296875 -0.8125,1.390625 -1.15625,1.703125 -0.671875,0.625 -0.921875,1.0625 -0.921875,1.1875 0,0.0625 0.046875,0.15625 0.21875,0.15625 0.109375,0 0.625,-0.09375 1.265625,-0.515625 0.421875,-0.25 0.46875,-0.296875 1.046875,-0.90625 1.234375,0.03125 2.109375,0.25 3.671875,0.703125 1.265625,0.34375 2.515625,0.71875 3.78125,0.71875 2.015625,0 4.046875,-1.515625 4.84375,-2.609375 0.484375,-0.65625 0.640625,-1.28125 0.640625,-1.359375 0,-0.171875 -0.15625,-0.171875 -0.171875,-0.171875 -0.40625,0 -1,0.265625 -1.421875,0.578125 -0.65625,0.40625 -0.71875,0.5625 -0.859375,0.984375 -0.125,0.390625 -0.28125,0.59375 -0.375,0.75 -0.203125,0.296875 -0.21875,0.296875 -0.59375,0.296875 -1.1875,0 -2.421875,-0.375 -4.0625,-0.828125 C 8.046875,-2 6.6875,-2.40625 5.453125,-2.40625 c -0.328125,0 -0.671875,0.03125 -1,0.109375 z m 0,0"
             id="path28-1" />
        </g>
      </g>
      <g
         fill="#000000"
         fill-opacity="1"
         id="g13-1-1"
         transform="matrix(0.352778,0,0,0.352778,-0.973182,-0.520832)">
        <g
           id="use12-1"
           transform="translate(25.974001,30.605)">
          <path
             d="m 15.9375,-7.953125 c 0.375,0 0.734375,0 0.734375,-0.421875 0,-0.453125 -0.421875,-0.453125 -0.84375,-0.453125 H 1.984375 c -0.421875,0 -0.84375,0 -0.84375,0.453125 0,0.421875 0.375,0.421875 0.75,0.421875 z m -0.109375,4.40625 c 0.421875,0 0.84375,0 0.84375,-0.4375 0,-0.421875 -0.359375,-0.421875 -0.734375,-0.421875 H 1.890625 c -0.375,0 -0.75,0 -0.75,0.421875 0,0.4375 0.421875,0.4375 0.84375,0.4375 z m 0,0"
             id="path29-1" />
        </g>
      </g>
      <g
         fill="#000000"
         fill-opacity="1"
         id="g14-1-1"
         transform="matrix(0.352778,0,0,0.352778,-0.973182,-0.520832)">
        <g
           id="use13-1"
           transform="translate(50.702,1.992)">
          <path
             d="m 3.609375,14.546875 c 0,0.390625 0,0.921875 0.53125,0.921875 0.546875,0 0.546875,-0.5 0.546875,-0.921875 V 0.40625 c 0,-0.40625 0,-0.921875 -0.53125,-0.921875 -0.546875,0 -0.546875,0.484375 -0.546875,0.921875 z m 5.53125,0 c 0,0.390625 0,0.921875 0.515625,0.921875 0.5625,0 0.5625,-0.5 0.5625,-0.921875 V 0.40625 c 0,-0.40625 0,-0.921875 -0.53125,-0.921875 -0.546875,0 -0.546875,0.484375 -0.546875,0.921875 z m 0,0"
             id="path30-1" />
        </g>
      </g>
      <g
         fill="#000000"
         fill-opacity="1"
         id="g15-1-1"
         transform="matrix(0.352778,0,0,0.352778,-0.973182,-0.520832)">
        <g
           id="use14-1"
           transform="translate(50.702,16.936001)">
          <path
             d="m 3.609375,14.546875 c 0,0.390625 0,0.921875 0.53125,0.921875 0.546875,0 0.546875,-0.5 0.546875,-0.921875 V 0.40625 c 0,-0.40625 0,-0.921875 -0.53125,-0.921875 -0.546875,0 -0.546875,0.484375 -0.546875,0.921875 z m 5.53125,0 c 0,0.390625 0,0.921875 0.515625,0.921875 0.5625,0 0.5625,-0.5 0.5625,-0.921875 V 0.40625 c 0,-0.40625 0,-0.921875 -0.53125,-0.921875 -0.546875,0 -0.546875,0.484375 -0.546875,0.921875 z m 0,0"
             id="path31-1" />
        </g>
      </g>
      <g
         fill="#000000"
         fill-opacity="1"
         id="g16-1-1"
         transform="matrix(0.352778,0,0,0.352778,-0.973182,-0.520832)">
        <g
           id="use15-1"
           transform="translate(50.702,31.881001)">
          <path
             d="m 3.609375,14.546875 c 0,0.390625 0,0.921875 0.53125,0.921875 0.546875,0 0.546875,-0.5 0.546875,-0.921875 V 0.40625 c 0,-0.40625 0,-0.921875 -0.53125,-0.921875 -0.546875,0 -0.546875,0.484375 -0.546875,0.921875 z m 5.53125,0 c 0,0.390625 0,0.921875 0.515625,0.921875 0.5625,0 0.5625,-0.5 0.5625,-0.921875 V 0.40625 c 0,-0.40625 0,-0.921875 -0.53125,-0.921875 -0.546875,0 -0.546875,0.484375 -0.546875,0.921875 z m 0,0"
             id="path32-1" />
        </g>
      </g>
      <g
         fill="#000000"
         fill-opacity="1"
         id="g17-1"
         transform="matrix(0.352778,0,0,0.352778,-0.973182,-0.520832)">
        <g
           id="use16-1"
           transform="translate(66.600998,24.063)">
          <path
             d="m 5.671875,-17.203125 -3.046875,3.375 0.296875,0.296875 2.75,-2.671875 2.75,2.671875 0.296875,-0.296875 z m 0,0"
             id="path33-1" />
        </g>
      </g>
      <g
         fill="#000000"
         fill-opacity="1"
         id="g18-1"
         transform="matrix(0.352778,0,0,0.352778,-0.973182,-0.520832)">
        <g
           id="use17-1"
           transform="translate(64.539001,30.605)">
          <path
             d="m 13.15625,-7.578125 c 0,-2.359375 -1.015625,-3.578125 -3.734375,-3.578125 -2.515625,0 -3.71875,1.765625 -4.0625,2.5 h -0.03125 v -8.546875 L 1.046875,-17 v 1.0625 c 1.53125,0 1.703125,0 1.703125,0.96875 V -1.0625 H 1.046875 V 0 c 0.5625,-0.046875 2.34375,-0.046875 3.046875,-0.046875 0.6875,0 2.5,0 3.0625,0.046875 V -1.0625 H 5.453125 v -5.28125 c 0,-2.671875 1.984375,-3.984375 3.5625,-3.984375 0.921875,0 1.4375,0.59375 1.4375,2.46875 V -1.0625 H 8.75 V 0 c 0.5625,-0.046875 2.359375,-0.046875 3.046875,-0.046875 0.6875,0 2.5,0 3.078125,0.046875 v -1.0625 h -1.71875 z m 0,0"
             id="path34-1" />
        </g>
      </g>
      <g
         fill="#000000"
         fill-opacity="1"
         id="g19-1"
         transform="matrix(0.352778,0,0,0.352778,-0.973182,-0.520832)">
        <g
           id="use18-1"
           transform="translate(80.030998,34.323002)">
          <path
             d="m 4.40625,-1.171875 c -0.734375,-0.21875 -2,-0.609375 -2,-2.484375 0,-2.328125 1.859375,-4.859375 3.4375,-5.84375 0.375,0.515625 0.9375,0.515625 1.28125,0.515625 0.46875,0 1.859375,0 1.859375,-0.9375 0,-0.671875 -0.84375,-0.71875 -1.578125,-0.71875 -0.296875,0 -0.640625,0 -1.125,0.171875 -0.03125,-0.484375 0.09375,-1 0.109375,-1.0625 0.03125,-0.140625 0.03125,-0.15625 0.03125,-0.21875 0,-0.34375 -0.34375,-0.359375 -0.359375,-0.359375 -0.5625,0 -0.5625,1.015625 -0.5625,1.3125 0,0.109375 0,0.390625 0.0625,0.65625 C 3.1875,-8.8125 0.828125,-5.8125 0.828125,-2.8125 c 0,0.859375 0.234375,1.75 0.84375,2.421875 C 2.34375,0.328125 2.8125,0.46875 5,1.125 5.734375,1.328125 6.296875,1.5 6.296875,2.15625 c 0,0.0625 -0.03125,0.703125 -0.609375,0.703125 -0.359375,0 -0.890625,-0.09375 -1.46875,-0.4375 C 4.078125,2.359375 4.0625,2.34375 3.953125,2.34375 c -0.1875,0 -0.3125,0.171875 -0.3125,0.3125 0,0.359375 1.21875,0.828125 2.046875,0.828125 1.265625,0 2.09375,-1.28125 2.09375,-2.28125 C 7.78125,-0.15625 6.625,-0.5 5.921875,-0.703125 Z m 2.046875,-8.65625 c 0.34375,-0.1875 0.59375,-0.1875 0.90625,-0.1875 0.5,0 0.5625,0.01563 0.8125,0.109375 -0.109375,0.171875 -0.125,0.21875 -0.40625,0.265625 -0.234375,0.03125 -0.609375,0.03125 -0.640625,0.03125 -0.234375,0 -0.53125,0 -0.671875,-0.21875 z m 0,0"
             id="path35-1" />
        </g>
      </g>
      <g
         fill="#000000"
         fill-opacity="1"
         id="g20-1-1"
         transform="matrix(0.352778,0,0,0.352778,-0.973182,-0.520832)">
        <g
           id="use19-1"
           transform="translate(94.481003,30.604)">
          <path
             d="m 7.578125,6.046875 c 0,-0.03125 0,-0.078125 -0.0625,-0.15625 -1.140625,-1.15625 -4.1875,-4.328125 -4.1875,-12.0625 0,-7.734375 2.984375,-10.875 4.203125,-12.109375 0,-0.03125 0.046875,-0.07813 0.046875,-0.15625 0,-0.07813 -0.0625,-0.125 -0.171875,-0.125 -0.265625,0 -2.375,1.828125 -3.59375,4.5625 -1.234375,2.75 -1.578125,5.421875 -1.578125,7.8125 0,1.78125 0.171875,4.796875 1.65625,8 1.1875,2.578125 3.21875,4.375 3.515625,4.375 0.125,0 0.171875,-0.046875 0.171875,-0.140625 z m 0,0"
             id="path36-1" />
        </g>
      </g>
      <g
         fill="#000000"
         fill-opacity="1"
         id="g21-1"
         transform="matrix(0.352778,0,0,0.352778,-0.973182,-0.520832)">
        <g
           id="use20-1"
           transform="translate(103.259,30.605)">
          <path
             d="m 12.265625,-9.390625 c 0.15625,-0.34375 0.25,-0.546875 1.828125,-0.546875 V -11 c -0.828125,0.04687 -0.9375,0.04687 -1.953125,0.04687 -0.671875,0 -0.71875,0 -2.125,-0.04687 v 1.0625 c 0.01563,0 1.1875,0 1.1875,0.328125 0,0.0625 -0.07813,0.21875 -0.09375,0.296875 L 8.203125,-3.078125 5.03125,-9.9375 H 6.390625 V -11 c -0.59375,0.04687 -2.28125,0.04687 -2.96875,0.04687 -0.71875,0 -2.1875,0 -2.828125,-0.04687 v 1.0625 H 2.1875 L 6.765625,0 C 6.640625,0.296875 6.296875,1.015625 6.171875,1.3125 5.65625,2.421875 4.859375,4.140625 3.125,4.140625 c -0.109375,0 -0.40625,0 -0.671875,-0.15625 C 2.5,3.96875 3.25,3.671875 3.25,2.71875 3.25,1.90625 2.65625,1.390625 1.90625,1.390625 1.140625,1.390625 0.546875,1.90625 0.546875,2.75 c 0,1.171875 1.09375,2.203125 2.578125,2.203125 2.03125,0 3.375,-1.828125 3.859375,-2.921875 z m 0,0"
             id="path37-1" />
        </g>
      </g>
      <g
         fill="#000000"
         fill-opacity="1"
         id="g22-1"
         transform="matrix(0.352778,0,0,0.352778,-0.973182,-0.520832)">
        <g
           id="use21-1"
           transform="translate(118.364,30.605)">
          <path
             d="m 6.515625,-6.171875 c 0,-1.78125 -0.171875,-4.8125 -1.65625,-8 C 3.671875,-16.75 1.640625,-18.5625 1.34375,-18.5625 c -0.078125,0 -0.171875,0.03125 -0.171875,0.15625 0,0.04687 0.015625,0.0625 0.046875,0.125 1.1875,1.234375 4.203125,4.375 4.203125,12.09375 0,7.71875 -3,10.875 -4.203125,12.109375 C 1.1875,5.96875 1.171875,6 1.171875,6.046875 c 0,0.125 0.09375,0.140625 0.171875,0.140625 0.265625,0 2.375,-1.828125 3.59375,-4.546875 1.234375,-2.75 1.578125,-5.4375 1.578125,-7.8125 z m 0,0"
             id="path38-1" />
        </g>
      </g>
      <g
         fill="#000000"
         fill-opacity="1"
         id="g23-1"
         transform="matrix(0.352778,0,0,0.352778,-0.973182,-0.520832)">
        <g
           id="use22-1"
           transform="translate(132.64999,30.605)">
          <path
             d="m 16.328125,-5.703125 c 0.421875,0 0.875,0 0.875,-0.484375 0,-0.5 -0.453125,-0.5 -0.875,-0.5 H 2.921875 c -0.421875,0 -0.859375,0 -0.859375,0.5 0,0.484375 0.4375,0.484375 0.859375,0.484375 z m 0,0"
             id="path39" />
        </g>
      </g>
      <g
         fill="#000000"
         fill-opacity="1"
         id="g24-1"
         transform="matrix(0.352778,0,0,0.352778,-0.973182,-0.520832)">
        <g
           id="use23-1"
           transform="translate(157.437,30.605)">
          <path
             d="m 12.265625,-9.390625 c 0.15625,-0.34375 0.25,-0.546875 1.828125,-0.546875 V -11 c -0.828125,0.04687 -0.9375,0.04687 -1.953125,0.04687 -0.671875,0 -0.71875,0 -2.125,-0.04687 v 1.0625 c 0.01563,0 1.1875,0 1.1875,0.328125 0,0.0625 -0.07813,0.21875 -0.09375,0.296875 L 8.203125,-3.078125 5.03125,-9.9375 H 6.390625 V -11 c -0.59375,0.04687 -2.28125,0.04687 -2.96875,0.04687 -0.71875,0 -2.1875,0 -2.828125,-0.04687 v 1.0625 H 2.1875 L 6.765625,0 C 6.640625,0.296875 6.296875,1.015625 6.171875,1.3125 5.65625,2.421875 4.859375,4.140625 3.125,4.140625 c -0.109375,0 -0.40625,0 -0.671875,-0.15625 C 2.5,3.96875 3.25,3.671875 3.25,2.71875 3.25,1.90625 2.65625,1.390625 1.90625,1.390625 1.140625,1.390625 0.546875,1.90625 0.546875,2.75 c 0,1.171875 1.09375,2.203125 2.578125,2.203125 2.03125,0 3.375,-1.828125 3.859375,-2.921875 z m 0,0"
             id="path40" />
        </g>
      </g>
      <g
         fill="#000000"
         fill-opacity="1"
         id="g25-1"
         transform="matrix(0.352778,0,0,0.352778,-0.973182,-0.520832)">
        <g
           id="use24"
           transform="translate(172.541,1.992)">
          <path
             d="m 3.609375,14.546875 c 0,0.390625 0,0.921875 0.53125,0.921875 0.546875,0 0.546875,-0.5 0.546875,-0.921875 V 0.40625 c 0,-0.40625 0,-0.921875 -0.53125,-0.921875 -0.546875,0 -0.546875,0.484375 -0.546875,0.921875 z m 5.53125,0 c 0,0.390625 0,0.921875 0.515625,0.921875 0.5625,0 0.5625,-0.5 0.5625,-0.921875 V 0.40625 c 0,-0.40625 0,-0.921875 -0.53125,-0.921875 -0.546875,0 -0.546875,0.484375 -0.546875,0.921875 z m 0,0"
             id="path41" />
        </g>
      </g>
      <g
         fill="#000000"
         fill-opacity="1"
         id="g26"
         transform="matrix(0.352778,0,0,0.352778,-0.973182,-0.520832)">
        <g
           id="use25"
           transform="translate(172.541,16.936001)">
          <path
             d="m 3.609375,14.546875 c 0,0.390625 0,0.921875 0.53125,0.921875 0.546875,0 0.546875,-0.5 0.546875,-0.921875 V 0.40625 c 0,-0.40625 0,-0.921875 -0.53125,-0.921875 -0.546875,0 -0.546875,0.484375 -0.546875,0.921875 z m 5.53125,0 c 0,0.390625 0,0.921875 0.515625,0.921875 0.5625,0 0.5625,-0.5 0.5625,-0.921875 V 0.40625 c 0,-0.40625 0,-0.921875 -0.53125,-0.921875 -0.546875,0 -0.546875,0.484375 -0.546875,0.921875 z m 0,0"
             id="path42" />
        </g>
      </g>
      <g
         fill="#000000"
         fill-opacity="1"
         id="g27"
         transform="matrix(0.352778,0,0,0.352778,-0.973182,-0.520832)">
        <g
           id="use26"
           transform="translate(172.541,31.881001)">
          <path
             d="m 3.609375,14.546875 c 0,0.390625 0,0.921875 0.53125,0.921875 0.546875,0 0.546875,-0.5 0.546875,-0.921875 V 0.40625 c 0,-0.40625 0,-0.921875 -0.53125,-0.921875 -0.546875,0 -0.546875,0.484375 -0.546875,0.921875 z m 5.53125,0 c 0,0.390625 0,0.921875 0.515625,0.921875 0.5625,0 0.5625,-0.5 0.5625,-0.921875 V 0.40625 c 0,-0.40625 0,-0.921875 -0.53125,-0.921875 -0.546875,0 -0.546875,0.484375 -0.546875,0.921875 z m 0,0"
             id="path43" />
        </g>
      </g>
      <g
         fill="#000000"
         fill-opacity="1"
         id="g28"
         transform="matrix(0.352778,0,0,0.352778,-0.973182,-0.520832)">
        <g
           id="use27"
           transform="translate(186.379,47.685001)">
          <path
             d="M 7.1875,-2.671875 H 6.875 c -0.171875,1.21875 -0.3125,1.4375 -0.390625,1.53125 C 6.40625,-1 5.171875,-1 4.921875,-1 H 1.625 c 0.609375,-0.671875 1.8125,-1.890625 3.28125,-3.3125 1.046875,-0.984375 2.28125,-2.15625 2.28125,-3.859375 0,-2.03125 -1.625,-3.203125 -3.4375,-3.203125 -1.890625,0 -3.046875,1.65625 -3.046875,3.21875 0,0.671875 0.5,0.75 0.703125,0.75 0.171875,0 0.6875,-0.09375 0.6875,-0.703125 0,-0.53125 -0.4375,-0.6875 -0.6875,-0.6875 -0.09375,0 -0.203125,0.015625 -0.265625,0.046875 0.328125,-1.453125 1.328125,-2.1875 2.375,-2.1875 1.5,0 2.46875,1.1875 2.46875,2.765625 0,1.484375 -0.875,2.78125 -1.859375,3.90625 l -3.421875,3.875 V 0 h 6.0625 z m 0,0"
             id="path44" />
        </g>
      </g>
    </g>
    <g
       transform="translate(30.399178,26.274694)"
       id="g30">
      <g
         fill="#000000"
         fill-opacity="1"
         id="g3-1-1-1"
         transform="matrix(0.352778,0,0,0.352778,-1.01177,-0.653609)">
        <g
           id="use2-1-1-1"
           transform="translate(1.993,13.009)">
          <path
             d="m 5.15625,-5.578125 c 0,-0.8125 0.171875,-4.75 3.078125,-4.75 -0.359375,0.265625 -0.53125,0.6875 -0.53125,1.140625 0,1.015625 0.828125,1.4375 1.4375,1.4375 0.625,0 1.4375,-0.421875 1.4375,-1.4375 0,-1.265625 -1.28125,-1.96875 -2.46875,-1.96875 -1.96875,0 -2.8125,1.71875 -3.15625,2.75 H 4.9375 v -2.75 l -4.0625,0.203125 v 1.0625 c 1.53125,0 1.703125,0 1.703125,0.96875 V -1.0625 H 0.875 V 0 c 0.5625,-0.046875 2.421875,-0.046875 3.109375,-0.046875 0.71875,0 2.734375,0 3.328125,0.046875 V -1.0625 H 5.15625 Z m 0,0"
             id="path4-1-1-1-1" />
        </g>
      </g>
      <g
         fill="#000000"
         fill-opacity="1"
         id="g4-1-1-1-1"
         transform="matrix(0.352778,0,0,0.352778,-1.01177,-0.653609)">
        <g
           id="use3-1-1-1-1-1"
           transform="translate(13.382,16.726999)">
          <path
             d="m 7.234375,-5.53125 c 0,-1.046875 -0.015625,-2.84375 -0.75,-4.21875 -0.625,-1.203125 -1.640625,-1.625 -2.546875,-1.625 -0.828125,0 -1.875,0.375 -2.53125,1.609375 -0.6875,1.296875 -0.75,2.890625 -0.75,4.234375 0,0.984375 0.015625,2.484375 0.546875,3.796875 0.75,1.765625 2.0625,2.015625 2.734375,2.015625 0.796875,0 2,-0.328125 2.703125,-1.96875 0.515625,-1.1875 0.59375,-2.578125 0.59375,-3.84375 z M 3.9375,0 C 2.84375,0 2.1875,-0.953125 1.953125,-2.25 1.75,-3.265625 1.75,-4.75 1.75,-5.71875 c 0,-1.328125 0,-2.421875 0.234375,-3.46875 0.328125,-1.46875 1.28125,-1.921875 1.953125,-1.921875 0.71875,0 1.625,0.46875 1.953125,1.875 C 6.109375,-8.25 6.125,-7.09375 6.125,-5.71875 c 0,1.125 0,2.5 -0.203125,3.515625 C 5.5625,-0.328125 4.546875,0 3.9375,0 Z m 0,0"
             id="path5-1-1-1-1" />
        </g>
      </g>
    </g>
    <rect
       style="fill:#228b22;fill-opacity:0.502013;stroke:#228b22;stroke-width:0.768255;stroke-linecap:butt;stroke-linejoin:round;stroke-dasharray:none;stroke-opacity:1"
       id="rect77-0-0"
       width="49.587742"
       height="40.355324"
       x="-37.728817"
       y="36.689957"
       ry="2.7074409" />
    <g
       id="text9-3-7-2-5"
       style="font-size:7.96513px;font-family:Sans;-inkscape-font-specification:'Sans, Normal';white-space:pre;inline-size:45.5633;stroke:#000000;stroke-width:0.195303;stroke-linejoin:round"
       aria-label="mpNet&#10;- Unsupervised&#10;- Online training&#10;- SNR-adaptive">
      <path
         style="font-weight:600;font-size:7.05556px;font-family:FreeSans;-inkscape-font-specification:'FreeSans, Semi-Bold'"
         d="m -33.246467,40.396991 h 0.980723 v 0.472722 q 0.246945,-0.289278 0.479778,-0.409222 0.239889,-0.127 0.564445,-0.127 0.747889,0 1.037167,0.564444 0.423334,-0.564444 1.114779,-0.564444 0.5715,0 0.889,0.310444 0.324556,0.310445 0.324556,0.867834 v 2.695224 h -0.987778 v -2.540002 q 0,-0.225777 -0.148167,-0.359833 -0.141111,-0.134056 -0.388056,-0.134056 -0.3175,0 -0.500945,0.197556 -0.176389,0.197556 -0.176389,0.550334 v 2.286001 h -0.987778 v -2.540002 q 0,-0.225777 -0.148167,-0.359833 -0.141111,-0.134056 -0.388056,-0.134056 -0.3175,0 -0.500944,0.197556 -0.176389,0.197556 -0.176389,0.550334 v 2.286001 h -0.987779 z m 8.353777,-0.0635 q 0.719667,0 1.157112,0.578556 0.437445,0.578555 0.437445,1.446389 0,0.867834 -0.458612,1.44639 -0.451556,0.571501 -1.135945,0.571501 -0.705556,0 -1.058334,-0.62089 v 1.989668 h -0.987778 v -5.348114 h 0.987778 v 0.564444 q 0.352778,-0.627944 1.058334,-0.627944 z m 0.373945,1.164167 q -0.225778,-0.338667 -0.599723,-0.338667 -0.373945,0 -0.606778,0.331611 -0.225778,0.331612 -0.225778,0.867834 0,0.536223 0.225778,0.867834 0.232833,0.324556 0.606778,0.324556 0.366889,0 0.599723,-0.331611 0.232833,-0.331612 0.232833,-0.846668 0,-0.543278 -0.232833,-0.874889 z m 5.192894,2.709335 -2.067279,-3.556002 v 3.556002 h -1.058334 V 39.06349 h 1.086556 l 2.039057,3.499558 V 39.06349 h 1.058334 v 5.143503 z m 3.668894,-3.873502 q 0.246944,0 0.479778,0.05644 0.232833,0.05644 0.472722,0.204611 0.246945,0.148167 0.423334,0.381001 0.183445,0.225777 0.296333,0.606778 0.112889,0.373944 0.112889,0.860778 0,0.08467 -0.0071,0.169334 h -2.554113 q 0.0071,0.218722 0.03528,0.381 0.03528,0.155222 0.112889,0.310444 0.08467,0.148167 0.239889,0.232834 0.162278,0.07761 0.402167,0.07761 0.564445,0 0.754945,-0.479778 h 0.973667 q -0.162278,0.564445 -0.642056,0.903112 -0.479778,0.331611 -1.121834,0.331611 -0.811389,0 -1.277056,-0.522111 -0.465667,-0.529167 -0.465667,-1.44639 0,-0.959556 0.472722,-1.50989 0.472723,-0.557389 1.291168,-0.557389 z m 0.754945,1.622778 q -0.03528,-0.416278 -0.232834,-0.642056 -0.1905,-0.225777 -0.536222,-0.225777 -0.649112,0 -0.74789,0.867833 z m 3.485447,-1.481667 v 0.656167 h -0.550334 v 2.074335 q 0,0.254 0.0635,0.338666 0.0635,0.07761 0.261056,0.07761 0.07761,0 0.225778,-0.02117 v 0.691445 q -0.239889,0.07761 -0.571501,0.07761 -0.966611,0 -0.966611,-0.896056 v -2.342446 h -0.486834 v -0.656167 h 0.486834 V 39.45154 h 0.987778 v 1.023056 z"
         id="path9" />
      <path
         style="font-size:4.93889px;font-family:FreeSans;-inkscape-font-specification:'FreeSans, Normal';stroke:none"
         d="m -32.287617,52.622474 v 0.3556 h -1.190272 v -0.3556 z m 4.163485,-2.059517 h 0.459317 v 2.528712 q 0,0.543278 -0.380294,0.864305 -0.375356,0.321028 -1.007534,0.321028 -0.642056,0 -1.012472,-0.316089 -0.365478,-0.321028 -0.365478,-0.869244 v -2.528712 h 0.459317 v 2.528712 q 0,0.390172 0.246944,0.587728 0.251884,0.192616 0.671689,0.192616 0.434622,0 0.681567,-0.207433 0.246944,-0.207434 0.246944,-0.572911 z m 1.150759,1.012472 h 0.380294 v 0.434623 q 0.172861,-0.271639 0.370417,-0.390173 0.202494,-0.118533 0.48895,-0.118533 0.375356,0 0.597606,0.192617 0.22225,0.192616 0.22225,0.513644 v 1.955801 h -0.409928 v -1.792817 q 0,-0.232128 -0.143228,-0.370417 -0.143228,-0.138289 -0.390172,-0.138289 -0.316089,0 -0.508706,0.242006 -0.192617,0.237066 -0.192617,0.632178 v 1.427339 h -0.414866 z m 2.958398,1.817512 q 0.02963,0.232128 0.158045,0.370417 0.13335,0.13335 0.474133,0.13335 0.271639,0 0.434622,-0.108656 0.167923,-0.113594 0.167923,-0.296333 0,-0.143228 -0.09384,-0.227189 -0.09384,-0.08396 -0.306211,-0.13335 l -0.385234,-0.09384 q -0.459317,-0.108656 -0.642056,-0.271639 -0.1778,-0.167922 -0.1778,-0.474134 0,-0.360539 0.271639,-0.572911 0.271639,-0.217311 0.721078,-0.217311 0.449439,0 0.691445,0.207433 0.242006,0.207434 0.246944,0.587728 h -0.434622 q -0.01482,-0.414866 -0.518583,-0.414866 -0.251884,0 -0.40005,0.108655 -0.148167,0.103717 -0.148167,0.281517 0,0.138289 0.113594,0.227189 0.113595,0.08396 0.365478,0.143228 l 0.395111,0.09384 q 0.385234,0.09384 0.558095,0.2667 0.172861,0.167922 0.172861,0.454377 0,0.375356 -0.291394,0.597606 -0.286456,0.22225 -0.775406,0.22225 -1.002595,0 -1.032228,-0.884061 z m 4.188179,0.770467 h -0.370417 v -0.360539 q -0.182739,0.256822 -0.380295,0.365478 -0.197555,0.108655 -0.484011,0.108655 -0.375355,0 -0.602544,-0.192617 -0.22225,-0.192616 -0.22225,-0.513644 v -1.995312 h 0.409928 v 1.832329 q 0,0.232127 0.143227,0.370416 0.143228,0.138289 0.390173,0.138289 0.321027,0 0.513644,-0.237066 0.192617,-0.242006 0.192617,-0.637117 v -1.466851 h 0.409928 z m 0.592669,1.076678 v -3.664657 h 0.380295 v 0.390173 q 0.291394,-0.464256 0.824794,-0.464256 0.513645,0 0.809978,0.380295 0.301272,0.380294 0.301272,1.032228 0,0.617361 -0.306211,0.992716 -0.301272,0.370417 -0.8001,0.370417 -0.479072,0 -0.795161,-0.385233 v 1.348317 z m 1.135945,-3.353507 q -0.325967,0 -0.523523,0.276578 -0.197555,0.271639 -0.197555,0.726017 0,0.454378 0.197555,0.730956 0.197556,0.271639 0.523523,0.271639 0.335844,0 0.543278,-0.271639 0.207433,-0.276578 0.207433,-0.716139 0,-0.464256 -0.207433,-0.740834 -0.202495,-0.276578 -0.543278,-0.276578 z m 3.812823,1.121128 h -1.906412 q 0.0099,0.404989 0.207434,0.646995 0.202494,0.242006 0.553155,0.242006 0.503767,0 0.676628,-0.518584 h 0.414867 q -0.07902,0.424745 -0.370417,0.661811 -0.291394,0.237067 -0.735894,0.237067 -0.543278,0 -0.859367,-0.365478 -0.316089,-0.370416 -0.316089,-1.007533 0,-0.637117 0.321028,-1.017412 0.325966,-0.385233 0.864305,-0.385233 1.150762,0 1.150762,1.506361 z m -1.896534,-0.335844 h 1.456973 q 0,-0.335845 -0.202495,-0.563033 -0.202494,-0.227189 -0.513644,-0.227189 -0.311151,0 -0.513645,0.217311 -0.202495,0.212372 -0.227189,0.572911 z m 3.585639,-0.735895 q -0.414867,0.0099 -0.6223,0.192617 -0.207434,0.182739 -0.207434,0.691445 v 1.343378 h -0.414867 v -2.587979 h 0.380295 v 0.469195 q 0.1778,-0.291395 0.340783,-0.414867 0.167923,-0.128411 0.365478,-0.128411 0.05433,0 0.158045,0.01482 z m 1.506365,2.22744 h -0.449439 l -0.908756,-2.587979 h 0.464256 l 0.691444,2.099029 0.730956,-2.099029 h 0.464256 z m 1.7829415,-2.587979 v 2.587979 h -0.4099279 v -2.587979 z m 0,-1.012472 v 0.518583 h -0.4148668 v -0.518583 z m 0.9581447,2.829984 q 0.029633,0.232128 0.1580445,0.370417 0.13335,0.13335 0.4741334,0.13335 0.271639,0 0.4346224,-0.108656 0.1679222,-0.113594 0.1679222,-0.296333 0,-0.143228 -0.093839,-0.227189 -0.093839,-0.08396 -0.3062112,-0.13335 l -0.3852334,-0.09384 q -0.4593168,-0.108656 -0.6420557,-0.271639 -0.1778,-0.167922 -0.1778,-0.474134 0,-0.360539 0.2716389,-0.572911 0.271639,-0.217311 0.721078,-0.217311 0.449439,0 0.6914446,0.207433 0.2420056,0.207434 0.2469445,0.587728 H -7.222736 q -0.014817,-0.414866 -0.5185834,-0.414866 -0.2518834,0 -0.4000501,0.108655 -0.1481667,0.103717 -0.1481667,0.281517 0,0.138289 0.1135945,0.227189 0.1135944,0.08396 0.3654778,0.143228 l 0.3951112,0.09384 q 0.3852335,0.09384 0.5580946,0.2667 0.1728611,0.167922 0.1728611,0.454377 0,0.375356 -0.2913945,0.597606 -0.2864556,0.22225 -0.7754057,0.22225 -1.0025947,0 -1.032228,-0.884061 z m 4.3165907,-0.385234 h -1.9064115 q 0.00988,0.404989 0.2074333,0.646995 0.2024945,0.242006 0.5531557,0.242006 0.5037668,0 0.6766279,-0.518584 h 0.4148668 q -0.079022,0.424745 -0.3704167,0.661811 -0.2913946,0.237067 -0.7358947,0.237067 -0.5432779,0 -0.8593668,-0.365478 -0.316089,-0.370416 -0.316089,-1.007533 0,-0.637117 0.3210279,-1.017412 0.3259667,-0.385233 0.8643057,-0.385233 1.1507614,0 1.1507614,1.506361 z m -1.8965338,-0.335844 h 1.4569726 q 0,-0.335845 -0.2024945,-0.563033 -0.2024945,-0.227189 -0.5136446,-0.227189 -0.31115,0 -0.5136445,0.217311 -0.2024945,0.212372 -0.227189,0.572911 z m 4.5092112,-2.108906 v 3.600451 h -0.3654779 v -0.340784 q -0.1679223,0.242006 -0.3654778,0.345723 -0.1926168,0.108655 -0.4593168,0.108655 -0.5235224,0 -0.8247946,-0.375355 -0.3012723,-0.380295 -0.3012723,-1.037167 0,-0.617362 0.3012723,-0.987778 0.3062111,-0.375356 0.8099779,-0.375356 0.5334001,0 0.7951613,0.40005 v -1.338439 z m -1.1359447,1.323622 q -0.3358445,0 -0.5432779,0.276578 -0.2074334,0.276578 -0.2074334,0.726017 0,0.454378 0.2074334,0.730956 0.2074334,0.271639 0.5482168,0.271639 0.3259667,0 0.5235223,-0.271639 0.1975556,-0.271639 0.1975556,-0.721078 0,-0.464256 -0.1975556,-0.735895 -0.1975556,-0.276578 -0.5284612,-0.276578 z"
         id="path21" />
      <path
         style="font-size:4.93889px;font-family:FreeSans;-inkscape-font-specification:'FreeSans, Normal';stroke:none"
         d="m -32.287617,62.578887 v 0.3556 h -1.190272 v -0.3556 z m 5.136447,-0.202494 q 0,0.8001 -0.474134,1.328561 -0.474133,0.528461 -1.264355,0.528461 -0.780345,0 -1.259417,-0.518583 -0.479073,-0.523522 -0.479073,-1.368072 0,-0.844551 0.479073,-1.363134 0.479072,-0.523522 1.254478,-0.523522 0.790222,0 1.264355,0.523522 0.479073,0.523522 0.479073,1.392767 z m -1.743428,-1.5113 q -0.572912,0 -0.923573,0.409927 -0.350661,0.404989 -0.350661,1.07174 0,0.66675 0.350661,1.076678 0.3556,0.404988 0.928512,0.404988 0.572911,0 0.923572,-0.404988 0.3556,-0.404989 0.3556,-1.056923 0,-0.681567 -0.350661,-1.091495 -0.350661,-0.409927 -0.93345,-0.409927 z m 2.237319,0.66675 h 0.380295 v 0.434622 q 0.172861,-0.271639 0.370416,-0.390172 0.202495,-0.118534 0.48895,-0.118534 0.375356,0 0.597606,0.192617 0.22225,0.192617 0.22225,0.513645 v 1.9558 h -0.409928 v -1.792817 q 0,-0.232128 -0.143227,-0.370417 -0.143228,-0.138289 -0.390173,-0.138289 -0.316089,0 -0.508705,0.242006 -0.192617,0.237067 -0.192617,0.632178 v 1.427339 h -0.414867 z m 3.067053,-1.012473 v 3.600451 h -0.414867 V 60.51937 Z m 1.08656,1.012473 v 2.587978 h -0.409928 v -2.587978 z m 0,-1.012473 v 0.518584 h -0.414866 V 60.51937 Z m 0.651934,1.012473 h 0.380294 v 0.434622 q 0.172862,-0.271639 0.370417,-0.390172 0.202495,-0.118534 0.48895,-0.118534 0.375356,0 0.597606,0.192617 0.22225,0.192617 0.22225,0.513645 v 1.9558 h -0.409928 v -1.792817 q 0,-0.232128 -0.143228,-0.370417 -0.143228,-0.138289 -0.390172,-0.138289 -0.316089,0 -0.508706,0.242006 -0.192616,0.237067 -0.192616,0.632178 v 1.427339 h -0.414867 z m 4.840115,1.432278 h -1.906411 q 0.0099,0.404989 0.207433,0.646994 0.202495,0.242006 0.553156,0.242006 0.503767,0 0.676628,-0.518584 h 0.414867 q -0.07902,0.424745 -0.370417,0.661812 -0.291395,0.237066 -0.735895,0.237066 -0.543278,0 -0.859367,-0.365477 -0.316089,-0.370417 -0.316089,-1.007534 0,-0.637117 0.321028,-1.017411 0.325967,-0.385234 0.864306,-0.385234 1.150761,0 1.150761,1.506362 z m -1.896533,-0.335845 h 1.456972 q 0,-0.335844 -0.202494,-0.563033 -0.202495,-0.227189 -0.513645,-0.227189 -0.31115,0 -0.513644,0.217311 -0.202495,0.212372 -0.227189,0.572911 z m 4.563538,-1.096433 v 0.335844 h -0.424744 v 1.773062 q 0,0.138289 0.04445,0.187677 0.04939,0.04445 0.182739,0.04445 0.123472,0 0.197555,-0.01976 v 0.345722 q -0.192616,0.03457 -0.335844,0.03457 -0.242006,0 -0.370417,-0.108655 -0.128411,-0.103717 -0.128411,-0.301272 V 61.86768 h -0.350661 v -0.335844 h 0.350661 v -0.711201 h 0.409928 v 0.711201 z m 1.639715,0.360539 q -0.414867,0.0099 -0.6223,0.192616 -0.207433,0.182739 -0.207433,0.691445 v 1.343378 h -0.414867 v -2.587978 h 0.380294 v 0.469194 q 0.1778,-0.291394 0.340784,-0.414867 0.167922,-0.128411 0.365478,-0.128411 0.05433,0 0.158044,0.01482 z m 0.360543,0.404989 q 0.02963,-0.839612 1.037167,-0.839612 0.479072,0 0.726017,0.182739 0.246944,0.1778 0.246944,0.523523 v 1.521178 q 0,0.202494 0.22225,0.202494 0.04445,0 0.0889,-0.0099 v 0.31115 q -0.172861,0.04445 -0.281517,0.04445 -0.197555,0 -0.301272,-0.09384 -0.09878,-0.0889 -0.123472,-0.286456 -0.414867,0.380294 -0.879123,0.380294 -0.390172,0 -0.6223,-0.207433 -0.227189,-0.207433 -0.227189,-0.558094 0,-0.113595 0.01976,-0.207434 0.02469,-0.09384 0.04939,-0.162983 0.02963,-0.07408 0.09878,-0.13335 0.06914,-0.06421 0.113594,-0.103717 0.04939,-0.03951 0.158045,-0.07408 0.113594,-0.03951 0.172861,-0.05433 0.05927,-0.01976 0.207433,-0.04445 0.148167,-0.0247 0.217311,-0.03457 0.06915,-0.0099 0.246945,-0.03457 0.242005,-0.02963 0.335844,-0.09384 0.09384,-0.06421 0.09384,-0.192617 v -0.108656 q 0,-0.187678 -0.153105,-0.286455 -0.148167,-0.09878 -0.424745,-0.09878 -0.286456,0 -0.434622,0.113594 -0.148167,0.108656 -0.172861,0.345723 z m 0.824794,1.575506 q 0.340784,0 0.558095,-0.177801 0.217311,-0.182738 0.217311,-0.390172 v -0.464256 q -0.123472,0.05927 -0.375355,0.09878 -0.246945,0.03951 -0.429684,0.06915 -0.182739,0.02963 -0.330906,0.143228 -0.148166,0.108655 -0.148166,0.306211 0,0.197555 0.13335,0.306211 0.13335,0.108656 0.375355,0.108656 z m 2.3360923,-2.341034 v 2.587978 h -0.4099278 v -2.587978 z m 0,-1.012473 v 0.518584 H -9.5983344 V 60.51937 Z m 0.6519336,1.012473 h 0.3802945 v 0.434622 q 0.1728612,-0.271639 0.3704168,-0.390172 0.2024945,-0.118534 0.4889501,-0.118534 0.3753556,0 0.5976057,0.192617 0.22225,0.192617 0.22225,0.513645 v 1.9558 h -0.4099279 v -1.792817 q 0,-0.232128 -0.1432278,-0.370417 -0.1432278,-0.138289 -0.3901723,-0.138289 -0.3160889,0 -0.5087056,0.242006 -0.1926168,0.237067 -0.1926168,0.632178 v 1.427339 h -0.4148667 z m 3.0966874,0 v 2.587978 h -0.4099278 v -2.587978 z m 0,-1.012473 v 0.518584 H -5.8497134 V 60.51937 Z m 0.6519336,1.012473 h 0.3802945 v 0.434622 q 0.1728612,-0.271639 0.3704168,-0.390172 0.2024944,-0.118534 0.4889501,-0.118534 0.3753556,0 0.5976057,0.192617 0.22225,0.192617 0.22225,0.513645 v 1.9558 h -0.4099279 v -1.792817 q 0,-0.232128 -0.1432278,-0.370417 -0.1432278,-0.138289 -0.3901723,-0.138289 -0.3160889,0 -0.5087057,0.242006 -0.1926167,0.237067 -0.1926167,0.632178 v 1.427339 h -0.4148667 z m 3.5708209,2.701572 q -0.4543779,0 -0.7605891,-0.370416 -0.3062112,-0.375356 -0.3062112,-0.992717 0,-0.632178 0.3012723,-1.02235 0.3062112,-0.390173 0.8001002,-0.390173 0.48401121,0 0.79022239,0.449439 l -0.0493889,-0.375355 h 0.42968343 v 2.163233 q 0,0.370417 -0.04445001,0.617362 -0.04445001,0.251883 -0.16298337,0.464255 -0.11853336,0.212373 -0.35560008,0.316089 -0.23212783,0.103717 -0.59266676,0.103717 -0.4543779,0 -0.7260169,-0.207433 -0.2716389,-0.207434 -0.3062111,-0.572912 h 0.4198056 q 0.069144,0.434623 0.627239,0.434623 0.41486679,0 0.56797238,-0.237067 0.15310559,-0.232128 0.15310559,-0.7112 v -0.13335 q -0.17286115,0.246944 -0.36053897,0.3556 -0.18273893,0.108655 -0.4247445,0.108655 z m 0.079022,-2.395361 q -0.3309056,0 -0.5235223,0.271639 -0.1926167,0.271639 -0.1926167,0.735894 0,0.469195 0.1926167,0.740834 0.1926167,0.2667 0.5284612,0.2667 0.32596673,0 0.51364455,-0.261761 0.18767782,-0.2667 0.18767782,-0.730956 0,-0.484011 -0.18767782,-0.750711 -0.18273873,-0.271639 -0.51858345,-0.271639 z"
         id="path22" />
      <path
         style="font-size:4.93889px;font-family:FreeSans;-inkscape-font-specification:'FreeSans, Normal';stroke:none"
         d="m -32.287617,72.535301 v 0.3556 h -1.190272 v -0.3556 z m 3.151013,1.249539 q 0.276578,0 0.469195,-0.06421 0.192616,-0.06421 0.281516,-0.167922 0.09384,-0.103717 0.128411,-0.202495 0.03951,-0.103716 0.03951,-0.217311 0,-0.409928 -0.661812,-0.582789 l -0.893939,-0.237066 q -0.706261,-0.182739 -0.706261,-0.839612 0,-0.48895 0.340783,-0.770467 0.345723,-0.286455 0.938389,-0.286455 0.622301,0 0.968023,0.296333 0.345722,0.291395 0.350661,0.819856 h -0.434622 q -0.0049,-0.350661 -0.237067,-0.538339 -0.232128,-0.192617 -0.661811,-0.192617 -0.365478,0 -0.587728,0.167922 -0.217311,0.167923 -0.217311,0.439562 0,0.207433 0.13335,0.325966 0.13335,0.118534 0.459317,0.207434 l 0.903816,0.242005 q 0.365478,0.09878 0.563034,0.335845 0.202494,0.237067 0.202494,0.567972 0,0.143228 -0.03951,0.286456 -0.03457,0.138289 -0.13335,0.291394 -0.09878,0.148167 -0.251883,0.261762 -0.153106,0.113594 -0.409928,0.187677 -0.251883,0.07408 -0.572911,0.07408 -0.202495,0 -0.390173,-0.03457 -0.182739,-0.02963 -0.375355,-0.113595 -0.192617,-0.0889 -0.330906,-0.22225 -0.138289,-0.138289 -0.232128,-0.365478 -0.0889,-0.227189 -0.09384,-0.523522 h 0.434623 v 0.02469 q 0,0.153106 0.04445,0.286456 0.04939,0.13335 0.153105,0.261761 0.108656,0.128411 0.316089,0.207433 0.212373,0.07408 0.503767,0.07408 z m 4.815417,-3.309057 v 3.600451 h -0.518583 l -1.861962,-2.918884 v 2.918884 h -0.434622 v -3.600451 h 0.498828 l 1.881717,2.943579 v -2.943579 z m 2.978149,1.822451 q 0.158044,0.06914 0.261761,0.162983 0.108655,0.09384 0.153105,0.212373 0.04939,0.118533 0.06421,0.22225 0.01482,0.103716 0.01482,0.246944 0,0.04445 -0.0049,0.128411 0,0.08396 0,0.123472 0,0.202495 0.04445,0.340784 0.04445,0.138289 0.172861,0.227189 v 0.113594 h -0.558095 q -0.09878,-0.227189 -0.09878,-0.587728 v -0.321027 q 0,-0.330906 -0.143228,-0.484012 -0.143228,-0.158044 -0.449439,-0.158044 h -1.185334 v 1.550811 h -0.459317 v -3.600451 h 1.659467 q 0.528462,0 0.809978,0.251884 0.286456,0.246944 0.286456,0.7112 0,0.306211 -0.13335,0.508706 -0.13335,0.202494 -0.434622,0.350661 z m 0.0889,-0.795161 q 0,-0.3556 -0.187678,-0.488951 -0.187678,-0.13335 -0.518584,-0.13335 h -1.11125 v 1.239662 h 1.11125 q 0.365478,0 0.5334,-0.148167 0.172862,-0.148167 0.172862,-0.469194 z m 2.247192,1.032228 v 0.3556 h -1.190272 v -0.3556 z m 0.488952,-0.281517 q 0.02963,-0.839611 1.037166,-0.839611 0.479073,0 0.726017,0.182739 0.246945,0.1778 0.246945,0.523522 v 1.521178 q 0,0.202494 0.22225,0.202494 0.04445,0 0.0889,-0.0099 v 0.31115 q -0.172861,0.04445 -0.281517,0.04445 -0.197555,0 -0.301272,-0.09384 -0.09878,-0.0889 -0.123472,-0.286456 -0.414867,0.380295 -0.879123,0.380295 -0.390172,0 -0.6223,-0.207434 -0.227189,-0.207433 -0.227189,-0.558094 0,-0.113595 0.01976,-0.207434 0.02469,-0.09384 0.04939,-0.162983 0.02963,-0.07408 0.09878,-0.13335 0.06915,-0.06421 0.113595,-0.103717 0.04939,-0.03951 0.158044,-0.07408 0.113595,-0.03951 0.172861,-0.05433 0.05927,-0.01976 0.207434,-0.04445 0.148167,-0.02469 0.217311,-0.03457 0.06914,-0.0099 0.246945,-0.03457 0.242005,-0.02963 0.335844,-0.09384 0.09384,-0.06421 0.09384,-0.192617 v -0.108655 q 0,-0.187678 -0.153106,-0.286456 -0.148166,-0.09878 -0.424744,-0.09878 -0.286456,0 -0.434623,0.113595 -0.148166,0.108655 -0.172861,0.345722 z m 0.824794,1.575506 q 0.340784,0 0.558095,-0.1778 0.217311,-0.182739 0.217311,-0.390173 v -0.464255 q -0.123472,0.05927 -0.375356,0.09878 -0.246944,0.03951 -0.429683,0.06914 -0.182739,0.02963 -0.330906,0.143228 -0.148166,0.108655 -0.148166,0.306211 0,0.197556 0.13335,0.306211 0.13335,0.108656 0.375355,0.108656 z m 4.059764,-3.353507 v 3.600451 h -0.365478 v -0.340783 q -0.167922,0.242005 -0.365478,0.345722 -0.192617,0.108656 -0.459317,0.108656 -0.523522,0 -0.824794,-0.375356 -0.301273,-0.380294 -0.301273,-1.037167 0,-0.617361 0.301273,-0.987778 0.306211,-0.375355 0.809978,-0.375355 0.5334,0 0.795161,0.40005 v -1.33844 z m -1.135945,1.323623 q -0.335844,0 -0.543278,0.276578 -0.207433,0.276578 -0.207433,0.726017 0,0.454378 0.207433,0.730955 0.207434,0.271639 0.548217,0.271639 0.325967,0 0.523522,-0.271639 0.197556,-0.271639 0.197556,-0.721078 0,-0.464255 -0.197556,-0.735894 -0.197555,-0.276578 -0.528461,-0.276578 z m 1.694039,0.454378 q 0.02963,-0.839611 1.037167,-0.839611 0.479073,0 0.726017,0.182739 0.246945,0.1778 0.246945,0.523522 v 1.521178 q 0,0.202494 0.22225,0.202494 0.04445,0 0.0889,-0.0099 v 0.31115 q -0.172862,0.04445 -0.281517,0.04445 -0.197556,0 -0.301272,-0.09384 -0.09878,-0.0889 -0.123473,-0.286456 -0.414866,0.380295 -0.879122,0.380295 -0.390172,0 -0.6223,-0.207434 -0.227189,-0.207433 -0.227189,-0.558094 0,-0.113595 0.01975,-0.207434 0.02469,-0.09384 0.04939,-0.162983 0.02963,-0.07408 0.09878,-0.13335 0.06914,-0.06421 0.113595,-0.103717 0.04939,-0.03951 0.158044,-0.07408 0.113594,-0.03951 0.172861,-0.05433 0.05927,-0.01976 0.207434,-0.04445 0.148166,-0.02469 0.217311,-0.03457 0.06914,-0.0099 0.246944,-0.03457 0.242006,-0.02963 0.335845,-0.09384 0.09384,-0.06421 0.09384,-0.192617 v -0.108655 q 0,-0.187678 -0.153106,-0.286456 -0.148167,-0.09878 -0.424744,-0.09878 -0.286456,0 -0.434623,0.113595 -0.148167,0.108655 -0.172861,0.345722 z m 0.824795,1.575506 q 0.340783,0 0.558094,-0.1778 0.217312,-0.182739 0.217312,-0.390173 v -0.464255 q -0.123473,0.05927 -0.375356,0.09878 -0.246945,0.03951 -0.429683,0.06914 -0.182739,0.02963 -0.330906,0.143228 -0.148167,0.108655 -0.148167,0.306211 0,0.197556 0.13335,0.306211 0.13335,0.108656 0.375356,0.108656 z m 1.891592,1.323622 v -3.664656 h 0.3802942 v 0.390172 q 0.2913945,-0.464255 0.8247947,-0.464255 0.5136445,0 0.8099779,0.380294 0.3012723,0.380295 0.3012723,1.032228 0,0.617361 -0.3062112,0.992717 -0.3012723,0.370417 -0.8001002,0.370417 -0.4790723,0 -0.7951612,-0.385234 v 1.348317 z m 1.1359444,-3.353506 q -0.3259667,0 -0.5235223,0.276578 -0.1975556,0.271639 -0.1975556,0.726017 0,0.454378 0.1975556,0.730955 0.1975556,0.271639 0.5235223,0.271639 0.3358445,0 0.5432779,-0.271639 0.2074334,-0.276577 0.2074334,-0.716139 0,-0.464255 -0.2074334,-0.740833 -0.2024945,-0.276578 -0.5432779,-0.276578 z m 2.6126728,-0.31115 V 71.8241 h -0.4247446 v 1.773062 q 0,0.138289 0.04445,0.187678 0.049389,0.04445 0.182739,0.04445 0.1234722,0 0.1975556,-0.01976 v 0.345723 q -0.1926167,0.03457 -0.3358446,0.03457 -0.2420056,0 -0.3704167,-0.108656 -0.1284111,-0.103717 -0.1284111,-0.301272 V 71.8241 h -0.3506612 v -0.335844 h 0.3506612 v -0.7112 h 0.4099278 v 0.7112 z m 0.8396147,0 v 2.587978 H -6.180651 v -2.587978 z m 0,-1.012473 v 0.518584 h -0.4148668 v -0.518584 z m 1.7631838,3.600451 h -0.449439 l -0.9087558,-2.587978 h 0.4642557 l 0.6914446,2.099028 0.7309557,-2.099028 h 0.4642556 z m 3.52636975,-1.1557 H -2.3875811 q 0.00988,0.404989 0.2074334,0.646995 0.2024945,0.242005 0.5531557,0.242005 0.5037667,0 0.6766279,-0.518583 h 0.41486676 q -0.0790222,0.424744 -0.37041675,0.661811 -0.29139451,0.237067 -0.73589461,0.237067 -0.5432779,0 -0.8593669,-0.365478 -0.3160889,-0.370417 -0.3160889,-1.007534 0,-0.637116 0.3210278,-1.017411 0.3259668,-0.385233 0.8643058,-0.385233 1.15076135,0 1.15076135,1.506361 z M -2.3777033,72.584689 h 1.45697254 q 0,-0.335844 -0.20249454,-0.563033 -0.2024944,-0.227189 -0.5136445,-0.227189 -0.3111501,0 -0.5136446,0.217311 -0.2024945,0.212373 -0.2271889,0.572911 z"
         id="path23" />
    </g>
  </g>
</svg>
