<?xml version="1.0" encoding="UTF-8"?>
<svg xmlns="http://www.w3.org/2000/svg" xmlns:xlink="http://www.w3.org/1999/xlink" width="295.178285pt" height="104.059699pt" viewBox="0 0 295.178285 104.059699">
<path fill="none" stroke-width="0.850394" stroke-linecap="butt" stroke-linejoin="miter" stroke="rgb(0%, 0%, 0%)" stroke-opacity="1" stroke-miterlimit="4" d="M 40.464844 74.808594 L 47.964844 67.308594 "/>
<path fill="none" stroke-width="0.850394" stroke-linecap="butt" stroke-linejoin="miter" stroke="rgb(0%, 0%, 0%)" stroke-opacity="1" stroke-miterlimit="4" d="M 40.464844 67.308594 L 47.964844 74.808594 "/>
<path fill="none" stroke-width="0.850394" stroke-linecap="butt" stroke-linejoin="miter" stroke="rgb(0%, 0%, 0%)" stroke-opacity="1" stroke-miterlimit="4" d="M 179.214844 74.808594 L 186.714844 67.308594 "/>
<path fill="none" stroke-width="0.850394" stroke-linecap="butt" stroke-linejoin="miter" stroke="rgb(0%, 0%, 0%)" stroke-opacity="1" stroke-miterlimit="4" d="M 179.214844 67.308594 L 186.714844 74.808594 "/>
<path fill="none" stroke-width="0.850394" stroke-linecap="butt" stroke-linejoin="miter" stroke="rgb(0%, 0%, 0%)" stroke-opacity="1" stroke-miterlimit="4" d="M 167.964844 41.058594 L 175.464844 33.558594 "/>
<path fill="none" stroke-width="0.850394" stroke-linecap="butt" stroke-linejoin="miter" stroke="rgb(0%, 0%, 0%)" stroke-opacity="1" stroke-miterlimit="4" d="M 167.964844 33.558594 L 175.464844 41.058594 "/>
<path fill="none" stroke-width="0.850394" stroke-linecap="butt" stroke-linejoin="miter" stroke="rgb(0%, 0%, 0%)" stroke-opacity="1" stroke-miterlimit="4" d="M 70.464844 33.558594 L 77.964844 26.058594 "/>
<path fill="none" stroke-width="0.850394" stroke-linecap="butt" stroke-linejoin="miter" stroke="rgb(0%, 0%, 0%)" stroke-opacity="1" stroke-miterlimit="4" d="M 70.464844 26.058594 L 77.964844 33.558594 "/>
<path fill-rule="nonzero" fill="rgb(0%, 0%, 0%)" fill-opacity="1" d="M 33.542969 82.164062 L 35.8125 79.617188 C 36.089844 79.34375 36.210938 79.21875 37.808594 79.21875 L 37.808594 78.300781 C 37.132812 78.332031 36.121094 78.359375 36.027344 78.359375 C 35.539062 78.359375 34.554688 78.300781 34.003906 78.300781 L 34.003906 79.21875 C 34.28125 79.21875 34.527344 79.25 34.742188 79.375 C 34.679688 79.496094 34.679688 79.558594 34.585938 79.617188 L 32.960938 81.457031 L 31.03125 79.21875 L 31.828125 79.21875 L 31.828125 78.300781 C 31.304688 78.300781 30.078125 78.359375 29.433594 78.359375 C 28.820312 78.359375 27.933594 78.300781 27.289062 78.300781 L 27.289062 79.21875 L 28.699219 79.21875 L 31.734375 82.808594 L 29.160156 85.691406 C 28.851562 86.058594 28.148438 86.058594 27.195312 86.058594 L 27.195312 86.976562 C 27.871094 86.945312 28.914062 86.917969 29.007812 86.917969 C 29.496094 86.917969 30.632812 86.945312 31 86.976562 L 31 86.058594 C 30.660156 86.058594 30.292969 85.964844 30.292969 85.84375 C 30.292969 85.8125 30.292969 85.8125 30.417969 85.660156 L 32.316406 83.511719 L 34.464844 86.058594 L 33.699219 86.058594 L 33.699219 86.976562 C 34.21875 86.945312 35.414062 86.917969 36.058594 86.917969 C 36.671875 86.917969 37.5625 86.945312 38.207031 86.976562 L 38.207031 86.058594 L 36.824219 86.058594 Z M 33.542969 82.164062 "/>
<path fill-rule="nonzero" fill="rgb(0%, 0%, 0%)" fill-opacity="1" d="M 77.523438 39.664062 L 79.792969 37.117188 C 80.070312 36.84375 80.191406 36.71875 81.785156 36.71875 L 81.785156 35.800781 C 81.109375 35.832031 80.097656 35.863281 80.007812 35.863281 C 79.515625 35.863281 78.535156 35.800781 77.984375 35.800781 L 77.984375 36.71875 C 78.257812 36.71875 78.503906 36.75 78.71875 36.875 C 78.65625 36.996094 78.65625 37.058594 78.566406 37.117188 L 76.941406 38.957031 L 75.007812 36.71875 L 75.804688 36.71875 L 75.804688 35.800781 C 75.285156 35.800781 74.058594 35.863281 73.414062 35.863281 C 72.800781 35.863281 71.910156 35.800781 71.269531 35.800781 L 71.269531 36.71875 L 72.679688 36.71875 L 75.714844 40.308594 L 73.136719 43.191406 C 72.832031 43.558594 72.125 43.558594 71.175781 43.558594 L 71.175781 44.476562 C 71.851562 44.449219 72.894531 44.417969 72.984375 44.417969 C 73.476562 44.417969 74.609375 44.449219 74.976562 44.476562 L 74.976562 43.558594 C 74.640625 43.558594 74.273438 43.464844 74.273438 43.34375 C 74.273438 43.3125 74.273438 43.3125 74.394531 43.160156 L 76.296875 41.011719 L 78.445312 43.558594 L 77.675781 43.558594 L 77.675781 44.476562 C 78.199219 44.449219 79.394531 44.417969 80.039062 44.417969 C 80.652344 44.417969 81.539062 44.449219 82.183594 44.476562 L 82.183594 43.558594 L 80.804688 43.558594 Z M 77.523438 39.664062 "/>
<path fill-rule="nonzero" fill="rgb(0%, 0%, 0%)" fill-opacity="1" d="M 85.832031 44.652344 C 85.832031 44.558594 86.171875 43.332031 86.171875 43.269531 C 86.203125 43.148438 86.601562 42.472656 87.058594 42.136719 C 87.183594 42.042969 87.550781 41.769531 88.164062 41.769531 C 88.285156 41.769531 88.625 41.769531 88.898438 41.953125 C 88.472656 42.074219 88.316406 42.472656 88.316406 42.71875 C 88.316406 42.996094 88.53125 43.210938 88.839844 43.210938 C 89.175781 43.210938 89.605469 42.964844 89.605469 42.382812 C 89.605469 41.675781 88.871094 41.371094 88.164062 41.371094 C 87.460938 41.371094 86.847656 41.675781 86.234375 42.351562 C 85.988281 41.523438 85.160156 41.371094 84.820312 41.371094 C 84.332031 41.371094 83.992188 41.707031 83.75 42.074219 C 83.441406 42.597656 83.257812 43.394531 83.257812 43.484375 C 83.257812 43.636719 83.441406 43.636719 83.503906 43.636719 C 83.6875 43.636719 83.6875 43.609375 83.78125 43.238281 C 83.992188 42.410156 84.269531 41.769531 84.792969 41.769531 C 85.160156 41.769531 85.25 42.074219 85.25 42.441406 C 85.25 42.6875 85.128906 43.210938 85.007812 43.578125 C 84.914062 43.945312 84.792969 44.496094 84.730469 44.804688 L 84.269531 46.550781 C 84.238281 46.734375 84.148438 47.074219 84.148438 47.105469 C 84.148438 47.410156 84.394531 47.53125 84.605469 47.53125 C 84.820312 47.53125 85.097656 47.410156 85.191406 47.164062 C 85.21875 47.074219 85.375 46.460938 85.464844 46.121094 Z M 85.832031 44.652344 "/>
<path fill-rule="nonzero" fill="rgb(0%, 0%, 0%)" fill-opacity="1" d="M 198.628906 86.703125 C 198.628906 87.316406 198.628906 88.203125 200.652344 88.203125 L 201.605469 88.203125 C 201.972656 88.203125 202.21875 88.203125 202.21875 87.746094 C 202.21875 87.285156 201.972656 87.285156 201.695312 87.285156 C 200.5 87.253906 200.5 87.007812 200.5 86.546875 L 200.5 82.347656 C 200.5 80.601562 199.121094 79.34375 196.207031 79.34375 C 195.105469 79.34375 192.710938 79.433594 192.710938 81.152344 C 192.710938 82.011719 193.386719 82.378906 193.90625 82.378906 C 194.519531 82.378906 195.164062 81.949219 195.164062 81.152344 C 195.164062 80.570312 194.796875 80.230469 194.734375 80.171875 C 195.289062 80.078125 195.902344 80.046875 196.144531 80.046875 C 197.585938 80.046875 198.292969 80.875 198.292969 82.347656 L 198.292969 83.023438 C 196.882812 83.082031 191.914062 83.265625 191.914062 86.089844 C 191.914062 87.960938 194.367188 88.328125 195.71875 88.328125 C 197.28125 88.328125 198.199219 87.53125 198.628906 86.703125 Z M 198.292969 83.636719 L 198.292969 85.476562 C 198.292969 87.375 196.484375 87.621094 195.992188 87.621094 C 195.011719 87.621094 194.214844 86.945312 194.214844 86.058594 C 194.214844 83.972656 197.3125 83.695312 198.292969 83.636719 Z M 198.292969 83.636719 "/>
<path fill-rule="nonzero" fill="rgb(0%, 0%, 0%)" fill-opacity="1" d="M 206.097656 82.058594 C 206.097656 82.027344 206.15625 81.84375 206.15625 81.84375 C 206.15625 81.753906 206.097656 81.628906 205.914062 81.628906 C 205.636719 81.628906 204.5 81.753906 204.164062 81.785156 C 204.074219 81.785156 203.886719 81.816406 203.886719 82.089844 C 203.886719 82.273438 204.074219 82.273438 204.226562 82.273438 C 204.898438 82.273438 204.898438 82.398438 204.898438 82.488281 C 204.898438 82.582031 204.871094 82.671875 204.839844 82.796875 L 203.121094 89.542969 C 203.089844 89.695312 203.089844 89.847656 203.089844 89.972656 C 203.089844 90.859375 203.859375 91.257812 204.5 91.257812 C 204.839844 91.257812 205.269531 91.167969 205.605469 90.554688 C 205.914062 90.03125 206.097656 89.234375 206.097656 89.175781 C 206.097656 88.988281 205.914062 88.988281 205.882812 88.988281 C 205.667969 88.988281 205.636719 89.082031 205.605469 89.328125 C 205.421875 90 205.144531 90.890625 204.5625 90.890625 C 204.195312 90.890625 204.101562 90.554688 204.101562 90.214844 C 204.101562 90.0625 204.132812 89.816406 204.195312 89.664062 Z M 206.097656 82.058594 "/>
<path fill-rule="nonzero" fill="rgb(0%, 0%, 0%)" fill-opacity="1" d="M 210.128906 90.921875 C 210.128906 91.65625 210.007812 92.546875 209.054688 93.40625 C 209.023438 93.46875 208.964844 93.527344 208.964844 93.589844 C 208.964844 93.683594 209.085938 93.773438 209.148438 93.773438 C 209.363281 93.773438 210.527344 92.667969 210.527344 91.042969 C 210.527344 90.214844 210.191406 89.574219 209.546875 89.574219 C 209.117188 89.574219 208.78125 89.910156 208.78125 90.339844 C 208.78125 90.769531 209.085938 91.136719 209.578125 91.136719 C 209.914062 91.136719 210.128906 90.921875 210.128906 90.921875 Z M 210.128906 90.921875 "/>
<path fill-rule="nonzero" fill="rgb(0%, 0%, 0%)" fill-opacity="1" d="M 217.898438 82.582031 C 217.898438 82.367188 217.714844 82.058594 217.347656 82.058594 C 216.949219 82.058594 216.582031 82.457031 216.582031 82.828125 C 216.582031 83.042969 216.734375 83.347656 217.132812 83.347656 C 217.5 83.347656 217.898438 82.980469 217.898438 82.582031 Z M 214.988281 91.8125 C 214.773438 92.761719 214.035156 93.527344 213.238281 93.527344 C 213.054688 93.527344 212.902344 93.527344 212.75 93.46875 C 213.085938 93.28125 213.207031 92.976562 213.207031 92.761719 C 213.207031 92.425781 212.933594 92.269531 212.65625 92.269531 C 212.257812 92.269531 211.890625 92.640625 211.890625 93.070312 C 211.890625 93.589844 212.410156 93.925781 213.238281 93.925781 C 214.066406 93.925781 215.660156 93.4375 216.089844 91.78125 L 217.316406 86.875 C 217.347656 86.722656 217.378906 86.597656 217.378906 86.382812 C 217.378906 85.648438 216.734375 85.09375 215.9375 85.09375 C 214.40625 85.09375 213.546875 86.996094 213.546875 87.210938 C 213.546875 87.363281 213.730469 87.363281 213.761719 87.363281 C 213.914062 87.363281 213.945312 87.335938 214.035156 87.121094 C 214.375 86.320312 215.078125 85.496094 215.875 85.496094 C 216.214844 85.496094 216.335938 85.707031 216.335938 86.167969 C 216.335938 86.320312 216.335938 86.507812 216.304688 86.566406 Z M 214.988281 91.8125 "/>
<path fill-rule="nonzero" fill="rgb(0%, 0%, 0%)" fill-opacity="1" d="M 153.300781 48.488281 C 153.300781 49.101562 153.300781 49.992188 155.324219 49.992188 L 156.277344 49.992188 C 156.644531 49.992188 156.890625 49.992188 156.890625 49.53125 C 156.890625 49.070312 156.644531 49.070312 156.367188 49.070312 C 155.171875 49.039062 155.171875 48.792969 155.171875 48.335938 L 155.171875 44.132812 C 155.171875 42.386719 153.792969 41.128906 150.878906 41.128906 C 149.773438 41.128906 147.382812 41.21875 147.382812 42.9375 C 147.382812 43.796875 148.058594 44.164062 148.578125 44.164062 C 149.191406 44.164062 149.835938 43.734375 149.835938 42.9375 C 149.835938 42.355469 149.46875 42.015625 149.40625 41.957031 C 149.960938 41.863281 150.574219 41.832031 150.816406 41.832031 C 152.257812 41.832031 152.964844 42.660156 152.964844 44.132812 L 152.964844 44.808594 C 151.554688 44.871094 146.585938 45.054688 146.585938 47.875 C 146.585938 49.746094 149.039062 50.113281 150.386719 50.113281 C 151.953125 50.113281 152.871094 49.316406 153.300781 48.488281 Z M 152.964844 45.421875 L 152.964844 47.261719 C 152.964844 49.164062 151.15625 49.40625 150.664062 49.40625 C 149.683594 49.40625 148.886719 48.734375 148.886719 47.84375 C 148.886719 45.757812 151.984375 45.484375 152.964844 45.421875 Z M 152.964844 45.421875 "/>
<path fill-rule="nonzero" fill="rgb(0%, 0%, 0%)" fill-opacity="1" d="M 160.769531 43.84375 C 160.769531 43.816406 160.828125 43.632812 160.828125 43.632812 C 160.828125 43.539062 160.769531 43.417969 160.582031 43.417969 C 160.308594 43.417969 159.171875 43.539062 158.835938 43.570312 C 158.742188 43.570312 158.558594 43.601562 158.558594 43.875 C 158.558594 44.058594 158.742188 44.058594 158.898438 44.058594 C 159.570312 44.058594 159.570312 44.183594 159.570312 44.273438 C 159.570312 44.367188 159.542969 44.457031 159.511719 44.582031 L 157.792969 51.328125 C 157.761719 51.480469 157.761719 51.632812 157.761719 51.757812 C 157.761719 52.644531 158.53125 53.046875 159.171875 53.046875 C 159.511719 53.046875 159.941406 52.953125 160.277344 52.339844 C 160.582031 51.820312 160.769531 51.019531 160.769531 50.960938 C 160.769531 50.777344 160.582031 50.777344 160.554688 50.777344 C 160.339844 50.777344 160.308594 50.867188 160.277344 51.113281 C 160.09375 51.789062 159.816406 52.675781 159.234375 52.675781 C 158.867188 52.675781 158.773438 52.339844 158.773438 52.003906 C 158.773438 51.847656 158.804688 51.605469 158.867188 51.449219 Z M 160.769531 43.84375 "/>
<path fill-rule="nonzero" fill="rgb(0%, 0%, 0%)" fill-opacity="1" d="M 164.800781 52.707031 C 164.800781 53.445312 164.679688 54.332031 163.726562 55.191406 C 163.695312 55.253906 163.636719 55.3125 163.636719 55.375 C 163.636719 55.46875 163.757812 55.558594 163.820312 55.558594 C 164.035156 55.558594 165.199219 54.457031 165.199219 52.832031 C 165.199219 52.003906 164.863281 51.359375 164.21875 51.359375 C 163.789062 51.359375 163.453125 51.695312 163.453125 52.125 C 163.453125 52.554688 163.757812 52.921875 164.25 52.921875 C 164.585938 52.921875 164.800781 52.707031 164.800781 52.707031 Z M 164.800781 52.707031 "/>
<path fill-rule="nonzero" fill="rgb(0%, 0%, 0%)" fill-opacity="1" d="M 169.78125 50.164062 C 169.78125 50.070312 170.117188 48.84375 170.117188 48.78125 C 170.148438 48.660156 170.546875 47.984375 171.007812 47.648438 C 171.128906 47.554688 171.5 47.28125 172.113281 47.28125 C 172.234375 47.28125 172.570312 47.28125 172.847656 47.464844 C 172.417969 47.585938 172.265625 47.984375 172.265625 48.230469 C 172.265625 48.507812 172.480469 48.722656 172.785156 48.722656 C 173.125 48.722656 173.554688 48.476562 173.554688 47.894531 C 173.554688 47.1875 172.816406 46.882812 172.113281 46.882812 C 171.40625 46.882812 170.792969 47.1875 170.179688 47.863281 C 169.933594 47.035156 169.105469 46.882812 168.769531 46.882812 C 168.277344 46.882812 167.941406 47.21875 167.695312 47.585938 C 167.390625 48.109375 167.207031 48.90625 167.207031 48.996094 C 167.207031 49.152344 167.390625 49.152344 167.449219 49.152344 C 167.636719 49.152344 167.636719 49.121094 167.726562 48.75 C 167.941406 47.925781 168.21875 47.28125 168.738281 47.28125 C 169.105469 47.28125 169.199219 47.585938 169.199219 47.953125 C 169.199219 48.199219 169.078125 48.722656 168.953125 49.089844 C 168.863281 49.457031 168.738281 50.007812 168.675781 50.316406 L 168.21875 52.0625 C 168.1875 52.246094 168.09375 52.585938 168.09375 52.617188 C 168.09375 52.921875 168.339844 53.046875 168.554688 53.046875 C 168.769531 53.046875 169.046875 52.921875 169.136719 52.675781 C 169.167969 52.585938 169.320312 51.972656 169.414062 51.632812 Z M 169.78125 50.164062 "/>
<path fill-rule="nonzero" fill="rgb(100%, 10.588074%, 9.01947%)" fill-opacity="1" d="M 75.609375 78.007812 C 75.609375 77.703125 75.609375 77.332031 75.210938 77.332031 C 74.8125 77.332031 74.8125 77.792969 74.8125 78.070312 L 74.8125 96.191406 C 74.8125 96.5 74.8125 96.929688 75.210938 96.929688 C 75.609375 96.929688 75.609375 96.5625 75.609375 96.253906 Z M 79.414062 78.070312 C 79.414062 77.761719 79.414062 77.332031 79.015625 77.332031 C 78.644531 77.332031 78.644531 77.703125 78.644531 78.007812 L 78.644531 96.253906 C 78.644531 96.5625 78.644531 96.929688 79.015625 96.929688 C 79.414062 96.929688 79.414062 96.46875 79.414062 96.191406 Z M 79.414062 78.070312 "/>
<path fill-rule="nonzero" fill="rgb(100%, 10.588074%, 9.01947%)" fill-opacity="1" d="M 88.792969 87.207031 L 91.0625 84.664062 C 91.335938 84.386719 91.460938 84.265625 93.054688 84.265625 L 93.054688 83.34375 C 92.378906 83.375 91.367188 83.40625 91.273438 83.40625 C 90.785156 83.40625 89.804688 83.34375 89.25 83.34375 L 89.25 84.265625 C 89.527344 84.265625 89.773438 84.292969 89.988281 84.417969 C 89.925781 84.539062 89.925781 84.601562 89.835938 84.664062 L 88.207031 86.503906 L 86.277344 84.265625 L 87.074219 84.265625 L 87.074219 83.34375 C 86.554688 83.34375 85.328125 83.40625 84.683594 83.40625 C 84.070312 83.40625 83.179688 83.34375 82.535156 83.34375 L 82.535156 84.265625 L 83.945312 84.265625 L 86.980469 87.851562 L 84.40625 90.734375 C 84.101562 91.101562 83.394531 91.101562 82.445312 91.101562 L 82.445312 92.023438 C 83.117188 91.992188 84.160156 91.960938 84.253906 91.960938 C 84.742188 91.960938 85.878906 91.992188 86.246094 92.023438 L 86.246094 91.101562 C 85.910156 91.101562 85.542969 91.011719 85.542969 90.886719 C 85.542969 90.855469 85.542969 90.855469 85.664062 90.703125 L 87.566406 88.558594 L 89.710938 91.101562 L 88.945312 91.101562 L 88.945312 92.023438 C 89.464844 91.992188 90.660156 91.960938 91.304688 91.960938 C 91.917969 91.960938 92.808594 91.992188 93.453125 92.023438 L 93.453125 91.101562 L 92.074219 91.101562 Z M 88.792969 87.207031 "/>
<path fill-rule="nonzero" fill="rgb(100%, 10.588074%, 9.01947%)" fill-opacity="1" d="M 111.105469 87.515625 C 111.441406 87.515625 111.808594 87.515625 111.808594 87.117188 C 111.808594 86.746094 111.441406 86.746094 111.105469 86.746094 L 100.523438 86.746094 C 100.1875 86.746094 99.851562 86.746094 99.851562 87.117188 C 99.851562 87.515625 100.1875 87.515625 100.523438 87.515625 Z M 111.105469 87.515625 "/>
<path fill-rule="nonzero" fill="rgb(100%, 10.588074%, 9.01947%)" fill-opacity="1" d="M 125.105469 90.519531 C 125.105469 91.132812 125.105469 92.023438 127.128906 92.023438 L 128.082031 92.023438 C 128.449219 92.023438 128.695312 92.023438 128.695312 91.5625 C 128.695312 91.101562 128.449219 91.101562 128.171875 91.101562 C 126.976562 91.070312 126.976562 90.828125 126.976562 90.367188 L 126.976562 86.164062 C 126.976562 84.417969 125.597656 83.160156 122.683594 83.160156 C 121.582031 83.160156 119.1875 83.253906 119.1875 84.96875 C 119.1875 85.828125 119.863281 86.195312 120.382812 86.195312 C 120.996094 86.195312 121.640625 85.765625 121.640625 84.96875 C 121.640625 84.386719 121.273438 84.050781 121.210938 83.988281 C 121.765625 83.894531 122.378906 83.867188 122.621094 83.867188 C 124.0625 83.867188 124.769531 84.695312 124.769531 86.164062 L 124.769531 86.839844 C 123.359375 86.902344 118.390625 87.085938 118.390625 89.90625 C 118.390625 91.777344 120.84375 92.144531 122.195312 92.144531 C 123.757812 92.144531 124.675781 91.347656 125.105469 90.519531 Z M 124.769531 87.453125 L 124.769531 89.292969 C 124.769531 91.195312 122.960938 91.441406 122.46875 91.441406 C 121.488281 91.441406 120.691406 90.765625 120.691406 89.875 C 120.691406 87.789062 123.789062 87.515625 124.769531 87.453125 Z M 124.769531 87.453125 "/>
<path fill-rule="nonzero" fill="rgb(100%, 10.588074%, 9.01947%)" fill-opacity="1" d="M 132.570312 85.878906 C 132.570312 85.847656 132.632812 85.664062 132.632812 85.664062 C 132.632812 85.570312 132.570312 85.449219 132.386719 85.449219 C 132.109375 85.449219 130.976562 85.570312 130.640625 85.601562 C 130.546875 85.601562 130.363281 85.632812 130.363281 85.910156 C 130.363281 86.09375 130.546875 86.09375 130.699219 86.09375 C 131.375 86.09375 131.375 86.214844 131.375 86.308594 C 131.375 86.398438 131.34375 86.492188 131.3125 86.613281 L 129.597656 93.359375 C 129.566406 93.511719 129.566406 93.667969 129.566406 93.789062 C 129.566406 94.679688 130.332031 95.078125 130.976562 95.078125 C 131.3125 95.078125 131.742188 94.984375 132.082031 94.371094 C 132.386719 93.851562 132.570312 93.054688 132.570312 92.992188 C 132.570312 92.808594 132.386719 92.808594 132.355469 92.808594 C 132.140625 92.808594 132.109375 92.898438 132.082031 93.144531 C 131.894531 93.820312 131.621094 94.707031 131.039062 94.707031 C 130.667969 94.707031 130.578125 94.371094 130.578125 94.035156 C 130.578125 93.882812 130.609375 93.636719 130.667969 93.480469 Z M 132.570312 85.878906 "/>
<path fill-rule="nonzero" fill="rgb(100%, 10.588074%, 9.01947%)" fill-opacity="1" d="M 136.605469 94.738281 C 136.605469 95.476562 136.480469 96.363281 135.53125 97.222656 C 135.5 97.285156 135.4375 97.347656 135.4375 97.40625 C 135.4375 97.5 135.5625 97.589844 135.621094 97.589844 C 135.835938 97.589844 137.003906 96.488281 137.003906 94.863281 C 137.003906 94.035156 136.664062 93.390625 136.019531 93.390625 C 135.59375 93.390625 135.253906 93.726562 135.253906 94.15625 C 135.253906 94.585938 135.5625 94.953125 136.050781 94.953125 C 136.390625 94.953125 136.605469 94.738281 136.605469 94.738281 Z M 136.605469 94.738281 "/>
<path fill-rule="nonzero" fill="rgb(100%, 10.588074%, 9.01947%)" fill-opacity="1" d="M 144.375 86.398438 C 144.375 86.183594 144.191406 85.878906 143.824219 85.878906 C 143.425781 85.878906 143.054688 86.277344 143.054688 86.644531 C 143.054688 86.859375 143.210938 87.164062 143.609375 87.164062 C 143.976562 87.164062 144.375 86.796875 144.375 86.398438 Z M 141.460938 95.628906 C 141.246094 96.578125 140.511719 97.347656 139.714844 97.347656 C 139.53125 97.347656 139.375 97.347656 139.222656 97.285156 C 139.5625 97.101562 139.683594 96.792969 139.683594 96.578125 C 139.683594 96.242188 139.40625 96.089844 139.132812 96.089844 C 138.734375 96.089844 138.363281 96.457031 138.363281 96.886719 C 138.363281 97.40625 138.886719 97.746094 139.714844 97.746094 C 140.542969 97.746094 142.136719 97.253906 142.566406 95.597656 L 143.792969 90.691406 C 143.824219 90.539062 143.855469 90.414062 143.855469 90.203125 C 143.855469 89.464844 143.210938 88.914062 142.414062 88.914062 C 140.878906 88.914062 140.019531 90.816406 140.019531 91.027344 C 140.019531 91.183594 140.203125 91.183594 140.234375 91.183594 C 140.386719 91.183594 140.417969 91.152344 140.511719 90.9375 C 140.847656 90.140625 141.554688 89.3125 142.351562 89.3125 C 142.6875 89.3125 142.8125 89.527344 142.8125 89.988281 C 142.8125 90.140625 142.8125 90.324219 142.78125 90.386719 Z M 141.460938 95.628906 "/>
<path fill-rule="nonzero" fill="rgb(100%, 10.588074%, 9.01947%)" fill-opacity="1" d="M 149.984375 78.007812 C 149.984375 77.703125 149.984375 77.332031 149.585938 77.332031 C 149.1875 77.332031 149.1875 77.792969 149.1875 78.070312 L 149.1875 96.191406 C 149.1875 96.5 149.1875 96.929688 149.585938 96.929688 C 149.984375 96.929688 149.984375 96.5625 149.984375 96.253906 Z M 153.789062 78.070312 C 153.789062 77.761719 153.789062 77.332031 153.390625 77.332031 C 153.023438 77.332031 153.023438 77.703125 153.023438 78.007812 L 153.023438 96.253906 C 153.023438 96.5625 153.023438 96.929688 153.390625 96.929688 C 153.789062 96.929688 153.789062 96.46875 153.789062 96.191406 Z M 153.789062 78.070312 "/>
<path fill-rule="nonzero" fill="rgb(100%, 10.588074%, 9.01947%)" fill-opacity="1" d="M 163.289062 96.109375 L 162.828125 96.109375 C 162.796875 96.414062 162.644531 97.210938 162.460938 97.335938 C 162.367188 97.425781 161.324219 97.425781 161.109375 97.425781 L 158.597656 97.425781 C 160.039062 96.171875 160.527344 95.773438 161.324219 95.128906 C 162.335938 94.332031 163.289062 93.472656 163.289062 92.183594 C 163.289062 90.527344 161.847656 89.515625 160.097656 89.515625 C 158.414062 89.515625 157.246094 90.710938 157.246094 91.96875 C 157.246094 92.644531 157.828125 92.734375 157.984375 92.734375 C 158.289062 92.734375 158.6875 92.492188 158.6875 92 C 158.6875 91.753906 158.597656 91.265625 157.890625 91.265625 C 158.320312 90.3125 159.242188 90.007812 159.882812 90.007812 C 161.265625 90.007812 161.96875 91.078125 161.96875 92.183594 C 161.96875 93.378906 161.109375 94.300781 160.679688 94.789062 L 157.402344 98.070312 C 157.246094 98.195312 157.246094 98.226562 157.246094 98.59375 L 162.890625 98.59375 Z M 163.289062 96.109375 "/>
<path fill="none" stroke-width="1.417323" stroke-linecap="butt" stroke-linejoin="miter" stroke="rgb(100%, 10.588074%, 9.01947%)" stroke-opacity="1" stroke-miterlimit="4" d="M 44.214844 71.058594 L 182.964844 71.058594 "/>
<path fill-rule="nonzero" fill="rgb(5.097961%, 0%, 76.861572%)" fill-opacity="1" d="M 95.367188 2.5625 C 95.367188 2.257812 95.367188 1.890625 94.96875 1.890625 C 94.570312 1.890625 94.570312 2.347656 94.570312 2.625 L 94.570312 20.746094 C 94.570312 21.054688 94.570312 21.484375 94.96875 21.484375 C 95.367188 21.484375 95.367188 21.117188 95.367188 20.808594 Z M 99.167969 2.625 C 99.167969 2.320312 99.167969 1.890625 98.769531 1.890625 C 98.402344 1.890625 98.402344 2.257812 98.402344 2.5625 L 98.402344 20.808594 C 98.402344 21.117188 98.402344 21.484375 98.769531 21.484375 C 99.167969 21.484375 99.167969 21.023438 99.167969 20.746094 Z M 99.167969 2.625 "/>
<path fill-rule="nonzero" fill="rgb(5.097961%, 0%, 76.861572%)" fill-opacity="1" d="M 108.546875 11.761719 L 110.816406 9.21875 C 111.09375 8.941406 111.214844 8.820312 112.808594 8.820312 L 112.808594 7.898438 C 112.132812 7.929688 111.121094 7.960938 111.03125 7.960938 C 110.539062 7.960938 109.558594 7.898438 109.007812 7.898438 L 109.007812 8.820312 C 109.28125 8.820312 109.527344 8.851562 109.742188 8.972656 C 109.679688 9.09375 109.679688 9.15625 109.589844 9.21875 L 107.964844 11.058594 L 106.03125 8.820312 L 106.828125 8.820312 L 106.828125 7.898438 C 106.308594 7.898438 105.082031 7.960938 104.4375 7.960938 C 103.824219 7.960938 102.933594 7.898438 102.292969 7.898438 L 102.292969 8.820312 L 103.703125 8.820312 L 106.738281 12.40625 L 104.160156 15.289062 C 103.855469 15.65625 103.148438 15.65625 102.199219 15.65625 L 102.199219 16.578125 C 102.875 16.546875 103.917969 16.515625 104.007812 16.515625 C 104.5 16.515625 105.632812 16.546875 106 16.578125 L 106 15.65625 C 105.664062 15.65625 105.296875 15.566406 105.296875 15.441406 C 105.296875 15.414062 105.296875 15.414062 105.417969 15.257812 L 107.320312 13.113281 L 109.46875 15.65625 L 108.699219 15.65625 L 108.699219 16.578125 C 109.222656 16.546875 110.417969 16.515625 111.0625 16.515625 C 111.675781 16.515625 112.5625 16.546875 113.207031 16.578125 L 113.207031 15.65625 L 111.828125 15.65625 Z M 108.546875 11.761719 "/>
<path fill-rule="nonzero" fill="rgb(5.097961%, 0%, 76.861572%)" fill-opacity="1" d="M 116.855469 16.75 C 116.855469 16.65625 117.191406 15.429688 117.191406 15.371094 C 117.222656 15.246094 117.621094 14.574219 118.082031 14.234375 C 118.203125 14.144531 118.574219 13.867188 119.1875 13.867188 C 119.308594 13.867188 119.644531 13.867188 119.921875 14.050781 C 119.492188 14.175781 119.339844 14.574219 119.339844 14.816406 C 119.339844 15.09375 119.554688 15.308594 119.859375 15.308594 C 120.199219 15.308594 120.628906 15.0625 120.628906 14.480469 C 120.628906 13.773438 119.890625 13.46875 119.1875 13.46875 C 118.480469 13.46875 117.867188 13.773438 117.253906 14.449219 C 117.007812 13.621094 116.179688 13.46875 115.84375 13.46875 C 115.351562 13.46875 115.015625 13.804688 114.769531 14.175781 C 114.464844 14.695312 114.28125 15.492188 114.28125 15.585938 C 114.28125 15.738281 114.464844 15.738281 114.523438 15.738281 C 114.707031 15.738281 114.707031 15.707031 114.800781 15.339844 C 115.015625 14.511719 115.292969 13.867188 115.8125 13.867188 C 116.179688 13.867188 116.273438 14.175781 116.273438 14.542969 C 116.273438 14.789062 116.148438 15.308594 116.027344 15.675781 C 115.933594 16.042969 115.8125 16.597656 115.75 16.902344 L 115.292969 18.652344 C 115.261719 18.835938 115.167969 19.171875 115.167969 19.203125 C 115.167969 19.507812 115.414062 19.632812 115.628906 19.632812 C 115.84375 19.632812 116.121094 19.507812 116.210938 19.265625 C 116.242188 19.171875 116.394531 18.558594 116.488281 18.222656 Z M 116.855469 16.75 "/>
<path fill-rule="nonzero" fill="rgb(5.097961%, 0%, 76.861572%)" fill-opacity="1" d="M 139.519531 12.070312 C 139.855469 12.070312 140.222656 12.070312 140.222656 11.671875 C 140.222656 11.304688 139.855469 11.304688 139.519531 11.304688 L 128.9375 11.304688 C 128.601562 11.304688 128.265625 11.304688 128.265625 11.671875 C 128.265625 12.070312 128.601562 12.070312 128.9375 12.070312 Z M 139.519531 12.070312 "/>
<path fill-rule="nonzero" fill="rgb(5.097961%, 0%, 76.861572%)" fill-opacity="1" d="M 153.519531 15.074219 C 153.519531 15.6875 153.519531 16.578125 155.542969 16.578125 L 156.496094 16.578125 C 156.863281 16.578125 157.109375 16.578125 157.109375 16.117188 C 157.109375 15.65625 156.863281 15.65625 156.585938 15.65625 C 155.390625 15.628906 155.390625 15.382812 155.390625 14.921875 L 155.390625 10.71875 C 155.390625 8.972656 154.011719 7.714844 151.097656 7.714844 C 149.996094 7.714844 147.601562 7.808594 147.601562 9.523438 C 147.601562 10.382812 148.277344 10.75 148.796875 10.75 C 149.410156 10.75 150.054688 10.320312 150.054688 9.523438 C 150.054688 8.941406 149.6875 8.605469 149.625 8.542969 C 150.179688 8.453125 150.792969 8.421875 151.035156 8.421875 C 152.476562 8.421875 153.183594 9.25 153.183594 10.71875 L 153.183594 11.394531 C 151.773438 11.457031 146.804688 11.640625 146.804688 14.460938 C 146.804688 16.332031 149.257812 16.699219 150.609375 16.699219 C 152.171875 16.699219 153.089844 15.902344 153.519531 15.074219 Z M 153.183594 12.007812 L 153.183594 13.847656 C 153.183594 15.75 151.375 15.996094 150.882812 15.996094 C 149.902344 15.996094 149.105469 15.320312 149.105469 14.429688 C 149.105469 12.347656 152.203125 12.070312 153.183594 12.007812 Z M 153.183594 12.007812 "/>
<path fill-rule="nonzero" fill="rgb(5.097961%, 0%, 76.861572%)" fill-opacity="1" d="M 160.984375 10.433594 C 160.984375 10.402344 161.046875 10.21875 161.046875 10.21875 C 161.046875 10.125 160.984375 10.003906 160.800781 10.003906 C 160.523438 10.003906 159.390625 10.125 159.054688 10.15625 C 158.960938 10.15625 158.777344 10.1875 158.777344 10.464844 C 158.777344 10.648438 158.960938 10.648438 159.113281 10.648438 C 159.789062 10.648438 159.789062 10.769531 159.789062 10.863281 C 159.789062 10.953125 159.757812 11.046875 159.726562 11.167969 L 158.011719 17.914062 C 157.980469 18.070312 157.980469 18.222656 157.980469 18.34375 C 157.980469 19.234375 158.746094 19.632812 159.390625 19.632812 C 159.726562 19.632812 160.15625 19.539062 160.496094 18.925781 C 160.800781 18.40625 160.984375 17.609375 160.984375 17.546875 C 160.984375 17.363281 160.800781 17.363281 160.769531 17.363281 C 160.554688 17.363281 160.523438 17.457031 160.496094 17.699219 C 160.308594 18.375 160.035156 19.265625 159.453125 19.265625 C 159.082031 19.265625 158.992188 18.925781 158.992188 18.589844 C 158.992188 18.4375 159.023438 18.191406 159.082031 18.039062 Z M 160.984375 10.433594 "/>
<path fill-rule="nonzero" fill="rgb(5.097961%, 0%, 76.861572%)" fill-opacity="1" d="M 165.019531 19.296875 C 165.019531 20.03125 164.894531 20.921875 163.945312 21.777344 C 163.914062 21.839844 163.851562 21.902344 163.851562 21.960938 C 163.851562 22.054688 163.976562 22.148438 164.035156 22.148438 C 164.25 22.148438 165.417969 21.042969 165.417969 19.417969 C 165.417969 18.589844 165.078125 17.945312 164.433594 17.945312 C 164.007812 17.945312 163.667969 18.28125 163.667969 18.710938 C 163.667969 19.140625 163.976562 19.507812 164.464844 19.507812 C 164.804688 19.507812 165.019531 19.296875 165.019531 19.296875 Z M 165.019531 19.296875 "/>
<path fill-rule="nonzero" fill="rgb(5.097961%, 0%, 76.861572%)" fill-opacity="1" d="M 170 16.75 C 170 16.65625 170.335938 15.429688 170.335938 15.371094 C 170.367188 15.246094 170.765625 14.574219 171.226562 14.234375 C 171.347656 14.144531 171.714844 13.867188 172.328125 13.867188 C 172.453125 13.867188 172.789062 13.867188 173.066406 14.050781 C 172.636719 14.175781 172.484375 14.574219 172.484375 14.816406 C 172.484375 15.09375 172.695312 15.308594 173.003906 15.308594 C 173.339844 15.308594 173.769531 15.0625 173.769531 14.480469 C 173.769531 13.773438 173.035156 13.46875 172.328125 13.46875 C 171.625 13.46875 171.011719 13.773438 170.398438 14.449219 C 170.152344 13.621094 169.324219 13.46875 168.988281 13.46875 C 168.496094 13.46875 168.160156 13.804688 167.914062 14.175781 C 167.605469 14.695312 167.421875 15.492188 167.421875 15.585938 C 167.421875 15.738281 167.605469 15.738281 167.667969 15.738281 C 167.851562 15.738281 167.851562 15.707031 167.945312 15.339844 C 168.160156 14.511719 168.433594 13.867188 168.957031 13.867188 C 169.324219 13.867188 169.414062 14.175781 169.414062 14.542969 C 169.414062 14.789062 169.292969 15.308594 169.171875 15.675781 C 169.078125 16.042969 168.957031 16.597656 168.894531 16.902344 L 168.433594 18.652344 C 168.402344 18.835938 168.3125 19.171875 168.3125 19.203125 C 168.3125 19.507812 168.558594 19.632812 168.773438 19.632812 C 168.988281 19.632812 169.261719 19.507812 169.355469 19.265625 C 169.386719 19.171875 169.539062 18.558594 169.628906 18.222656 Z M 170 16.75 "/>
<path fill-rule="nonzero" fill="rgb(5.097961%, 0%, 76.861572%)" fill-opacity="1" d="M 178.820312 2.5625 C 178.820312 2.257812 178.820312 1.890625 178.421875 1.890625 C 178.023438 1.890625 178.023438 2.347656 178.023438 2.625 L 178.023438 20.746094 C 178.023438 21.054688 178.023438 21.484375 178.421875 21.484375 C 178.820312 21.484375 178.820312 21.117188 178.820312 20.808594 Z M 182.621094 2.625 C 182.621094 2.320312 182.621094 1.890625 182.222656 1.890625 C 181.855469 1.890625 181.855469 2.257812 181.855469 2.5625 L 181.855469 20.808594 C 181.855469 21.117188 181.855469 21.484375 182.222656 21.484375 C 182.621094 21.484375 182.621094 21.023438 182.621094 20.746094 Z M 182.621094 2.625 "/>
<path fill-rule="nonzero" fill="rgb(5.097961%, 0%, 76.861572%)" fill-opacity="1" d="M 192.121094 20.664062 L 191.664062 20.664062 C 191.632812 20.972656 191.476562 21.769531 191.292969 21.890625 C 191.203125 21.984375 190.160156 21.984375 189.945312 21.984375 L 187.429688 21.984375 C 188.871094 20.726562 189.363281 20.328125 190.160156 19.683594 C 191.171875 18.886719 192.121094 18.027344 192.121094 16.738281 C 192.121094 15.082031 190.679688 14.070312 188.933594 14.070312 C 187.246094 14.070312 186.082031 15.265625 186.082031 16.523438 C 186.082031 17.199219 186.664062 17.292969 186.816406 17.292969 C 187.125 17.292969 187.523438 17.046875 187.523438 16.554688 C 187.523438 16.308594 187.429688 15.820312 186.726562 15.820312 C 187.15625 14.867188 188.074219 14.5625 188.71875 14.5625 C 190.097656 14.5625 190.804688 15.636719 190.804688 16.738281 C 190.804688 17.933594 189.945312 18.855469 189.515625 19.347656 L 186.234375 22.625 C 186.082031 22.75 186.082031 22.78125 186.082031 23.148438 L 191.722656 23.148438 Z M 192.121094 20.664062 "/>
<path fill-rule="nonzero" fill="rgb(100%, 100%, 100%)" fill-opacity="1" stroke-width="1.417323" stroke-linecap="butt" stroke-linejoin="miter" stroke="rgb(5.097961%, 0%, 76.861572%)" stroke-opacity="1" stroke-miterlimit="4" d="M 74.214844 29.808594 L 171.714844 37.308594 "/>
</svg>
