<?xml version="1.0" encoding="UTF-8"?>
<svg xmlns="http://www.w3.org/2000/svg" xmlns:xlink="http://www.w3.org/1999/xlink" width="295.178307pt" height="101.055393pt" viewBox="0 0 295.178307 101.055393">
<defs>
<clipPath id="clip-0">
<path clip-rule="nonzero" d="M 292 24 L 295.179688 24 L 295.179688 37 L 292 37 Z M 292 24 "/>
</clipPath>
</defs>
<path fill="none" stroke-width="0.850394" stroke-linecap="butt" stroke-linejoin="miter" stroke="rgb(0%, 0%, 0%)" stroke-opacity="1" stroke-miterlimit="4" d="M 40.226562 69.210938 L 47.726562 61.710938 "/>
<path fill="none" stroke-width="0.850394" stroke-linecap="butt" stroke-linejoin="miter" stroke="rgb(0%, 0%, 0%)" stroke-opacity="1" stroke-miterlimit="4" d="M 40.226562 61.710938 L 47.726562 69.210938 "/>
<path fill="none" stroke-width="0.850394" stroke-linecap="butt" stroke-linejoin="miter" stroke="rgb(0%, 0%, 0%)" stroke-opacity="1" stroke-miterlimit="4" d="M 178.976562 69.210938 L 186.476562 61.710938 "/>
<path fill="none" stroke-width="0.850394" stroke-linecap="butt" stroke-linejoin="miter" stroke="rgb(0%, 0%, 0%)" stroke-opacity="1" stroke-miterlimit="4" d="M 178.976562 61.710938 L 186.476562 69.210938 "/>
<path fill="none" stroke-width="0.850394" stroke-linecap="butt" stroke-linejoin="miter" stroke="rgb(0%, 0%, 0%)" stroke-opacity="1" stroke-miterlimit="4" d="M 171.476562 54.210938 L 178.976562 46.710938 "/>
<path fill="none" stroke-width="0.850394" stroke-linecap="butt" stroke-linejoin="miter" stroke="rgb(0%, 0%, 0%)" stroke-opacity="1" stroke-miterlimit="4" d="M 171.476562 46.710938 L 178.976562 54.210938 "/>
<path fill="none" stroke-width="0.850394" stroke-linecap="butt" stroke-linejoin="miter" stroke="rgb(0%, 0%, 0%)" stroke-opacity="1" stroke-miterlimit="4" d="M 51.476562 50.460938 L 58.976562 42.960938 "/>
<path fill="none" stroke-width="0.850394" stroke-linecap="butt" stroke-linejoin="miter" stroke="rgb(0%, 0%, 0%)" stroke-opacity="1" stroke-miterlimit="4" d="M 51.476562 42.960938 L 58.976562 50.460938 "/>
<path fill-rule="nonzero" fill="rgb(0%, 0%, 0%)" fill-opacity="1" d="M 33.308594 76.566406 L 35.574219 74.023438 C 35.851562 73.746094 35.972656 73.625 37.570312 73.625 L 37.570312 72.703125 C 36.894531 72.734375 35.882812 72.765625 35.789062 72.765625 C 35.300781 72.765625 34.320312 72.703125 33.765625 72.703125 L 33.765625 73.625 C 34.042969 73.625 34.289062 73.652344 34.503906 73.777344 C 34.441406 73.898438 34.441406 73.960938 34.347656 74.023438 L 32.722656 75.863281 L 30.792969 73.625 L 31.589844 73.625 L 31.589844 72.703125 C 31.066406 72.703125 29.839844 72.765625 29.199219 72.765625 C 28.585938 72.765625 27.695312 72.703125 27.050781 72.703125 L 27.050781 73.625 L 28.460938 73.625 L 31.496094 77.210938 L 28.921875 80.09375 C 28.613281 80.460938 27.910156 80.460938 26.960938 80.460938 L 26.960938 81.382812 C 27.632812 81.351562 28.675781 81.320312 28.769531 81.320312 C 29.257812 81.320312 30.394531 81.351562 30.761719 81.382812 L 30.761719 80.460938 C 30.425781 80.460938 30.054688 80.371094 30.054688 80.246094 C 30.054688 80.214844 30.054688 80.214844 30.179688 80.0625 L 32.078125 77.917969 L 34.226562 80.460938 L 33.460938 80.460938 L 33.460938 81.382812 C 33.980469 81.351562 35.175781 81.320312 35.820312 81.320312 C 36.433594 81.320312 37.324219 81.351562 37.96875 81.382812 L 37.96875 80.460938 L 36.585938 80.460938 Z M 33.308594 76.566406 "/>
<path fill-rule="nonzero" fill="rgb(0%, 0%, 0%)" fill-opacity="1" d="M 63.203125 34.863281 L 65.472656 32.316406 C 65.75 32.039062 65.871094 31.917969 67.464844 31.917969 L 67.464844 31 C 66.789062 31.027344 65.777344 31.058594 65.6875 31.058594 C 65.195312 31.058594 64.214844 31 63.664062 31 L 63.664062 31.917969 C 63.9375 31.917969 64.183594 31.949219 64.398438 32.070312 C 64.335938 32.195312 64.335938 32.253906 64.246094 32.316406 L 62.621094 34.15625 L 60.6875 31.917969 L 61.484375 31.917969 L 61.484375 31 C 60.964844 31 59.738281 31.058594 59.09375 31.058594 C 58.480469 31.058594 57.589844 31 56.949219 31 L 56.949219 31.917969 L 58.359375 31.917969 L 61.394531 35.507812 L 58.816406 38.386719 C 58.511719 38.757812 57.804688 38.757812 56.855469 38.757812 L 56.855469 39.675781 C 57.53125 39.644531 58.574219 39.613281 58.664062 39.613281 C 59.15625 39.613281 60.289062 39.644531 60.65625 39.675781 L 60.65625 38.757812 C 60.320312 38.757812 59.953125 38.664062 59.953125 38.542969 C 59.953125 38.511719 59.953125 38.511719 60.074219 38.359375 L 61.976562 36.210938 L 64.125 38.757812 L 63.355469 38.757812 L 63.355469 39.675781 C 63.878906 39.644531 65.074219 39.613281 65.71875 39.613281 C 66.332031 39.613281 67.21875 39.644531 67.863281 39.675781 L 67.863281 38.757812 L 66.484375 38.757812 Z M 63.203125 34.863281 "/>
<path fill-rule="nonzero" fill="rgb(0%, 0%, 0%)" fill-opacity="1" d="M 71.511719 39.847656 C 71.511719 39.757812 71.851562 38.53125 71.851562 38.46875 C 71.882812 38.347656 72.28125 37.671875 72.738281 37.335938 C 72.863281 37.242188 73.230469 36.964844 73.84375 36.964844 C 73.964844 36.964844 74.304688 36.964844 74.578125 37.148438 C 74.152344 37.273438 73.996094 37.671875 73.996094 37.917969 C 73.996094 38.191406 74.210938 38.40625 74.519531 38.40625 C 74.855469 38.40625 75.285156 38.160156 75.285156 37.578125 C 75.285156 36.875 74.550781 36.566406 73.84375 36.566406 C 73.140625 36.566406 72.527344 36.875 71.914062 37.546875 C 71.667969 36.722656 70.839844 36.566406 70.5 36.566406 C 70.011719 36.566406 69.671875 36.90625 69.429688 37.273438 C 69.121094 37.792969 68.9375 38.589844 68.9375 38.683594 C 68.9375 38.835938 69.121094 38.835938 69.183594 38.835938 C 69.367188 38.835938 69.367188 38.804688 69.457031 38.4375 C 69.671875 37.609375 69.949219 36.964844 70.472656 36.964844 C 70.839844 36.964844 70.929688 37.273438 70.929688 37.640625 C 70.929688 37.886719 70.808594 38.40625 70.683594 38.773438 C 70.59375 39.144531 70.472656 39.695312 70.410156 40 L 69.949219 41.75 C 69.917969 41.933594 69.828125 42.269531 69.828125 42.300781 C 69.828125 42.609375 70.070312 42.730469 70.285156 42.730469 C 70.5 42.730469 70.777344 42.609375 70.871094 42.363281 C 70.898438 42.269531 71.054688 41.65625 71.144531 41.320312 Z M 71.511719 39.847656 "/>
<path fill-rule="nonzero" fill="rgb(0%, 0%, 0%)" fill-opacity="1" d="M 198.390625 81.105469 C 198.390625 81.71875 198.390625 82.609375 200.417969 82.609375 L 201.367188 82.609375 C 201.734375 82.609375 201.980469 82.609375 201.980469 82.148438 C 201.980469 81.6875 201.734375 81.6875 201.457031 81.6875 C 200.261719 81.65625 200.261719 81.410156 200.261719 80.953125 L 200.261719 76.75 C 200.261719 75.003906 198.882812 73.746094 195.96875 73.746094 C 194.867188 73.746094 192.472656 73.835938 192.472656 75.554688 C 192.472656 76.414062 193.148438 76.78125 193.667969 76.78125 C 194.285156 76.78125 194.925781 76.351562 194.925781 75.554688 C 194.925781 74.972656 194.558594 74.636719 194.496094 74.574219 C 195.050781 74.480469 195.664062 74.449219 195.910156 74.449219 C 197.351562 74.449219 198.054688 75.277344 198.054688 76.75 L 198.054688 77.425781 C 196.644531 77.488281 191.675781 77.671875 191.675781 80.492188 C 191.675781 82.363281 194.128906 82.730469 195.480469 82.730469 C 197.042969 82.730469 197.964844 81.933594 198.390625 81.105469 Z M 198.054688 78.039062 L 198.054688 79.878906 C 198.054688 81.78125 196.246094 82.023438 195.753906 82.023438 C 194.773438 82.023438 193.976562 81.351562 193.976562 80.460938 C 193.976562 78.375 197.074219 78.101562 198.054688 78.039062 Z M 198.054688 78.039062 "/>
<path fill-rule="nonzero" fill="rgb(0%, 0%, 0%)" fill-opacity="1" d="M 205.859375 76.464844 C 205.859375 76.433594 205.917969 76.25 205.917969 76.25 C 205.917969 76.15625 205.859375 76.035156 205.675781 76.035156 C 205.398438 76.035156 204.265625 76.15625 203.925781 76.1875 C 203.835938 76.1875 203.652344 76.21875 203.652344 76.492188 C 203.652344 76.679688 203.835938 76.679688 203.988281 76.679688 C 204.664062 76.679688 204.664062 76.800781 204.664062 76.890625 C 204.664062 76.984375 204.632812 77.078125 204.601562 77.199219 L 202.882812 83.945312 C 202.851562 84.097656 202.851562 84.25 202.851562 84.375 C 202.851562 85.265625 203.621094 85.664062 204.265625 85.664062 C 204.601562 85.664062 205.03125 85.570312 205.367188 84.957031 C 205.675781 84.4375 205.859375 83.636719 205.859375 83.578125 C 205.859375 83.394531 205.675781 83.394531 205.644531 83.394531 C 205.429688 83.394531 205.398438 83.484375 205.367188 83.730469 C 205.183594 84.40625 204.90625 85.292969 204.324219 85.292969 C 203.957031 85.292969 203.867188 84.957031 203.867188 84.621094 C 203.867188 84.464844 203.894531 84.222656 203.957031 84.066406 Z M 205.859375 76.464844 "/>
<path fill-rule="nonzero" fill="rgb(0%, 0%, 0%)" fill-opacity="1" d="M 209.890625 85.324219 C 209.890625 86.0625 209.769531 86.949219 208.816406 87.808594 C 208.789062 87.871094 208.726562 87.929688 208.726562 87.992188 C 208.726562 88.085938 208.847656 88.175781 208.910156 88.175781 C 209.125 88.175781 210.289062 87.074219 210.289062 85.449219 C 210.289062 84.621094 209.953125 83.976562 209.308594 83.976562 C 208.878906 83.976562 208.542969 84.3125 208.542969 84.742188 C 208.542969 85.171875 208.847656 85.539062 209.339844 85.539062 C 209.675781 85.539062 209.890625 85.324219 209.890625 85.324219 Z M 209.890625 85.324219 "/>
<path fill-rule="nonzero" fill="rgb(0%, 0%, 0%)" fill-opacity="1" d="M 217.664062 76.984375 C 217.664062 76.769531 217.480469 76.464844 217.109375 76.464844 C 216.710938 76.464844 216.34375 76.863281 216.34375 77.230469 C 216.34375 77.445312 216.496094 77.75 216.894531 77.75 C 217.265625 77.75 217.664062 77.382812 217.664062 76.984375 Z M 214.75 86.214844 C 214.535156 87.164062 213.796875 87.929688 213 87.929688 C 212.816406 87.929688 212.664062 87.929688 212.511719 87.871094 C 212.847656 87.6875 212.972656 87.378906 212.972656 87.164062 C 212.972656 86.828125 212.695312 86.675781 212.417969 86.675781 C 212.019531 86.675781 211.652344 87.042969 211.652344 87.472656 C 211.652344 87.992188 212.171875 88.332031 213 88.332031 C 213.828125 88.332031 215.425781 87.839844 215.851562 86.183594 L 217.078125 81.277344 C 217.109375 81.125 217.140625 81 217.140625 80.785156 C 217.140625 80.050781 216.496094 79.5 215.699219 79.5 C 214.167969 79.5 213.308594 81.398438 213.308594 81.613281 C 213.308594 81.769531 213.492188 81.769531 213.523438 81.769531 C 213.675781 81.769531 213.707031 81.738281 213.796875 81.523438 C 214.136719 80.726562 214.839844 79.898438 215.640625 79.898438 C 215.976562 79.898438 216.097656 80.113281 216.097656 80.570312 C 216.097656 80.726562 216.097656 80.910156 216.066406 80.972656 Z M 214.75 86.214844 "/>
<path fill-rule="nonzero" fill="rgb(0%, 0%, 0%)" fill-opacity="1" d="M 162.855469 37.863281 C 162.855469 38.476562 162.855469 39.367188 164.878906 39.367188 L 165.832031 39.367188 C 166.199219 39.367188 166.445312 39.367188 166.445312 38.90625 C 166.445312 38.445312 166.199219 38.445312 165.921875 38.445312 C 164.726562 38.417969 164.726562 38.171875 164.726562 37.710938 L 164.726562 33.511719 C 164.726562 31.761719 163.347656 30.503906 160.433594 30.503906 C 159.328125 30.503906 156.9375 30.597656 156.9375 32.3125 C 156.9375 33.171875 157.613281 33.539062 158.132812 33.539062 C 158.746094 33.539062 159.390625 33.113281 159.390625 32.3125 C 159.390625 31.730469 159.023438 31.394531 158.960938 31.332031 C 159.511719 31.242188 160.125 31.210938 160.371094 31.210938 C 161.8125 31.210938 162.519531 32.039062 162.519531 33.511719 L 162.519531 34.183594 C 161.109375 34.246094 156.140625 34.429688 156.140625 37.25 C 156.140625 39.121094 158.59375 39.488281 159.941406 39.488281 C 161.507812 39.488281 162.425781 38.691406 162.855469 37.863281 Z M 162.519531 34.796875 L 162.519531 36.636719 C 162.519531 38.539062 160.710938 38.785156 160.21875 38.785156 C 159.238281 38.785156 158.441406 38.109375 158.441406 37.21875 C 158.441406 35.136719 161.539062 34.859375 162.519531 34.796875 Z M 162.519531 34.796875 "/>
<path fill-rule="nonzero" fill="rgb(0%, 0%, 0%)" fill-opacity="1" d="M 170.320312 33.222656 C 170.320312 33.191406 170.382812 33.007812 170.382812 33.007812 C 170.382812 32.914062 170.320312 32.792969 170.136719 32.792969 C 169.863281 32.792969 168.726562 32.914062 168.390625 32.945312 C 168.296875 32.945312 168.113281 32.976562 168.113281 33.253906 C 168.113281 33.4375 168.296875 33.4375 168.453125 33.4375 C 169.125 33.4375 169.125 33.558594 169.125 33.652344 C 169.125 33.742188 169.09375 33.835938 169.066406 33.957031 L 167.347656 40.703125 C 167.316406 40.859375 167.316406 41.011719 167.316406 41.132812 C 167.316406 42.023438 168.082031 42.421875 168.726562 42.421875 C 169.066406 42.421875 169.496094 42.328125 169.832031 41.714844 C 170.136719 41.195312 170.320312 40.398438 170.320312 40.335938 C 170.320312 40.152344 170.136719 40.152344 170.109375 40.152344 C 169.894531 40.152344 169.863281 40.246094 169.832031 40.488281 C 169.648438 41.164062 169.371094 42.054688 168.789062 42.054688 C 168.421875 42.054688 168.328125 41.714844 168.328125 41.378906 C 168.328125 41.226562 168.359375 40.980469 168.421875 40.828125 Z M 170.320312 33.222656 "/>
<path fill-rule="nonzero" fill="rgb(0%, 0%, 0%)" fill-opacity="1" d="M 174.355469 42.085938 C 174.355469 42.820312 174.234375 43.710938 173.28125 44.566406 C 173.25 44.628906 173.191406 44.691406 173.191406 44.753906 C 173.191406 44.84375 173.3125 44.9375 173.375 44.9375 C 173.589844 44.9375 174.753906 43.832031 174.753906 42.207031 C 174.753906 41.378906 174.417969 40.734375 173.773438 40.734375 C 173.34375 40.734375 173.007812 41.074219 173.007812 41.5 C 173.007812 41.929688 173.3125 42.300781 173.804688 42.300781 C 174.140625 42.300781 174.355469 42.085938 174.355469 42.085938 Z M 174.355469 42.085938 "/>
<path fill-rule="nonzero" fill="rgb(0%, 0%, 0%)" fill-opacity="1" d="M 179.335938 39.539062 C 179.335938 39.449219 179.671875 38.222656 179.671875 38.160156 C 179.703125 38.035156 180.101562 37.363281 180.5625 37.023438 C 180.683594 36.933594 181.054688 36.65625 181.667969 36.65625 C 181.789062 36.65625 182.125 36.65625 182.402344 36.839844 C 181.972656 36.964844 181.820312 37.363281 181.820312 37.609375 C 181.820312 37.882812 182.035156 38.097656 182.339844 38.097656 C 182.679688 38.097656 183.109375 37.851562 183.109375 37.269531 C 183.109375 36.566406 182.371094 36.257812 181.667969 36.257812 C 180.960938 36.257812 180.347656 36.566406 179.734375 37.238281 C 179.488281 36.410156 178.660156 36.257812 178.324219 36.257812 C 177.832031 36.257812 177.496094 36.59375 177.25 36.964844 C 176.945312 37.484375 176.761719 38.28125 176.761719 38.375 C 176.761719 38.527344 176.945312 38.527344 177.003906 38.527344 C 177.1875 38.527344 177.1875 38.496094 177.28125 38.128906 C 177.496094 37.300781 177.773438 36.65625 178.292969 36.65625 C 178.660156 36.65625 178.753906 36.964844 178.753906 37.332031 C 178.753906 37.578125 178.628906 38.097656 178.507812 38.464844 C 178.414062 38.835938 178.292969 39.386719 178.230469 39.691406 L 177.773438 41.441406 C 177.742188 41.625 177.648438 41.960938 177.648438 41.992188 C 177.648438 42.300781 177.894531 42.421875 178.109375 42.421875 C 178.324219 42.421875 178.601562 42.300781 178.691406 42.054688 C 178.722656 41.960938 178.875 41.347656 178.96875 41.011719 Z M 179.335938 39.539062 "/>
<path fill-rule="nonzero" fill="rgb(100%, 10.588074%, 9.01947%)" fill-opacity="1" d="M 75.371094 72.410156 C 75.371094 72.105469 75.371094 71.738281 74.972656 71.738281 C 74.574219 71.738281 74.574219 72.195312 74.574219 72.472656 L 74.574219 90.597656 C 74.574219 90.902344 74.574219 91.332031 74.972656 91.332031 C 75.371094 91.332031 75.371094 90.964844 75.371094 90.65625 Z M 79.175781 72.472656 C 79.175781 72.167969 79.175781 71.738281 78.777344 71.738281 C 78.410156 71.738281 78.410156 72.105469 78.410156 72.410156 L 78.410156 90.65625 C 78.410156 90.964844 78.410156 91.332031 78.777344 91.332031 C 79.175781 91.332031 79.175781 90.871094 79.175781 90.597656 Z M 79.175781 72.472656 "/>
<path fill-rule="nonzero" fill="rgb(100%, 10.588074%, 9.01947%)" fill-opacity="1" d="M 88.554688 81.609375 L 90.824219 79.066406 C 91.097656 78.789062 91.222656 78.667969 92.816406 78.667969 L 92.816406 77.746094 C 92.140625 77.777344 91.128906 77.808594 91.039062 77.808594 C 90.546875 77.808594 89.566406 77.746094 89.011719 77.746094 L 89.011719 78.667969 C 89.289062 78.667969 89.535156 78.699219 89.75 78.820312 C 89.6875 78.941406 89.6875 79.003906 89.597656 79.066406 L 87.972656 80.90625 L 86.039062 78.667969 L 86.835938 78.667969 L 86.835938 77.746094 C 86.316406 77.746094 85.089844 77.808594 84.445312 77.808594 C 83.832031 77.808594 82.941406 77.746094 82.296875 77.746094 L 82.296875 78.667969 L 83.707031 78.667969 L 86.746094 82.253906 L 84.167969 85.136719 C 83.863281 85.503906 83.15625 85.503906 82.207031 85.503906 L 82.207031 86.425781 C 82.878906 86.394531 83.921875 86.363281 84.015625 86.363281 C 84.507812 86.363281 85.640625 86.394531 86.007812 86.425781 L 86.007812 85.503906 C 85.671875 85.503906 85.304688 85.414062 85.304688 85.289062 C 85.304688 85.261719 85.304688 85.261719 85.425781 85.105469 L 87.328125 82.960938 L 89.472656 85.503906 L 88.707031 85.503906 L 88.707031 86.425781 C 89.226562 86.394531 90.425781 86.363281 91.066406 86.363281 C 91.679688 86.363281 92.570312 86.394531 93.214844 86.425781 L 93.214844 85.503906 L 91.835938 85.503906 Z M 88.554688 81.609375 "/>
<path fill-rule="nonzero" fill="rgb(100%, 10.588074%, 9.01947%)" fill-opacity="1" d="M 110.867188 81.917969 C 111.203125 81.917969 111.570312 81.917969 111.570312 81.519531 C 111.570312 81.152344 111.203125 81.152344 110.867188 81.152344 L 100.289062 81.152344 C 99.949219 81.152344 99.613281 81.152344 99.613281 81.519531 C 99.613281 81.917969 99.949219 81.917969 100.289062 81.917969 Z M 110.867188 81.917969 "/>
<path fill-rule="nonzero" fill="rgb(100%, 10.588074%, 9.01947%)" fill-opacity="1" d="M 124.867188 84.921875 C 124.867188 85.535156 124.867188 86.425781 126.894531 86.425781 L 127.84375 86.425781 C 128.210938 86.425781 128.457031 86.425781 128.457031 85.964844 C 128.457031 85.503906 128.210938 85.503906 127.933594 85.503906 C 126.738281 85.476562 126.738281 85.230469 126.738281 84.769531 L 126.738281 80.570312 C 126.738281 78.820312 125.359375 77.5625 122.445312 77.5625 C 121.34375 77.5625 118.949219 77.65625 118.949219 79.371094 C 118.949219 80.230469 119.625 80.597656 120.144531 80.597656 C 120.757812 80.597656 121.402344 80.171875 121.402344 79.371094 C 121.402344 78.789062 121.035156 78.453125 120.972656 78.390625 C 121.527344 78.300781 122.140625 78.269531 122.386719 78.269531 C 123.828125 78.269531 124.53125 79.097656 124.53125 80.570312 L 124.53125 81.242188 C 123.121094 81.304688 118.152344 81.488281 118.152344 84.308594 C 118.152344 86.179688 120.605469 86.546875 121.957031 86.546875 C 123.519531 86.546875 124.441406 85.75 124.867188 84.921875 Z M 124.53125 81.855469 L 124.53125 83.695312 C 124.53125 85.597656 122.722656 85.84375 122.230469 85.84375 C 121.25 85.84375 120.453125 85.167969 120.453125 84.277344 C 120.453125 82.195312 123.550781 81.917969 124.53125 81.855469 Z M 124.53125 81.855469 "/>
<path fill-rule="nonzero" fill="rgb(100%, 10.588074%, 9.01947%)" fill-opacity="1" d="M 132.332031 80.28125 C 132.332031 80.25 132.394531 80.066406 132.394531 80.066406 C 132.394531 79.972656 132.332031 79.851562 132.148438 79.851562 C 131.871094 79.851562 130.738281 79.972656 130.402344 80.003906 C 130.308594 80.003906 130.125 80.035156 130.125 80.3125 C 130.125 80.496094 130.308594 80.496094 130.460938 80.496094 C 131.136719 80.496094 131.136719 80.617188 131.136719 80.710938 C 131.136719 80.800781 131.105469 80.894531 131.074219 81.015625 L 129.359375 87.761719 C 129.328125 87.917969 129.328125 88.070312 129.328125 88.191406 C 129.328125 89.082031 130.09375 89.480469 130.738281 89.480469 C 131.074219 89.480469 131.503906 89.386719 131.84375 88.773438 C 132.148438 88.253906 132.332031 87.457031 132.332031 87.394531 C 132.332031 87.210938 132.148438 87.210938 132.117188 87.210938 C 131.902344 87.210938 131.871094 87.304688 131.84375 87.546875 C 131.660156 88.222656 131.382812 89.113281 130.800781 89.113281 C 130.433594 89.113281 130.339844 88.773438 130.339844 88.4375 C 130.339844 88.285156 130.371094 88.039062 130.433594 87.886719 Z M 132.332031 80.28125 "/>
<path fill-rule="nonzero" fill="rgb(100%, 10.588074%, 9.01947%)" fill-opacity="1" d="M 136.367188 89.144531 C 136.367188 89.878906 136.242188 90.769531 135.292969 91.625 C 135.261719 91.6875 135.199219 91.75 135.199219 91.8125 C 135.199219 91.902344 135.324219 91.996094 135.382812 91.996094 C 135.597656 91.996094 136.765625 90.890625 136.765625 89.265625 C 136.765625 88.4375 136.425781 87.792969 135.785156 87.792969 C 135.355469 87.792969 135.015625 88.132812 135.015625 88.558594 C 135.015625 88.988281 135.324219 89.359375 135.8125 89.359375 C 136.152344 89.359375 136.367188 89.144531 136.367188 89.144531 Z M 136.367188 89.144531 "/>
<path fill-rule="nonzero" fill="rgb(100%, 10.588074%, 9.01947%)" fill-opacity="1" d="M 144.136719 80.800781 C 144.136719 80.585938 143.953125 80.28125 143.585938 80.28125 C 143.1875 80.28125 142.820312 80.679688 142.820312 81.046875 C 142.820312 81.261719 142.972656 81.570312 143.371094 81.570312 C 143.738281 81.570312 144.136719 81.199219 144.136719 80.800781 Z M 141.222656 90.03125 C 141.007812 90.984375 140.273438 91.75 139.476562 91.75 C 139.292969 91.75 139.140625 91.75 138.984375 91.6875 C 139.324219 91.503906 139.445312 91.199219 139.445312 90.984375 C 139.445312 90.644531 139.167969 90.492188 138.894531 90.492188 C 138.496094 90.492188 138.125 90.859375 138.125 91.289062 C 138.125 91.8125 138.648438 92.148438 139.476562 92.148438 C 140.304688 92.148438 141.898438 91.65625 142.328125 90 L 143.554688 85.09375 C 143.585938 84.941406 143.617188 84.820312 143.617188 84.605469 C 143.617188 83.867188 142.972656 83.316406 142.175781 83.316406 C 140.640625 83.316406 139.78125 85.21875 139.78125 85.433594 C 139.78125 85.585938 139.964844 85.585938 139.996094 85.585938 C 140.152344 85.585938 140.179688 85.554688 140.273438 85.339844 C 140.609375 84.542969 141.316406 83.714844 142.113281 83.714844 C 142.449219 83.714844 142.574219 83.929688 142.574219 84.390625 C 142.574219 84.542969 142.574219 84.726562 142.542969 84.789062 Z M 141.222656 90.03125 "/>
<path fill-rule="nonzero" fill="rgb(100%, 10.588074%, 9.01947%)" fill-opacity="1" d="M 149.75 72.410156 C 149.75 72.105469 149.75 71.738281 149.351562 71.738281 C 148.953125 71.738281 148.953125 72.195312 148.953125 72.472656 L 148.953125 90.597656 C 148.953125 90.902344 148.953125 91.332031 149.351562 91.332031 C 149.75 91.332031 149.75 90.964844 149.75 90.65625 Z M 153.550781 72.472656 C 153.550781 72.167969 153.550781 71.738281 153.152344 71.738281 C 152.785156 71.738281 152.785156 72.105469 152.785156 72.410156 L 152.785156 90.65625 C 152.785156 90.964844 152.785156 91.332031 153.152344 91.332031 C 153.550781 91.332031 153.550781 90.871094 153.550781 90.597656 Z M 153.550781 72.472656 "/>
<path fill-rule="nonzero" fill="rgb(100%, 10.588074%, 9.01947%)" fill-opacity="1" d="M 163.050781 90.511719 L 162.589844 90.511719 C 162.558594 90.820312 162.40625 91.617188 162.222656 91.738281 C 162.128906 91.832031 161.085938 91.832031 160.875 91.832031 L 158.359375 91.832031 C 159.800781 90.574219 160.289062 90.175781 161.085938 89.53125 C 162.101562 88.734375 163.050781 87.875 163.050781 86.585938 C 163.050781 84.929688 161.609375 83.917969 159.859375 83.917969 C 158.175781 83.917969 157.007812 85.117188 157.007812 86.371094 C 157.007812 87.046875 157.59375 87.140625 157.746094 87.140625 C 158.050781 87.140625 158.449219 86.894531 158.449219 86.402344 C 158.449219 86.15625 158.359375 85.667969 157.652344 85.667969 C 158.082031 84.714844 159.003906 84.410156 159.644531 84.410156 C 161.027344 84.410156 161.730469 85.484375 161.730469 86.585938 C 161.730469 87.78125 160.875 88.703125 160.445312 89.195312 L 157.164062 92.476562 C 157.007812 92.597656 157.007812 92.628906 157.007812 92.996094 L 162.652344 92.996094 Z M 163.050781 90.511719 "/>
<path fill="none" stroke-width="1.417323" stroke-linecap="butt" stroke-linejoin="miter" stroke="rgb(100%, 10.588074%, 9.01947%)" stroke-opacity="1" stroke-miterlimit="4" d="M 43.976562 65.460938 L 182.726562 65.460938 "/>
<path fill="none" stroke-width="0.35589" stroke-linecap="butt" stroke-linejoin="miter" stroke="rgb(0%, 0%, 0%)" stroke-opacity="1" stroke-miterlimit="4" d="M 46.949219 45.449219 L 43.976562 65.460938 "/>
<path fill="none" stroke-width="1.417323" stroke-linecap="butt" stroke-linejoin="miter" stroke="rgb(5.097961%, 0%, 76.861572%)" stroke-opacity="1" stroke-miterlimit="4" d="M 55.226562 46.710938 L 175.226562 50.460938 "/>
<path fill="none" stroke-width="0.283465" stroke-linecap="butt" stroke-linejoin="miter" stroke="rgb(0%, 0%, 0%)" stroke-opacity="1" stroke-miterlimit="4" d="M 175.226562 50.460938 L 205.226562 51.398438 "/>
<path fill="none" stroke-width="0.623622" stroke-linecap="butt" stroke-linejoin="miter" stroke="rgb(0%, 0%, 0%)" stroke-opacity="1" stroke-miterlimit="4" d="M 183.191406 50.609375 L 182.726562 65.460938 "/>
<path fill="none" stroke-width="0.566929" stroke-linecap="square" stroke-linejoin="miter" stroke="rgb(0%, 0%, 0%)" stroke-opacity="1" stroke-miterlimit="4" d="M 183.480469 54.832031 L 187.226562 54.960938 L 187.359375 51.214844 "/>
<path fill="none" stroke-width="1.417323" stroke-linecap="butt" stroke-linejoin="miter" stroke="rgb(100%, 54.116821%, 0%)" stroke-opacity="1" stroke-miterlimit="4" d="M 175.226562 50.460938 L 182.878906 50.699219 "/>
<path fill="none" stroke-width="0.283465" stroke-linecap="butt" stroke-linejoin="miter" stroke="rgb(0%, 0%, 0%)" stroke-opacity="1" stroke-miterlimit="4" d="M 39.289062 44.367188 L 55.226562 46.710938 "/>
<path fill="none" stroke-width="0.566929" stroke-linecap="square" stroke-linejoin="miter" stroke="rgb(0%, 0%, 0%)" stroke-opacity="1" stroke-miterlimit="4" d="M 43.183594 45.367188 L 42.535156 49.058594 L 46.226562 49.710938 "/>
<path fill="none" stroke-width="0.283465" stroke-linecap="butt" stroke-linejoin="miter" stroke="rgb(0%, 0%, 0%)" stroke-opacity="1" stroke-miterlimit="4" d="M 25.226562 45.773438 L 55.226562 46.710938 "/>
<path fill="none" stroke-width="1.417323" stroke-linecap="butt" stroke-linejoin="miter" stroke="rgb(38.430786%, 74.508667%, 0%)" stroke-opacity="1" stroke-miterlimit="4" d="M 47.105469 46.457031 L 55.226562 46.710938 "/>
<path fill="none" stroke-width="0.141732" stroke-linecap="butt" stroke-linejoin="miter" stroke="rgb(0%, 0%, 0%)" stroke-opacity="1" stroke-miterlimit="4" d="M 47.25 48.824219 C 46.855469 47.335938 46.886719 45.765625 47.339844 44.292969 "/>
<path fill-rule="nonzero" fill="rgb(5.097961%, 0%, 76.861572%)" fill-opacity="1" d="M 95.367188 2.5625 C 95.367188 2.257812 95.367188 1.890625 94.96875 1.890625 C 94.570312 1.890625 94.570312 2.347656 94.570312 2.625 L 94.570312 20.746094 C 94.570312 21.054688 94.570312 21.484375 94.96875 21.484375 C 95.367188 21.484375 95.367188 21.117188 95.367188 20.808594 Z M 99.167969 2.625 C 99.167969 2.320312 99.167969 1.890625 98.769531 1.890625 C 98.402344 1.890625 98.402344 2.257812 98.402344 2.5625 L 98.402344 20.808594 C 98.402344 21.117188 98.402344 21.484375 98.769531 21.484375 C 99.167969 21.484375 99.167969 21.023438 99.167969 20.746094 Z M 99.167969 2.625 "/>
<path fill-rule="nonzero" fill="rgb(5.097961%, 0%, 76.861572%)" fill-opacity="1" d="M 108.546875 11.761719 L 110.816406 9.21875 C 111.09375 8.941406 111.214844 8.820312 112.808594 8.820312 L 112.808594 7.898438 C 112.132812 7.929688 111.121094 7.960938 111.03125 7.960938 C 110.539062 7.960938 109.558594 7.898438 109.007812 7.898438 L 109.007812 8.820312 C 109.28125 8.820312 109.527344 8.851562 109.742188 8.972656 C 109.679688 9.09375 109.679688 9.15625 109.589844 9.21875 L 107.964844 11.058594 L 106.03125 8.820312 L 106.828125 8.820312 L 106.828125 7.898438 C 106.308594 7.898438 105.082031 7.960938 104.4375 7.960938 C 103.824219 7.960938 102.933594 7.898438 102.292969 7.898438 L 102.292969 8.820312 L 103.703125 8.820312 L 106.738281 12.40625 L 104.160156 15.289062 C 103.855469 15.65625 103.148438 15.65625 102.199219 15.65625 L 102.199219 16.578125 C 102.875 16.546875 103.917969 16.515625 104.007812 16.515625 C 104.5 16.515625 105.632812 16.546875 106 16.578125 L 106 15.65625 C 105.664062 15.65625 105.296875 15.566406 105.296875 15.441406 C 105.296875 15.414062 105.296875 15.414062 105.417969 15.257812 L 107.320312 13.113281 L 109.46875 15.65625 L 108.699219 15.65625 L 108.699219 16.578125 C 109.222656 16.546875 110.417969 16.515625 111.0625 16.515625 C 111.675781 16.515625 112.5625 16.546875 113.207031 16.578125 L 113.207031 15.65625 L 111.828125 15.65625 Z M 108.546875 11.761719 "/>
<path fill-rule="nonzero" fill="rgb(5.097961%, 0%, 76.861572%)" fill-opacity="1" d="M 116.855469 16.75 C 116.855469 16.65625 117.191406 15.429688 117.191406 15.371094 C 117.222656 15.246094 117.621094 14.574219 118.082031 14.234375 C 118.203125 14.144531 118.574219 13.867188 119.1875 13.867188 C 119.308594 13.867188 119.644531 13.867188 119.921875 14.050781 C 119.492188 14.175781 119.339844 14.574219 119.339844 14.816406 C 119.339844 15.09375 119.554688 15.308594 119.859375 15.308594 C 120.199219 15.308594 120.628906 15.0625 120.628906 14.480469 C 120.628906 13.773438 119.890625 13.46875 119.1875 13.46875 C 118.480469 13.46875 117.867188 13.773438 117.253906 14.449219 C 117.007812 13.621094 116.179688 13.46875 115.84375 13.46875 C 115.351562 13.46875 115.015625 13.804688 114.769531 14.175781 C 114.464844 14.695312 114.28125 15.492188 114.28125 15.585938 C 114.28125 15.738281 114.464844 15.738281 114.523438 15.738281 C 114.707031 15.738281 114.707031 15.707031 114.800781 15.339844 C 115.015625 14.511719 115.292969 13.867188 115.8125 13.867188 C 116.179688 13.867188 116.273438 14.175781 116.273438 14.542969 C 116.273438 14.789062 116.148438 15.308594 116.027344 15.675781 C 115.933594 16.042969 115.8125 16.597656 115.75 16.902344 L 115.292969 18.652344 C 115.261719 18.835938 115.167969 19.171875 115.167969 19.203125 C 115.167969 19.507812 115.414062 19.632812 115.628906 19.632812 C 115.84375 19.632812 116.121094 19.507812 116.210938 19.265625 C 116.242188 19.171875 116.394531 18.558594 116.488281 18.222656 Z M 116.855469 16.75 "/>
<path fill-rule="nonzero" fill="rgb(5.097961%, 0%, 76.861572%)" fill-opacity="1" d="M 139.519531 12.070312 C 139.855469 12.070312 140.222656 12.070312 140.222656 11.671875 C 140.222656 11.304688 139.855469 11.304688 139.519531 11.304688 L 128.9375 11.304688 C 128.601562 11.304688 128.265625 11.304688 128.265625 11.671875 C 128.265625 12.070312 128.601562 12.070312 128.9375 12.070312 Z M 139.519531 12.070312 "/>
<path fill-rule="nonzero" fill="rgb(5.097961%, 0%, 76.861572%)" fill-opacity="1" d="M 153.519531 15.074219 C 153.519531 15.6875 153.519531 16.578125 155.542969 16.578125 L 156.496094 16.578125 C 156.863281 16.578125 157.109375 16.578125 157.109375 16.117188 C 157.109375 15.65625 156.863281 15.65625 156.585938 15.65625 C 155.390625 15.628906 155.390625 15.382812 155.390625 14.921875 L 155.390625 10.71875 C 155.390625 8.972656 154.011719 7.714844 151.097656 7.714844 C 149.996094 7.714844 147.601562 7.808594 147.601562 9.523438 C 147.601562 10.382812 148.277344 10.75 148.796875 10.75 C 149.410156 10.75 150.054688 10.320312 150.054688 9.523438 C 150.054688 8.941406 149.6875 8.605469 149.625 8.542969 C 150.179688 8.453125 150.792969 8.421875 151.035156 8.421875 C 152.476562 8.421875 153.183594 9.25 153.183594 10.71875 L 153.183594 11.394531 C 151.773438 11.457031 146.804688 11.640625 146.804688 14.460938 C 146.804688 16.332031 149.257812 16.699219 150.609375 16.699219 C 152.171875 16.699219 153.089844 15.902344 153.519531 15.074219 Z M 153.183594 12.007812 L 153.183594 13.847656 C 153.183594 15.75 151.375 15.996094 150.882812 15.996094 C 149.902344 15.996094 149.105469 15.320312 149.105469 14.429688 C 149.105469 12.347656 152.203125 12.070312 153.183594 12.007812 Z M 153.183594 12.007812 "/>
<path fill-rule="nonzero" fill="rgb(5.097961%, 0%, 76.861572%)" fill-opacity="1" d="M 160.984375 10.433594 C 160.984375 10.402344 161.046875 10.21875 161.046875 10.21875 C 161.046875 10.125 160.984375 10.003906 160.800781 10.003906 C 160.523438 10.003906 159.390625 10.125 159.054688 10.15625 C 158.960938 10.15625 158.777344 10.1875 158.777344 10.464844 C 158.777344 10.648438 158.960938 10.648438 159.113281 10.648438 C 159.789062 10.648438 159.789062 10.769531 159.789062 10.863281 C 159.789062 10.953125 159.757812 11.046875 159.726562 11.167969 L 158.011719 17.914062 C 157.980469 18.070312 157.980469 18.222656 157.980469 18.34375 C 157.980469 19.234375 158.746094 19.632812 159.390625 19.632812 C 159.726562 19.632812 160.15625 19.539062 160.496094 18.925781 C 160.800781 18.40625 160.984375 17.609375 160.984375 17.546875 C 160.984375 17.363281 160.800781 17.363281 160.769531 17.363281 C 160.554688 17.363281 160.523438 17.457031 160.496094 17.699219 C 160.308594 18.375 160.035156 19.265625 159.453125 19.265625 C 159.082031 19.265625 158.992188 18.925781 158.992188 18.589844 C 158.992188 18.4375 159.023438 18.191406 159.082031 18.039062 Z M 160.984375 10.433594 "/>
<path fill-rule="nonzero" fill="rgb(5.097961%, 0%, 76.861572%)" fill-opacity="1" d="M 165.019531 19.296875 C 165.019531 20.03125 164.894531 20.921875 163.945312 21.777344 C 163.914062 21.839844 163.851562 21.902344 163.851562 21.960938 C 163.851562 22.054688 163.976562 22.148438 164.035156 22.148438 C 164.25 22.148438 165.417969 21.042969 165.417969 19.417969 C 165.417969 18.589844 165.078125 17.945312 164.433594 17.945312 C 164.007812 17.945312 163.667969 18.28125 163.667969 18.710938 C 163.667969 19.140625 163.976562 19.507812 164.464844 19.507812 C 164.804688 19.507812 165.019531 19.296875 165.019531 19.296875 Z M 165.019531 19.296875 "/>
<path fill-rule="nonzero" fill="rgb(5.097961%, 0%, 76.861572%)" fill-opacity="1" d="M 170 16.75 C 170 16.65625 170.335938 15.429688 170.335938 15.371094 C 170.367188 15.246094 170.765625 14.574219 171.226562 14.234375 C 171.347656 14.144531 171.714844 13.867188 172.328125 13.867188 C 172.453125 13.867188 172.789062 13.867188 173.066406 14.050781 C 172.636719 14.175781 172.484375 14.574219 172.484375 14.816406 C 172.484375 15.09375 172.695312 15.308594 173.003906 15.308594 C 173.339844 15.308594 173.769531 15.0625 173.769531 14.480469 C 173.769531 13.773438 173.035156 13.46875 172.328125 13.46875 C 171.625 13.46875 171.011719 13.773438 170.398438 14.449219 C 170.152344 13.621094 169.324219 13.46875 168.988281 13.46875 C 168.496094 13.46875 168.160156 13.804688 167.914062 14.175781 C 167.605469 14.695312 167.421875 15.492188 167.421875 15.585938 C 167.421875 15.738281 167.605469 15.738281 167.667969 15.738281 C 167.851562 15.738281 167.851562 15.707031 167.945312 15.339844 C 168.160156 14.511719 168.433594 13.867188 168.957031 13.867188 C 169.324219 13.867188 169.417969 14.175781 169.417969 14.542969 C 169.417969 14.789062 169.292969 15.308594 169.171875 15.675781 C 169.078125 16.042969 168.957031 16.597656 168.894531 16.902344 L 168.433594 18.652344 C 168.402344 18.835938 168.3125 19.171875 168.3125 19.203125 C 168.3125 19.507812 168.558594 19.632812 168.773438 19.632812 C 168.988281 19.632812 169.261719 19.507812 169.355469 19.265625 C 169.386719 19.171875 169.539062 18.558594 169.628906 18.222656 Z M 170 16.75 "/>
<path fill-rule="nonzero" fill="rgb(5.097961%, 0%, 76.861572%)" fill-opacity="1" d="M 178.820312 2.5625 C 178.820312 2.257812 178.820312 1.890625 178.421875 1.890625 C 178.023438 1.890625 178.023438 2.347656 178.023438 2.625 L 178.023438 20.746094 C 178.023438 21.054688 178.023438 21.484375 178.421875 21.484375 C 178.820312 21.484375 178.820312 21.117188 178.820312 20.808594 Z M 182.621094 2.625 C 182.621094 2.320312 182.621094 1.890625 182.222656 1.890625 C 181.855469 1.890625 181.855469 2.257812 181.855469 2.5625 L 181.855469 20.808594 C 181.855469 21.117188 181.855469 21.484375 182.222656 21.484375 C 182.621094 21.484375 182.621094 21.023438 182.621094 20.746094 Z M 182.621094 2.625 "/>
<path fill-rule="nonzero" fill="rgb(5.097961%, 0%, 76.861572%)" fill-opacity="1" d="M 192.121094 20.664062 L 191.664062 20.664062 C 191.632812 20.972656 191.476562 21.769531 191.292969 21.890625 C 191.203125 21.984375 190.160156 21.984375 189.945312 21.984375 L 187.429688 21.984375 C 188.871094 20.726562 189.363281 20.328125 190.160156 19.683594 C 191.171875 18.886719 192.121094 18.027344 192.121094 16.738281 C 192.121094 15.082031 190.679688 14.070312 188.933594 14.070312 C 187.246094 14.070312 186.082031 15.265625 186.082031 16.523438 C 186.082031 17.199219 186.664062 17.292969 186.816406 17.292969 C 187.125 17.292969 187.523438 17.046875 187.523438 16.554688 C 187.523438 16.308594 187.429688 15.820312 186.726562 15.820312 C 187.15625 14.867188 188.074219 14.5625 188.71875 14.5625 C 190.097656 14.5625 190.804688 15.636719 190.804688 16.738281 C 190.804688 17.933594 189.945312 18.855469 189.515625 19.347656 L 186.234375 22.625 C 186.082031 22.75 186.082031 22.78125 186.082031 23.148438 L 191.722656 23.148438 Z M 192.121094 20.664062 "/>
<path fill-rule="nonzero" fill="rgb(38.430786%, 74.508667%, 0%)" fill-opacity="1" d="M 4.492188 10.433594 L 4.492188 11.332031 L 6.523438 11.261719 L 6.523438 10.722656 C 5.824219 10.722656 5.734375 10.722656 5.734375 10.273438 L 5.734375 6.101562 L 3.648438 6.191406 L 3.648438 6.734375 C 4.351562 6.734375 4.441406 6.734375 4.441406 7.183594 L 4.441406 9.375 C 4.441406 10.308594 3.847656 10.921875 3.019531 10.921875 C 2.121094 10.921875 2.085938 10.632812 2.085938 10.003906 L 2.085938 6.101562 L 0 6.191406 L 0 6.734375 C 0.699219 6.734375 0.789062 6.734375 0.789062 7.183594 L 0.789062 9.859375 C 0.789062 11.082031 1.707031 11.332031 2.859375 11.332031 C 3.144531 11.332031 3.972656 11.332031 4.492188 10.433594 Z M 4.492188 10.433594 "/>
<path fill-rule="nonzero" fill="rgb(38.430786%, 74.508667%, 0%)" fill-opacity="1" d="M 9.066406 7.660156 C 9.066406 7.640625 9.101562 7.535156 9.101562 7.535156 C 9.101562 7.480469 9.066406 7.410156 8.957031 7.410156 C 8.796875 7.410156 8.128906 7.480469 7.933594 7.5 C 7.878906 7.5 7.769531 7.515625 7.769531 7.679688 C 7.769531 7.785156 7.878906 7.785156 7.96875 7.785156 C 8.363281 7.785156 8.363281 7.859375 8.363281 7.910156 C 8.363281 7.964844 8.347656 8.019531 8.328125 8.089844 L 7.320312 12.046875 C 7.304688 12.136719 7.304688 12.226562 7.304688 12.296875 C 7.304688 12.820312 7.753906 13.050781 8.128906 13.050781 C 8.328125 13.050781 8.578125 13 8.777344 12.640625 C 8.957031 12.332031 9.066406 11.867188 9.066406 11.828125 C 9.066406 11.722656 8.957031 11.722656 8.9375 11.722656 C 8.8125 11.722656 8.796875 11.777344 8.777344 11.921875 C 8.667969 12.316406 8.507812 12.835938 8.167969 12.835938 C 7.949219 12.835938 7.898438 12.640625 7.898438 12.441406 C 7.898438 12.351562 7.914062 12.207031 7.949219 12.117188 Z M 9.066406 7.660156 "/>
<path fill-rule="nonzero" fill="rgb(38.430786%, 74.508667%, 0%)" fill-opacity="1" d="M 11.429688 12.855469 C 11.429688 13.285156 11.355469 13.808594 10.800781 14.308594 C 10.78125 14.347656 10.746094 14.382812 10.746094 14.417969 C 10.746094 14.472656 10.816406 14.527344 10.855469 14.527344 C 10.980469 14.527344 11.664062 13.878906 11.664062 12.925781 C 11.664062 12.441406 11.464844 12.0625 11.085938 12.0625 C 10.835938 12.0625 10.636719 12.261719 10.636719 12.511719 C 10.636719 12.765625 10.816406 12.980469 11.105469 12.980469 C 11.304688 12.980469 11.429688 12.855469 11.429688 12.855469 Z M 11.429688 12.855469 "/>
<path fill-rule="nonzero" fill="rgb(38.430786%, 74.508667%, 0%)" fill-opacity="1" d="M 15.984375 7.964844 C 15.984375 7.839844 15.875 7.660156 15.660156 7.660156 C 15.425781 7.660156 15.210938 7.894531 15.210938 8.109375 C 15.210938 8.234375 15.300781 8.414062 15.535156 8.414062 C 15.75 8.414062 15.984375 8.199219 15.984375 7.964844 Z M 14.277344 13.375 C 14.152344 13.933594 13.71875 14.382812 13.253906 14.382812 C 13.144531 14.382812 13.054688 14.382812 12.964844 14.347656 C 13.164062 14.238281 13.234375 14.058594 13.234375 13.933594 C 13.234375 13.734375 13.074219 13.644531 12.910156 13.644531 C 12.675781 13.644531 12.460938 13.859375 12.460938 14.113281 C 12.460938 14.417969 12.765625 14.617188 13.253906 14.617188 C 13.738281 14.617188 14.671875 14.328125 14.921875 13.359375 L 15.640625 10.480469 C 15.660156 10.390625 15.679688 10.320312 15.679688 10.195312 C 15.679688 9.761719 15.300781 9.441406 14.832031 9.441406 C 13.933594 9.441406 13.433594 10.554688 13.433594 10.679688 C 13.433594 10.769531 13.539062 10.769531 13.558594 10.769531 C 13.648438 10.769531 13.664062 10.75 13.71875 10.625 C 13.917969 10.160156 14.332031 9.671875 14.796875 9.671875 C 14.996094 9.671875 15.066406 9.800781 15.066406 10.070312 C 15.066406 10.160156 15.066406 10.265625 15.050781 10.300781 Z M 14.277344 13.375 "/>
<path fill-rule="nonzero" fill="rgb(38.430786%, 74.508667%, 0%)" fill-opacity="1" d="M 23 14.011719 C 23 13.976562 23 13.957031 22.800781 13.761719 C 21.382812 12.320312 21.003906 10.148438 21.003906 8.386719 C 21.003906 6.390625 21.433594 4.394531 22.855469 2.976562 C 23 2.832031 23 2.8125 23 2.777344 C 23 2.6875 22.964844 2.652344 22.890625 2.652344 C 22.765625 2.652344 21.742188 3.441406 21.058594 4.898438 C 20.484375 6.15625 20.339844 7.433594 20.339844 8.386719 C 20.339844 9.285156 20.464844 10.667969 21.09375 11.980469 C 21.792969 13.382812 22.765625 14.136719 22.890625 14.136719 C 22.964844 14.136719 23 14.101562 23 14.011719 Z M 23 14.011719 "/>
<path fill-rule="nonzero" fill="rgb(38.430786%, 74.508667%, 0%)" fill-opacity="1" d="M 27.636719 8.441406 L 28.964844 6.949219 C 29.125 6.785156 29.199219 6.714844 30.132812 6.714844 L 30.132812 6.175781 C 29.738281 6.191406 29.144531 6.210938 29.089844 6.210938 C 28.804688 6.210938 28.226562 6.175781 27.90625 6.175781 L 27.90625 6.714844 C 28.066406 6.714844 28.210938 6.734375 28.335938 6.804688 C 28.300781 6.875 28.300781 6.914062 28.246094 6.949219 L 27.292969 8.027344 L 26.160156 6.714844 L 26.628906 6.714844 L 26.628906 6.175781 C 26.324219 6.175781 25.605469 6.210938 25.226562 6.210938 C 24.867188 6.210938 24.347656 6.175781 23.96875 6.175781 L 23.96875 6.714844 L 24.796875 6.714844 L 26.574219 8.816406 L 25.066406 10.507812 C 24.886719 10.722656 24.472656 10.722656 23.914062 10.722656 L 23.914062 11.261719 C 24.308594 11.242188 24.921875 11.226562 24.976562 11.226562 C 25.261719 11.226562 25.925781 11.242188 26.144531 11.261719 L 26.144531 10.722656 C 25.945312 10.722656 25.730469 10.667969 25.730469 10.597656 C 25.730469 10.578125 25.730469 10.578125 25.800781 10.488281 L 26.917969 9.230469 L 28.175781 10.722656 L 27.726562 10.722656 L 27.726562 11.261719 C 28.03125 11.242188 28.730469 11.226562 29.109375 11.226562 C 29.46875 11.226562 29.988281 11.242188 30.367188 11.261719 L 30.367188 10.722656 L 29.558594 10.722656 Z M 27.636719 8.441406 "/>
<path fill-rule="nonzero" fill="rgb(38.430786%, 74.508667%, 0%)" fill-opacity="1" d="M 32.507812 11.363281 C 32.507812 11.308594 32.703125 10.589844 32.703125 10.554688 C 32.722656 10.480469 32.957031 10.085938 33.226562 9.890625 C 33.296875 9.835938 33.511719 9.671875 33.871094 9.671875 C 33.945312 9.671875 34.140625 9.671875 34.304688 9.78125 C 34.050781 9.851562 33.960938 10.085938 33.960938 10.230469 C 33.960938 10.390625 34.085938 10.519531 34.265625 10.519531 C 34.464844 10.519531 34.714844 10.375 34.714844 10.03125 C 34.714844 9.621094 34.285156 9.441406 33.871094 9.441406 C 33.457031 9.441406 33.097656 9.621094 32.738281 10.015625 C 32.597656 9.53125 32.109375 9.441406 31.914062 9.441406 C 31.625 9.441406 31.425781 9.636719 31.285156 9.851562 C 31.105469 10.160156 30.996094 10.625 30.996094 10.679688 C 30.996094 10.769531 31.105469 10.769531 31.140625 10.769531 C 31.246094 10.769531 31.246094 10.75 31.300781 10.535156 C 31.425781 10.050781 31.589844 9.671875 31.894531 9.671875 C 32.109375 9.671875 32.164062 9.851562 32.164062 10.070312 C 32.164062 10.210938 32.09375 10.519531 32.019531 10.734375 C 31.96875 10.949219 31.894531 11.273438 31.859375 11.453125 L 31.589844 12.476562 C 31.570312 12.585938 31.515625 12.78125 31.515625 12.800781 C 31.515625 12.980469 31.660156 13.050781 31.785156 13.050781 C 31.914062 13.050781 32.074219 12.980469 32.128906 12.835938 C 32.148438 12.78125 32.238281 12.421875 32.289062 12.226562 Z M 32.507812 11.363281 "/>
<path fill-rule="nonzero" fill="rgb(38.430786%, 74.508667%, 0%)" fill-opacity="1" d="M 39 8.386719 C 39 7.503906 38.875 6.121094 38.246094 4.808594 C 37.5625 3.40625 36.574219 2.652344 36.464844 2.652344 C 36.394531 2.652344 36.339844 2.707031 36.339844 2.777344 C 36.339844 2.8125 36.339844 2.832031 36.554688 3.046875 C 37.6875 4.179688 38.335938 5.996094 38.335938 8.386719 C 38.335938 10.363281 37.921875 12.375 36.5 13.8125 C 36.339844 13.957031 36.339844 13.976562 36.339844 14.011719 C 36.339844 14.082031 36.394531 14.136719 36.464844 14.136719 C 36.574219 14.136719 37.617188 13.347656 38.28125 11.890625 C 38.875 10.632812 39 9.355469 39 8.386719 Z M 39 8.386719 "/>
<path fill-rule="nonzero" fill="rgb(38.430786%, 74.508667%, 0%)" fill-opacity="1" d="M 42.675781 0.539062 L 43.429688 0.539062 C 43.519531 0.539062 43.625 0.558594 43.714844 0.558594 L 44.867188 0.558594 L 44.867188 0 L 39.671875 0 L 39.671875 0.558594 L 40.824219 0.558594 C 40.929688 0.558594 41.019531 0.539062 41.109375 0.539062 L 41.867188 0.539062 L 41.867188 5.5 L 42.675781 5.5 Z M 42.675781 0.539062 "/>
<path fill-rule="nonzero" fill="rgb(38.430786%, 74.508667%, 0%)" fill-opacity="1" d="M 51.464844 14.011719 C 51.464844 13.976562 51.464844 13.957031 51.265625 13.761719 C 49.847656 12.320312 49.46875 10.148438 49.46875 8.386719 C 49.46875 6.390625 49.902344 4.394531 51.320312 2.976562 C 51.464844 2.832031 51.464844 2.8125 51.464844 2.777344 C 51.464844 2.6875 51.429688 2.652344 51.355469 2.652344 C 51.230469 2.652344 50.207031 3.441406 49.523438 4.898438 C 48.949219 6.15625 48.804688 7.433594 48.804688 8.386719 C 48.804688 9.285156 48.929688 10.667969 49.558594 11.980469 C 50.261719 13.382812 51.230469 14.136719 51.355469 14.136719 C 51.429688 14.136719 51.464844 14.101562 51.464844 14.011719 Z M 51.464844 14.011719 "/>
<path fill-rule="nonzero" fill="rgb(38.430786%, 74.508667%, 0%)" fill-opacity="1" d="M 56.101562 8.441406 L 57.429688 6.949219 C 57.59375 6.785156 57.664062 6.714844 58.597656 6.714844 L 58.597656 6.175781 C 58.203125 6.191406 57.609375 6.210938 57.554688 6.210938 C 57.269531 6.210938 56.695312 6.175781 56.371094 6.175781 L 56.371094 6.714844 C 56.53125 6.714844 56.675781 6.734375 56.800781 6.804688 C 56.765625 6.875 56.765625 6.914062 56.710938 6.949219 L 55.757812 8.027344 L 54.625 6.714844 L 55.09375 6.714844 L 55.09375 6.175781 C 54.789062 6.175781 54.070312 6.210938 53.691406 6.210938 C 53.332031 6.210938 52.8125 6.175781 52.433594 6.175781 L 52.433594 6.714844 L 53.261719 6.714844 L 55.039062 8.816406 L 53.53125 10.507812 C 53.351562 10.722656 52.9375 10.722656 52.378906 10.722656 L 52.378906 11.261719 C 52.777344 11.242188 53.386719 11.226562 53.441406 11.226562 C 53.726562 11.226562 54.394531 11.242188 54.609375 11.261719 L 54.609375 10.722656 C 54.410156 10.722656 54.195312 10.667969 54.195312 10.597656 C 54.195312 10.578125 54.195312 10.578125 54.265625 10.488281 L 55.382812 9.230469 L 56.640625 10.722656 L 56.191406 10.722656 L 56.191406 11.261719 C 56.496094 11.242188 57.195312 11.226562 57.574219 11.226562 C 57.933594 11.226562 58.457031 11.242188 58.832031 11.261719 L 58.832031 10.722656 L 58.023438 10.722656 Z M 56.101562 8.441406 "/>
<path fill-rule="nonzero" fill="rgb(38.430786%, 74.508667%, 0%)" fill-opacity="1" d="M 69.179688 8.621094 C 69.378906 8.621094 69.59375 8.621094 69.59375 8.386719 C 69.59375 8.171875 69.378906 8.171875 69.179688 8.171875 L 62.980469 8.171875 C 62.78125 8.171875 62.582031 8.171875 62.582031 8.386719 C 62.582031 8.621094 62.78125 8.621094 62.980469 8.621094 Z M 69.179688 8.621094 "/>
<path fill-rule="nonzero" fill="rgb(38.430786%, 74.508667%, 0%)" fill-opacity="1" d="M 77.0625 8.441406 L 78.394531 6.949219 C 78.554688 6.785156 78.625 6.714844 79.5625 6.714844 L 79.5625 6.175781 C 79.164062 6.191406 78.574219 6.210938 78.519531 6.210938 C 78.230469 6.210938 77.65625 6.175781 77.332031 6.175781 L 77.332031 6.714844 C 77.492188 6.714844 77.636719 6.734375 77.761719 6.804688 C 77.726562 6.875 77.726562 6.914062 77.671875 6.949219 L 76.722656 8.027344 L 75.589844 6.714844 L 76.054688 6.714844 L 76.054688 6.175781 C 75.75 6.175781 75.03125 6.210938 74.652344 6.210938 C 74.292969 6.210938 73.773438 6.175781 73.394531 6.175781 L 73.394531 6.714844 L 74.222656 6.714844 L 76.003906 8.816406 L 74.492188 10.507812 C 74.3125 10.722656 73.898438 10.722656 73.34375 10.722656 L 73.34375 11.261719 C 73.738281 11.242188 74.347656 11.226562 74.402344 11.226562 C 74.691406 11.226562 75.355469 11.242188 75.570312 11.261719 L 75.570312 10.722656 C 75.375 10.722656 75.15625 10.667969 75.15625 10.597656 C 75.15625 10.578125 75.15625 10.578125 75.230469 10.488281 L 76.34375 9.230469 L 77.601562 10.722656 L 77.152344 10.722656 L 77.152344 11.261719 C 77.457031 11.242188 78.160156 11.226562 78.535156 11.226562 C 78.894531 11.226562 79.417969 11.242188 79.792969 11.261719 L 79.792969 10.722656 L 78.984375 10.722656 Z M 77.0625 8.441406 "/>
<path fill-rule="nonzero" fill="rgb(38.430786%, 74.508667%, 0%)" fill-opacity="1" d="M 81.933594 11.363281 C 81.933594 11.308594 82.132812 10.589844 82.132812 10.554688 C 82.148438 10.480469 82.382812 10.085938 82.652344 9.890625 C 82.722656 9.835938 82.941406 9.671875 83.300781 9.671875 C 83.371094 9.671875 83.570312 9.671875 83.730469 9.78125 C 83.480469 9.851562 83.390625 10.085938 83.390625 10.230469 C 83.390625 10.390625 83.515625 10.519531 83.695312 10.519531 C 83.894531 10.519531 84.144531 10.375 84.144531 10.03125 C 84.144531 9.621094 83.714844 9.441406 83.300781 9.441406 C 82.886719 9.441406 82.527344 9.621094 82.167969 10.015625 C 82.023438 9.53125 81.539062 9.441406 81.339844 9.441406 C 81.054688 9.441406 80.855469 9.636719 80.710938 9.851562 C 80.53125 10.160156 80.425781 10.625 80.425781 10.679688 C 80.425781 10.769531 80.53125 10.769531 80.566406 10.769531 C 80.675781 10.769531 80.675781 10.75 80.730469 10.535156 C 80.855469 10.050781 81.015625 9.671875 81.324219 9.671875 C 81.539062 9.671875 81.59375 9.851562 81.59375 10.070312 C 81.59375 10.210938 81.519531 10.519531 81.449219 10.734375 C 81.394531 10.949219 81.324219 11.273438 81.285156 11.453125 L 81.015625 12.476562 C 81 12.585938 80.945312 12.78125 80.945312 12.800781 C 80.945312 12.980469 81.089844 13.050781 81.214844 13.050781 C 81.339844 13.050781 81.503906 12.980469 81.554688 12.835938 C 81.574219 12.78125 81.664062 12.421875 81.71875 12.226562 Z M 81.933594 11.363281 "/>
<path fill-rule="nonzero" fill="rgb(38.430786%, 74.508667%, 0%)" fill-opacity="1" d="M 88.429688 8.386719 C 88.429688 7.503906 88.304688 6.121094 87.675781 4.808594 C 86.992188 3.40625 86.003906 2.652344 85.894531 2.652344 C 85.824219 2.652344 85.769531 2.707031 85.769531 2.777344 C 85.769531 2.8125 85.769531 2.832031 85.984375 3.046875 C 87.117188 4.179688 87.765625 5.996094 87.765625 8.386719 C 87.765625 10.363281 87.351562 12.375 85.929688 13.8125 C 85.769531 13.957031 85.769531 13.976562 85.769531 14.011719 C 85.769531 14.082031 85.824219 14.136719 85.894531 14.136719 C 86.003906 14.136719 87.042969 13.347656 87.710938 11.890625 C 88.304688 10.632812 88.429688 9.355469 88.429688 8.386719 Z M 88.429688 8.386719 "/>
<path fill-rule="nonzero" fill="rgb(100%, 54.116821%, 0%)" fill-opacity="1" d="M 189.554688 30.914062 C 189.75 30.914062 189.96875 30.914062 189.96875 30.683594 C 189.96875 30.464844 189.75 30.464844 189.554688 30.464844 L 183.351562 30.464844 C 183.15625 30.464844 182.957031 30.464844 182.957031 30.683594 C 182.957031 30.914062 183.15625 30.914062 183.351562 30.914062 Z M 189.554688 30.914062 "/>
<path fill-rule="nonzero" fill="rgb(100%, 54.116821%, 0%)" fill-opacity="1" d="M 195.933594 32.730469 L 195.933594 33.628906 L 197.964844 33.558594 L 197.964844 33.019531 C 197.261719 33.019531 197.171875 33.019531 197.171875 32.570312 L 197.171875 28.398438 L 195.089844 28.488281 L 195.089844 29.027344 C 195.789062 29.027344 195.878906 29.027344 195.878906 29.476562 L 195.878906 31.671875 C 195.878906 32.605469 195.285156 33.214844 194.460938 33.214844 C 193.5625 33.214844 193.523438 32.929688 193.523438 32.300781 L 193.523438 28.398438 L 191.441406 28.488281 L 191.441406 29.027344 C 192.140625 29.027344 192.230469 29.027344 192.230469 29.476562 L 192.230469 32.15625 C 192.230469 33.378906 193.148438 33.628906 194.296875 33.628906 C 194.585938 33.628906 195.414062 33.628906 195.933594 32.730469 Z M 195.933594 32.730469 "/>
<path fill-rule="nonzero" fill="rgb(100%, 54.116821%, 0%)" fill-opacity="1" d="M 200.503906 29.957031 C 200.503906 29.9375 200.542969 29.832031 200.542969 29.832031 C 200.542969 29.777344 200.503906 29.703125 200.398438 29.703125 C 200.234375 29.703125 199.570312 29.777344 199.371094 29.792969 C 199.320312 29.792969 199.210938 29.8125 199.210938 29.972656 C 199.210938 30.082031 199.320312 30.082031 199.410156 30.082031 C 199.804688 30.082031 199.804688 30.152344 199.804688 30.207031 C 199.804688 30.261719 199.785156 30.316406 199.769531 30.386719 L 198.761719 34.34375 C 198.742188 34.433594 198.742188 34.523438 198.742188 34.59375 C 198.742188 35.113281 199.191406 35.347656 199.570312 35.347656 C 199.769531 35.347656 200.019531 35.292969 200.21875 34.933594 C 200.398438 34.628906 200.503906 34.164062 200.503906 34.125 C 200.503906 34.019531 200.398438 34.019531 200.378906 34.019531 C 200.253906 34.019531 200.234375 34.074219 200.21875 34.214844 C 200.109375 34.613281 199.949219 35.132812 199.605469 35.132812 C 199.390625 35.132812 199.335938 34.933594 199.335938 34.738281 C 199.335938 34.648438 199.355469 34.503906 199.390625 34.414062 Z M 200.503906 29.957031 "/>
<path fill-rule="nonzero" fill="rgb(100%, 54.116821%, 0%)" fill-opacity="1" d="M 202.867188 35.152344 C 202.867188 35.582031 202.796875 36.101562 202.238281 36.605469 C 202.222656 36.640625 202.1875 36.679688 202.1875 36.714844 C 202.1875 36.769531 202.257812 36.824219 202.292969 36.824219 C 202.417969 36.824219 203.101562 36.175781 203.101562 35.222656 C 203.101562 34.738281 202.90625 34.359375 202.527344 34.359375 C 202.277344 34.359375 202.078125 34.558594 202.078125 34.808594 C 202.078125 35.0625 202.257812 35.277344 202.546875 35.277344 C 202.742188 35.277344 202.867188 35.152344 202.867188 35.152344 Z M 202.867188 35.152344 "/>
<path fill-rule="nonzero" fill="rgb(100%, 54.116821%, 0%)" fill-opacity="1" d="M 205.789062 33.660156 C 205.789062 33.605469 205.984375 32.886719 205.984375 32.851562 C 206.003906 32.777344 206.238281 32.382812 206.507812 32.183594 C 206.578125 32.132812 206.792969 31.96875 207.15625 31.96875 C 207.226562 31.96875 207.425781 31.96875 207.585938 32.078125 C 207.335938 32.148438 207.246094 32.382812 207.246094 32.527344 C 207.246094 32.6875 207.371094 32.8125 207.550781 32.8125 C 207.746094 32.8125 208 32.671875 208 32.328125 C 208 31.914062 207.566406 31.734375 207.15625 31.734375 C 206.742188 31.734375 206.382812 31.914062 206.023438 32.3125 C 205.878906 31.824219 205.394531 31.734375 205.195312 31.734375 C 204.90625 31.734375 204.710938 31.933594 204.566406 32.148438 C 204.386719 32.453125 204.277344 32.921875 204.277344 32.976562 C 204.277344 33.066406 204.386719 33.066406 204.421875 33.066406 C 204.53125 33.066406 204.53125 33.046875 204.585938 32.832031 C 204.710938 32.347656 204.871094 31.96875 205.175781 31.96875 C 205.394531 31.96875 205.445312 32.148438 205.445312 32.363281 C 205.445312 32.507812 205.375 32.8125 205.304688 33.03125 C 205.25 33.246094 205.175781 33.570312 205.140625 33.75 L 204.871094 34.773438 C 204.855469 34.882812 204.800781 35.078125 204.800781 35.097656 C 204.800781 35.277344 204.945312 35.347656 205.070312 35.347656 C 205.195312 35.347656 205.355469 35.277344 205.410156 35.132812 C 205.429688 35.078125 205.519531 34.71875 205.574219 34.523438 Z M 205.789062 33.660156 "/>
<path fill-rule="nonzero" fill="rgb(100%, 54.116821%, 0%)" fill-opacity="1" d="M 214.683594 36.308594 C 214.683594 36.273438 214.683594 36.253906 214.484375 36.054688 C 213.066406 34.617188 212.6875 32.445312 212.6875 30.683594 C 212.6875 28.6875 213.121094 26.691406 214.539062 25.273438 C 214.683594 25.128906 214.683594 25.109375 214.683594 25.074219 C 214.683594 24.984375 214.648438 24.949219 214.574219 24.949219 C 214.449219 24.949219 213.425781 25.738281 212.742188 27.195312 C 212.167969 28.453125 212.023438 29.730469 212.023438 30.683594 C 212.023438 31.582031 212.148438 32.964844 212.777344 34.277344 C 213.480469 35.679688 214.449219 36.433594 214.574219 36.433594 C 214.648438 36.433594 214.683594 36.398438 214.683594 36.308594 Z M 214.683594 36.308594 "/>
<path fill-rule="nonzero" fill="rgb(100%, 54.116821%, 0%)" fill-opacity="1" d="M 219.320312 30.734375 L 220.652344 29.246094 C 220.8125 29.082031 220.886719 29.011719 221.820312 29.011719 L 221.820312 28.472656 C 221.425781 28.488281 220.832031 28.507812 220.777344 28.507812 C 220.488281 28.507812 219.914062 28.472656 219.589844 28.472656 L 219.589844 29.011719 C 219.753906 29.011719 219.894531 29.027344 220.023438 29.101562 C 219.984375 29.171875 219.984375 29.207031 219.933594 29.246094 L 218.980469 30.324219 L 217.847656 29.011719 L 218.316406 29.011719 L 218.316406 28.472656 C 218.007812 28.472656 217.289062 28.507812 216.914062 28.507812 C 216.554688 28.507812 216.03125 28.472656 215.65625 28.472656 L 215.65625 29.011719 L 216.480469 29.011719 L 218.261719 31.113281 L 216.75 32.804688 C 216.570312 33.019531 216.15625 33.019531 215.601562 33.019531 L 215.601562 33.558594 C 215.996094 33.539062 216.605469 33.523438 216.660156 33.523438 C 216.949219 33.523438 217.613281 33.539062 217.828125 33.558594 L 217.828125 33.019531 C 217.632812 33.019531 217.414062 32.964844 217.414062 32.894531 C 217.414062 32.875 217.414062 32.875 217.488281 32.785156 L 218.601562 31.527344 L 219.859375 33.019531 L 219.410156 33.019531 L 219.410156 33.558594 C 219.714844 33.539062 220.417969 33.523438 220.796875 33.523438 C 221.15625 33.523438 221.675781 33.539062 222.054688 33.558594 L 222.054688 33.019531 L 221.246094 33.019531 Z M 219.320312 30.734375 "/>
<path fill-rule="nonzero" fill="rgb(100%, 54.116821%, 0%)" fill-opacity="1" d="M 224.191406 33.660156 C 224.191406 33.605469 224.390625 32.886719 224.390625 32.851562 C 224.40625 32.777344 224.640625 32.382812 224.910156 32.183594 C 224.980469 32.132812 225.199219 31.96875 225.558594 31.96875 C 225.628906 31.96875 225.828125 31.96875 225.988281 32.078125 C 225.738281 32.148438 225.648438 32.382812 225.648438 32.527344 C 225.648438 32.6875 225.773438 32.8125 225.953125 32.8125 C 226.148438 32.8125 226.402344 32.671875 226.402344 32.328125 C 226.402344 31.914062 225.96875 31.734375 225.558594 31.734375 C 225.144531 31.734375 224.785156 31.914062 224.425781 32.3125 C 224.28125 31.824219 223.796875 31.734375 223.597656 31.734375 C 223.308594 31.734375 223.113281 31.933594 222.96875 32.148438 C 222.789062 32.453125 222.679688 32.921875 222.679688 32.976562 C 222.679688 33.066406 222.789062 33.066406 222.824219 33.066406 C 222.933594 33.066406 222.933594 33.046875 222.988281 32.832031 C 223.113281 32.347656 223.273438 31.96875 223.578125 31.96875 C 223.796875 31.96875 223.847656 32.148438 223.847656 32.363281 C 223.847656 32.507812 223.777344 32.8125 223.707031 33.03125 C 223.652344 33.246094 223.578125 33.570312 223.542969 33.75 L 223.273438 34.773438 C 223.257812 34.882812 223.203125 35.078125 223.203125 35.097656 C 223.203125 35.277344 223.347656 35.347656 223.472656 35.347656 C 223.597656 35.347656 223.757812 35.277344 223.8125 35.132812 C 223.832031 35.078125 223.921875 34.71875 223.976562 34.523438 Z M 224.191406 33.660156 "/>
<path fill-rule="nonzero" fill="rgb(100%, 54.116821%, 0%)" fill-opacity="1" d="M 230.6875 30.683594 C 230.6875 29.800781 230.558594 28.417969 229.929688 27.105469 C 229.25 25.703125 228.257812 24.949219 228.152344 24.949219 C 228.078125 24.949219 228.027344 25.003906 228.027344 25.074219 C 228.027344 25.109375 228.027344 25.128906 228.242188 25.34375 C 229.375 26.476562 230.019531 28.292969 230.019531 30.683594 C 230.019531 32.660156 229.609375 34.671875 228.1875 36.109375 C 228.027344 36.253906 228.027344 36.273438 228.027344 36.308594 C 228.027344 36.378906 228.078125 36.433594 228.152344 36.433594 C 228.257812 36.433594 229.300781 35.644531 229.96875 34.1875 C 230.558594 32.929688 230.6875 31.652344 230.6875 30.683594 Z M 230.6875 30.683594 "/>
<path fill-rule="nonzero" fill="rgb(100%, 54.116821%, 0%)" fill-opacity="1" d="M 234.359375 22.835938 L 235.113281 22.835938 C 235.203125 22.835938 235.3125 22.851562 235.402344 22.851562 L 236.554688 22.851562 L 236.554688 22.296875 L 231.359375 22.296875 L 231.359375 22.851562 L 232.507812 22.851562 C 232.617188 22.851562 232.707031 22.835938 232.796875 22.835938 L 233.550781 22.835938 L 233.550781 27.796875 L 234.359375 27.796875 Z M 234.359375 22.835938 "/>
<path fill-rule="nonzero" fill="rgb(100%, 54.116821%, 0%)" fill-opacity="1" d="M 243.152344 36.308594 C 243.152344 36.273438 243.152344 36.253906 242.953125 36.054688 C 241.53125 34.617188 241.15625 32.445312 241.15625 30.683594 C 241.15625 28.6875 241.585938 26.691406 243.007812 25.273438 C 243.152344 25.128906 243.152344 25.109375 243.152344 25.074219 C 243.152344 24.984375 243.113281 24.949219 243.042969 24.949219 C 242.917969 24.949219 241.894531 25.738281 241.210938 27.195312 C 240.632812 28.453125 240.492188 29.730469 240.492188 30.683594 C 240.492188 31.582031 240.617188 32.964844 241.246094 34.277344 C 241.945312 35.679688 242.917969 36.433594 243.042969 36.433594 C 243.113281 36.433594 243.152344 36.398438 243.152344 36.308594 Z M 243.152344 36.308594 "/>
<path fill-rule="nonzero" fill="rgb(100%, 54.116821%, 0%)" fill-opacity="1" d="M 248.109375 32.675781 C 248.109375 33.035156 248.109375 33.558594 249.296875 33.558594 L 249.855469 33.558594 C 250.070312 33.558594 250.214844 33.558594 250.214844 33.289062 C 250.214844 33.019531 250.070312 33.019531 249.90625 33.019531 C 249.207031 33 249.207031 32.855469 249.207031 32.585938 L 249.207031 30.125 C 249.207031 29.101562 248.398438 28.363281 246.691406 28.363281 C 246.042969 28.363281 244.640625 28.417969 244.640625 29.425781 C 244.640625 29.925781 245.035156 30.144531 245.34375 30.144531 C 245.703125 30.144531 246.078125 29.890625 246.078125 29.425781 C 246.078125 29.082031 245.863281 28.886719 245.828125 28.847656 C 246.152344 28.796875 246.511719 28.777344 246.65625 28.777344 C 247.5 28.777344 247.914062 29.261719 247.914062 30.125 L 247.914062 30.519531 C 247.085938 30.554688 244.175781 30.664062 244.175781 32.316406 C 244.175781 33.414062 245.613281 33.628906 246.402344 33.628906 C 247.320312 33.628906 247.859375 33.164062 248.109375 32.675781 Z M 247.914062 30.878906 L 247.914062 31.957031 C 247.914062 33.074219 246.851562 33.214844 246.566406 33.214844 C 245.988281 33.214844 245.523438 32.820312 245.523438 32.300781 C 245.523438 31.078125 247.335938 30.914062 247.914062 30.878906 Z M 247.914062 30.878906 "/>
<path fill-rule="nonzero" fill="rgb(100%, 54.116821%, 0%)" fill-opacity="1" d="M 252.484375 29.957031 C 252.484375 29.9375 252.519531 29.832031 252.519531 29.832031 C 252.519531 29.777344 252.484375 29.703125 252.378906 29.703125 C 252.214844 29.703125 251.550781 29.777344 251.351562 29.792969 C 251.300781 29.792969 251.191406 29.8125 251.191406 29.972656 C 251.191406 30.082031 251.300781 30.082031 251.390625 30.082031 C 251.785156 30.082031 251.785156 30.152344 251.785156 30.207031 C 251.785156 30.261719 251.765625 30.316406 251.75 30.386719 L 250.742188 34.34375 C 250.722656 34.433594 250.722656 34.523438 250.722656 34.59375 C 250.722656 35.113281 251.171875 35.347656 251.550781 35.347656 C 251.75 35.347656 252 35.292969 252.199219 34.933594 C 252.378906 34.628906 252.484375 34.164062 252.484375 34.125 C 252.484375 34.019531 252.378906 34.019531 252.359375 34.019531 C 252.234375 34.019531 252.214844 34.074219 252.199219 34.214844 C 252.089844 34.613281 251.929688 35.132812 251.585938 35.132812 C 251.371094 35.132812 251.316406 34.933594 251.316406 34.738281 C 251.316406 34.648438 251.335938 34.503906 251.371094 34.414062 Z M 252.484375 29.957031 "/>
<path fill-rule="nonzero" fill="rgb(100%, 54.116821%, 0%)" fill-opacity="1" d="M 254.847656 35.152344 C 254.847656 35.582031 254.777344 36.101562 254.21875 36.605469 C 254.203125 36.640625 254.167969 36.679688 254.167969 36.714844 C 254.167969 36.769531 254.238281 36.824219 254.273438 36.824219 C 254.398438 36.824219 255.082031 36.175781 255.082031 35.222656 C 255.082031 34.738281 254.886719 34.359375 254.507812 34.359375 C 254.257812 34.359375 254.058594 34.558594 254.058594 34.808594 C 254.058594 35.0625 254.238281 35.277344 254.527344 35.277344 C 254.722656 35.277344 254.847656 35.152344 254.847656 35.152344 Z M 254.847656 35.152344 "/>
<path fill-rule="nonzero" fill="rgb(100%, 54.116821%, 0%)" fill-opacity="1" d="M 259.402344 30.261719 C 259.402344 30.136719 259.296875 29.957031 259.082031 29.957031 C 258.847656 29.957031 258.632812 30.191406 258.632812 30.40625 C 258.632812 30.53125 258.722656 30.710938 258.953125 30.710938 C 259.171875 30.710938 259.402344 30.496094 259.402344 30.261719 Z M 257.695312 35.671875 C 257.570312 36.230469 257.140625 36.679688 256.671875 36.679688 C 256.5625 36.679688 256.472656 36.679688 256.382812 36.640625 C 256.582031 36.535156 256.652344 36.355469 256.652344 36.230469 C 256.652344 36.03125 256.492188 35.941406 256.332031 35.941406 C 256.097656 35.941406 255.882812 36.15625 255.882812 36.410156 C 255.882812 36.714844 256.1875 36.914062 256.671875 36.914062 C 257.15625 36.914062 258.09375 36.625 258.34375 35.652344 L 259.0625 32.777344 C 259.082031 32.6875 259.097656 32.617188 259.097656 32.492188 C 259.097656 32.058594 258.722656 31.734375 258.253906 31.734375 C 257.355469 31.734375 256.851562 32.851562 256.851562 32.976562 C 256.851562 33.066406 256.960938 33.066406 256.976562 33.066406 C 257.066406 33.066406 257.085938 33.046875 257.140625 32.921875 C 257.335938 32.453125 257.75 31.96875 258.21875 31.96875 C 258.414062 31.96875 258.488281 32.09375 258.488281 32.363281 C 258.488281 32.453125 258.488281 32.5625 258.46875 32.597656 Z M 257.695312 35.671875 "/>
<path fill-rule="nonzero" fill="rgb(100%, 54.116821%, 0%)" fill-opacity="1" d="M 270.8125 30.914062 C 271.007812 30.914062 271.226562 30.914062 271.226562 30.683594 C 271.226562 30.464844 271.007812 30.464844 270.8125 30.464844 L 264.609375 30.464844 C 264.414062 30.464844 264.214844 30.464844 264.214844 30.683594 C 264.214844 30.914062 264.414062 30.914062 264.609375 30.914062 Z M 270.8125 30.914062 "/>
<path fill-rule="nonzero" fill="rgb(100%, 54.116821%, 0%)" fill-opacity="1" d="M 279.019531 32.675781 C 279.019531 33.035156 279.019531 33.558594 280.207031 33.558594 L 280.761719 33.558594 C 280.976562 33.558594 281.121094 33.558594 281.121094 33.289062 C 281.121094 33.019531 280.976562 33.019531 280.816406 33.019531 C 280.117188 33 280.117188 32.855469 280.117188 32.585938 L 280.117188 30.125 C 280.117188 29.101562 279.308594 28.363281 277.597656 28.363281 C 276.953125 28.363281 275.550781 28.417969 275.550781 29.425781 C 275.550781 29.925781 275.945312 30.144531 276.25 30.144531 C 276.609375 30.144531 276.988281 29.890625 276.988281 29.425781 C 276.988281 29.082031 276.773438 28.886719 276.738281 28.847656 C 277.058594 28.796875 277.417969 28.777344 277.5625 28.777344 C 278.40625 28.777344 278.820312 29.261719 278.820312 30.125 L 278.820312 30.519531 C 277.996094 30.554688 275.082031 30.664062 275.082031 32.316406 C 275.082031 33.414062 276.519531 33.628906 277.3125 33.628906 C 278.226562 33.628906 278.765625 33.164062 279.019531 32.675781 Z M 278.820312 30.878906 L 278.820312 31.957031 C 278.820312 33.074219 277.761719 33.214844 277.472656 33.214844 C 276.898438 33.214844 276.429688 32.820312 276.429688 32.300781 C 276.429688 31.078125 278.246094 30.914062 278.820312 30.878906 Z M 278.820312 30.878906 "/>
<path fill-rule="nonzero" fill="rgb(100%, 54.116821%, 0%)" fill-opacity="1" d="M 283.394531 29.957031 C 283.394531 29.9375 283.429688 29.832031 283.429688 29.832031 C 283.429688 29.777344 283.394531 29.703125 283.285156 29.703125 C 283.125 29.703125 282.460938 29.777344 282.261719 29.792969 C 282.207031 29.792969 282.101562 29.8125 282.101562 29.972656 C 282.101562 30.082031 282.207031 30.082031 282.296875 30.082031 C 282.691406 30.082031 282.691406 30.152344 282.691406 30.207031 C 282.691406 30.261719 282.675781 30.316406 282.65625 30.386719 L 281.652344 34.34375 C 281.632812 34.433594 281.632812 34.523438 281.632812 34.59375 C 281.632812 35.113281 282.082031 35.347656 282.460938 35.347656 C 282.65625 35.347656 282.910156 35.292969 283.105469 34.933594 C 283.285156 34.628906 283.394531 34.164062 283.394531 34.125 C 283.394531 34.019531 283.285156 34.019531 283.269531 34.019531 C 283.144531 34.019531 283.125 34.074219 283.105469 34.214844 C 283 34.613281 282.835938 35.132812 282.496094 35.132812 C 282.28125 35.132812 282.226562 34.933594 282.226562 34.738281 C 282.226562 34.648438 282.242188 34.503906 282.28125 34.414062 Z M 283.394531 29.957031 "/>
<path fill-rule="nonzero" fill="rgb(100%, 54.116821%, 0%)" fill-opacity="1" d="M 285.757812 35.152344 C 285.757812 35.582031 285.6875 36.101562 285.128906 36.605469 C 285.109375 36.640625 285.074219 36.679688 285.074219 36.714844 C 285.074219 36.769531 285.148438 36.824219 285.183594 36.824219 C 285.308594 36.824219 285.992188 36.175781 285.992188 35.222656 C 285.992188 34.738281 285.792969 34.359375 285.417969 34.359375 C 285.164062 34.359375 284.96875 34.558594 284.96875 34.808594 C 284.96875 35.0625 285.148438 35.277344 285.433594 35.277344 C 285.632812 35.277344 285.757812 35.152344 285.757812 35.152344 Z M 285.757812 35.152344 "/>
<path fill-rule="nonzero" fill="rgb(100%, 54.116821%, 0%)" fill-opacity="1" d="M 288.675781 33.660156 C 288.675781 33.605469 288.875 32.886719 288.875 32.851562 C 288.894531 32.777344 289.125 32.382812 289.394531 32.183594 C 289.46875 32.132812 289.683594 31.96875 290.042969 31.96875 C 290.117188 31.96875 290.3125 31.96875 290.476562 32.078125 C 290.222656 32.148438 290.132812 32.382812 290.132812 32.527344 C 290.132812 32.6875 290.257812 32.8125 290.4375 32.8125 C 290.636719 32.8125 290.886719 32.671875 290.886719 32.328125 C 290.886719 31.914062 290.457031 31.734375 290.042969 31.734375 C 289.628906 31.734375 289.269531 31.914062 288.910156 32.3125 C 288.765625 31.824219 288.28125 31.734375 288.085938 31.734375 C 287.796875 31.734375 287.597656 31.933594 287.457031 32.148438 C 287.277344 32.453125 287.167969 32.921875 287.167969 32.976562 C 287.167969 33.066406 287.277344 33.066406 287.3125 33.066406 C 287.417969 33.066406 287.417969 33.046875 287.472656 32.832031 C 287.597656 32.347656 287.761719 31.96875 288.066406 31.96875 C 288.28125 31.96875 288.335938 32.148438 288.335938 32.363281 C 288.335938 32.507812 288.265625 32.8125 288.191406 33.03125 C 288.136719 33.246094 288.066406 33.570312 288.03125 33.75 L 287.761719 34.773438 C 287.742188 34.882812 287.6875 35.078125 287.6875 35.097656 C 287.6875 35.277344 287.832031 35.347656 287.957031 35.347656 C 288.085938 35.347656 288.246094 35.277344 288.300781 35.132812 C 288.316406 35.078125 288.40625 34.71875 288.460938 34.523438 Z M 288.675781 33.660156 "/>
<g clip-path="url(#clip-0)">
<path fill-rule="nonzero" fill="rgb(100%, 54.116821%, 0%)" fill-opacity="1" d="M 295.179688 30.683594 C 295.179688 29.800781 295.050781 28.417969 294.421875 27.105469 C 293.742188 25.703125 292.75 24.949219 292.644531 24.949219 C 292.570312 24.949219 292.519531 25.003906 292.519531 25.074219 C 292.519531 25.109375 292.519531 25.128906 292.734375 25.34375 C 293.867188 26.476562 294.511719 28.292969 294.511719 30.683594 C 294.511719 32.660156 294.101562 34.671875 292.679688 36.109375 C 292.519531 36.253906 292.519531 36.273438 292.519531 36.308594 C 292.519531 36.378906 292.570312 36.433594 292.644531 36.433594 C 292.75 36.433594 293.792969 35.644531 294.460938 34.1875 C 295.050781 32.929688 295.179688 31.652344 295.179688 30.683594 Z M 295.179688 30.683594 "/>
</g>
</svg>
