<?xml version="1.0" encoding="UTF-8"?>
<svg xmlns="http://www.w3.org/2000/svg" xmlns:xlink="http://www.w3.org/1999/xlink" width="398.482426pt" height="254.105638pt" viewBox="0 0 398.482426 254.105638">
<defs>
<clipPath id="clip-0">
<path clip-rule="nonzero" d="M 193 23 L 197 23 L 197 254.105469 L 193 254.105469 Z M 193 23 "/>
</clipPath>
<clipPath id="clip-1">
<path clip-rule="nonzero" d="M 91 19 L 204 19 L 204 254.105469 L 91 254.105469 Z M 91 19 "/>
</clipPath>
</defs>
<path fill-rule="nonzero" fill="rgb(100%, 0%, 9.803772%)" fill-opacity="1" stroke-width="1.835688" stroke-linecap="butt" stroke-linejoin="round" stroke="rgb(100%, 0%, 9.803772%)" stroke-opacity="1" stroke-miterlimit="4" d="M 85.800781 139.097656 C 85.800781 141.347656 83.976562 143.171875 81.726562 143.171875 C 79.472656 143.171875 77.648438 141.347656 77.648438 139.097656 C 77.648438 136.847656 79.472656 135.023438 81.726562 135.023438 C 83.976562 135.023438 85.800781 136.847656 85.800781 139.097656 Z M 85.800781 139.097656 "/>
<g clip-path="url(#clip-0)">
<path fill="none" stroke-width="1.835688" stroke-linecap="square" stroke-linejoin="miter" stroke="rgb(0%, 0%, 0%)" stroke-opacity="1" stroke-miterlimit="4" d="M 195 25.007812 L 195 253.1875 "/>
</g>
<path fill="none" stroke-width="1.417323" stroke-linecap="square" stroke-linejoin="miter" stroke="rgb(23.529053%, 81.175232%, 30.587769%)" stroke-opacity="1" stroke-miterlimit="4" d="M 85.71875 106.855469 C 101.542969 109.21875 113.316406 122.714844 113.503906 138.710938 C 113.695312 154.707031 102.246094 168.476562 86.484375 171.214844 "/>
<path fill="none" stroke-width="1.417323" stroke-linecap="square" stroke-linejoin="miter" stroke="rgb(23.529053%, 81.175232%, 30.587769%)" stroke-opacity="1" stroke-miterlimit="4" d="M 90.003906 91.054688 C 113.320312 95.46875 130.105469 115.988281 129.800781 139.722656 C 129.5 163.453125 112.195312 183.539062 88.773438 187.355469 "/>
<path fill="none" stroke-width="1.417323" stroke-linecap="square" stroke-linejoin="miter" stroke="rgb(23.529053%, 81.175232%, 30.587769%)" stroke-opacity="1" stroke-miterlimit="4" d="M 92.742188 73.328125 C 124.414062 79.027344 147.523438 106.488281 147.730469 138.664062 C 147.941406 170.84375 125.183594 198.601562 93.589844 204.707031 "/>
<path fill="none" stroke-width="1.417323" stroke-linecap="square" stroke-linejoin="miter" stroke="rgb(23.529053%, 81.175232%, 30.587769%)" stroke-opacity="1" stroke-miterlimit="4" d="M 83.316406 122.976562 C 91.226562 124.15625 97.113281 130.90625 97.207031 138.902344 C 97.300781 146.902344 91.578125 153.789062 83.695312 155.15625 "/>
<path fill="none" stroke-width="1.559055" stroke-linecap="square" stroke-linejoin="miter" stroke="rgb(23.529053%, 81.175232%, 30.587769%)" stroke-opacity="1" stroke-miterlimit="4" d="M 92.933594 58.496094 C 132.492188 64.398438 161.921875 98.136719 162.394531 138.128906 C 162.871094 178.125 134.25 212.550781 94.84375 219.390625 "/>
<path fill="none" stroke-width="1.417323" stroke-linecap="square" stroke-linejoin="miter" stroke="rgb(23.529053%, 81.175232%, 30.587769%)" stroke-opacity="1" stroke-miterlimit="4" d="M 95.339844 42.378906 C 142.808594 49.460938 178.125 89.945312 178.695312 137.9375 C 179.261719 185.929688 144.917969 227.242188 97.632812 235.449219 "/>
<g clip-path="url(#clip-1)">
<path fill="none" stroke-width="1.417323" stroke-linecap="square" stroke-linejoin="miter" stroke="rgb(23.529053%, 81.175232%, 30.587769%)" stroke-opacity="1" stroke-miterlimit="4" d="M 99.132812 27.867188 C 153.726562 36.011719 194.335938 82.570312 194.992188 137.761719 C 195.644531 192.953125 156.152344 240.460938 101.769531 249.898438 "/>
</g>
<path fill-rule="nonzero" fill="rgb(0%, 0%, 0%)" fill-opacity="1" d="M 10.242188 118.0625 C 10.242188 115.773438 8.714844 113.847656 6.789062 113.375 L 3.8125 112.6875 C 2.359375 112.324219 1.488281 111.089844 1.488281 109.746094 C 1.488281 108.109375 2.722656 106.695312 4.539062 106.695312 C 8.386719 106.695312 8.898438 110.507812 9.042969 111.523438 C 9.078125 111.667969 9.078125 111.816406 9.332031 111.816406 C 9.625 111.816406 9.625 111.707031 9.625 111.269531 L 9.625 106.621094 C 9.625 106.222656 9.625 106.039062 9.371094 106.039062 C 9.222656 106.039062 9.1875 106.078125 9.042969 106.367188 L 8.207031 107.675781 C 7.515625 106.984375 6.574219 106.039062 4.503906 106.039062 C 1.925781 106.039062 0 108.074219 0 110.542969 C 0 112.46875 1.234375 114.175781 3.015625 114.792969 C 3.269531 114.863281 4.464844 115.15625 6.101562 115.554688 C 6.71875 115.699219 7.40625 115.882812 8.0625 116.71875 C 8.535156 117.335938 8.789062 118.097656 8.789062 118.859375 C 8.789062 120.492188 7.625 122.164062 5.664062 122.164062 C 5.011719 122.164062 3.230469 122.054688 1.996094 120.929688 C 0.652344 119.660156 0.582031 118.207031 0.582031 117.371094 C 0.542969 117.117188 0.363281 117.117188 0.289062 117.117188 C 0 117.117188 0 117.296875 0 117.699219 L 0 122.347656 C 0 122.746094 0 122.890625 0.253906 122.890625 C 0.398438 122.890625 0.4375 122.855469 0.582031 122.601562 C 0.582031 122.601562 0.652344 122.492188 1.417969 121.257812 C 2.140625 122.054688 3.632812 122.890625 5.703125 122.890625 C 8.386719 122.890625 10.242188 120.640625 10.242188 118.0625 Z M 10.242188 118.0625 "/>
<path fill-rule="nonzero" fill="rgb(0%, 0%, 0%)" fill-opacity="1" d="M 22.460938 117.40625 C 22.460938 114.464844 20.171875 111.996094 17.375 111.996094 C 14.472656 111.996094 12.21875 114.539062 12.21875 117.40625 C 12.21875 120.421875 14.617188 122.636719 17.339844 122.636719 C 20.136719 122.636719 22.460938 120.347656 22.460938 117.40625 Z M 20.570312 117.226562 C 20.570312 118.0625 20.570312 119.332031 20.0625 120.347656 C 19.519531 121.402344 18.503906 122.054688 17.375 122.054688 C 16.359375 122.054688 15.34375 121.582031 14.726562 120.492188 C 14.144531 119.476562 14.144531 118.0625 14.144531 117.226562 C 14.144531 116.316406 14.144531 115.082031 14.6875 114.066406 C 15.304688 113.011719 16.394531 112.503906 17.339844 112.503906 C 18.355469 112.503906 19.335938 113.011719 19.953125 114.03125 C 20.570312 115.011719 20.570312 116.355469 20.570312 117.226562 Z M 20.570312 117.226562 "/>
<path fill-rule="nonzero" fill="rgb(0%, 0%, 0%)" fill-opacity="1" d="M 35.527344 122.382812 L 35.527344 121.65625 C 33.929688 121.65625 33.75 121.511719 33.75 120.347656 L 33.75 112.140625 L 30.335938 112.394531 L 30.335938 113.121094 C 31.933594 113.121094 32.152344 113.265625 32.152344 114.429688 L 32.152344 118.53125 C 32.152344 120.566406 31.023438 122.128906 29.316406 122.128906 C 27.394531 122.128906 27.285156 121.039062 27.285156 119.839844 L 27.285156 112.140625 L 23.871094 112.394531 L 23.871094 113.121094 C 25.6875 113.121094 25.6875 113.195312 25.6875 115.226562 L 25.6875 118.714844 C 25.6875 120.53125 25.6875 122.636719 29.210938 122.636719 C 30.515625 122.636719 31.535156 121.984375 32.1875 120.566406 L 32.1875 122.636719 Z M 35.527344 122.382812 "/>
<path fill-rule="nonzero" fill="rgb(0%, 0%, 0%)" fill-opacity="1" d="M 44.441406 113.558594 C 44.441406 112.832031 43.71875 112.140625 42.738281 112.140625 C 41.03125 112.140625 40.195312 113.703125 39.902344 114.683594 L 39.902344 112.140625 L 36.671875 112.394531 L 36.671875 113.121094 C 38.304688 113.121094 38.488281 113.265625 38.488281 114.429688 L 38.488281 120.640625 C 38.488281 121.65625 38.234375 121.65625 36.671875 121.65625 L 36.671875 122.382812 L 39.324219 122.308594 C 40.230469 122.308594 41.320312 122.308594 42.265625 122.382812 L 42.265625 121.65625 L 41.757812 121.65625 C 40.050781 121.65625 40.011719 121.402344 40.011719 120.566406 L 40.011719 117.007812 C 40.011719 114.71875 40.992188 112.648438 42.738281 112.648438 C 42.882812 112.648438 42.953125 112.648438 42.992188 112.6875 C 42.917969 112.6875 42.445312 112.976562 42.445312 113.59375 C 42.445312 114.210938 42.953125 114.574219 43.460938 114.574219 C 43.863281 114.574219 44.441406 114.285156 44.441406 113.558594 Z M 44.441406 113.558594 "/>
<path fill-rule="nonzero" fill="rgb(0%, 0%, 0%)" fill-opacity="1" d="M 54.71875 119.621094 C 54.71875 119.40625 54.464844 119.40625 54.390625 119.40625 C 54.207031 119.40625 54.136719 119.476562 54.101562 119.621094 C 53.445312 121.765625 51.921875 122.054688 51.085938 122.054688 C 49.851562 122.054688 47.816406 121.074219 47.816406 117.335938 C 47.816406 113.558594 49.707031 112.578125 50.941406 112.578125 C 51.160156 112.578125 52.609375 112.613281 53.410156 113.449219 C 52.464844 113.523438 52.320312 114.210938 52.320312 114.503906 C 52.320312 115.121094 52.757812 115.554688 53.375 115.554688 C 53.992188 115.554688 54.464844 115.191406 54.464844 114.464844 C 54.464844 112.902344 52.683594 111.996094 50.902344 111.996094 C 48 111.996094 45.894531 114.503906 45.894531 117.371094 C 45.894531 120.347656 48.179688 122.636719 50.867188 122.636719 C 53.953125 122.636719 54.71875 119.839844 54.71875 119.621094 Z M 54.71875 119.621094 "/>
<path fill-rule="nonzero" fill="rgb(0%, 0%, 0%)" fill-opacity="1" d="M 65 119.621094 C 65 119.40625 64.816406 119.332031 64.671875 119.332031 C 64.492188 119.332031 64.417969 119.476562 64.382812 119.660156 C 63.582031 122.054688 61.476562 122.054688 61.257812 122.054688 C 60.097656 122.054688 59.1875 121.367188 58.644531 120.492188 C 57.953125 119.40625 57.953125 117.878906 57.953125 117.042969 L 64.417969 117.042969 C 64.925781 117.042969 65 117.042969 65 116.535156 C 65 114.246094 63.726562 111.996094 60.859375 111.996094 C 58.171875 111.996094 56.03125 114.394531 56.03125 117.296875 C 56.03125 120.386719 58.460938 122.636719 61.113281 122.636719 C 63.945312 122.636719 65 120.058594 65 119.621094 Z M 63.472656 116.535156 L 57.953125 116.535156 C 58.097656 113.085938 60.058594 112.503906 60.859375 112.503906 C 63.21875 112.503906 63.472656 115.628906 63.472656 116.535156 Z M 63.472656 116.535156 "/>
<path fill-rule="nonzero" fill="rgb(0%, 0%, 0%)" fill-opacity="1" d="M 165.050781 14.308594 C 165.050781 14.164062 165.050781 13.910156 164.761719 13.910156 C 164.507812 13.910156 164.507812 14.125 164.472656 14.273438 C 164.328125 15.941406 163.527344 16.339844 162.945312 16.339844 C 161.820312 16.339844 161.640625 15.144531 161.3125 13 L 160.984375 11.148438 C 160.585938 9.660156 159.460938 8.898438 158.1875 8.460938 C 160.40625 7.917969 162.21875 6.5 162.21875 4.683594 C 162.21875 2.46875 159.570312 0.507812 156.191406 0.507812 L 148.894531 0.507812 L 148.894531 1.234375 L 149.472656 1.234375 C 151.253906 1.234375 151.289062 1.488281 151.289062 2.324219 L 151.289062 14.527344 C 151.289062 15.359375 151.253906 15.613281 149.472656 15.613281 L 148.894531 15.613281 L 148.894531 16.339844 C 149.726562 16.269531 151.398438 16.269531 152.269531 16.269531 C 153.179688 16.269531 154.847656 16.269531 155.683594 16.339844 L 155.683594 15.613281 L 155.101562 15.613281 C 153.324219 15.613281 153.285156 15.359375 153.285156 14.527344 L 153.285156 8.679688 L 155.9375 8.679688 C 156.300781 8.679688 157.28125 8.679688 158.117188 9.476562 C 158.988281 10.277344 158.988281 11.003906 158.988281 12.566406 C 158.988281 14.054688 158.988281 14.996094 159.933594 15.871094 C 160.875 16.703125 162.148438 16.851562 162.835938 16.851562 C 164.652344 16.851562 165.050781 14.960938 165.050781 14.308594 Z M 159.824219 4.683594 C 159.824219 6.28125 159.277344 8.171875 155.863281 8.171875 L 153.285156 8.171875 L 153.285156 2.179688 C 153.285156 1.632812 153.285156 1.34375 153.796875 1.269531 C 154.011719 1.234375 154.703125 1.234375 155.175781 1.234375 C 157.246094 1.234375 159.824219 1.34375 159.824219 4.683594 Z M 159.824219 4.683594 "/>
<path fill-rule="nonzero" fill="rgb(0%, 0%, 0%)" fill-opacity="1" d="M 174.761719 13.582031 C 174.761719 13.363281 174.578125 13.292969 174.433594 13.292969 C 174.25 13.292969 174.179688 13.4375 174.144531 13.617188 C 173.34375 16.015625 171.238281 16.015625 171.019531 16.015625 C 169.859375 16.015625 168.949219 15.324219 168.40625 14.453125 C 167.714844 13.363281 167.714844 11.839844 167.714844 11.003906 L 174.179688 11.003906 C 174.6875 11.003906 174.761719 11.003906 174.761719 10.496094 C 174.761719 8.207031 173.488281 5.957031 170.621094 5.957031 C 167.933594 5.957031 165.789062 8.351562 165.789062 11.257812 C 165.789062 14.34375 168.222656 16.597656 170.875 16.597656 C 173.707031 16.597656 174.761719 14.015625 174.761719 13.582031 Z M 173.234375 10.496094 L 167.714844 10.496094 C 167.859375 7.046875 169.820312 6.464844 170.621094 6.464844 C 172.980469 6.464844 173.234375 9.585938 173.234375 10.496094 Z M 173.234375 10.496094 "/>
<path fill-rule="nonzero" fill="rgb(0%, 0%, 0%)" fill-opacity="1" d="M 187.617188 16.339844 L 187.617188 15.613281 C 186.054688 15.613281 185.800781 15.613281 185.800781 14.597656 L 185.800781 0.253906 L 184.96875 0.398438 C 184.894531 0.398438 184.859375 0.363281 184.785156 0.328125 C 184.023438 0 183.078125 0 182.824219 0 C 180.390625 0 177.886719 1.308594 177.886719 3.703125 L 177.886719 6.355469 L 176.035156 6.355469 L 176.035156 7.082031 L 177.886719 7.082031 L 177.886719 14.597656 C 177.886719 15.613281 177.632812 15.613281 176.070312 15.613281 L 176.070312 16.339844 L 178.648438 16.269531 L 181.226562 16.339844 L 181.226562 15.613281 C 179.664062 15.613281 179.410156 15.613281 179.410156 14.597656 L 179.410156 7.082031 L 184.277344 7.082031 L 184.277344 14.597656 C 184.277344 15.613281 184.023438 15.613281 182.496094 15.613281 L 182.496094 16.339844 L 185.039062 16.269531 Z M 184.277344 6.355469 L 179.339844 6.355469 L 179.339844 3.742188 C 179.339844 1.597656 181.082031 0.507812 182.824219 0.507812 C 183.007812 0.507812 183.625 0.507812 184.277344 0.726562 C 184.09375 0.835938 183.695312 1.054688 183.695312 1.671875 C 183.695312 2.070312 183.914062 2.433594 184.277344 2.542969 Z M 184.277344 6.355469 "/>
<path fill-rule="nonzero" fill="rgb(0%, 0%, 0%)" fill-opacity="1" d="M 197.914062 13.582031 C 197.914062 13.363281 197.730469 13.292969 197.585938 13.292969 C 197.40625 13.292969 197.332031 13.4375 197.296875 13.617188 C 196.496094 16.015625 194.390625 16.015625 194.171875 16.015625 C 193.011719 16.015625 192.101562 15.324219 191.558594 14.453125 C 190.867188 13.363281 190.867188 11.839844 190.867188 11.003906 L 197.332031 11.003906 C 197.839844 11.003906 197.914062 11.003906 197.914062 10.496094 C 197.914062 8.207031 196.640625 5.957031 193.773438 5.957031 C 191.085938 5.957031 188.941406 8.351562 188.941406 11.257812 C 188.941406 14.34375 191.375 16.597656 194.027344 16.597656 C 196.859375 16.597656 197.914062 14.015625 197.914062 13.582031 Z M 196.386719 10.496094 L 190.867188 10.496094 C 191.011719 7.046875 192.972656 6.464844 193.773438 6.464844 C 196.132812 6.464844 196.386719 9.585938 196.386719 10.496094 Z M 196.386719 10.496094 "/>
<path fill-rule="nonzero" fill="rgb(0%, 0%, 0%)" fill-opacity="1" d="M 208.195312 13.582031 C 208.195312 13.363281 207.941406 13.363281 207.867188 13.363281 C 207.6875 13.363281 207.613281 13.4375 207.578125 13.582031 C 206.925781 15.722656 205.398438 16.015625 204.5625 16.015625 C 203.328125 16.015625 201.296875 15.035156 201.296875 11.292969 C 201.296875 7.515625 203.183594 6.535156 204.417969 6.535156 C 204.636719 6.535156 206.089844 6.574219 206.886719 7.40625 C 205.941406 7.480469 205.796875 8.171875 205.796875 8.460938 C 205.796875 9.078125 206.234375 9.515625 206.851562 9.515625 C 207.46875 9.515625 207.941406 9.152344 207.941406 8.425781 C 207.941406 6.863281 206.160156 5.957031 204.382812 5.957031 C 201.476562 5.957031 199.371094 8.460938 199.371094 11.332031 C 199.371094 14.308594 201.660156 16.597656 204.34375 16.597656 C 207.433594 16.597656 208.195312 13.800781 208.195312 13.582031 Z M 208.195312 13.582031 "/>
<path fill-rule="nonzero" fill="rgb(0%, 0%, 0%)" fill-opacity="1" d="M 216.550781 13.472656 L 216.550781 12.164062 L 215.96875 12.164062 L 215.96875 13.4375 C 215.96875 15.144531 215.277344 16.015625 214.40625 16.015625 C 212.847656 16.015625 212.847656 13.910156 212.847656 13.507812 L 212.847656 7.082031 L 216.1875 7.082031 L 216.1875 6.355469 L 212.847656 6.355469 L 212.847656 2.105469 L 212.265625 2.105469 C 212.265625 3.996094 211.574219 6.464844 209.285156 6.574219 L 209.285156 7.082031 L 211.246094 7.082031 L 211.246094 13.472656 C 211.246094 16.304688 213.425781 16.597656 214.261719 16.597656 C 215.894531 16.597656 216.550781 14.960938 216.550781 13.472656 Z M 216.550781 13.472656 "/>
<path fill-rule="nonzero" fill="rgb(0%, 0%, 0%)" fill-opacity="1" d="M 228.75 11.367188 C 228.75 8.425781 226.464844 5.957031 223.667969 5.957031 C 220.761719 5.957031 218.511719 8.496094 218.511719 11.367188 C 218.511719 14.378906 220.90625 16.597656 223.632812 16.597656 C 226.425781 16.597656 228.75 14.308594 228.75 11.367188 Z M 226.863281 11.183594 C 226.863281 12.019531 226.863281 13.292969 226.355469 14.308594 C 225.808594 15.359375 224.792969 16.015625 223.667969 16.015625 C 222.652344 16.015625 221.632812 15.542969 221.015625 14.453125 C 220.433594 13.4375 220.433594 12.019531 220.433594 11.183594 C 220.433594 10.277344 220.433594 9.042969 220.980469 8.027344 C 221.597656 6.972656 222.6875 6.464844 223.632812 6.464844 C 224.648438 6.464844 225.628906 6.972656 226.246094 7.988281 C 226.863281 8.96875 226.863281 10.3125 226.863281 11.183594 Z M 226.863281 11.183594 "/>
<path fill-rule="nonzero" fill="rgb(0%, 0%, 0%)" fill-opacity="1" d="M 237.859375 7.515625 C 237.859375 6.789062 237.132812 6.101562 236.152344 6.101562 C 234.449219 6.101562 233.613281 7.664062 233.320312 8.644531 L 233.320312 6.101562 L 230.089844 6.355469 L 230.089844 7.082031 C 231.722656 7.082031 231.90625 7.226562 231.90625 8.386719 L 231.90625 14.597656 C 231.90625 15.613281 231.652344 15.613281 230.089844 15.613281 L 230.089844 16.339844 L 232.742188 16.269531 C 233.648438 16.269531 234.738281 16.269531 235.683594 16.339844 L 235.683594 15.613281 L 235.171875 15.613281 C 233.46875 15.613281 233.429688 15.359375 233.429688 14.527344 L 233.429688 10.96875 C 233.429688 8.679688 234.410156 6.609375 236.152344 6.609375 C 236.300781 6.609375 236.371094 6.609375 236.410156 6.644531 C 236.335938 6.644531 235.863281 6.9375 235.863281 7.554688 C 235.863281 8.171875 236.371094 8.535156 236.878906 8.535156 C 237.28125 8.535156 237.859375 8.242188 237.859375 7.515625 Z M 237.859375 7.515625 "/>
<path fill="none" stroke-width="1.41732" stroke-linecap="round" stroke-linejoin="round" stroke="rgb(42.352295%, 40.391541%, 100%)" stroke-opacity="1" stroke-miterlimit="4" d="M 194.738281 180.148438 C 185.046875 153.527344 185.085938 124.335938 194.851562 97.738281 "/>
<path fill="none" stroke-width="1.41732" stroke-linecap="round" stroke-linejoin="round" stroke="rgb(42.352295%, 40.391541%, 100%)" stroke-opacity="1" stroke-miterlimit="4" d="M 183.324219 192.070312 C 169.097656 158.71875 168.882812 121.046875 182.734375 87.539062 "/>
<path fill="none" stroke-width="1.41732" stroke-linecap="round" stroke-linejoin="round" stroke="rgb(42.352295%, 40.391541%, 100%)" stroke-opacity="1" stroke-miterlimit="4" d="M 169.015625 205.890625 C 149.351562 165.121094 148.652344 117.753906 167.105469 76.421875 "/>
<path fill="none" stroke-width="1.41732" stroke-linecap="round" stroke-linejoin="round" stroke="rgb(42.352295%, 40.391541%, 100%)" stroke-opacity="1" stroke-miterlimit="4" d="M 156.972656 214.261719 C 133.59375 167.449219 133.332031 112.421875 156.257812 65.382812 "/>
<path fill="none" stroke-width="1.41732" stroke-linecap="round" stroke-linejoin="round" stroke="rgb(42.352295%, 40.391541%, 100%)" stroke-opacity="1" stroke-miterlimit="4" d="M 144.769531 224.4375 C 116.855469 171.214844 116.734375 107.707031 144.445312 54.378906 "/>
<path fill="none" stroke-width="1.41732" stroke-linecap="round" stroke-linejoin="round" stroke="rgb(42.352295%, 40.391541%, 100%)" stroke-opacity="1" stroke-miterlimit="4" d="M 129.839844 236.273438 C 97.332031 176.84375 96.695312 105.09375 128.140625 45.09375 "/>
<path fill-rule="nonzero" fill="rgb(0%, 0%, 0%)" fill-opacity="1" d="M 161.800781 30.199219 C 161.800781 28.019531 160.515625 27.34375 159.488281 27.34375 C 157.570312 27.34375 155.738281 29.328125 155.738281 31.289062 C 155.738281 32.597656 156.566406 33.644531 158.007812 33.644531 C 158.878906 33.644531 159.882812 33.320312 160.929688 32.46875 C 161.101562 33.210938 161.5625 33.644531 162.195312 33.644531 C 162.933594 33.644531 163.371094 32.882812 163.371094 32.664062 C 163.371094 32.554688 163.285156 32.511719 163.195312 32.511719 C 163.109375 32.511719 163.066406 32.554688 163.023438 32.664062 C 162.761719 33.339844 162.257812 33.339844 162.238281 33.339844 C 161.800781 33.339844 161.800781 32.25 161.800781 31.921875 C 161.800781 31.640625 161.800781 31.59375 161.953125 31.441406 C 163.261719 29.785156 163.546875 28.171875 163.546875 28.171875 C 163.546875 28.128906 163.523438 28.019531 163.371094 28.019531 C 163.242188 28.019531 163.242188 28.0625 163.175781 28.324219 C 162.914062 29.195312 162.457031 30.242188 161.800781 31.070312 Z M 160.886719 32.117188 C 159.640625 33.1875 158.574219 33.339844 158.027344 33.339844 C 157.199219 33.339844 156.761719 32.707031 156.761719 31.8125 C 156.761719 31.136719 157.132812 29.632812 157.570312 28.933594 C 158.222656 27.910156 158.988281 27.648438 159.46875 27.648438 C 160.839844 27.648438 160.839844 29.480469 160.839844 30.546875 C 160.839844 31.070312 160.839844 31.878906 160.886719 32.117188 Z M 160.886719 32.117188 "/>
<path fill-rule="nonzero" fill="rgb(0%, 0%, 0%)" fill-opacity="1" d="M 168.972656 33.8125 L 168.648438 33.8125 C 168.625 34.03125 168.515625 34.597656 168.386719 34.683594 C 168.320312 34.75 167.578125 34.75 167.425781 34.75 L 165.636719 34.75 C 166.660156 33.855469 167.011719 33.570312 167.578125 33.113281 C 168.296875 32.546875 168.972656 31.9375 168.972656 31.019531 C 168.972656 29.84375 167.949219 29.121094 166.707031 29.121094 C 165.503906 29.121094 164.675781 29.972656 164.675781 30.867188 C 164.675781 31.347656 165.089844 31.414062 165.199219 31.414062 C 165.417969 31.414062 165.703125 31.238281 165.703125 30.890625 C 165.703125 30.714844 165.636719 30.367188 165.136719 30.367188 C 165.441406 29.691406 166.09375 29.472656 166.554688 29.472656 C 167.535156 29.472656 168.035156 30.234375 168.035156 31.019531 C 168.035156 31.871094 167.425781 32.523438 167.121094 32.875 L 164.785156 35.207031 C 164.675781 35.292969 164.675781 35.316406 164.675781 35.578125 L 168.691406 35.578125 Z M 168.972656 33.8125 "/>
<path fill-rule="nonzero" fill="rgb(0%, 0%, 0%)" fill-opacity="1" d="M 173.140625 33.472656 C 173.140625 32.554688 172.792969 32.011719 172.246094 32.011719 C 171.789062 32.011719 171.503906 32.359375 171.503906 32.75 C 171.503906 33.121094 171.789062 33.492188 172.246094 33.492188 C 172.398438 33.492188 172.597656 33.425781 172.726562 33.320312 C 172.769531 33.273438 172.792969 33.273438 172.792969 33.273438 C 172.8125 33.273438 172.8125 33.273438 172.8125 33.472656 C 172.8125 34.519531 172.335938 35.347656 171.875 35.804688 C 171.722656 35.957031 171.722656 35.980469 171.722656 36.023438 C 171.722656 36.132812 171.789062 36.175781 171.855469 36.175781 C 172.007812 36.175781 173.140625 35.105469 173.140625 33.472656 Z M 173.140625 33.472656 "/>
<path fill-rule="nonzero" fill="rgb(0%, 0%, 0%)" fill-opacity="1" d="M 184.480469 25.574219 C 184.480469 24.527344 183.71875 23.679688 182.582031 23.679688 C 181.777344 23.679688 181.382812 23.894531 180.90625 24.246094 C 180.140625 24.8125 179.378906 26.164062 179.117188 27.210938 L 176.890625 36.042969 C 176.890625 36.109375 176.957031 36.199219 177.066406 36.199219 C 177.175781 36.199219 177.21875 36.152344 177.21875 36.132812 L 178.199219 32.273438 C 178.460938 33.121094 179.074219 33.625 180.097656 33.625 C 181.101562 33.625 182.148438 33.144531 182.78125 32.535156 C 183.457031 31.902344 183.890625 31.007812 183.890625 29.980469 C 183.890625 28.976562 183.367188 28.238281 182.867188 27.910156 C 183.675781 27.429688 184.480469 26.578125 184.480469 25.574219 Z M 181.972656 27.886719 C 181.796875 27.953125 181.644531 27.976562 181.296875 27.976562 C 181.101562 27.976562 180.839844 27.996094 180.6875 27.929688 C 180.730469 27.777344 181.230469 27.824219 181.382812 27.824219 C 181.667969 27.824219 181.796875 27.824219 181.972656 27.886719 Z M 183.695312 25.25 C 183.695312 26.230469 183.171875 27.234375 182.453125 27.667969 C 182.058594 27.515625 181.796875 27.496094 181.382812 27.496094 C 181.078125 27.496094 180.292969 27.472656 180.292969 27.929688 C 180.292969 28.324219 181.011719 28.28125 181.253906 28.28125 C 181.777344 28.28125 181.996094 28.28125 182.410156 28.105469 C 182.933594 28.609375 183 29.042969 183.019531 29.675781 C 183.042969 30.484375 182.714844 31.53125 182.320312 32.074219 C 181.777344 32.816406 180.839844 33.320312 180.054688 33.320312 C 178.984375 33.320312 178.460938 32.511719 178.460938 31.53125 C 178.460938 31.398438 178.460938 31.179688 178.527344 30.917969 L 179.421875 27.40625 C 179.726562 26.207031 180.730469 23.984375 182.410156 23.984375 C 183.214844 23.984375 183.695312 24.421875 183.695312 25.25 Z M 183.695312 25.25 "/>
<path fill-rule="nonzero" fill="rgb(0%, 0%, 0%)" fill-opacity="1" d="M 189.257812 33.8125 L 188.933594 33.8125 C 188.910156 34.03125 188.800781 34.597656 188.671875 34.683594 C 188.605469 34.75 187.863281 34.75 187.710938 34.75 L 185.921875 34.75 C 186.949219 33.855469 187.296875 33.570312 187.863281 33.113281 C 188.582031 32.546875 189.257812 31.9375 189.257812 31.019531 C 189.257812 29.84375 188.234375 29.121094 186.992188 29.121094 C 185.792969 29.121094 184.964844 29.972656 184.964844 30.867188 C 184.964844 31.347656 185.378906 31.414062 185.488281 31.414062 C 185.703125 31.414062 185.988281 31.238281 185.988281 30.890625 C 185.988281 30.714844 185.921875 30.367188 185.421875 30.367188 C 185.726562 29.691406 186.378906 29.472656 186.839844 29.472656 C 187.820312 29.472656 188.320312 30.234375 188.320312 31.019531 C 188.320312 31.871094 187.710938 32.523438 187.40625 32.875 L 185.070312 35.207031 C 184.964844 35.292969 184.964844 35.316406 184.964844 35.578125 L 188.976562 35.578125 Z M 189.257812 33.8125 "/>
<path fill-rule="nonzero" fill="rgb(0%, 0%, 0%)" fill-opacity="1" d="M 48.757812 146.554688 C 48.757812 147.253906 48.757812 148.269531 51.066406 148.269531 L 52.152344 148.269531 C 52.570312 148.269531 52.851562 148.269531 52.851562 147.742188 C 52.851562 147.21875 52.570312 147.21875 52.257812 147.21875 C 50.890625 147.183594 50.890625 146.902344 50.890625 146.378906 L 50.890625 141.582031 C 50.890625 139.585938 49.316406 138.152344 45.992188 138.152344 C 44.730469 138.152344 42 138.257812 42 140.21875 C 42 141.199219 42.769531 141.617188 43.367188 141.617188 C 44.066406 141.617188 44.800781 141.128906 44.800781 140.21875 C 44.800781 139.554688 44.382812 139.167969 44.3125 139.097656 C 44.941406 138.992188 45.640625 138.957031 45.921875 138.957031 C 47.566406 138.957031 48.371094 139.902344 48.371094 141.582031 L 48.371094 142.351562 C 46.761719 142.421875 41.089844 142.632812 41.089844 145.855469 C 41.089844 147.988281 43.890625 148.410156 45.429688 148.410156 C 47.214844 148.410156 48.265625 147.5 48.757812 146.554688 Z M 48.371094 143.054688 L 48.371094 145.152344 C 48.371094 147.324219 46.304688 147.605469 45.746094 147.605469 C 44.625 147.605469 43.714844 146.832031 43.714844 145.820312 C 43.714844 143.4375 47.25 143.125 48.371094 143.054688 Z M 48.371094 143.054688 "/>
<path fill-rule="nonzero" fill="rgb(0%, 0%, 0%)" fill-opacity="1" d="M 58.085938 141.675781 C 58.085938 141.253906 58.085938 141.253906 57.628906 141.253906 C 56.613281 142.234375 55.214844 142.234375 54.585938 142.234375 L 54.585938 142.792969 C 54.933594 142.792969 55.984375 142.792969 56.824219 142.375 L 56.824219 150.320312 C 56.824219 150.84375 56.824219 151.054688 55.285156 151.054688 L 54.6875 151.054688 L 54.6875 151.617188 C 54.96875 151.617188 56.894531 151.546875 57.453125 151.546875 C 57.945312 151.546875 59.90625 151.617188 60.253906 151.617188 L 60.253906 151.054688 L 59.660156 151.054688 C 58.085938 151.054688 58.085938 150.84375 58.085938 150.320312 Z M 58.085938 141.675781 "/>
<path fill-rule="nonzero" fill="rgb(0%, 0%, 0%)" fill-opacity="1" d="M 65.054688 151.371094 C 65.054688 152.210938 64.914062 153.226562 63.828125 154.207031 C 63.796875 154.277344 63.726562 154.347656 63.726562 154.414062 C 63.726562 154.519531 63.863281 154.625 63.933594 154.625 C 64.179688 154.625 65.511719 153.367188 65.511719 151.511719 C 65.511719 150.566406 65.125 149.832031 64.390625 149.832031 C 63.898438 149.832031 63.515625 150.214844 63.515625 150.707031 C 63.515625 151.195312 63.863281 151.617188 64.425781 151.617188 C 64.808594 151.617188 65.054688 151.371094 65.054688 151.371094 Z M 65.054688 151.371094 "/>
<path fill-rule="nonzero" fill="rgb(0%, 0%, 0%)" fill-opacity="1" d="M 73.925781 141.851562 C 73.925781 141.605469 73.714844 141.253906 73.296875 141.253906 C 72.839844 141.253906 72.421875 141.710938 72.421875 142.128906 C 72.421875 142.375 72.597656 142.726562 73.050781 142.726562 C 73.472656 142.726562 73.925781 142.304688 73.925781 141.851562 Z M 70.601562 152.386719 C 70.355469 153.472656 69.515625 154.347656 68.605469 154.347656 C 68.394531 154.347656 68.21875 154.347656 68.046875 154.277344 C 68.429688 154.066406 68.570312 153.714844 68.570312 153.472656 C 68.570312 153.085938 68.253906 152.910156 67.941406 152.910156 C 67.484375 152.910156 67.066406 153.332031 67.066406 153.820312 C 67.066406 154.414062 67.660156 154.800781 68.605469 154.800781 C 69.550781 154.800781 71.371094 154.242188 71.859375 152.351562 L 73.261719 146.75 C 73.296875 146.574219 73.332031 146.433594 73.332031 146.191406 C 73.332031 145.351562 72.597656 144.71875 71.6875 144.71875 C 69.933594 144.71875 68.957031 146.890625 68.957031 147.136719 C 68.957031 147.308594 69.164062 147.308594 69.199219 147.308594 C 69.375 147.308594 69.410156 147.273438 69.515625 147.03125 C 69.902344 146.121094 70.707031 145.175781 71.617188 145.175781 C 72 145.175781 72.140625 145.421875 72.140625 145.945312 C 72.140625 146.121094 72.140625 146.332031 72.105469 146.398438 Z M 70.601562 152.386719 "/>
<path fill-rule="evenodd" fill="rgb(100%, 42.352295%, 0%)" fill-opacity="1" stroke-width="1.2189" stroke-linecap="square" stroke-linejoin="miter" stroke="rgb(0%, 0%, 0%)" stroke-opacity="1" stroke-miterlimit="4" d="M 93.75 86.597656 L 101.25 79.097656 "/>
<path fill-rule="evenodd" fill="rgb(100%, 42.352295%, 0%)" fill-opacity="1" stroke-width="1.2189" stroke-linecap="square" stroke-linejoin="miter" stroke="rgb(0%, 0%, 0%)" stroke-opacity="1" stroke-miterlimit="4" d="M 93.75 79.097656 L 101.25 86.597656 "/>
<path fill-rule="nonzero" fill="rgb(0%, 0%, 0%)" fill-opacity="1" d="M 83.898438 77.558594 L 86.488281 74.652344 C 86.804688 74.339844 86.945312 74.199219 88.765625 74.199219 L 88.765625 73.148438 C 87.996094 73.183594 86.839844 73.21875 86.734375 73.21875 C 86.175781 73.21875 85.054688 73.148438 84.425781 73.148438 L 84.425781 74.199219 C 84.738281 74.199219 85.019531 74.234375 85.265625 74.375 C 85.195312 74.511719 85.195312 74.582031 85.089844 74.652344 L 83.234375 76.753906 L 81.027344 74.199219 L 81.9375 74.199219 L 81.9375 73.148438 C 81.34375 73.148438 79.945312 73.21875 79.207031 73.21875 C 78.507812 73.21875 77.492188 73.148438 76.757812 73.148438 L 76.757812 74.199219 L 78.367188 74.199219 L 81.832031 78.292969 L 78.894531 81.582031 C 78.542969 82.003906 77.738281 82.003906 76.652344 82.003906 L 76.652344 83.054688 C 77.421875 83.019531 78.613281 82.984375 78.71875 82.984375 C 79.277344 82.984375 80.574219 83.019531 80.992188 83.054688 L 80.992188 82.003906 C 80.609375 82.003906 80.1875 81.898438 80.1875 81.757812 C 80.1875 81.722656 80.1875 81.722656 80.328125 81.550781 L 82.5 79.097656 L 84.949219 82.003906 L 84.074219 82.003906 L 84.074219 83.054688 C 84.667969 83.019531 86.035156 82.984375 86.769531 82.984375 C 87.46875 82.984375 88.484375 83.019531 89.21875 83.054688 L 89.21875 82.003906 L 87.644531 82.003906 Z M 83.898438 77.558594 "/>
</svg>
