<?xml version="1.0" encoding="UTF-8"?>
<svg xmlns="http://www.w3.org/2000/svg" xmlns:xlink="http://www.w3.org/1999/xlink" width="597.787524pt" height="505.754145pt" viewBox="0 0 597.787524 505.754145">
<path fill-rule="nonzero" fill="rgb(0%, 0%, 0%)" fill-opacity="1" d="M 8.101562 134.8125 L 10.996094 131.566406 C 11.351562 131.214844 11.507812 131.058594 13.542969 131.058594 L 13.542969 129.882812 C 12.679688 129.921875 11.390625 129.960938 11.273438 129.960938 C 10.644531 129.960938 9.394531 129.882812 8.6875 129.882812 L 8.6875 131.058594 C 9.039062 131.058594 9.355469 131.097656 9.628906 131.253906 C 9.550781 131.410156 9.550781 131.488281 9.433594 131.566406 L 7.359375 133.914062 L 4.890625 131.058594 L 5.910156 131.058594 L 5.910156 129.882812 C 5.246094 129.882812 3.679688 129.960938 2.855469 129.960938 C 2.074219 129.960938 0.9375 129.882812 0.117188 129.882812 L 0.117188 131.058594 L 1.917969 131.058594 L 5.792969 135.636719 L 2.503906 139.316406 C 2.113281 139.785156 1.214844 139.785156 0 139.785156 L 0 140.957031 C 0.859375 140.917969 2.191406 140.878906 2.308594 140.878906 C 2.933594 140.878906 4.382812 140.917969 4.851562 140.957031 L 4.851562 139.785156 C 4.421875 139.785156 3.953125 139.667969 3.953125 139.511719 C 3.953125 139.472656 3.953125 139.472656 4.109375 139.277344 L 6.535156 136.535156 L 9.277344 139.785156 L 8.296875 139.785156 L 8.296875 140.957031 C 8.960938 140.917969 10.488281 140.878906 11.3125 140.878906 C 12.09375 140.878906 13.230469 140.917969 14.050781 140.957031 L 14.050781 139.785156 L 12.289062 139.785156 Z M 8.101562 134.8125 "/>
<path fill="none" stroke-width="1.41732" stroke-linecap="square" stroke-linejoin="miter" stroke="rgb(0%, 0%, 0%)" stroke-opacity="1" stroke-miterlimit="4" d="M 176.5625 158.167969 L 274.0625 158.167969 L 274.0625 195.667969 L 176.5625 195.667969 Z M 176.5625 158.167969 "/>
<path fill-rule="nonzero" fill="rgb(0%, 0%, 0%)" fill-opacity="1" d="M 187.636719 180.242188 C 187.636719 179.039062 186.945312 178.308594 186.652344 178.054688 C 185.886719 177.289062 184.976562 177.105469 183.992188 176.925781 C 182.679688 176.667969 181.148438 176.378906 181.148438 175.027344 C 181.148438 174.191406 181.730469 173.242188 183.738281 173.242188 C 186.289062 173.242188 186.433594 175.355469 186.472656 176.050781 C 186.472656 176.269531 186.726562 176.269531 186.726562 176.269531 C 187.054688 176.269531 187.054688 176.160156 187.054688 175.722656 L 187.054688 173.351562 C 187.054688 172.988281 187.054688 172.804688 186.800781 172.804688 C 186.691406 172.804688 186.617188 172.804688 186.324219 173.097656 C 186.253906 173.167969 186.035156 173.386719 185.925781 173.460938 C 185.050781 172.804688 184.101562 172.804688 183.738281 172.804688 C 180.894531 172.804688 180.019531 174.371094 180.019531 175.683594 C 180.019531 176.488281 180.382812 177.144531 181.003906 177.652344 C 181.769531 178.238281 182.425781 178.382812 184.101562 178.710938 C 184.613281 178.820312 186.507812 179.183594 186.507812 180.863281 C 186.507812 182.027344 185.707031 182.976562 183.882812 182.976562 C 181.914062 182.976562 181.074219 181.664062 180.636719 179.660156 C 180.566406 179.367188 180.566406 179.292969 180.308594 179.292969 C 180.019531 179.292969 180.019531 179.441406 180.019531 179.839844 L 180.019531 182.941406 C 180.019531 183.339844 180.019531 183.488281 180.273438 183.488281 C 180.382812 183.488281 180.417969 183.449219 180.855469 183.011719 C 180.894531 182.976562 180.894531 182.941406 181.332031 182.503906 C 182.351562 183.449219 183.410156 183.488281 183.882812 183.488281 C 186.542969 183.488281 187.636719 181.917969 187.636719 180.242188 Z M 187.636719 180.242188 "/>
<path fill-rule="nonzero" fill="rgb(0%, 0%, 0%)" fill-opacity="1" d="M 199.347656 178.238281 C 199.347656 175.285156 197.050781 172.804688 194.246094 172.804688 C 191.328125 172.804688 189.066406 175.355469 189.066406 178.238281 C 189.066406 181.261719 191.472656 183.488281 194.207031 183.488281 C 197.015625 183.488281 199.347656 181.191406 199.347656 178.238281 Z M 197.453125 178.054688 C 197.453125 178.894531 197.453125 180.167969 196.941406 181.191406 C 196.394531 182.246094 195.375 182.902344 194.246094 182.902344 C 193.222656 182.902344 192.203125 182.429688 191.582031 181.335938 C 191 180.316406 191 178.894531 191 178.054688 C 191 177.144531 191 175.902344 191.546875 174.882812 C 192.167969 173.824219 193.261719 173.316406 194.207031 173.316406 C 195.226562 173.316406 196.210938 173.824219 196.832031 174.847656 C 197.453125 175.832031 197.453125 177.179688 197.453125 178.054688 Z M 197.453125 178.054688 "/>
<path fill-rule="nonzero" fill="rgb(0%, 0%, 0%)" fill-opacity="1" d="M 208.347656 168.464844 C 208.347656 167.589844 207.472656 166.824219 206.234375 166.824219 C 204.628906 166.824219 202.625 168.066406 202.625 170.542969 L 202.625 173.207031 L 200.800781 173.207031 L 200.800781 173.933594 L 202.625 173.933594 L 202.625 181.480469 C 202.625 182.503906 202.367188 182.503906 200.835938 182.503906 L 200.835938 183.230469 L 203.460938 183.160156 C 204.410156 183.160156 205.503906 183.160156 206.414062 183.230469 L 206.414062 182.503906 L 205.941406 182.503906 C 204.226562 182.503906 204.191406 182.246094 204.191406 181.410156 L 204.191406 173.933594 L 206.816406 173.933594 L 206.816406 173.207031 L 204.117188 173.207031 L 204.117188 170.507812 C 204.117188 168.464844 205.210938 167.335938 206.234375 167.335938 C 206.304688 167.335938 206.671875 167.335938 207 167.519531 C 206.742188 167.589844 206.304688 167.917969 206.304688 168.503906 C 206.304688 169.011719 206.671875 169.488281 207.328125 169.488281 C 207.984375 169.488281 208.347656 169.011719 208.347656 168.464844 Z M 208.347656 168.464844 "/>
<path fill-rule="nonzero" fill="rgb(0%, 0%, 0%)" fill-opacity="1" d="M 214.875 180.351562 L 214.875 179.039062 L 214.292969 179.039062 L 214.292969 180.316406 C 214.292969 182.027344 213.601562 182.902344 212.726562 182.902344 C 211.15625 182.902344 211.15625 180.789062 211.15625 180.386719 L 211.15625 173.933594 L 214.511719 173.933594 L 214.511719 173.207031 L 211.15625 173.207031 L 211.15625 168.941406 L 210.574219 168.941406 C 210.574219 170.835938 209.882812 173.316406 207.585938 173.425781 L 207.585938 173.933594 L 209.554688 173.933594 L 209.554688 180.351562 C 209.554688 183.195312 211.742188 183.488281 212.578125 183.488281 C 214.21875 183.488281 214.875 181.847656 214.875 180.351562 Z M 214.875 180.351562 "/>
<path fill-rule="nonzero" fill="rgb(0%, 0%, 0%)" fill-opacity="1" d="M 235.113281 183.230469 L 235.113281 182.503906 C 233.910156 182.503906 233.324219 182.503906 233.289062 181.808594 L 233.289062 177.363281 C 233.289062 175.355469 233.289062 174.664062 232.558594 173.824219 C 232.230469 173.425781 231.464844 172.949219 230.117188 172.949219 C 228.183594 172.949219 227.128906 174.335938 226.761719 175.246094 C 226.433594 173.207031 224.722656 172.949219 223.664062 172.949219 C 221.949219 172.949219 220.855469 173.933594 220.199219 175.394531 L 220.199219 172.949219 L 216.917969 173.207031 L 216.917969 173.933594 C 218.558594 173.933594 218.742188 174.082031 218.742188 175.246094 L 218.742188 181.480469 C 218.742188 182.503906 218.488281 182.503906 216.917969 182.503906 L 216.917969 183.230469 L 219.582031 183.160156 L 222.167969 183.230469 L 222.167969 182.503906 C 220.601562 182.503906 220.347656 182.503906 220.347656 181.480469 L 220.347656 177.179688 C 220.347656 174.773438 222.023438 173.460938 223.480469 173.460938 C 224.976562 173.460938 225.230469 174.699219 225.230469 176.050781 L 225.230469 181.480469 C 225.230469 182.503906 224.976562 182.503906 223.410156 182.503906 L 223.410156 183.230469 L 226.035156 183.160156 L 228.621094 183.230469 L 228.621094 182.503906 C 227.089844 182.503906 226.835938 182.503906 226.835938 181.480469 L 226.835938 177.179688 C 226.835938 174.773438 228.476562 173.460938 229.972656 173.460938 C 231.429688 173.460938 231.683594 174.699219 231.683594 176.050781 L 231.683594 181.480469 C 231.683594 182.503906 231.429688 182.503906 229.863281 182.503906 L 229.863281 183.230469 L 232.488281 183.160156 Z M 235.113281 183.230469 "/>
<path fill-rule="nonzero" fill="rgb(0%, 0%, 0%)" fill-opacity="1" d="M 246.78125 181.152344 L 246.78125 179.839844 L 246.199219 179.839844 L 246.199219 181.152344 C 246.199219 182.503906 245.617188 182.648438 245.359375 182.648438 C 244.59375 182.648438 244.523438 181.589844 244.523438 181.480469 L 244.523438 176.851562 C 244.523438 175.867188 244.523438 174.957031 243.683594 174.082031 C 242.773438 173.167969 241.605469 172.804688 240.476562 172.804688 C 238.582031 172.804688 236.976562 173.898438 236.976562 175.429688 C 236.976562 176.121094 237.449219 176.523438 238.035156 176.523438 C 238.691406 176.523438 239.128906 176.050781 239.128906 175.464844 C 239.128906 175.175781 238.980469 174.410156 237.925781 174.410156 C 238.542969 173.570312 239.710938 173.316406 240.441406 173.316406 C 241.570312 173.316406 242.917969 174.226562 242.917969 176.304688 L 242.917969 177.144531 C 241.714844 177.214844 240.074219 177.289062 238.617188 177.980469 C 236.867188 178.785156 236.285156 179.988281 236.285156 181.007812 C 236.285156 182.902344 238.542969 183.488281 240.003906 183.488281 C 241.570312 183.488281 242.628906 182.539062 243.066406 181.480469 C 243.171875 182.394531 243.792969 183.378906 244.886719 183.378906 C 245.359375 183.378906 246.78125 183.050781 246.78125 181.152344 Z M 242.917969 179.988281 C 242.917969 182.175781 241.242188 182.976562 240.183594 182.976562 C 239.054688 182.976562 238.105469 182.175781 238.105469 181.007812 C 238.105469 179.730469 239.054688 177.800781 242.917969 177.652344 Z M 242.917969 179.988281 "/>
<path fill-rule="nonzero" fill="rgb(0%, 0%, 0%)" fill-opacity="1" d="M 259.171875 183.230469 L 259.171875 182.503906 C 257.929688 182.503906 257.492188 182.464844 256.984375 181.773438 L 253.847656 177.761719 C 254.539062 176.886719 255.414062 175.757812 256 175.136719 C 256.726562 174.300781 257.675781 173.933594 258.769531 173.933594 L 258.769531 173.207031 C 258.148438 173.242188 257.457031 173.277344 256.835938 173.277344 C 256.144531 173.277344 254.90625 173.242188 254.613281 173.207031 L 254.613281 173.933594 C 255.125 173.972656 255.304688 174.261719 255.304688 174.664062 C 255.304688 175.027344 255.050781 175.320312 254.941406 175.464844 L 253.519531 177.289062 L 251.695312 174.917969 C 251.476562 174.699219 251.476562 174.664062 251.476562 174.519531 C 251.476562 174.152344 251.84375 173.933594 252.28125 173.933594 L 252.28125 173.207031 L 249.765625 173.277344 C 249.289062 173.277344 248.195312 173.242188 247.578125 173.207031 L 247.578125 173.933594 C 249.21875 173.933594 249.21875 173.933594 250.3125 175.355469 L 252.609375 178.347656 C 251.515625 179.730469 251.515625 179.804688 250.421875 181.117188 C 249.328125 182.464844 247.941406 182.503906 247.46875 182.503906 L 247.46875 183.230469 C 248.050781 183.195312 248.78125 183.160156 249.398438 183.160156 L 251.585938 183.230469 L 251.585938 182.503906 C 251.078125 182.429688 250.929688 182.136719 250.929688 181.773438 C 250.929688 181.261719 251.585938 180.496094 253.007812 178.820312 L 254.796875 181.152344 C 254.976562 181.410156 255.269531 181.773438 255.269531 181.917969 C 255.269531 182.136719 255.050781 182.503906 254.429688 182.503906 L 254.429688 183.230469 L 256.945312 183.160156 C 257.566406 183.160156 258.476562 183.195312 259.171875 183.230469 Z M 259.171875 183.230469 "/>
<path fill-rule="nonzero" fill="rgb(0%, 0%, 0%)" fill-opacity="1" d="M 270.132812 175.816406 C 270.132812 175.523438 270.132812 175.269531 269.839844 175.269531 C 269.839844 175.269531 269.585938 175.269531 269.546875 175.5625 C 269.511719 176.035156 269.148438 176.035156 269.039062 176.035156 C 268.453125 176.035156 267.871094 175.78125 267.578125 175.632812 C 266.742188 175.269531 266.046875 175.269531 265.757812 175.269531 C 263.058594 175.269531 260.070312 176.984375 260.070312 181.140625 C 260.070312 185.296875 262.984375 187.007812 265.792969 187.007812 C 266.667969 187.007812 267.835938 186.863281 269 186.132812 C 269.765625 185.660156 270.605469 184.859375 270.605469 184.601562 C 270.605469 184.382812 270.351562 184.3125 270.242188 184.3125 C 270.132812 184.3125 270.058594 184.347656 269.914062 184.53125 C 268.964844 185.585938 267.507812 186.242188 266.085938 186.242188 C 263.53125 186.242188 262.914062 183.691406 262.914062 181.175781 C 262.914062 177.96875 264.078125 175.851562 265.828125 175.851562 C 267.03125 175.851562 269 177.019531 269.546875 178.734375 C 269.585938 178.878906 269.65625 179.0625 269.839844 179.0625 C 270.132812 179.0625 270.132812 178.804688 270.132812 178.515625 Z M 269.546875 177.492188 C 269.367188 177.203125 269.148438 176.984375 268.746094 176.582031 C 268.820312 176.582031 268.964844 176.582031 269.039062 176.582031 C 269.21875 176.582031 269.4375 176.546875 269.546875 176.472656 Z M 263.789062 176.21875 C 263.421875 176.582031 262.328125 177.96875 262.328125 181.175781 C 262.328125 182.78125 262.585938 185.039062 264.042969 186.207031 C 261.382812 185.332031 260.617188 183.144531 260.617188 181.140625 C 260.617188 178.148438 262.257812 176.726562 263.789062 176.179688 Z M 263.789062 176.21875 "/>
<path fill="none" stroke-width="1.41732" stroke-linecap="square" stroke-linejoin="miter" stroke="rgb(0%, 0%, 0%)" stroke-opacity="1" stroke-miterlimit="4" d="M 232.8125 135.667969 C 232.8125 139.808594 229.453125 143.167969 225.3125 143.167969 C 221.167969 143.167969 217.8125 139.808594 217.8125 135.667969 C 217.8125 131.523438 221.167969 128.167969 225.3125 128.167969 C 229.453125 128.167969 232.8125 131.523438 232.8125 135.667969 Z M 232.8125 135.667969 "/>
<path fill-rule="nonzero" fill="rgb(0%, 0%, 0%)" fill-opacity="1" stroke-width="1.41732" stroke-linecap="square" stroke-linejoin="miter" stroke="rgb(0%, 0%, 0%)" stroke-opacity="1" stroke-miterlimit="4" d="M 227.1875 135.667969 C 227.1875 136.703125 226.347656 137.542969 225.3125 137.542969 C 224.277344 137.542969 223.4375 136.703125 223.4375 135.667969 C 223.4375 134.632812 224.277344 133.792969 225.3125 133.792969 C 226.347656 133.792969 227.1875 134.632812 227.1875 135.667969 Z M 227.1875 135.667969 "/>
<path fill="none" stroke-width="1.417323" stroke-linecap="square" stroke-linejoin="miter" stroke="rgb(0%, 0%, 0%)" stroke-opacity="1" stroke-miterlimit="4" d="M 161.5625 135.667969 L 161.5625 176.917969 L 170.5625 176.917969 "/>
<path fill-rule="evenodd" fill="rgb(0%, 0%, 0%)" fill-opacity="1" stroke-width="0.944882" stroke-linecap="butt" stroke-linejoin="miter" stroke="rgb(0%, 0%, 0%)" stroke-opacity="1" stroke-miterlimit="4" d="M 174.652344 176.917969 L 168.519531 180.460938 L 168.519531 173.375 Z M 174.652344 176.917969 "/>
<path fill="none" stroke-width="1.417323" stroke-linecap="square" stroke-linejoin="miter" stroke="rgb(0%, 0%, 0%)" stroke-opacity="1" stroke-miterlimit="4" d="M 176.5625 135.667969 L 211.8125 135.667969 "/>
<path fill-rule="evenodd" fill="rgb(0%, 0%, 0%)" fill-opacity="1" stroke-width="0.944882" stroke-linecap="butt" stroke-linejoin="miter" stroke="rgb(0%, 0%, 0%)" stroke-opacity="1" stroke-miterlimit="4" d="M 215.902344 135.667969 L 209.769531 139.210938 L 209.769531 132.125 Z M 215.902344 135.667969 "/>
<path fill="none" stroke-width="1.41732" stroke-linecap="square" stroke-linejoin="miter" stroke="rgb(0%, 0%, 0%)" stroke-opacity="1" stroke-miterlimit="4" d="M 225.3125 158.167969 L 225.3125 149.167969 "/>
<path fill-rule="evenodd" fill="rgb(0%, 0%, 0%)" fill-opacity="1" stroke-width="0.94488" stroke-linecap="butt" stroke-linejoin="miter" stroke="rgb(0%, 0%, 0%)" stroke-opacity="1" stroke-miterlimit="4" d="M -145.078125 225.3125 L -151.207031 228.855469 L -151.207031 221.769531 Z M -145.078125 225.3125 " transform="matrix(0, -1, 1, 0, 0, 0)"/>
<path fill="none" stroke-width="1.41732" stroke-linecap="square" stroke-linejoin="miter" stroke="rgb(0%, 0%, 0%)" stroke-opacity="1" stroke-miterlimit="4" d="M 57.3125 116.917969 L 151.0625 116.917969 L 151.0625 154.417969 L 57.3125 154.417969 Z M 57.3125 116.917969 "/>
<path fill="none" stroke-width="1.41732" stroke-linecap="square" stroke-linejoin="miter" stroke="rgb(0%, 0%, 0%)" stroke-opacity="1" stroke-miterlimit="4" d="M 151.0625 135.667969 L 176.5625 135.667969 "/>
<path fill-rule="nonzero" fill="rgb(0%, 0%, 0%)" fill-opacity="1" d="M 290.460938 133.441406 C 290.570312 133.152344 290.679688 132.96875 292.066406 132.96875 L 292.066406 131.875 C 291.519531 131.910156 290.828125 131.949219 290.242188 131.949219 C 289.625 131.949219 288.53125 131.875 288.019531 131.875 L 288.019531 132.96875 C 288.238281 132.96875 289.367188 132.96875 289.367188 133.222656 C 289.367188 133.296875 289.296875 133.441406 289.296875 133.515625 L 286.851562 139.457031 L 284.191406 132.96875 L 285.503906 132.96875 L 285.503906 131.875 C 284.738281 131.875 283.535156 131.949219 282.84375 131.949219 C 281.859375 131.949219 280.875 131.875 280.507812 131.875 L 280.507812 132.96875 L 281.894531 132.96875 C 282.367188 134.136719 282.367188 134.171875 282.367188 134.207031 C 282.367188 134.28125 282.296875 134.425781 282.296875 134.5 L 280.4375 138.949219 L 277.992188 132.96875 L 279.304688 132.96875 L 279.304688 131.875 C 278.359375 131.910156 277.410156 131.949219 276.425781 131.949219 C 275.734375 131.949219 274.710938 131.875 273.910156 131.875 L 273.910156 132.96875 L 275.296875 132.96875 L 278.832031 141.644531 C 279.015625 142.046875 279.085938 142.300781 279.671875 142.300781 C 280.253906 142.300781 280.363281 142.046875 280.507812 141.644531 L 282.988281 135.628906 L 285.429688 141.644531 C 285.613281 142.046875 285.6875 142.300781 286.269531 142.300781 C 286.851562 142.300781 286.960938 142.046875 287.109375 141.644531 Z M 290.460938 133.441406 "/>
<path fill-rule="nonzero" fill="rgb(0%, 0%, 0%)" fill-opacity="1" d="M 304.570312 147.769531 C 304.570312 147.699219 304.570312 147.660156 304.171875 147.261719 C 301.289062 144.34375 300.523438 139.933594 300.523438 136.359375 C 300.523438 132.3125 301.398438 128.265625 304.28125 125.386719 C 304.570312 125.09375 304.570312 125.058594 304.570312 124.984375 C 304.570312 124.804688 304.5 124.730469 304.351562 124.730469 C 304.097656 124.730469 302.019531 126.335938 300.632812 129.285156 C 299.46875 131.839844 299.175781 134.425781 299.175781 136.359375 C 299.175781 138.183594 299.429688 140.988281 300.707031 143.652344 C 302.128906 146.496094 304.097656 148.027344 304.351562 148.027344 C 304.5 148.027344 304.570312 147.953125 304.570312 147.769531 Z M 304.570312 147.769531 "/>
<path fill-rule="nonzero" fill="rgb(0%, 0%, 0%)" fill-opacity="1" d="M 313.976562 136.46875 L 316.675781 133.441406 C 317.003906 133.113281 317.148438 132.96875 319.042969 132.96875 L 319.042969 131.875 C 318.242188 131.910156 317.039062 131.949219 316.929688 131.949219 C 316.347656 131.949219 315.179688 131.875 314.523438 131.875 L 314.523438 132.96875 C 314.851562 132.96875 315.144531 133.003906 315.398438 133.152344 C 315.324219 133.296875 315.324219 133.371094 315.214844 133.441406 L 313.285156 135.628906 L 310.988281 132.96875 L 311.9375 132.96875 L 311.9375 131.875 C 311.316406 131.875 309.859375 131.949219 309.09375 131.949219 C 308.363281 131.949219 307.304688 131.875 306.539062 131.875 L 306.539062 132.96875 L 308.21875 132.96875 L 311.828125 137.234375 L 308.765625 140.660156 C 308.398438 141.097656 307.5625 141.097656 306.429688 141.097656 L 306.429688 142.191406 C 307.234375 142.15625 308.472656 142.121094 308.582031 142.121094 C 309.164062 142.121094 310.515625 142.15625 310.953125 142.191406 L 310.953125 141.097656 C 310.550781 141.097656 310.113281 140.988281 310.113281 140.84375 C 310.113281 140.808594 310.113281 140.808594 310.257812 140.625 L 312.519531 138.074219 L 315.070312 141.097656 L 314.160156 141.097656 L 314.160156 142.191406 C 314.777344 142.15625 316.199219 142.121094 316.964844 142.121094 C 317.695312 142.121094 318.753906 142.15625 319.519531 142.191406 L 319.519531 141.097656 L 317.878906 141.097656 Z M 313.976562 136.46875 "/>
<path fill-rule="nonzero" fill="rgb(0%, 0%, 0%)" fill-opacity="1" d="M 326.734375 136.359375 C 326.734375 134.574219 326.480469 131.765625 325.203125 129.105469 C 323.820312 126.261719 321.8125 124.730469 321.59375 124.730469 C 321.449219 124.730469 321.339844 124.839844 321.339844 124.984375 C 321.339844 125.058594 321.339844 125.09375 321.777344 125.53125 C 324.074219 127.828125 325.386719 131.511719 325.386719 136.359375 C 325.386719 140.371094 324.546875 144.453125 321.667969 147.371094 C 321.339844 147.660156 321.339844 147.699219 321.339844 147.769531 C 321.339844 147.917969 321.449219 148.027344 321.59375 148.027344 C 321.8125 148.027344 323.929688 146.421875 325.277344 143.46875 C 326.480469 140.917969 326.734375 138.328125 326.734375 136.359375 Z M 326.734375 136.359375 "/>
<path fill-rule="nonzero" fill="rgb(0%, 0%, 0%)" fill-opacity="1" d="M 81.011719 141.804688 L 81.011719 141.074219 L 80.429688 141.074219 C 78.640625 141.074219 78.605469 140.820312 78.605469 139.980469 L 78.605469 127.730469 C 78.605469 126.894531 78.640625 126.636719 80.429688 126.636719 L 81.011719 126.636719 L 81.011719 125.910156 L 77.074219 125.910156 C 76.453125 125.910156 76.453125 125.945312 76.308594 126.347656 L 71.203125 139.472656 L 66.171875 126.417969 C 65.953125 125.910156 65.882812 125.910156 65.335938 125.910156 L 61.433594 125.910156 L 61.433594 126.636719 L 61.980469 126.636719 C 63.765625 126.636719 63.804688 126.894531 63.804688 127.730469 L 63.804688 139.363281 C 63.804688 139.980469 63.804688 141.074219 61.433594 141.074219 L 61.433594 141.804688 L 64.132812 141.730469 L 66.867188 141.804688 L 66.867188 141.074219 C 64.460938 141.074219 64.460938 139.980469 64.460938 139.363281 L 64.460938 126.820312 L 64.496094 126.820312 L 70.109375 141.292969 C 70.21875 141.585938 70.328125 141.804688 70.546875 141.804688 C 70.804688 141.804688 70.875 141.621094 70.984375 141.367188 L 76.710938 126.636719 L 76.710938 139.980469 C 76.710938 140.820312 76.671875 141.074219 74.886719 141.074219 L 74.339844 141.074219 L 74.339844 141.804688 C 75.179688 141.730469 76.78125 141.730469 77.695312 141.730469 C 78.570312 141.730469 80.136719 141.730469 81.011719 141.804688 Z M 81.011719 141.804688 "/>
<path fill-rule="nonzero" fill="rgb(0%, 0%, 0%)" fill-opacity="1" d="M 95.402344 135.789062 L 94.816406 135.789062 C 94.5625 138.160156 94.234375 141.074219 90.152344 141.074219 L 88.253906 141.074219 C 87.160156 141.074219 87.125 140.929688 87.125 140.164062 L 87.125 127.769531 C 87.125 126.964844 87.125 126.636719 89.3125 126.636719 L 90.078125 126.636719 L 90.078125 125.910156 C 89.238281 125.980469 87.125 125.980469 86.175781 125.980469 C 85.265625 125.980469 83.441406 125.980469 82.640625 125.910156 L 82.640625 126.636719 L 83.1875 126.636719 C 84.972656 126.636719 85.046875 126.894531 85.046875 127.730469 L 85.046875 139.980469 C 85.046875 140.820312 84.972656 141.074219 83.1875 141.074219 L 82.640625 141.074219 L 82.640625 141.804688 L 94.746094 141.804688 Z M 95.402344 135.789062 "/>
<path fill-rule="nonzero" fill="rgb(0%, 0%, 0%)" fill-opacity="1" d="M 110.914062 130.246094 C 110.914062 127.949219 108.617188 125.910156 105.445312 125.910156 L 97.203125 125.910156 L 97.203125 126.636719 L 97.789062 126.636719 C 99.574219 126.636719 99.609375 126.894531 99.609375 127.730469 L 99.609375 139.980469 C 99.609375 140.820312 99.574219 141.074219 97.789062 141.074219 L 97.203125 141.074219 L 97.203125 141.804688 C 98.042969 141.730469 99.757812 141.730469 100.632812 141.730469 C 101.507812 141.730469 103.257812 141.730469 104.09375 141.804688 L 104.09375 141.074219 L 103.511719 141.074219 C 101.726562 141.074219 101.6875 140.820312 101.6875 139.980469 L 101.6875 134.441406 L 105.625 134.441406 C 108.398438 134.441406 110.914062 132.582031 110.914062 130.246094 Z M 108.507812 130.246094 C 108.507812 131.339844 108.507812 133.855469 104.824219 133.855469 L 101.617188 133.855469 L 101.617188 127.585938 C 101.617188 126.785156 101.652344 126.636719 102.746094 126.636719 L 104.824219 126.636719 C 108.507812 126.636719 108.507812 129.117188 108.507812 130.246094 Z M 108.507812 130.246094 "/>
<path fill-rule="nonzero" fill="rgb(0%, 0%, 0%)" fill-opacity="1" d="M 122.914062 134.390625 C 122.914062 134.097656 122.914062 133.84375 122.625 133.84375 C 122.625 133.84375 122.367188 133.84375 122.332031 134.132812 C 122.296875 134.609375 121.929688 134.609375 121.820312 134.609375 C 121.238281 134.609375 120.65625 134.351562 120.363281 134.207031 C 119.523438 133.84375 118.832031 133.84375 118.539062 133.84375 C 115.84375 133.84375 112.851562 135.554688 112.851562 139.710938 C 112.851562 143.867188 115.769531 145.582031 118.578125 145.582031 C 119.453125 145.582031 120.617188 145.4375 121.785156 144.707031 C 122.550781 144.234375 123.390625 143.429688 123.390625 143.175781 C 123.390625 142.957031 123.132812 142.882812 123.023438 142.882812 C 122.914062 142.882812 122.84375 142.921875 122.695312 143.101562 C 121.75 144.160156 120.289062 144.816406 118.867188 144.816406 C 116.316406 144.816406 115.695312 142.265625 115.695312 139.75 C 115.695312 136.539062 116.863281 134.425781 118.613281 134.425781 C 119.816406 134.425781 121.785156 135.59375 122.332031 137.304688 C 122.367188 137.453125 122.441406 137.632812 122.625 137.632812 C 122.914062 137.632812 122.914062 137.378906 122.914062 137.085938 Z M 122.332031 136.066406 C 122.148438 135.773438 121.929688 135.554688 121.53125 135.15625 C 121.601562 135.15625 121.75 135.15625 121.820312 135.15625 C 122.003906 135.15625 122.222656 135.117188 122.332031 135.046875 Z M 116.570312 134.789062 C 116.207031 135.15625 115.113281 136.539062 115.113281 139.75 C 115.113281 141.351562 115.367188 143.613281 116.828125 144.78125 C 114.164062 143.90625 113.398438 141.71875 113.398438 139.710938 C 113.398438 136.722656 115.039062 135.300781 116.570312 134.753906 Z M 116.570312 134.789062 "/>
<path fill-rule="nonzero" fill="rgb(0%, 0%, 0%)" fill-opacity="1" d="M 127.414062 145.035156 C 127.414062 145.910156 127.265625 146.96875 126.136719 147.988281 C 126.101562 148.0625 126.027344 148.132812 126.027344 148.207031 C 126.027344 148.316406 126.171875 148.425781 126.246094 148.425781 C 126.5 148.425781 127.886719 147.113281 127.886719 145.179688 C 127.886719 144.195312 127.484375 143.429688 126.71875 143.429688 C 126.210938 143.429688 125.808594 143.832031 125.808594 144.34375 C 125.808594 144.851562 126.171875 145.289062 126.757812 145.289062 C 127.15625 145.289062 127.414062 145.035156 127.414062 145.035156 Z M 127.414062 145.035156 "/>
<path fill-rule="nonzero" fill="rgb(0%, 0%, 0%)" fill-opacity="1" d="M 137.417969 135.445312 C 137.527344 134.972656 137.5625 134.9375 137.929688 134.898438 C 138 134.898438 138.546875 134.898438 138.875 134.898438 C 139.898438 134.898438 140.296875 134.898438 140.699219 135.007812 C 141.429688 135.226562 141.464844 135.703125 141.464844 136.285156 C 141.464844 136.539062 141.464844 136.757812 141.355469 137.597656 L 141.320312 137.78125 C 141.320312 137.960938 141.429688 138.035156 141.609375 138.035156 C 141.867188 138.035156 141.867188 137.890625 141.902344 137.632812 L 142.339844 134.535156 C 142.339844 134.316406 142.15625 134.316406 141.867188 134.316406 L 131.875 134.316406 C 131.476562 134.316406 131.4375 134.316406 131.328125 134.644531 L 130.273438 137.523438 C 130.273438 137.597656 130.199219 137.742188 130.199219 137.816406 C 130.199219 137.890625 130.234375 138.035156 130.492188 138.035156 C 130.710938 138.035156 130.710938 137.960938 130.820312 137.632812 C 131.765625 135.046875 132.3125 134.898438 134.792969 134.898438 L 135.449219 134.898438 C 135.960938 134.898438 135.960938 134.898438 135.960938 135.046875 C 135.960938 135.046875 135.960938 135.15625 135.886719 135.375 L 133.734375 143.941406 C 133.589844 144.523438 133.554688 144.707031 131.839844 144.707031 C 131.257812 144.707031 131.109375 144.707031 131.109375 145.070312 C 131.109375 145.109375 131.148438 145.289062 131.402344 145.289062 C 131.839844 145.289062 132.351562 145.253906 132.789062 145.253906 C 133.261719 145.253906 133.734375 145.21875 134.171875 145.21875 C 134.648438 145.21875 135.195312 145.21875 135.667969 145.253906 C 136.105469 145.253906 136.578125 145.289062 137.015625 145.289062 C 137.164062 145.289062 137.382812 145.289062 137.382812 144.925781 C 137.382812 144.707031 137.234375 144.707031 136.726562 144.707031 C 136.433594 144.707031 136.105469 144.671875 135.777344 144.671875 C 135.230469 144.632812 135.195312 144.5625 135.195312 144.378906 C 135.195312 144.234375 135.195312 144.234375 135.265625 143.976562 Z M 137.417969 135.445312 "/>
<path fill-rule="nonzero" fill="rgb(0%, 0%, 0%)" fill-opacity="1" d="M 145.117188 140.214844 C 145.117188 139.886719 145.082031 139.886719 144.679688 139.886719 C 143.878906 140.613281 142.566406 140.613281 142.347656 140.613281 L 142.164062 140.613281 L 142.164062 141.125 L 142.347656 141.125 C 142.601562 141.125 143.367188 141.089844 144.058594 140.796875 L 144.058594 146.628906 C 144.058594 146.957031 144.058594 147.105469 142.820312 147.105469 L 142.238281 147.105469 L 142.238281 147.613281 C 142.855469 147.578125 143.914062 147.578125 144.570312 147.578125 C 145.261719 147.578125 146.285156 147.578125 146.941406 147.613281 L 146.941406 147.105469 L 146.355469 147.105469 C 145.117188 147.105469 145.117188 146.957031 145.117188 146.628906 Z M 145.117188 140.214844 "/>
<path fill="none" stroke-width="1.41732" stroke-linecap="butt" stroke-linejoin="miter" stroke="rgb(0%, 0%, 0%)" stroke-opacity="1" stroke-miterlimit="4" d="M 31.101562 135.707031 L 16.101562 135.707031 "/>
<path fill="none" stroke-width="1.417323" stroke-linecap="butt" stroke-linejoin="miter" stroke="rgb(0%, 0%, 0%)" stroke-opacity="1" stroke-miterlimit="4" d="M 31.101562 135.707031 L 51.351562 135.707031 "/>
<path fill-rule="evenodd" fill="rgb(0%, 0%, 0%)" fill-opacity="1" stroke-width="0.944882" stroke-linecap="butt" stroke-linejoin="miter" stroke="rgb(0%, 0%, 0%)" stroke-opacity="1" stroke-miterlimit="4" d="M 55.441406 135.707031 L 49.3125 139.253906 L 49.3125 132.164062 Z M 55.441406 135.707031 "/>
<path fill="none" stroke-width="1.41732" stroke-linecap="butt" stroke-linejoin="miter" stroke="rgb(0%, 0%, 0%)" stroke-opacity="1" stroke-miterlimit="4" d="M 233.601562 135.707031 L 263.601562 135.707031 "/>
<path fill-rule="evenodd" fill="rgb(0%, 0%, 0%)" fill-opacity="1" stroke-width="0.94488" stroke-linecap="butt" stroke-linejoin="miter" stroke="rgb(0%, 0%, 0%)" stroke-opacity="1" stroke-miterlimit="4" d="M 267.691406 135.707031 L 261.5625 139.253906 L 261.5625 132.164062 Z M 267.691406 135.707031 "/>
<path fill="none" stroke-width="1.41732" stroke-linecap="butt" stroke-linejoin="miter" stroke="rgb(0%, 0%, 0%)" stroke-opacity="1" stroke-miterlimit="4" d="M 331.101562 135.707031 L 366.351562 135.707031 "/>
<path fill-rule="evenodd" fill="rgb(0%, 0%, 0%)" fill-opacity="1" stroke-width="0.94488" stroke-linecap="butt" stroke-linejoin="miter" stroke="rgb(0%, 0%, 0%)" stroke-opacity="1" stroke-miterlimit="4" d="M 370.441406 135.707031 L 364.3125 139.253906 L 364.3125 132.164062 Z M 370.441406 135.707031 "/>
</svg>
