<?xml version="1.0" encoding="UTF-8"?>
<svg xmlns="http://www.w3.org/2000/svg" xmlns:xlink="http://www.w3.org/1999/xlink" width="597.787524pt" height="505.754145pt" viewBox="0 0 597.787524 505.754145">
<path fill-rule="nonzero" fill="rgb(0%, 0%, 0%)" fill-opacity="1" d="M 8.101562 134.8125 L 10.996094 131.566406 C 11.351562 131.214844 11.507812 131.058594 13.542969 131.058594 L 13.542969 129.882812 C 12.679688 129.921875 11.390625 129.960938 11.273438 129.960938 C 10.644531 129.960938 9.394531 129.882812 8.6875 129.882812 L 8.6875 131.058594 C 9.039062 131.058594 9.355469 131.097656 9.628906 131.253906 C 9.550781 131.410156 9.550781 131.488281 9.433594 131.566406 L 7.359375 133.914062 L 4.890625 131.058594 L 5.910156 131.058594 L 5.910156 129.882812 C 5.246094 129.882812 3.679688 129.960938 2.855469 129.960938 C 2.074219 129.960938 0.9375 129.882812 0.117188 129.882812 L 0.117188 131.058594 L 1.917969 131.058594 L 5.792969 135.636719 L 2.503906 139.316406 C 2.113281 139.785156 1.214844 139.785156 0 139.785156 L 0 140.957031 C 0.859375 140.917969 2.191406 140.878906 2.308594 140.878906 C 2.933594 140.878906 4.382812 140.917969 4.851562 140.957031 L 4.851562 139.785156 C 4.421875 139.785156 3.953125 139.667969 3.953125 139.511719 C 3.953125 139.472656 3.953125 139.472656 4.109375 139.277344 L 6.535156 136.535156 L 9.277344 139.785156 L 8.296875 139.785156 L 8.296875 140.957031 C 8.960938 140.917969 10.488281 140.878906 11.3125 140.878906 C 12.09375 140.878906 13.230469 140.917969 14.050781 140.957031 L 14.050781 139.785156 L 12.289062 139.785156 Z M 8.101562 134.8125 "/>
</svg>
