<?xml version="1.0" encoding="UTF-8"?>
<svg xmlns="http://www.w3.org/2000/svg" xmlns:xlink="http://www.w3.org/1999/xlink" width="597.787524pt" height="505.754145pt" viewBox="0 0 597.787524 505.754145">
<path fill-rule="nonzero" fill="rgb(0%, 0%, 0%)" fill-opacity="1" d="M 8.101562 134.8125 L 10.996094 131.566406 C 11.351562 131.214844 11.507812 131.058594 13.542969 131.058594 L 13.542969 129.882812 C 12.679688 129.921875 11.390625 129.960938 11.273438 129.960938 C 10.644531 129.960938 9.394531 129.882812 8.6875 129.882812 L 8.6875 131.058594 C 9.039062 131.058594 9.355469 131.097656 9.628906 131.253906 C 9.550781 131.410156 9.550781 131.488281 9.433594 131.566406 L 7.359375 133.914062 L 4.890625 131.058594 L 5.910156 131.058594 L 5.910156 129.882812 C 5.246094 129.882812 3.679688 129.960938 2.855469 129.960938 C 2.074219 129.960938 0.9375 129.882812 0.117188 129.882812 L 0.117188 131.058594 L 1.917969 131.058594 L 5.792969 135.636719 L 2.503906 139.316406 C 2.113281 139.785156 1.214844 139.785156 0 139.785156 L 0 140.957031 C 0.859375 140.917969 2.191406 140.878906 2.308594 140.878906 C 2.933594 140.878906 4.382812 140.917969 4.851562 140.957031 L 4.851562 139.785156 C 4.421875 139.785156 3.953125 139.667969 3.953125 139.511719 C 3.953125 139.472656 3.953125 139.472656 4.109375 139.277344 L 6.535156 136.535156 L 9.277344 139.785156 L 8.296875 139.785156 L 8.296875 140.957031 C 8.960938 140.917969 10.488281 140.878906 11.3125 140.878906 C 12.09375 140.878906 13.230469 140.917969 14.050781 140.957031 L 14.050781 139.785156 L 12.289062 139.785156 Z M 8.101562 134.8125 "/>
<path fill="none" stroke-width="1.41732" stroke-linecap="square" stroke-linejoin="miter" stroke="rgb(0%, 0%, 0%)" stroke-opacity="1" stroke-miterlimit="4" d="M 176.5625 158.167969 L 274.0625 158.167969 L 274.0625 195.667969 L 176.5625 195.667969 Z M 176.5625 158.167969 "/>
<path fill-rule="nonzero" fill="rgb(0%, 0%, 0%)" fill-opacity="1" d="M 187.636719 180.242188 C 187.636719 179.039062 186.945312 178.308594 186.652344 178.054688 C 185.886719 177.289062 184.976562 177.105469 183.992188 176.925781 C 182.679688 176.667969 181.148438 176.378906 181.148438 175.027344 C 181.148438 174.191406 181.730469 173.242188 183.738281 173.242188 C 186.289062 173.242188 186.433594 175.355469 186.472656 176.050781 C 186.472656 176.269531 186.726562 176.269531 186.726562 176.269531 C 187.054688 176.269531 187.054688 176.160156 187.054688 175.722656 L 187.054688 173.351562 C 187.054688 172.988281 187.054688 172.804688 186.800781 172.804688 C 186.691406 172.804688 186.617188 172.804688 186.324219 173.097656 C 186.253906 173.167969 186.035156 173.386719 185.925781 173.460938 C 185.050781 172.804688 184.101562 172.804688 183.738281 172.804688 C 180.894531 172.804688 180.019531 174.371094 180.019531 175.683594 C 180.019531 176.488281 180.382812 177.144531 181.003906 177.652344 C 181.769531 178.238281 182.425781 178.382812 184.101562 178.710938 C 184.613281 178.820312 186.507812 179.183594 186.507812 180.863281 C 186.507812 182.027344 185.707031 182.976562 183.882812 182.976562 C 181.914062 182.976562 181.074219 181.664062 180.636719 179.660156 C 180.566406 179.367188 180.566406 179.292969 180.308594 179.292969 C 180.019531 179.292969 180.019531 179.441406 180.019531 179.839844 L 180.019531 182.941406 C 180.019531 183.339844 180.019531 183.488281 180.273438 183.488281 C 180.382812 183.488281 180.417969 183.449219 180.855469 183.011719 C 180.894531 182.976562 180.894531 182.941406 181.332031 182.503906 C 182.351562 183.449219 183.410156 183.488281 183.882812 183.488281 C 186.542969 183.488281 187.636719 181.917969 187.636719 180.242188 Z M 187.636719 180.242188 "/>
<path fill-rule="nonzero" fill="rgb(0%, 0%, 0%)" fill-opacity="1" d="M 199.347656 178.238281 C 199.347656 175.285156 197.050781 172.804688 194.246094 172.804688 C 191.328125 172.804688 189.066406 175.355469 189.066406 178.238281 C 189.066406 181.261719 191.472656 183.488281 194.207031 183.488281 C 197.015625 183.488281 199.347656 181.191406 199.347656 178.238281 Z M 197.453125 178.054688 C 197.453125 178.894531 197.453125 180.167969 196.941406 181.191406 C 196.394531 182.246094 195.375 182.902344 194.246094 182.902344 C 193.222656 182.902344 192.203125 182.429688 191.582031 181.335938 C 191 180.316406 191 178.894531 191 178.054688 C 191 177.144531 191 175.902344 191.546875 174.882812 C 192.167969 173.824219 193.261719 173.316406 194.207031 173.316406 C 195.226562 173.316406 196.210938 173.824219 196.832031 174.847656 C 197.453125 175.832031 197.453125 177.179688 197.453125 178.054688 Z M 197.453125 178.054688 "/>
<path fill-rule="nonzero" fill="rgb(0%, 0%, 0%)" fill-opacity="1" d="M 208.347656 168.464844 C 208.347656 167.589844 207.472656 166.824219 206.234375 166.824219 C 204.628906 166.824219 202.625 168.066406 202.625 170.542969 L 202.625 173.207031 L 200.800781 173.207031 L 200.800781 173.933594 L 202.625 173.933594 L 202.625 181.480469 C 202.625 182.503906 202.367188 182.503906 200.835938 182.503906 L 200.835938 183.230469 L 203.460938 183.160156 C 204.410156 183.160156 205.503906 183.160156 206.414062 183.230469 L 206.414062 182.503906 L 205.941406 182.503906 C 204.226562 182.503906 204.191406 182.246094 204.191406 181.410156 L 204.191406 173.933594 L 206.816406 173.933594 L 206.816406 173.207031 L 204.117188 173.207031 L 204.117188 170.507812 C 204.117188 168.464844 205.210938 167.335938 206.234375 167.335938 C 206.304688 167.335938 206.671875 167.335938 207 167.519531 C 206.742188 167.589844 206.304688 167.917969 206.304688 168.503906 C 206.304688 169.011719 206.671875 169.488281 207.328125 169.488281 C 207.984375 169.488281 208.347656 169.011719 208.347656 168.464844 Z M 208.347656 168.464844 "/>
<path fill-rule="nonzero" fill="rgb(0%, 0%, 0%)" fill-opacity="1" d="M 214.875 180.351562 L 214.875 179.039062 L 214.292969 179.039062 L 214.292969 180.316406 C 214.292969 182.027344 213.601562 182.902344 212.726562 182.902344 C 211.15625 182.902344 211.15625 180.789062 211.15625 180.386719 L 211.15625 173.933594 L 214.511719 173.933594 L 214.511719 173.207031 L 211.15625 173.207031 L 211.15625 168.941406 L 210.574219 168.941406 C 210.574219 170.835938 209.882812 173.316406 207.585938 173.425781 L 207.585938 173.933594 L 209.554688 173.933594 L 209.554688 180.351562 C 209.554688 183.195312 211.742188 183.488281 212.578125 183.488281 C 214.21875 183.488281 214.875 181.847656 214.875 180.351562 Z M 214.875 180.351562 "/>
<path fill-rule="nonzero" fill="rgb(0%, 0%, 0%)" fill-opacity="1" d="M 235.113281 183.230469 L 235.113281 182.503906 C 233.910156 182.503906 233.324219 182.503906 233.289062 181.808594 L 233.289062 177.363281 C 233.289062 175.355469 233.289062 174.664062 232.558594 173.824219 C 232.230469 173.425781 231.464844 172.949219 230.117188 172.949219 C 228.183594 172.949219 227.128906 174.335938 226.761719 175.246094 C 226.433594 173.207031 224.722656 172.949219 223.664062 172.949219 C 221.949219 172.949219 220.855469 173.933594 220.199219 175.394531 L 220.199219 172.949219 L 216.917969 173.207031 L 216.917969 173.933594 C 218.558594 173.933594 218.742188 174.082031 218.742188 175.246094 L 218.742188 181.480469 C 218.742188 182.503906 218.488281 182.503906 216.917969 182.503906 L 216.917969 183.230469 L 219.582031 183.160156 L 222.167969 183.230469 L 222.167969 182.503906 C 220.601562 182.503906 220.347656 182.503906 220.347656 181.480469 L 220.347656 177.179688 C 220.347656 174.773438 222.023438 173.460938 223.480469 173.460938 C 224.976562 173.460938 225.230469 174.699219 225.230469 176.050781 L 225.230469 181.480469 C 225.230469 182.503906 224.976562 182.503906 223.410156 182.503906 L 223.410156 183.230469 L 226.035156 183.160156 L 228.621094 183.230469 L 228.621094 182.503906 C 227.089844 182.503906 226.835938 182.503906 226.835938 181.480469 L 226.835938 177.179688 C 226.835938 174.773438 228.476562 173.460938 229.972656 173.460938 C 231.429688 173.460938 231.683594 174.699219 231.683594 176.050781 L 231.683594 181.480469 C 231.683594 182.503906 231.429688 182.503906 229.863281 182.503906 L 229.863281 183.230469 L 232.488281 183.160156 Z M 235.113281 183.230469 "/>
<path fill-rule="nonzero" fill="rgb(0%, 0%, 0%)" fill-opacity="1" d="M 246.78125 181.152344 L 246.78125 179.839844 L 246.199219 179.839844 L 246.199219 181.152344 C 246.199219 182.503906 245.617188 182.648438 245.359375 182.648438 C 244.59375 182.648438 244.523438 181.589844 244.523438 181.480469 L 244.523438 176.851562 C 244.523438 175.867188 244.523438 174.957031 243.683594 174.082031 C 242.773438 173.167969 241.605469 172.804688 240.476562 172.804688 C 238.582031 172.804688 236.976562 173.898438 236.976562 175.429688 C 236.976562 176.121094 237.449219 176.523438 238.035156 176.523438 C 238.691406 176.523438 239.128906 176.050781 239.128906 175.464844 C 239.128906 175.175781 238.980469 174.410156 237.925781 174.410156 C 238.542969 173.570312 239.710938 173.316406 240.441406 173.316406 C 241.570312 173.316406 242.917969 174.226562 242.917969 176.304688 L 242.917969 177.144531 C 241.714844 177.214844 240.074219 177.289062 238.617188 177.980469 C 236.867188 178.785156 236.285156 179.988281 236.285156 181.007812 C 236.285156 182.902344 238.542969 183.488281 240.003906 183.488281 C 241.570312 183.488281 242.628906 182.539062 243.066406 181.480469 C 243.171875 182.394531 243.792969 183.378906 244.886719 183.378906 C 245.359375 183.378906 246.78125 183.050781 246.78125 181.152344 Z M 242.917969 179.988281 C 242.917969 182.175781 241.242188 182.976562 240.183594 182.976562 C 239.054688 182.976562 238.105469 182.175781 238.105469 181.007812 C 238.105469 179.730469 239.054688 177.800781 242.917969 177.652344 Z M 242.917969 179.988281 "/>
<path fill-rule="nonzero" fill="rgb(0%, 0%, 0%)" fill-opacity="1" d="M 259.171875 183.230469 L 259.171875 182.503906 C 257.929688 182.503906 257.492188 182.464844 256.984375 181.773438 L 253.847656 177.761719 C 254.539062 176.886719 255.414062 175.757812 256 175.136719 C 256.726562 174.300781 257.675781 173.933594 258.769531 173.933594 L 258.769531 173.207031 C 258.148438 173.242188 257.457031 173.277344 256.835938 173.277344 C 256.144531 173.277344 254.90625 173.242188 254.613281 173.207031 L 254.613281 173.933594 C 255.125 173.972656 255.304688 174.261719 255.304688 174.664062 C 255.304688 175.027344 255.050781 175.320312 254.941406 175.464844 L 253.519531 177.289062 L 251.695312 174.917969 C 251.476562 174.699219 251.476562 174.664062 251.476562 174.519531 C 251.476562 174.152344 251.84375 173.933594 252.28125 173.933594 L 252.28125 173.207031 L 249.765625 173.277344 C 249.289062 173.277344 248.195312 173.242188 247.578125 173.207031 L 247.578125 173.933594 C 249.21875 173.933594 249.21875 173.933594 250.3125 175.355469 L 252.609375 178.347656 C 251.515625 179.730469 251.515625 179.804688 250.421875 181.117188 C 249.328125 182.464844 247.941406 182.503906 247.46875 182.503906 L 247.46875 183.230469 C 248.050781 183.195312 248.78125 183.160156 249.398438 183.160156 L 251.585938 183.230469 L 251.585938 182.503906 C 251.078125 182.429688 250.929688 182.136719 250.929688 181.773438 C 250.929688 181.261719 251.585938 180.496094 253.007812 178.820312 L 254.796875 181.152344 C 254.976562 181.410156 255.269531 181.773438 255.269531 181.917969 C 255.269531 182.136719 255.050781 182.503906 254.429688 182.503906 L 254.429688 183.230469 L 256.945312 183.160156 C 257.566406 183.160156 258.476562 183.195312 259.171875 183.230469 Z M 259.171875 183.230469 "/>
<path fill-rule="nonzero" fill="rgb(0%, 0%, 0%)" fill-opacity="1" d="M 270.132812 175.816406 C 270.132812 175.523438 270.132812 175.269531 269.839844 175.269531 C 269.839844 175.269531 269.585938 175.269531 269.546875 175.5625 C 269.511719 176.035156 269.148438 176.035156 269.039062 176.035156 C 268.453125 176.035156 267.871094 175.78125 267.578125 175.632812 C 266.742188 175.269531 266.046875 175.269531 265.757812 175.269531 C 263.058594 175.269531 260.070312 176.984375 260.070312 181.140625 C 260.070312 185.296875 262.984375 187.007812 265.792969 187.007812 C 266.667969 187.007812 267.835938 186.863281 269 186.132812 C 269.765625 185.660156 270.605469 184.859375 270.605469 184.601562 C 270.605469 184.382812 270.351562 184.3125 270.242188 184.3125 C 270.132812 184.3125 270.058594 184.347656 269.914062 184.53125 C 268.964844 185.585938 267.507812 186.242188 266.085938 186.242188 C 263.53125 186.242188 262.914062 183.691406 262.914062 181.175781 C 262.914062 177.96875 264.078125 175.851562 265.828125 175.851562 C 267.03125 175.851562 269 177.019531 269.546875 178.734375 C 269.585938 178.878906 269.65625 179.0625 269.839844 179.0625 C 270.132812 179.0625 270.132812 178.804688 270.132812 178.515625 Z M 269.546875 177.492188 C 269.367188 177.203125 269.148438 176.984375 268.746094 176.582031 C 268.820312 176.582031 268.964844 176.582031 269.039062 176.582031 C 269.21875 176.582031 269.4375 176.546875 269.546875 176.472656 Z M 263.789062 176.21875 C 263.421875 176.582031 262.328125 177.96875 262.328125 181.175781 C 262.328125 182.78125 262.585938 185.039062 264.042969 186.207031 C 261.382812 185.332031 260.617188 183.144531 260.617188 181.140625 C 260.617188 178.148438 262.257812 176.726562 263.789062 176.179688 Z M 263.789062 176.21875 "/>
<path fill="none" stroke-width="1.41732" stroke-linecap="square" stroke-linejoin="miter" stroke="rgb(0%, 0%, 0%)" stroke-opacity="1" stroke-miterlimit="4" d="M 232.8125 135.667969 C 232.8125 139.808594 229.453125 143.167969 225.3125 143.167969 C 221.167969 143.167969 217.8125 139.808594 217.8125 135.667969 C 217.8125 131.523438 221.167969 128.167969 225.3125 128.167969 C 229.453125 128.167969 232.8125 131.523438 232.8125 135.667969 Z M 232.8125 135.667969 "/>
<path fill-rule="nonzero" fill="rgb(0%, 0%, 0%)" fill-opacity="1" stroke-width="1.41732" stroke-linecap="square" stroke-linejoin="miter" stroke="rgb(0%, 0%, 0%)" stroke-opacity="1" stroke-miterlimit="4" d="M 227.1875 135.667969 C 227.1875 136.703125 226.347656 137.542969 225.3125 137.542969 C 224.277344 137.542969 223.4375 136.703125 223.4375 135.667969 C 223.4375 134.632812 224.277344 133.792969 225.3125 133.792969 C 226.347656 133.792969 227.1875 134.632812 227.1875 135.667969 Z M 227.1875 135.667969 "/>
<path fill="none" stroke-width="1.417323" stroke-linecap="square" stroke-linejoin="miter" stroke="rgb(0%, 0%, 0%)" stroke-opacity="1" stroke-miterlimit="4" d="M 161.5625 135.667969 L 161.5625 176.917969 L 170.5625 176.917969 "/>
<path fill-rule="evenodd" fill="rgb(0%, 0%, 0%)" fill-opacity="1" stroke-width="0.944882" stroke-linecap="butt" stroke-linejoin="miter" stroke="rgb(0%, 0%, 0%)" stroke-opacity="1" stroke-miterlimit="4" d="M 174.652344 176.917969 L 168.519531 180.460938 L 168.519531 173.375 Z M 174.652344 176.917969 "/>
<path fill="none" stroke-width="1.417323" stroke-linecap="square" stroke-linejoin="miter" stroke="rgb(0%, 0%, 0%)" stroke-opacity="1" stroke-miterlimit="4" d="M 176.5625 135.667969 L 211.8125 135.667969 "/>
<path fill-rule="evenodd" fill="rgb(0%, 0%, 0%)" fill-opacity="1" stroke-width="0.944882" stroke-linecap="butt" stroke-linejoin="miter" stroke="rgb(0%, 0%, 0%)" stroke-opacity="1" stroke-miterlimit="4" d="M 215.902344 135.667969 L 209.769531 139.210938 L 209.769531 132.125 Z M 215.902344 135.667969 "/>
<path fill="none" stroke-width="1.41732" stroke-linecap="square" stroke-linejoin="miter" stroke="rgb(0%, 0%, 0%)" stroke-opacity="1" stroke-miterlimit="4" d="M 225.3125 158.167969 L 225.3125 149.167969 "/>
<path fill-rule="evenodd" fill="rgb(0%, 0%, 0%)" fill-opacity="1" stroke-width="0.94488" stroke-linecap="butt" stroke-linejoin="miter" stroke="rgb(0%, 0%, 0%)" stroke-opacity="1" stroke-miterlimit="4" d="M -145.078125 225.3125 L -151.207031 228.855469 L -151.207031 221.769531 Z M -145.078125 225.3125 " transform="matrix(0, -1, 1, 0, 0, 0)"/>
<path fill="none" stroke-width="1.41732" stroke-linecap="square" stroke-linejoin="miter" stroke="rgb(0%, 0%, 0%)" stroke-opacity="1" stroke-miterlimit="4" d="M 57.3125 116.917969 L 151.0625 116.917969 L 151.0625 154.417969 L 57.3125 154.417969 Z M 57.3125 116.917969 "/>
<path fill="none" stroke-width="1.41732" stroke-linecap="square" stroke-linejoin="miter" stroke="rgb(0%, 0%, 0%)" stroke-opacity="1" stroke-miterlimit="4" d="M 151.0625 135.667969 L 176.5625 135.667969 "/>
<path fill-rule="nonzero" fill="rgb(0%, 0%, 0%)" fill-opacity="1" d="M 290.460938 133.441406 C 290.570312 133.152344 290.679688 132.96875 292.066406 132.96875 L 292.066406 131.875 C 291.519531 131.910156 290.828125 131.949219 290.242188 131.949219 C 289.625 131.949219 288.53125 131.875 288.019531 131.875 L 288.019531 132.96875 C 288.238281 132.96875 289.367188 132.96875 289.367188 133.222656 C 289.367188 133.296875 289.296875 133.441406 289.296875 133.515625 L 286.851562 139.457031 L 284.191406 132.96875 L 285.503906 132.96875 L 285.503906 131.875 C 284.738281 131.875 283.535156 131.949219 282.84375 131.949219 C 281.859375 131.949219 280.875 131.875 280.507812 131.875 L 280.507812 132.96875 L 281.894531 132.96875 C 282.367188 134.136719 282.367188 134.171875 282.367188 134.207031 C 282.367188 134.28125 282.296875 134.425781 282.296875 134.5 L 280.4375 138.949219 L 277.992188 132.96875 L 279.304688 132.96875 L 279.304688 131.875 C 278.359375 131.910156 277.410156 131.949219 276.425781 131.949219 C 275.734375 131.949219 274.710938 131.875 273.910156 131.875 L 273.910156 132.96875 L 275.296875 132.96875 L 278.832031 141.644531 C 279.015625 142.046875 279.085938 142.300781 279.671875 142.300781 C 280.253906 142.300781 280.363281 142.046875 280.507812 141.644531 L 282.988281 135.628906 L 285.429688 141.644531 C 285.613281 142.046875 285.6875 142.300781 286.269531 142.300781 C 286.851562 142.300781 286.960938 142.046875 287.109375 141.644531 Z M 290.460938 133.441406 "/>
<path fill-rule="nonzero" fill="rgb(0%, 0%, 0%)" fill-opacity="1" d="M 304.570312 147.769531 C 304.570312 147.699219 304.570312 147.660156 304.171875 147.261719 C 301.289062 144.34375 300.523438 139.933594 300.523438 136.359375 C 300.523438 132.3125 301.398438 128.265625 304.28125 125.386719 C 304.570312 125.09375 304.570312 125.058594 304.570312 124.984375 C 304.570312 124.804688 304.5 124.730469 304.351562 124.730469 C 304.097656 124.730469 302.019531 126.335938 300.632812 129.285156 C 299.46875 131.839844 299.175781 134.425781 299.175781 136.359375 C 299.175781 138.183594 299.429688 140.988281 300.707031 143.652344 C 302.128906 146.496094 304.097656 148.027344 304.351562 148.027344 C 304.5 148.027344 304.570312 147.953125 304.570312 147.769531 Z M 304.570312 147.769531 "/>
<path fill-rule="nonzero" fill="rgb(0%, 0%, 0%)" fill-opacity="1" d="M 313.976562 136.46875 L 316.675781 133.441406 C 317.003906 133.113281 317.148438 132.96875 319.042969 132.96875 L 319.042969 131.875 C 318.242188 131.910156 317.039062 131.949219 316.929688 131.949219 C 316.347656 131.949219 315.179688 131.875 314.523438 131.875 L 314.523438 132.96875 C 314.851562 132.96875 315.144531 133.003906 315.398438 133.152344 C 315.324219 133.296875 315.324219 133.371094 315.214844 133.441406 L 313.285156 135.628906 L 310.988281 132.96875 L 311.9375 132.96875 L 311.9375 131.875 C 311.316406 131.875 309.859375 131.949219 309.09375 131.949219 C 308.363281 131.949219 307.304688 131.875 306.539062 131.875 L 306.539062 132.96875 L 308.21875 132.96875 L 311.828125 137.234375 L 308.765625 140.660156 C 308.398438 141.097656 307.5625 141.097656 306.429688 141.097656 L 306.429688 142.191406 C 307.234375 142.15625 308.472656 142.121094 308.582031 142.121094 C 309.164062 142.121094 310.515625 142.15625 310.953125 142.191406 L 310.953125 141.097656 C 310.550781 141.097656 310.113281 140.988281 310.113281 140.84375 C 310.113281 140.808594 310.113281 140.808594 310.257812 140.625 L 312.519531 138.074219 L 315.070312 141.097656 L 314.160156 141.097656 L 314.160156 142.191406 C 314.777344 142.15625 316.199219 142.121094 316.964844 142.121094 C 317.695312 142.121094 318.753906 142.15625 319.519531 142.191406 L 319.519531 141.097656 L 317.878906 141.097656 Z M 313.976562 136.46875 "/>
<path fill-rule="nonzero" fill="rgb(0%, 0%, 0%)" fill-opacity="1" d="M 326.734375 136.359375 C 326.734375 134.574219 326.480469 131.765625 325.203125 129.105469 C 323.820312 126.261719 321.8125 124.730469 321.59375 124.730469 C 321.449219 124.730469 321.339844 124.839844 321.339844 124.984375 C 321.339844 125.058594 321.339844 125.09375 321.777344 125.53125 C 324.074219 127.828125 325.386719 131.511719 325.386719 136.359375 C 325.386719 140.371094 324.546875 144.453125 321.667969 147.371094 C 321.339844 147.660156 321.339844 147.699219 321.339844 147.769531 C 321.339844 147.917969 321.449219 148.027344 321.59375 148.027344 C 321.8125 148.027344 323.929688 146.421875 325.277344 143.46875 C 326.480469 140.917969 326.734375 138.328125 326.734375 136.359375 Z M 326.734375 136.359375 "/>
<path fill-rule="nonzero" fill="rgb(0%, 0%, 0%)" fill-opacity="1" d="M 81.011719 141.804688 L 81.011719 141.074219 L 80.429688 141.074219 C 78.640625 141.074219 78.605469 140.820312 78.605469 139.980469 L 78.605469 127.730469 C 78.605469 126.894531 78.640625 126.636719 80.429688 126.636719 L 81.011719 126.636719 L 81.011719 125.910156 L 77.074219 125.910156 C 76.453125 125.910156 76.453125 125.945312 76.308594 126.347656 L 71.203125 139.472656 L 66.171875 126.417969 C 65.953125 125.910156 65.882812 125.910156 65.335938 125.910156 L 61.433594 125.910156 L 61.433594 126.636719 L 61.980469 126.636719 C 63.765625 126.636719 63.804688 126.894531 63.804688 127.730469 L 63.804688 139.363281 C 63.804688 139.980469 63.804688 141.074219 61.433594 141.074219 L 61.433594 141.804688 L 64.132812 141.730469 L 66.867188 141.804688 L 66.867188 141.074219 C 64.460938 141.074219 64.460938 139.980469 64.460938 139.363281 L 64.460938 126.820312 L 64.496094 126.820312 L 70.109375 141.292969 C 70.21875 141.585938 70.328125 141.804688 70.546875 141.804688 C 70.804688 141.804688 70.875 141.621094 70.984375 141.367188 L 76.710938 126.636719 L 76.710938 139.980469 C 76.710938 140.820312 76.671875 141.074219 74.886719 141.074219 L 74.339844 141.074219 L 74.339844 141.804688 C 75.179688 141.730469 76.78125 141.730469 77.695312 141.730469 C 78.570312 141.730469 80.136719 141.730469 81.011719 141.804688 Z M 81.011719 141.804688 "/>
<path fill-rule="nonzero" fill="rgb(0%, 0%, 0%)" fill-opacity="1" d="M 95.402344 135.789062 L 94.816406 135.789062 C 94.5625 138.160156 94.234375 141.074219 90.152344 141.074219 L 88.253906 141.074219 C 87.160156 141.074219 87.125 140.929688 87.125 140.164062 L 87.125 127.769531 C 87.125 126.964844 87.125 126.636719 89.3125 126.636719 L 90.078125 126.636719 L 90.078125 125.910156 C 89.238281 125.980469 87.125 125.980469 86.175781 125.980469 C 85.265625 125.980469 83.441406 125.980469 82.640625 125.910156 L 82.640625 126.636719 L 83.1875 126.636719 C 84.972656 126.636719 85.046875 126.894531 85.046875 127.730469 L 85.046875 139.980469 C 85.046875 140.820312 84.972656 141.074219 83.1875 141.074219 L 82.640625 141.074219 L 82.640625 141.804688 L 94.746094 141.804688 Z M 95.402344 135.789062 "/>
<path fill-rule="nonzero" fill="rgb(0%, 0%, 0%)" fill-opacity="1" d="M 110.914062 130.246094 C 110.914062 127.949219 108.617188 125.910156 105.445312 125.910156 L 97.203125 125.910156 L 97.203125 126.636719 L 97.789062 126.636719 C 99.574219 126.636719 99.609375 126.894531 99.609375 127.730469 L 99.609375 139.980469 C 99.609375 140.820312 99.574219 141.074219 97.789062 141.074219 L 97.203125 141.074219 L 97.203125 141.804688 C 98.042969 141.730469 99.757812 141.730469 100.632812 141.730469 C 101.507812 141.730469 103.257812 141.730469 104.09375 141.804688 L 104.09375 141.074219 L 103.511719 141.074219 C 101.726562 141.074219 101.6875 140.820312 101.6875 139.980469 L 101.6875 134.441406 L 105.625 134.441406 C 108.398438 134.441406 110.914062 132.582031 110.914062 130.246094 Z M 108.507812 130.246094 C 108.507812 131.339844 108.507812 133.855469 104.824219 133.855469 L 101.617188 133.855469 L 101.617188 127.585938 C 101.617188 126.785156 101.652344 126.636719 102.746094 126.636719 L 104.824219 126.636719 C 108.507812 126.636719 108.507812 129.117188 108.507812 130.246094 Z M 108.507812 130.246094 "/>
<path fill-rule="nonzero" fill="rgb(0%, 0%, 0%)" fill-opacity="1" d="M 122.914062 134.390625 C 122.914062 134.097656 122.914062 133.84375 122.625 133.84375 C 122.625 133.84375 122.367188 133.84375 122.332031 134.132812 C 122.296875 134.609375 121.929688 134.609375 121.820312 134.609375 C 121.238281 134.609375 120.65625 134.351562 120.363281 134.207031 C 119.523438 133.84375 118.832031 133.84375 118.539062 133.84375 C 115.84375 133.84375 112.851562 135.554688 112.851562 139.710938 C 112.851562 143.867188 115.769531 145.582031 118.578125 145.582031 C 119.453125 145.582031 120.617188 145.4375 121.785156 144.707031 C 122.550781 144.234375 123.390625 143.429688 123.390625 143.175781 C 123.390625 142.957031 123.132812 142.882812 123.023438 142.882812 C 122.914062 142.882812 122.84375 142.921875 122.695312 143.101562 C 121.75 144.160156 120.289062 144.816406 118.867188 144.816406 C 116.316406 144.816406 115.695312 142.265625 115.695312 139.75 C 115.695312 136.539062 116.863281 134.425781 118.613281 134.425781 C 119.816406 134.425781 121.785156 135.59375 122.332031 137.304688 C 122.367188 137.453125 122.441406 137.632812 122.625 137.632812 C 122.914062 137.632812 122.914062 137.378906 122.914062 137.085938 Z M 122.332031 136.066406 C 122.148438 135.773438 121.929688 135.554688 121.53125 135.15625 C 121.601562 135.15625 121.75 135.15625 121.820312 135.15625 C 122.003906 135.15625 122.222656 135.117188 122.332031 135.046875 Z M 116.570312 134.789062 C 116.207031 135.15625 115.113281 136.539062 115.113281 139.75 C 115.113281 141.351562 115.367188 143.613281 116.828125 144.78125 C 114.164062 143.90625 113.398438 141.71875 113.398438 139.710938 C 113.398438 136.722656 115.039062 135.300781 116.570312 134.753906 Z M 116.570312 134.789062 "/>
<path fill-rule="nonzero" fill="rgb(0%, 0%, 0%)" fill-opacity="1" d="M 127.414062 145.035156 C 127.414062 145.910156 127.265625 146.96875 126.136719 147.988281 C 126.101562 148.0625 126.027344 148.132812 126.027344 148.207031 C 126.027344 148.316406 126.171875 148.425781 126.246094 148.425781 C 126.5 148.425781 127.886719 147.113281 127.886719 145.179688 C 127.886719 144.195312 127.484375 143.429688 126.71875 143.429688 C 126.210938 143.429688 125.808594 143.832031 125.808594 144.34375 C 125.808594 144.851562 126.171875 145.289062 126.757812 145.289062 C 127.15625 145.289062 127.414062 145.035156 127.414062 145.035156 Z M 127.414062 145.035156 "/>
<path fill-rule="nonzero" fill="rgb(0%, 0%, 0%)" fill-opacity="1" d="M 137.417969 135.445312 C 137.527344 134.972656 137.5625 134.9375 137.929688 134.898438 C 138 134.898438 138.546875 134.898438 138.875 134.898438 C 139.898438 134.898438 140.296875 134.898438 140.699219 135.007812 C 141.429688 135.226562 141.464844 135.703125 141.464844 136.285156 C 141.464844 136.539062 141.464844 136.757812 141.355469 137.597656 L 141.320312 137.78125 C 141.320312 137.960938 141.429688 138.035156 141.609375 138.035156 C 141.867188 138.035156 141.867188 137.890625 141.902344 137.632812 L 142.339844 134.535156 C 142.339844 134.316406 142.15625 134.316406 141.867188 134.316406 L 131.875 134.316406 C 131.476562 134.316406 131.4375 134.316406 131.328125 134.644531 L 130.273438 137.523438 C 130.273438 137.597656 130.199219 137.742188 130.199219 137.816406 C 130.199219 137.890625 130.234375 138.035156 130.492188 138.035156 C 130.710938 138.035156 130.710938 137.960938 130.820312 137.632812 C 131.765625 135.046875 132.3125 134.898438 134.792969 134.898438 L 135.449219 134.898438 C 135.960938 134.898438 135.960938 134.898438 135.960938 135.046875 C 135.960938 135.046875 135.960938 135.15625 135.886719 135.375 L 133.734375 143.941406 C 133.589844 144.523438 133.554688 144.707031 131.839844 144.707031 C 131.257812 144.707031 131.109375 144.707031 131.109375 145.070312 C 131.109375 145.109375 131.148438 145.289062 131.402344 145.289062 C 131.839844 145.289062 132.351562 145.253906 132.789062 145.253906 C 133.261719 145.253906 133.734375 145.21875 134.171875 145.21875 C 134.648438 145.21875 135.195312 145.21875 135.667969 145.253906 C 136.105469 145.253906 136.578125 145.289062 137.015625 145.289062 C 137.164062 145.289062 137.382812 145.289062 137.382812 144.925781 C 137.382812 144.707031 137.234375 144.707031 136.726562 144.707031 C 136.433594 144.707031 136.105469 144.671875 135.777344 144.671875 C 135.230469 144.632812 135.195312 144.5625 135.195312 144.378906 C 135.195312 144.234375 135.195312 144.234375 135.265625 143.976562 Z M 137.417969 135.445312 "/>
<path fill-rule="nonzero" fill="rgb(0%, 0%, 0%)" fill-opacity="1" d="M 145.117188 140.214844 C 145.117188 139.886719 145.082031 139.886719 144.679688 139.886719 C 143.878906 140.613281 142.566406 140.613281 142.347656 140.613281 L 142.164062 140.613281 L 142.164062 141.125 L 142.347656 141.125 C 142.601562 141.125 143.367188 141.089844 144.058594 140.796875 L 144.058594 146.628906 C 144.058594 146.957031 144.058594 147.105469 142.820312 147.105469 L 142.238281 147.105469 L 142.238281 147.613281 C 142.855469 147.578125 143.914062 147.578125 144.570312 147.578125 C 145.261719 147.578125 146.285156 147.578125 146.941406 147.613281 L 146.941406 147.105469 L 146.355469 147.105469 C 145.117188 147.105469 145.117188 146.957031 145.117188 146.628906 Z M 145.117188 140.214844 "/>
<path fill="none" stroke-width="1.41732" stroke-linecap="butt" stroke-linejoin="miter" stroke="rgb(0%, 0%, 0%)" stroke-opacity="1" stroke-miterlimit="4" d="M 31.101562 135.707031 L 16.101562 135.707031 "/>
<path fill="none" stroke-width="1.417323" stroke-linecap="butt" stroke-linejoin="miter" stroke="rgb(0%, 0%, 0%)" stroke-opacity="1" stroke-miterlimit="4" d="M 31.101562 135.707031 L 51.351562 135.707031 "/>
<path fill-rule="evenodd" fill="rgb(0%, 0%, 0%)" fill-opacity="1" stroke-width="0.944882" stroke-linecap="butt" stroke-linejoin="miter" stroke="rgb(0%, 0%, 0%)" stroke-opacity="1" stroke-miterlimit="4" d="M 55.441406 135.707031 L 49.3125 139.253906 L 49.3125 132.164062 Z M 55.441406 135.707031 "/>
<path fill="none" stroke-width="1.41732" stroke-linecap="butt" stroke-linejoin="miter" stroke="rgb(0%, 0%, 0%)" stroke-opacity="1" stroke-miterlimit="4" d="M 233.601562 135.707031 L 263.601562 135.707031 "/>
<path fill-rule="evenodd" fill="rgb(0%, 0%, 0%)" fill-opacity="1" stroke-width="0.94488" stroke-linecap="butt" stroke-linejoin="miter" stroke="rgb(0%, 0%, 0%)" stroke-opacity="1" stroke-miterlimit="4" d="M 267.691406 135.707031 L 261.5625 139.253906 L 261.5625 132.164062 Z M 267.691406 135.707031 "/>
<path fill="none" stroke-width="1.41732" stroke-linecap="butt" stroke-linejoin="miter" stroke="rgb(0%, 0%, 0%)" stroke-opacity="1" stroke-miterlimit="4" d="M 331.101562 135.707031 L 366.351562 135.707031 "/>
<path fill-rule="evenodd" fill="rgb(0%, 0%, 0%)" fill-opacity="1" stroke-width="0.94488" stroke-linecap="butt" stroke-linejoin="miter" stroke="rgb(0%, 0%, 0%)" stroke-opacity="1" stroke-miterlimit="4" d="M 370.441406 135.707031 L 364.3125 139.253906 L 364.3125 132.164062 Z M 370.441406 135.707031 "/>
<path fill="none" stroke-width="1.41732" stroke-linecap="square" stroke-linejoin="miter" stroke="rgb(0%, 0%, 0%)" stroke-opacity="1" stroke-miterlimit="4" d="M 57.351562 214.457031 L 132.351562 214.457031 L 132.351562 251.957031 L 57.351562 251.957031 Z M 57.351562 214.457031 "/>
<path fill-rule="nonzero" fill="rgb(0%, 0%, 0%)" fill-opacity="1" d="M 93.972656 230.546875 L 93.316406 225.296875 L 80.554688 225.296875 L 80.554688 226.027344 L 81.101562 226.027344 C 82.886719 226.027344 82.960938 226.28125 82.960938 227.121094 L 82.960938 239.296875 C 82.960938 240.136719 82.886719 240.390625 81.101562 240.390625 L 80.554688 240.390625 L 80.554688 241.121094 C 81.355469 241.046875 83.179688 241.046875 84.089844 241.046875 C 85.039062 241.046875 87.152344 241.046875 87.992188 241.121094 L 87.992188 240.390625 L 87.226562 240.390625 C 85.039062 240.390625 85.039062 240.097656 85.039062 239.296875 L 85.039062 233.574219 L 87.007812 233.574219 C 89.269531 233.574219 89.488281 234.300781 89.488281 236.269531 L 90.070312 236.269531 L 90.070312 230.109375 L 89.488281 230.109375 C 89.488281 232.078125 89.269531 232.84375 87.007812 232.84375 L 85.039062 232.84375 L 85.039062 226.9375 C 85.039062 226.171875 85.074219 226.027344 86.167969 226.027344 L 88.941406 226.027344 C 92.441406 226.027344 93.023438 227.339844 93.386719 230.546875 Z M 93.972656 230.546875 "/>
<path fill-rule="nonzero" fill="rgb(0%, 0%, 0%)" fill-opacity="1" d="M 109.152344 230.546875 L 108.496094 225.296875 L 95.734375 225.296875 L 95.734375 226.027344 L 96.28125 226.027344 C 98.066406 226.027344 98.140625 226.28125 98.140625 227.121094 L 98.140625 239.296875 C 98.140625 240.136719 98.066406 240.390625 96.28125 240.390625 L 95.734375 240.390625 L 95.734375 241.121094 C 96.539062 241.046875 98.359375 241.046875 99.269531 241.046875 C 100.21875 241.046875 102.332031 241.046875 103.171875 241.121094 L 103.171875 240.390625 L 102.40625 240.390625 C 100.21875 240.390625 100.21875 240.097656 100.21875 239.296875 L 100.21875 233.574219 L 102.1875 233.574219 C 104.449219 233.574219 104.667969 234.300781 104.667969 236.269531 L 105.25 236.269531 L 105.25 230.109375 L 104.667969 230.109375 C 104.667969 232.078125 104.449219 232.84375 102.1875 232.84375 L 100.21875 232.84375 L 100.21875 226.9375 C 100.21875 226.171875 100.253906 226.027344 101.347656 226.027344 L 104.121094 226.027344 C 107.621094 226.027344 108.203125 227.339844 108.566406 230.546875 Z M 109.152344 230.546875 "/>
<path fill="none" stroke-width="1.41732" stroke-linecap="square" stroke-linejoin="miter" stroke="rgb(0%, 0%, 0%)" stroke-opacity="1" stroke-miterlimit="4" d="M 132.351562 233.207031 L 211.101562 233.207031 "/>
<path fill-rule="evenodd" fill="rgb(0%, 0%, 0%)" fill-opacity="1" stroke-width="0.94488" stroke-linecap="butt" stroke-linejoin="miter" stroke="rgb(0%, 0%, 0%)" stroke-opacity="1" stroke-miterlimit="4" d="M 215.191406 233.207031 L 209.0625 236.75 L 209.0625 229.664062 Z M 215.191406 233.207031 "/>
<path fill="none" stroke-width="1.41732" stroke-linecap="square" stroke-linejoin="miter" stroke="rgb(0%, 0%, 0%)" stroke-opacity="1" stroke-miterlimit="4" d="M 31.0625 135.667969 L 31.101562 233.207031 L 51.351562 233.207031 "/>
<path fill-rule="evenodd" fill="rgb(0%, 0%, 0%)" fill-opacity="1" stroke-width="0.94488" stroke-linecap="butt" stroke-linejoin="miter" stroke="rgb(0%, 0%, 0%)" stroke-opacity="1" stroke-miterlimit="4" d="M 55.441406 233.207031 L 49.3125 236.75 L 49.3125 229.664062 Z M 55.441406 233.207031 "/>
<path fill="none" stroke-width="1.41732" stroke-linecap="butt" stroke-linejoin="miter" stroke="rgb(0%, 0%, 0%)" stroke-opacity="1" stroke-miterlimit="4" d="M 286.101562 233.207031 L 379.851562 233.207031 L 379.851562 149.207031 "/>
<path fill-rule="evenodd" fill="rgb(0%, 0%, 0%)" fill-opacity="1" stroke-width="0.94488" stroke-linecap="butt" stroke-linejoin="miter" stroke="rgb(0%, 0%, 0%)" stroke-opacity="1" stroke-miterlimit="4" d="M -145.121094 379.851562 L -151.25 383.394531 L -151.25 376.308594 Z M -145.121094 379.851562 " transform="matrix(0, -1, 1, 0, 0, 0)"/>
<path fill-rule="nonzero" fill="rgb(0%, 0%, 0%)" fill-opacity="1" d="M 233.746094 221.023438 L 233.429688 220.738281 C 233.429688 220.738281 232.664062 221.691406 231.777344 221.691406 C 231.296875 221.691406 230.789062 221.40625 230.441406 221.183594 C 229.898438 220.867188 229.550781 220.738281 229.199219 220.738281 C 228.4375 220.738281 228.023438 221.183594 227.007812 222.328125 L 227.324219 222.613281 C 227.324219 222.613281 228.089844 221.660156 228.976562 221.660156 C 229.453125 221.660156 229.964844 221.945312 230.3125 222.136719 C 230.855469 222.488281 231.234375 222.613281 231.585938 222.613281 C 232.347656 222.613281 232.730469 222.167969 233.746094 221.023438 Z M 233.746094 221.023438 "/>
<path fill-rule="nonzero" fill="rgb(0%, 0%, 0%)" fill-opacity="1" d="M 233.550781 226.277344 C 233.613281 225.992188 233.613281 225.929688 233.613281 225.863281 C 233.613281 225.546875 233.359375 225.546875 233.167969 225.546875 C 232.753906 225.546875 232.722656 225.609375 232.628906 226.023438 L 229.382812 238.992188 C 227.320312 238.769531 227.097656 237.691406 227.097656 236.925781 C 227.097656 236.417969 227.160156 235.878906 228.082031 233.496094 C 228.398438 232.761719 228.429688 232.636719 228.429688 232.285156 C 228.429688 231.109375 227.253906 230.472656 226.140625 230.472656 C 223.980469 230.472656 222.964844 233.207031 222.964844 233.621094 C 222.964844 233.90625 223.28125 233.90625 223.472656 233.90625 C 223.695312 233.90625 223.851562 233.90625 223.917969 233.652344 C 224.585938 231.394531 225.695312 231.207031 226.015625 231.207031 C 226.140625 231.207031 226.363281 231.207031 226.363281 231.617188 C 226.363281 232.09375 226.175781 232.605469 225.917969 233.207031 C 225.21875 235.019531 224.871094 236.039062 224.871094 236.703125 C 224.871094 239.375 228.019531 239.660156 228.972656 239.757812 C 229.128906 239.757812 229.164062 239.789062 229.164062 239.820312 C 229.164062 239.882812 228.8125 241.28125 228.75 241.503906 C 228.589844 242.140625 228.304688 243.347656 228.304688 243.445312 C 228.304688 243.730469 228.589844 243.730469 228.75 243.730469 C 229.128906 243.730469 229.164062 243.699219 229.257812 243.316406 L 230.148438 239.789062 C 233.199219 239.789062 235.519531 237.5625 236.472656 235.496094 C 236.695312 234.988281 237.203125 233.335938 237.203125 232.285156 C 237.203125 230.441406 235.835938 230.441406 235.804688 230.441406 C 235.042969 230.441406 234.28125 231.269531 234.28125 231.96875 C 234.28125 232.539062 234.691406 232.792969 234.882812 232.890625 C 235.679688 233.367188 235.902344 233.714844 235.902344 234.160156 C 235.902344 235.433594 233.644531 239.023438 230.339844 239.058594 Z M 233.550781 226.277344 "/>
<path fill-rule="nonzero" fill="rgb(0%, 0%, 0%)" fill-opacity="1" d="M 244.042969 241.148438 L 246.015625 239.179688 C 246.332031 239.082031 246.714844 239.082031 247.316406 239.082031 L 247.316406 238.289062 C 246.871094 238.320312 246.394531 238.351562 245.949219 238.351562 C 245.472656 238.351562 244.488281 238.289062 244.363281 238.289062 L 244.363281 239.082031 C 244.550781 239.082031 244.648438 239.117188 244.742188 239.179688 L 243.441406 240.515625 L 242.039062 239.082031 L 242.421875 239.082031 L 242.421875 238.289062 C 242.359375 238.289062 241.214844 238.351562 240.640625 238.351562 C 240.101562 238.351562 239.5625 238.320312 239.019531 238.289062 L 239.019531 239.082031 L 240.101562 239.082031 L 242.421875 241.5 L 240.386719 243.566406 C 240.195312 243.726562 240.164062 243.757812 239.753906 243.789062 C 239.496094 243.789062 239.019531 243.789062 238.957031 243.789062 L 238.957031 244.582031 C 239.402344 244.550781 239.878906 244.519531 240.324219 244.519531 C 240.707031 244.519531 241.722656 244.582031 241.882812 244.582031 L 241.882812 243.789062 C 241.660156 243.789062 241.597656 243.757812 241.5 243.691406 L 243.058594 242.167969 L 244.617188 243.789062 L 244.234375 243.789062 L 244.234375 244.582031 C 244.265625 244.582031 245.410156 244.519531 246.046875 244.519531 C 246.585938 244.519531 247.125 244.550781 247.636719 244.582031 L 247.636719 243.789062 L 246.585938 243.789062 Z M 244.042969 241.148438 "/>
<path fill-rule="nonzero" fill="rgb(0%, 0%, 0%)" fill-opacity="1" d="M 259.234375 244.492188 C 259.234375 244.429688 259.234375 244.398438 258.886719 244.046875 C 256.375 241.503906 255.707031 237.660156 255.707031 234.542969 C 255.707031 231.015625 256.46875 227.484375 258.980469 224.976562 C 259.234375 224.71875 259.234375 224.6875 259.234375 224.625 C 259.234375 224.464844 259.171875 224.402344 259.042969 224.402344 C 258.820312 224.402344 257.007812 225.800781 255.800781 228.375 C 254.785156 230.601562 254.53125 232.859375 254.53125 234.542969 C 254.53125 236.132812 254.753906 238.582031 255.863281 240.902344 C 257.105469 243.378906 258.820312 244.714844 259.042969 244.714844 C 259.171875 244.714844 259.234375 244.652344 259.234375 244.492188 Z M 259.234375 244.492188 "/>
<path fill-rule="nonzero" fill="rgb(0%, 0%, 0%)" fill-opacity="1" d="M 267.433594 234.636719 L 269.785156 232 C 270.074219 231.714844 270.199219 231.585938 271.851562 231.585938 L 271.851562 230.632812 C 271.152344 230.664062 270.105469 230.695312 270.007812 230.695312 C 269.5 230.695312 268.484375 230.632812 267.910156 230.632812 L 267.910156 231.585938 C 268.195312 231.585938 268.449219 231.617188 268.671875 231.746094 C 268.609375 231.871094 268.609375 231.9375 268.515625 232 L 266.828125 233.90625 L 264.828125 231.585938 L 265.652344 231.585938 L 265.652344 230.632812 C 265.113281 230.632812 263.839844 230.695312 263.175781 230.695312 C 262.539062 230.695312 261.617188 230.632812 260.949219 230.632812 L 260.949219 231.585938 L 262.410156 231.585938 L 265.558594 235.304688 L 262.886719 238.292969 C 262.570312 238.675781 261.839844 238.675781 260.855469 238.675781 L 260.855469 239.628906 C 261.554688 239.597656 262.632812 239.566406 262.730469 239.566406 C 263.238281 239.566406 264.414062 239.597656 264.796875 239.628906 L 264.796875 238.675781 C 264.445312 238.675781 264.0625 238.582031 264.0625 238.453125 C 264.0625 238.421875 264.0625 238.421875 264.191406 238.261719 L 266.164062 236.039062 L 268.386719 238.675781 L 267.59375 238.675781 L 267.59375 239.628906 C 268.132812 239.597656 269.371094 239.566406 270.039062 239.566406 C 270.675781 239.566406 271.597656 239.597656 272.265625 239.628906 L 272.265625 238.675781 L 270.835938 238.675781 Z M 267.433594 234.636719 "/>
<path fill-rule="nonzero" fill="rgb(0%, 0%, 0%)" fill-opacity="1" d="M 278.558594 234.542969 C 278.558594 232.984375 278.335938 230.539062 277.226562 228.21875 C 276.015625 225.738281 274.269531 224.402344 274.078125 224.402344 C 273.949219 224.402344 273.855469 224.496094 273.855469 224.625 C 273.855469 224.6875 273.855469 224.71875 274.238281 225.101562 C 276.238281 227.105469 277.382812 230.316406 277.382812 234.542969 C 277.382812 238.039062 276.652344 241.601562 274.140625 244.144531 C 273.855469 244.398438 273.855469 244.429688 273.855469 244.492188 C 273.855469 244.621094 273.949219 244.714844 274.078125 244.714844 C 274.269531 244.714844 276.113281 243.316406 277.289062 240.742188 C 278.335938 238.515625 278.558594 236.257812 278.558594 234.542969 Z M 278.558594 234.542969 "/>
<path fill-rule="nonzero" fill="rgb(0%, 0%, 0%)" fill-opacity="1" d="M 159.597656 277.542969 L 162.332031 277.542969 L 162.332031 276.980469 L 160.164062 276.980469 L 160.164062 256.457031 L 162.332031 256.457031 L 162.332031 255.890625 L 159.597656 255.890625 Z M 159.597656 277.542969 "/>
<path fill-rule="nonzero" fill="rgb(0%, 0%, 0%)" fill-opacity="1" d="M 163.898438 268.125 C 163.972656 266.332031 164.992188 266.03125 165.40625 266.03125 C 166.632812 266.03125 166.765625 267.652344 166.765625 268.125 Z M 163.898438 268.386719 L 167.257812 268.386719 C 167.519531 268.386719 167.558594 268.386719 167.558594 268.125 C 167.558594 266.9375 166.898438 265.765625 165.40625 265.765625 C 164.011719 265.765625 162.898438 267.011719 162.898438 268.519531 C 162.898438 270.125 164.164062 271.292969 165.539062 271.292969 C 167.011719 271.292969 167.558594 269.953125 167.558594 269.726562 C 167.558594 269.613281 167.464844 269.578125 167.386719 269.578125 C 167.292969 269.578125 167.257812 269.652344 167.238281 269.746094 C 166.824219 270.992188 165.726562 270.992188 165.617188 270.992188 C 165.011719 270.992188 164.539062 270.632812 164.257812 270.179688 C 163.898438 269.613281 163.898438 268.824219 163.898438 268.386719 Z M 163.898438 268.386719 "/>
<path fill-rule="nonzero" fill="rgb(0%, 0%, 0%)" fill-opacity="1" d="M 174.167969 263.859375 C 174.296875 263.859375 174.507812 263.859375 174.507812 263.671875 C 174.507812 263.445312 174.296875 263.445312 174.167969 263.445312 L 169.148438 263.445312 C 169.019531 263.445312 168.808594 263.445312 168.808594 263.652344 C 168.808594 263.859375 169 263.859375 169.148438 263.859375 Z M 174.167969 263.859375 "/>
<path fill-rule="nonzero" fill="rgb(0%, 0%, 0%)" fill-opacity="1" d="M 177.457031 260.578125 C 177.457031 260.296875 177.230469 260.089844 176.984375 260.089844 C 176.683594 260.089844 176.496094 260.332031 176.496094 260.578125 C 176.496094 260.863281 176.742188 261.070312 176.984375 261.070312 C 177.269531 261.070312 177.457031 260.824219 177.457031 260.578125 Z M 176.136719 262.144531 L 176.136719 262.445312 C 176.757812 262.445312 176.835938 262.503906 176.835938 262.917969 L 176.835938 266.160156 C 176.835938 266.480469 176.757812 267.238281 176.195312 267.238281 C 176.175781 267.238281 175.96875 267.238281 175.777344 267.160156 C 175.796875 267.160156 175.984375 267.046875 175.984375 266.804688 C 175.984375 266.578125 175.816406 266.40625 175.589844 266.40625 C 175.34375 266.40625 175.195312 266.578125 175.195312 266.804688 C 175.195312 267.253906 175.703125 267.480469 176.210938 267.480469 C 176.890625 267.480469 177.457031 266.953125 177.457031 266.160156 L 177.457031 262.050781 Z M 176.136719 262.144531 "/>
<path fill-rule="nonzero" fill="rgb(0%, 0%, 0%)" fill-opacity="1" d="M 183.6875 261.363281 L 183.425781 261.363281 C 183.425781 261.476562 183.347656 261.855469 183.253906 261.910156 C 183.214844 261.949219 182.707031 261.949219 182.613281 261.949219 L 181.445312 261.949219 C 181.839844 261.667969 182.273438 261.328125 182.632812 261.082031 C 183.179688 260.703125 183.6875 260.363281 183.6875 259.722656 C 183.6875 258.949219 182.953125 258.535156 182.105469 258.535156 C 181.292969 258.535156 180.6875 258.988281 180.6875 259.59375 C 180.6875 259.894531 180.953125 259.949219 181.046875 259.949219 C 181.199219 259.949219 181.386719 259.835938 181.386719 259.59375 C 181.386719 259.382812 181.234375 259.253906 181.046875 259.253906 C 181.21875 258.96875 181.574219 258.800781 181.972656 258.800781 C 182.554688 258.800781 183.046875 259.140625 183.046875 259.722656 C 183.046875 260.234375 182.6875 260.628906 182.234375 261.007812 L 180.765625 262.25 C 180.707031 262.308594 180.6875 262.308594 180.6875 262.34375 L 180.6875 262.535156 L 183.480469 262.535156 Z M 183.6875 261.363281 "/>
<path fill-rule="nonzero" fill="rgb(0%, 0%, 0%)" fill-opacity="1" d="M 188.476562 260.402344 C 188.589844 260.402344 188.648438 260.402344 188.722656 260.347656 C 188.761719 260.308594 188.816406 260.214844 188.816406 260.140625 C 188.816406 259.949219 188.648438 259.949219 188.535156 259.949219 L 185.96875 259.949219 C 185.835938 259.949219 185.554688 259.949219 185.195312 260.234375 C 185.046875 260.382812 184.761719 260.6875 184.761719 260.761719 C 184.761719 260.855469 184.855469 260.855469 184.894531 260.855469 C 184.96875 260.855469 184.96875 260.835938 185.027344 260.78125 C 185.234375 260.535156 185.515625 260.402344 185.875 260.402344 L 186.308594 260.402344 C 186.101562 261.15625 185.78125 261.78125 185.574219 262.15625 C 185.480469 262.308594 185.480469 262.328125 185.480469 262.382812 C 185.480469 262.515625 185.59375 262.609375 185.707031 262.609375 C 185.96875 262.609375 186.046875 262.328125 186.195312 261.835938 C 186.328125 261.363281 186.441406 260.929688 186.574219 260.402344 L 187.367188 260.402344 C 187.347656 260.496094 187.175781 261.136719 187.175781 261.628906 C 187.175781 262.042969 187.328125 262.609375 187.589844 262.609375 C 187.722656 262.609375 187.894531 262.457031 187.894531 262.308594 C 187.894531 262.230469 187.875 262.214844 187.835938 262.136719 C 187.554688 261.683594 187.554688 261.15625 187.554688 261.042969 C 187.554688 260.835938 187.589844 260.609375 187.628906 260.402344 Z M 188.476562 260.402344 "/>
<path fill="none" stroke-width="0.409204" stroke-linecap="butt" stroke-linejoin="miter" stroke="rgb(0%, 0%, 0%)" stroke-opacity="1" stroke-miterlimit="10" d="M 179.847656 263.664062 L 189.746094 263.664062 "/>
<path fill-rule="nonzero" fill="rgb(0%, 0%, 0%)" fill-opacity="1" d="M 182.769531 266.949219 C 183.050781 267.496094 183.542969 268.476562 183.578125 268.570312 C 183.636719 268.625 183.710938 268.664062 183.730469 268.683594 C 183.824219 268.738281 183.84375 268.738281 183.976562 268.738281 L 184.109375 268.738281 C 184.222656 268.738281 184.296875 268.738281 184.296875 268.644531 C 184.296875 268.605469 184.277344 268.589844 184.257812 268.570312 C 184.183594 268.511719 184.125 268.417969 184.089844 268.304688 L 182.316406 264.855469 C 182.203125 264.628906 182.015625 264.496094 181.449219 264.496094 C 181.316406 264.496094 181.222656 264.496094 181.222656 264.589844 C 181.222656 264.683594 181.296875 264.683594 181.375 264.683594 C 181.617188 264.722656 181.75 264.949219 181.84375 265.117188 L 182.128906 265.703125 C 182.242188 265.929688 182.542969 266.476562 182.636719 266.703125 L 180.714844 268.269531 C 180.675781 268.304688 180.582031 268.398438 180.582031 268.511719 C 180.582031 268.644531 180.675781 268.738281 180.808594 268.738281 C 180.921875 268.738281 180.976562 268.683594 181.035156 268.625 Z M 182.769531 266.949219 "/>
<path fill-rule="nonzero" fill="rgb(0%, 0%, 0%)" fill-opacity="1" d="M 186.691406 268.886719 C 186.707031 268.789062 186.765625 268.566406 186.785156 268.46875 C 186.804688 268.375 186.839844 268.28125 186.859375 268.207031 C 186.878906 268.113281 187.066406 267.792969 187.273438 267.621094 C 187.480469 267.453125 187.671875 267.414062 187.878906 267.414062 C 187.953125 267.414062 188.238281 267.414062 188.445312 267.507812 C 188.179688 267.601562 188.179688 267.847656 188.179688 267.867188 C 188.179688 267.960938 188.253906 268.113281 188.445312 268.113281 C 188.613281 268.113281 188.820312 267.960938 188.820312 267.695312 C 188.820312 267.261719 188.179688 267.207031 187.898438 267.207031 C 187.746094 267.207031 187.351562 267.207031 186.933594 267.679688 C 186.859375 267.359375 186.5 267.207031 186.21875 267.207031 C 186.011719 267.207031 185.839844 267.300781 185.671875 267.546875 C 185.519531 267.792969 185.445312 268.113281 185.445312 268.128906 C 185.445312 268.226562 185.539062 268.226562 185.578125 268.226562 C 185.671875 268.226562 185.671875 268.207031 185.726562 268.054688 C 185.824219 267.695312 185.953125 267.414062 186.179688 267.414062 C 186.386719 267.414062 186.425781 267.601562 186.425781 267.734375 C 186.425781 267.808594 186.371094 268.035156 186.332031 268.207031 C 186.292969 268.355469 186.238281 268.601562 186.199219 268.734375 L 186.066406 269.28125 C 186.03125 269.433594 185.953125 269.695312 185.953125 269.714844 C 185.953125 269.847656 186.066406 269.941406 186.179688 269.941406 C 186.273438 269.941406 186.386719 269.886719 186.445312 269.773438 C 186.484375 269.734375 186.519531 269.527344 186.558594 269.414062 Z M 186.691406 268.886719 "/>
<path fill-rule="nonzero" fill="rgb(0%, 0%, 0%)" fill-opacity="1" d="M 194.695312 262.050781 L 194.695312 262.519531 C 195.203125 262.519531 195.261719 262.519531 195.261719 262.84375 L 195.261719 264.40625 C 195.261719 265.105469 194.734375 265.425781 194.09375 265.425781 C 193.375 265.425781 193.355469 265.238281 193.355469 264.839844 L 193.355469 261.972656 L 191.734375 262.050781 L 191.734375 262.519531 C 192.222656 262.519531 192.28125 262.519531 192.28125 262.84375 L 192.28125 264.746094 C 192.28125 265.726562 193.222656 265.820312 193.941406 265.820312 C 194.222656 265.820312 194.847656 265.820312 195.316406 265.21875 L 195.316406 265.820312 L 196.902344 265.765625 L 196.902344 265.292969 C 196.410156 265.292969 196.335938 265.292969 196.335938 264.972656 L 196.335938 261.972656 Z M 194.695312 262.050781 "/>
<path fill-rule="nonzero" fill="rgb(0%, 0%, 0%)" fill-opacity="1" d="M 198.984375 258.421875 L 199.550781 258.421875 C 199.625 258.421875 199.683594 258.421875 199.757812 258.421875 L 200.625 258.421875 L 200.625 258.007812 L 196.722656 258.007812 L 196.722656 258.421875 L 197.589844 258.421875 C 197.664062 258.421875 197.742188 258.421875 197.816406 258.421875 L 198.382812 258.421875 L 198.382812 262.136719 L 198.984375 262.136719 Z M 198.984375 258.421875 "/>
<path fill-rule="nonzero" fill="rgb(0%, 0%, 0%)" fill-opacity="1" d="M 199.628906 264.34375 C 199.628906 264.171875 199.609375 264.171875 199.402344 264.171875 C 198.988281 264.550781 198.308594 264.550781 198.195312 264.550781 L 198.101562 264.550781 L 198.101562 264.8125 L 198.195312 264.8125 C 198.328125 264.8125 198.722656 264.796875 199.082031 264.644531 L 199.082031 267.660156 C 199.082031 267.832031 199.082031 267.90625 198.441406 267.90625 L 198.140625 267.90625 L 198.140625 268.171875 C 198.460938 268.152344 199.007812 268.152344 199.347656 268.152344 C 199.703125 268.152344 200.234375 268.152344 200.570312 268.171875 L 200.570312 267.90625 L 200.269531 267.90625 C 199.628906 267.90625 199.628906 267.832031 199.628906 267.660156 Z M 199.628906 264.34375 "/>
<path fill-rule="nonzero" fill="rgb(0%, 0%, 0%)" fill-opacity="1" d="M 205.246094 263.726562 L 206.414062 262.558594 C 206.605469 262.503906 206.832031 262.503906 207.1875 262.503906 L 207.1875 262.03125 C 206.925781 262.050781 206.640625 262.070312 206.378906 262.070312 C 206.09375 262.070312 205.511719 262.03125 205.433594 262.03125 L 205.433594 262.503906 C 205.546875 262.503906 205.605469 262.519531 205.660156 262.558594 L 204.886719 263.351562 L 204.058594 262.503906 L 204.285156 262.503906 L 204.285156 262.03125 C 204.246094 262.03125 203.566406 262.070312 203.226562 262.070312 C 202.90625 262.070312 202.585938 262.050781 202.265625 262.03125 L 202.265625 262.503906 L 202.90625 262.503906 L 204.285156 263.9375 L 203.078125 265.160156 C 202.964844 265.257812 202.945312 265.273438 202.699219 265.292969 C 202.550781 265.292969 202.265625 265.292969 202.230469 265.292969 L 202.230469 265.765625 C 202.492188 265.746094 202.777344 265.726562 203.039062 265.726562 C 203.265625 265.726562 203.871094 265.765625 203.964844 265.765625 L 203.964844 265.292969 C 203.832031 265.292969 203.792969 265.273438 203.738281 265.238281 L 204.660156 264.332031 L 205.585938 265.292969 L 205.359375 265.292969 L 205.359375 265.765625 C 205.378906 265.765625 206.058594 265.726562 206.433594 265.726562 C 206.753906 265.726562 207.074219 265.746094 207.378906 265.765625 L 207.378906 265.292969 L 206.753906 265.292969 Z M 205.246094 263.726562 "/>
<path fill-rule="nonzero" fill="rgb(0%, 0%, 0%)" fill-opacity="1" d="M 210.726562 271.140625 C 210.726562 270.351562 210.425781 269.878906 209.953125 269.878906 C 209.558594 269.878906 209.3125 270.179688 209.3125 270.519531 C 209.3125 270.839844 209.558594 271.160156 209.953125 271.160156 C 210.085938 271.160156 210.257812 271.105469 210.371094 271.011719 C 210.40625 270.972656 210.425781 270.972656 210.425781 270.972656 C 210.445312 270.972656 210.445312 270.972656 210.445312 271.140625 C 210.445312 272.046875 210.03125 272.765625 209.632812 273.160156 C 209.503906 273.292969 209.503906 273.3125 209.503906 273.347656 C 209.503906 273.441406 209.558594 273.480469 209.613281 273.480469 C 209.746094 273.480469 210.726562 272.558594 210.726562 271.140625 Z M 210.726562 271.140625 "/>
<path fill-rule="nonzero" fill="rgb(0%, 0%, 0%)" fill-opacity="1" d="M 215.921875 268.144531 C 215.921875 267.804688 215.640625 267.519531 215.300781 267.519531 C 214.941406 267.519531 214.660156 267.804688 214.660156 268.144531 C 214.660156 268.5 214.941406 268.785156 215.300781 268.785156 C 215.640625 268.785156 215.921875 268.5 215.921875 268.144531 Z M 215.921875 268.144531 "/>
<path fill-rule="nonzero" fill="rgb(0%, 0%, 0%)" fill-opacity="1" d="M 221.257812 268.144531 C 221.257812 267.804688 220.976562 267.519531 220.636719 267.519531 C 220.277344 267.519531 219.996094 267.804688 219.996094 268.144531 C 219.996094 268.5 220.277344 268.785156 220.636719 268.785156 C 220.976562 268.785156 221.257812 268.5 221.257812 268.144531 Z M 221.257812 268.144531 "/>
<path fill-rule="nonzero" fill="rgb(0%, 0%, 0%)" fill-opacity="1" d="M 226.609375 268.144531 C 226.609375 267.804688 226.324219 267.519531 225.984375 267.519531 C 225.628906 267.519531 225.34375 267.804688 225.34375 268.144531 C 225.34375 268.5 225.628906 268.785156 225.984375 268.785156 C 226.324219 268.785156 226.609375 268.5 226.609375 268.144531 Z M 226.609375 268.144531 "/>
<path fill-rule="nonzero" fill="rgb(0%, 0%, 0%)" fill-opacity="1" d="M 234.109375 271.140625 C 234.109375 270.351562 233.808594 269.878906 233.335938 269.878906 C 232.941406 269.878906 232.695312 270.179688 232.695312 270.519531 C 232.695312 270.839844 232.941406 271.160156 233.335938 271.160156 C 233.46875 271.160156 233.640625 271.105469 233.753906 271.011719 C 233.789062 270.972656 233.808594 270.972656 233.808594 270.972656 C 233.828125 270.972656 233.828125 270.972656 233.828125 271.140625 C 233.828125 272.046875 233.414062 272.765625 233.015625 273.160156 C 232.882812 273.292969 232.882812 273.3125 232.882812 273.347656 C 232.882812 273.441406 232.941406 273.480469 232.996094 273.480469 C 233.128906 273.480469 234.109375 272.558594 234.109375 271.140625 Z M 234.109375 271.140625 "/>
<path fill-rule="nonzero" fill="rgb(0%, 0%, 0%)" fill-opacity="1" d="M 238.34375 268.125 C 238.417969 266.332031 239.4375 266.03125 239.851562 266.03125 C 241.078125 266.03125 241.210938 267.652344 241.210938 268.125 Z M 238.34375 268.386719 L 241.699219 268.386719 C 241.964844 268.386719 242 268.386719 242 268.125 C 242 266.9375 241.339844 265.765625 239.851562 265.765625 C 238.457031 265.765625 237.34375 267.011719 237.34375 268.519531 C 237.34375 270.125 238.605469 271.292969 239.984375 271.292969 C 241.453125 271.292969 242 269.953125 242 269.726562 C 242 269.613281 241.90625 269.578125 241.832031 269.578125 C 241.738281 269.578125 241.699219 269.652344 241.679688 269.746094 C 241.265625 270.992188 240.171875 270.992188 240.058594 270.992188 C 239.457031 270.992188 238.984375 270.632812 238.699219 270.179688 C 238.34375 269.613281 238.34375 268.824219 238.34375 268.386719 Z M 238.34375 268.386719 "/>
<path fill-rule="nonzero" fill="rgb(0%, 0%, 0%)" fill-opacity="1" d="M 248.609375 263.859375 C 248.742188 263.859375 248.949219 263.859375 248.949219 263.671875 C 248.949219 263.445312 248.742188 263.445312 248.609375 263.445312 L 243.59375 263.445312 C 243.460938 263.445312 243.253906 263.445312 243.253906 263.652344 C 243.253906 263.859375 243.441406 263.859375 243.59375 263.859375 Z M 248.609375 263.859375 "/>
<path fill-rule="nonzero" fill="rgb(0%, 0%, 0%)" fill-opacity="1" d="M 251.902344 260.578125 C 251.902344 260.296875 251.675781 260.089844 251.429688 260.089844 C 251.128906 260.089844 250.941406 260.332031 250.941406 260.578125 C 250.941406 260.863281 251.183594 261.070312 251.429688 261.070312 C 251.714844 261.070312 251.902344 260.824219 251.902344 260.578125 Z M 250.582031 262.144531 L 250.582031 262.445312 C 251.203125 262.445312 251.28125 262.503906 251.28125 262.917969 L 251.28125 266.160156 C 251.28125 266.480469 251.203125 267.238281 250.636719 267.238281 C 250.621094 267.238281 250.414062 267.238281 250.222656 267.160156 C 250.242188 267.160156 250.429688 267.046875 250.429688 266.804688 C 250.429688 266.578125 250.261719 266.40625 250.035156 266.40625 C 249.789062 266.40625 249.640625 266.578125 249.640625 266.804688 C 249.640625 267.253906 250.148438 267.480469 250.65625 267.480469 C 251.335938 267.480469 251.902344 266.953125 251.902344 266.160156 L 251.902344 262.050781 Z M 250.582031 262.144531 "/>
<path fill-rule="nonzero" fill="rgb(0%, 0%, 0%)" fill-opacity="1" d="M 258.132812 261.363281 L 257.867188 261.363281 C 257.867188 261.476562 257.792969 261.855469 257.699219 261.910156 C 257.660156 261.949219 257.152344 261.949219 257.058594 261.949219 L 255.886719 261.949219 C 256.285156 261.667969 256.71875 261.328125 257.074219 261.082031 C 257.621094 260.703125 258.132812 260.363281 258.132812 259.722656 C 258.132812 258.949219 257.394531 258.535156 256.546875 258.535156 C 255.738281 258.535156 255.132812 258.988281 255.132812 259.59375 C 255.132812 259.894531 255.398438 259.949219 255.492188 259.949219 C 255.640625 259.949219 255.832031 259.835938 255.832031 259.59375 C 255.832031 259.382812 255.679688 259.253906 255.492188 259.253906 C 255.660156 258.96875 256.019531 258.800781 256.414062 258.800781 C 257 258.800781 257.492188 259.140625 257.492188 259.722656 C 257.492188 260.234375 257.132812 260.628906 256.679688 261.007812 L 255.207031 262.25 C 255.152344 262.308594 255.132812 262.308594 255.132812 262.34375 L 255.132812 262.535156 L 257.925781 262.535156 Z M 258.132812 261.363281 "/>
<path fill-rule="nonzero" fill="rgb(0%, 0%, 0%)" fill-opacity="1" d="M 262.921875 260.402344 C 263.035156 260.402344 263.089844 260.402344 263.167969 260.347656 C 263.203125 260.308594 263.261719 260.214844 263.261719 260.140625 C 263.261719 259.949219 263.089844 259.949219 262.976562 259.949219 L 260.414062 259.949219 C 260.28125 259.949219 260 259.949219 259.640625 260.234375 C 259.488281 260.382812 259.207031 260.6875 259.207031 260.761719 C 259.207031 260.855469 259.300781 260.855469 259.339844 260.855469 C 259.414062 260.855469 259.414062 260.835938 259.46875 260.78125 C 259.679688 260.535156 259.960938 260.402344 260.320312 260.402344 L 260.753906 260.402344 C 260.546875 261.15625 260.226562 261.78125 260.015625 262.15625 C 259.921875 262.308594 259.921875 262.328125 259.921875 262.382812 C 259.921875 262.515625 260.035156 262.609375 260.148438 262.609375 C 260.414062 262.609375 260.488281 262.328125 260.640625 261.835938 C 260.773438 261.363281 260.886719 260.929688 261.015625 260.402344 L 261.808594 260.402344 C 261.789062 260.496094 261.621094 261.136719 261.621094 261.628906 C 261.621094 262.042969 261.769531 262.609375 262.035156 262.609375 C 262.167969 262.609375 262.335938 262.457031 262.335938 262.308594 C 262.335938 262.230469 262.316406 262.214844 262.28125 262.136719 C 261.996094 261.683594 261.996094 261.15625 261.996094 261.042969 C 261.996094 260.835938 262.035156 260.609375 262.074219 260.402344 Z M 262.921875 260.402344 "/>
<path fill="none" stroke-width="0.409204" stroke-linecap="butt" stroke-linejoin="miter" stroke="rgb(0%, 0%, 0%)" stroke-opacity="1" stroke-miterlimit="10" d="M 254.289062 263.664062 L 264.1875 263.664062 "/>
<path fill-rule="nonzero" fill="rgb(0%, 0%, 0%)" fill-opacity="1" d="M 257.210938 266.949219 C 257.496094 267.496094 257.984375 268.476562 258.023438 268.570312 C 258.082031 268.625 258.15625 268.664062 258.175781 268.683594 C 258.269531 268.738281 258.289062 268.738281 258.417969 268.738281 L 258.550781 268.738281 C 258.664062 268.738281 258.742188 268.738281 258.742188 268.644531 C 258.742188 268.605469 258.722656 268.589844 258.703125 268.570312 C 258.628906 268.511719 258.570312 268.417969 258.53125 268.304688 L 256.761719 264.855469 C 256.648438 264.628906 256.457031 264.496094 255.890625 264.496094 C 255.761719 264.496094 255.664062 264.496094 255.664062 264.589844 C 255.664062 264.683594 255.742188 264.683594 255.816406 264.683594 C 256.0625 264.722656 256.195312 264.949219 256.289062 265.117188 L 256.570312 265.703125 C 256.683594 265.929688 256.984375 266.476562 257.082031 266.703125 L 255.15625 268.269531 C 255.117188 268.304688 255.023438 268.398438 255.023438 268.511719 C 255.023438 268.644531 255.117188 268.738281 255.25 268.738281 C 255.363281 268.738281 255.421875 268.683594 255.476562 268.625 Z M 257.210938 266.949219 "/>
<path fill-rule="nonzero" fill="rgb(0%, 0%, 0%)" fill-opacity="1" d="M 261.132812 268.886719 C 261.152344 268.789062 261.210938 268.566406 261.226562 268.46875 C 261.246094 268.375 261.285156 268.28125 261.304688 268.207031 C 261.324219 268.113281 261.511719 267.792969 261.71875 267.621094 C 261.925781 267.453125 262.113281 267.414062 262.320312 267.414062 C 262.398438 267.414062 262.679688 267.414062 262.886719 267.507812 C 262.625 267.601562 262.625 267.847656 262.625 267.867188 C 262.625 267.960938 262.699219 268.113281 262.886719 268.113281 C 263.058594 268.113281 263.265625 267.960938 263.265625 267.695312 C 263.265625 267.261719 262.625 267.207031 262.339844 267.207031 C 262.191406 267.207031 261.792969 267.207031 261.378906 267.679688 C 261.304688 267.359375 260.945312 267.207031 260.664062 267.207031 C 260.453125 267.207031 260.285156 267.300781 260.117188 267.546875 C 259.964844 267.792969 259.890625 268.113281 259.890625 268.128906 C 259.890625 268.226562 259.984375 268.226562 260.019531 268.226562 C 260.117188 268.226562 260.117188 268.207031 260.171875 268.054688 C 260.265625 267.695312 260.398438 267.414062 260.625 267.414062 C 260.832031 267.414062 260.871094 267.601562 260.871094 267.734375 C 260.871094 267.808594 260.8125 268.035156 260.777344 268.207031 C 260.738281 268.355469 260.679688 268.601562 260.644531 268.734375 L 260.511719 269.28125 C 260.472656 269.433594 260.398438 269.695312 260.398438 269.714844 C 260.398438 269.847656 260.511719 269.941406 260.625 269.941406 C 260.71875 269.941406 260.832031 269.886719 260.886719 269.773438 C 260.925781 269.734375 260.964844 269.527344 261 269.414062 Z M 261.132812 268.886719 "/>
<path fill-rule="nonzero" fill="rgb(0%, 0%, 0%)" fill-opacity="1" d="M 269.140625 262.050781 L 269.140625 262.519531 C 269.648438 262.519531 269.707031 262.519531 269.707031 262.84375 L 269.707031 264.40625 C 269.707031 265.105469 269.179688 265.425781 268.535156 265.425781 C 267.820312 265.425781 267.800781 265.238281 267.800781 264.839844 L 267.800781 261.972656 L 266.179688 262.050781 L 266.179688 262.519531 C 266.667969 262.519531 266.726562 262.519531 266.726562 262.84375 L 266.726562 264.746094 C 266.726562 265.726562 267.667969 265.820312 268.386719 265.820312 C 268.667969 265.820312 269.292969 265.820312 269.761719 265.21875 L 269.761719 265.820312 L 271.347656 265.765625 L 271.347656 265.292969 C 270.855469 265.292969 270.78125 265.292969 270.78125 264.972656 L 270.78125 261.972656 Z M 269.140625 262.050781 "/>
<path fill-rule="nonzero" fill="rgb(0%, 0%, 0%)" fill-opacity="1" d="M 273.429688 258.421875 L 273.996094 258.421875 C 274.070312 258.421875 274.128906 258.421875 274.203125 258.421875 L 275.070312 258.421875 L 275.070312 258.007812 L 271.167969 258.007812 L 271.167969 258.421875 L 272.035156 258.421875 C 272.109375 258.421875 272.183594 258.421875 272.261719 258.421875 L 272.824219 258.421875 L 272.824219 262.136719 L 273.429688 262.136719 Z M 273.429688 258.421875 "/>
<path fill-rule="nonzero" fill="rgb(0%, 0%, 0%)" fill-opacity="1" d="M 273.148438 267.679688 C 273.113281 267.851562 273.113281 267.90625 272.640625 267.90625 C 272.488281 267.90625 272.394531 267.90625 272.394531 268.078125 C 272.394531 268.171875 272.488281 268.171875 272.582031 268.171875 L 275.015625 268.171875 C 276.429688 268.171875 277.863281 267.019531 277.863281 265.699219 C 277.863281 264.699219 277.074219 264.058594 276.035156 264.058594 L 273.566406 264.058594 C 273.453125 264.058594 273.355469 264.058594 273.355469 264.230469 C 273.355469 264.324219 273.433594 264.324219 273.582031 264.324219 C 273.640625 264.324219 273.847656 264.324219 273.960938 264.359375 C 273.960938 264.4375 273.960938 264.457031 273.941406 264.511719 Z M 274.546875 264.53125 C 274.601562 264.34375 274.601562 264.324219 274.847656 264.324219 L 275.808594 264.324219 C 276.222656 264.324219 276.621094 264.4375 276.882812 264.664062 C 277.089844 264.871094 277.222656 265.117188 277.222656 265.53125 C 277.222656 265.90625 277.089844 266.679688 276.640625 267.191406 C 276.1875 267.679688 275.527344 267.90625 274.902344 267.90625 L 273.902344 267.90625 C 273.867188 267.90625 273.773438 267.90625 273.714844 267.886719 C 273.714844 267.832031 273.714844 267.8125 273.734375 267.773438 Z M 274.546875 264.53125 "/>
<path fill-rule="nonzero" fill="rgb(0%, 0%, 0%)" fill-opacity="1" d="M 282.480469 263.726562 L 283.648438 262.558594 C 283.839844 262.503906 284.066406 262.503906 284.421875 262.503906 L 284.421875 262.03125 C 284.160156 262.050781 283.875 262.070312 283.613281 262.070312 C 283.328125 262.070312 282.746094 262.03125 282.667969 262.03125 L 282.667969 262.503906 C 282.78125 262.503906 282.839844 262.519531 282.894531 262.558594 L 282.121094 263.351562 L 281.292969 262.503906 L 281.519531 262.503906 L 281.519531 262.03125 C 281.480469 262.03125 280.800781 262.070312 280.460938 262.070312 C 280.140625 262.070312 279.820312 262.050781 279.5 262.03125 L 279.5 262.503906 L 280.140625 262.503906 L 281.519531 263.9375 L 280.3125 265.160156 C 280.199219 265.257812 280.179688 265.273438 279.933594 265.292969 C 279.785156 265.292969 279.5 265.292969 279.464844 265.292969 L 279.464844 265.765625 C 279.726562 265.746094 280.011719 265.726562 280.273438 265.726562 C 280.5 265.726562 281.105469 265.765625 281.199219 265.765625 L 281.199219 265.292969 C 281.066406 265.292969 281.027344 265.273438 280.972656 265.238281 L 281.894531 264.332031 L 282.820312 265.292969 L 282.59375 265.292969 L 282.59375 265.765625 C 282.613281 265.765625 283.292969 265.726562 283.667969 265.726562 C 283.988281 265.726562 284.308594 265.746094 284.613281 265.765625 L 284.613281 265.292969 L 283.988281 265.292969 Z M 282.480469 263.726562 "/>
<path fill-rule="nonzero" fill="rgb(0%, 0%, 0%)" fill-opacity="1" d="M 287.886719 276.980469 L 285.71875 276.980469 L 285.71875 277.542969 L 288.453125 277.542969 L 288.453125 255.890625 L 285.71875 255.890625 L 285.71875 256.457031 L 287.886719 256.457031 Z M 287.886719 276.980469 "/>
<path fill="none" stroke-width="1.41732" stroke-linecap="square" stroke-linejoin="miter" stroke="rgb(0%, 0%, 0%)" stroke-opacity="1" stroke-miterlimit="4" d="M 387.351562 135.707031 C 387.351562 139.851562 383.996094 143.207031 379.851562 143.207031 C 375.710938 143.207031 372.351562 139.851562 372.351562 135.707031 C 372.351562 131.566406 375.710938 128.207031 379.851562 128.207031 C 383.996094 128.207031 387.351562 131.566406 387.351562 135.707031 Z M 387.351562 135.707031 "/>
<path fill-rule="nonzero" fill="rgb(0%, 0%, 0%)" fill-opacity="1" stroke-width="1.41732" stroke-linecap="square" stroke-linejoin="miter" stroke="rgb(0%, 0%, 0%)" stroke-opacity="1" stroke-miterlimit="4" d="M 381.726562 135.707031 C 381.726562 136.746094 380.886719 137.582031 379.851562 137.582031 C 378.816406 137.582031 377.976562 136.746094 377.976562 135.707031 C 377.976562 134.671875 378.816406 133.832031 379.851562 133.832031 C 380.886719 133.832031 381.726562 134.671875 381.726562 135.707031 Z M 381.726562 135.707031 "/>
<path fill="none" stroke-width="1.417323" stroke-linecap="butt" stroke-linejoin="miter" stroke="rgb(0%, 0%, 0%)" stroke-opacity="1" stroke-miterlimit="4" d="M 379.851562 94.457031 L 379.851562 81.707031 "/>
<path fill-rule="evenodd" fill="rgb(0%, 0%, 0%)" fill-opacity="1" stroke-width="0.944882" stroke-linecap="butt" stroke-linejoin="miter" stroke="rgb(0%, 0%, 0%)" stroke-opacity="1" stroke-miterlimit="4" d="M -77.621094 379.851562 L -83.75 383.394531 L -83.75 376.308594 Z M -77.621094 379.851562 " transform="matrix(0, -1, 1, 0, 0, 0)"/>
<path fill="none" stroke-width="1.417323" stroke-linecap="butt" stroke-linejoin="miter" stroke="rgb(0%, 0%, 0%)" stroke-opacity="1" stroke-miterlimit="4" d="M 379.851562 128.207031 L 379.851562 120.707031 "/>
<path fill-rule="evenodd" fill="rgb(0%, 0%, 0%)" fill-opacity="1" stroke-width="0.944882" stroke-linecap="butt" stroke-linejoin="miter" stroke="rgb(0%, 0%, 0%)" stroke-opacity="1" stroke-miterlimit="4" d="M -116.621094 379.851562 L -122.75 383.394531 L -122.75 376.308594 Z M -116.621094 379.851562 " transform="matrix(0, -1, 1, 0, 0, 0)"/>
<path fill-rule="nonzero" fill="rgb(27.450562%, 50.979614%, 70.587158%)" fill-opacity="1" d="M 359.335938 101.632812 C 358.824219 101.632812 357.839844 101.632812 356.601562 102.726562 C 355.796875 103.492188 354.886719 104.660156 354.886719 104.914062 C 354.886719 105.242188 355.140625 105.242188 355.398438 105.242188 C 355.761719 105.242188 355.796875 105.207031 355.980469 104.988281 C 356.890625 103.859375 358.167969 103.859375 359.515625 103.859375 C 358.714844 104.914062 357.546875 106.882812 357.546875 108.925781 C 357.546875 110.820312 358.496094 112.132812 360.210938 112.132812 C 362.140625 112.132812 364.074219 110.859375 365.496094 108.78125 C 365.679688 110.785156 366.664062 112.132812 368.519531 112.132812 C 371.765625 112.132812 374.464844 108.195312 374.464844 105.097656 C 374.464844 104.988281 374.464844 104.40625 374.355469 103.859375 C 375.265625 103.859375 375.449219 103.859375 375.777344 103.640625 C 375.921875 103.53125 376.359375 103.164062 376.359375 102.546875 C 376.359375 101.632812 375.558594 101.632812 375.121094 101.632812 Z M 373.222656 103.859375 C 373.371094 104.476562 373.371094 104.84375 373.371094 105.097656 C 373.371094 108.195312 370.746094 109.910156 368.921875 109.910156 C 367.171875 109.910156 366.734375 108.34375 366.734375 107.066406 C 366.734375 106.664062 366.808594 106.117188 366.917969 105.679688 C 366.953125 105.535156 366.953125 105.5 366.953125 105.425781 C 366.953125 105.097656 366.589844 105.097656 366.40625 105.097656 C 366.1875 105.097656 365.933594 105.097656 365.859375 105.351562 C 364.839844 108.707031 362.179688 109.910156 360.609375 109.910156 C 359.1875 109.910156 358.75 108.890625 358.75 108.160156 C 358.75 108.015625 358.75 106.519531 360.792969 103.859375 Z M 373.222656 103.859375 "/>
<path fill-rule="nonzero" fill="rgb(27.450562%, 50.979614%, 70.587158%)" fill-opacity="1" d="M 389.128906 117.53125 C 389.128906 117.457031 389.128906 117.421875 388.730469 117.019531 C 385.847656 114.101562 385.082031 109.691406 385.082031 106.117188 C 385.082031 102.070312 385.957031 98.023438 388.839844 95.144531 C 389.128906 94.851562 389.128906 94.816406 389.128906 94.742188 C 389.128906 94.5625 389.058594 94.488281 388.910156 94.488281 C 388.65625 94.488281 386.578125 96.09375 385.191406 99.046875 C 384.027344 101.597656 383.734375 104.1875 383.734375 106.117188 C 383.734375 107.941406 383.988281 110.75 385.265625 113.410156 C 386.6875 116.253906 388.65625 117.785156 388.910156 117.785156 C 389.058594 117.785156 389.128906 117.710938 389.128906 117.53125 Z M 389.128906 117.53125 "/>
<path fill-rule="nonzero" fill="rgb(27.450562%, 50.979614%, 70.587158%)" fill-opacity="1" d="M 398.535156 106.226562 L 401.234375 103.203125 C 401.5625 102.875 401.707031 102.726562 403.605469 102.726562 L 403.605469 101.632812 C 402.800781 101.671875 401.597656 101.707031 401.488281 101.707031 C 400.90625 101.707031 399.738281 101.632812 399.082031 101.632812 L 399.082031 102.726562 C 399.410156 102.726562 399.703125 102.765625 399.957031 102.910156 C 399.886719 103.054688 399.886719 103.128906 399.777344 103.203125 L 397.84375 105.390625 L 395.546875 102.726562 L 396.496094 102.726562 L 396.496094 101.632812 C 395.875 101.632812 394.417969 101.707031 393.652344 101.707031 C 392.921875 101.707031 391.863281 101.632812 391.097656 101.632812 L 391.097656 102.726562 L 392.777344 102.726562 L 396.386719 106.992188 L 393.324219 110.421875 C 392.957031 110.859375 392.121094 110.859375 390.988281 110.859375 L 390.988281 111.953125 C 391.792969 111.914062 393.03125 111.878906 393.140625 111.878906 C 393.722656 111.878906 395.074219 111.914062 395.511719 111.953125 L 395.511719 110.859375 C 395.109375 110.859375 394.671875 110.75 394.671875 110.601562 C 394.671875 110.566406 394.671875 110.566406 394.816406 110.382812 L 397.078125 107.832031 L 399.628906 110.859375 L 398.71875 110.859375 L 398.71875 111.953125 C 399.339844 111.914062 400.761719 111.878906 401.527344 111.878906 C 402.253906 111.878906 403.3125 111.914062 404.078125 111.953125 L 404.078125 110.859375 L 402.4375 110.859375 Z M 398.535156 106.226562 "/>
<path fill-rule="nonzero" fill="rgb(27.450562%, 50.979614%, 70.587158%)" fill-opacity="1" d="M 411.296875 106.117188 C 411.296875 104.332031 411.042969 101.523438 409.765625 98.863281 C 408.378906 96.019531 406.375 94.488281 406.15625 94.488281 C 406.011719 94.488281 405.902344 94.597656 405.902344 94.742188 C 405.902344 94.816406 405.902344 94.851562 406.339844 95.289062 C 408.636719 97.585938 409.949219 101.269531 409.949219 106.117188 C 409.949219 110.128906 409.109375 114.210938 406.230469 117.128906 C 405.902344 117.421875 405.902344 117.457031 405.902344 117.53125 C 405.902344 117.675781 406.011719 117.785156 406.15625 117.785156 C 406.375 117.785156 408.488281 116.179688 409.839844 113.226562 C 411.042969 110.675781 411.296875 108.085938 411.296875 106.117188 Z M 411.296875 106.117188 "/>
</svg>
